<svg id="Layer_1" data-name="Layer 1" xmlns="http://www.w3.org/2000/svg" viewBox="0 0 100 100"><defs><style>.cls-1{fill:#735d47;}</style></defs><title>embellishments</title><path class="cls-1" d="M82,51.7,69,50.15a18.37,18.37,0,0,0-4.11-9.48L74,28.32,61.9,37.79A18.06,18.06,0,0,0,52.33,34l-1.9-13L50.28,7.36,52.53,10,49.78,1l-2.54,9.1,2.23-2.67.2,15.31L48.3,34.09a18.44,18.44,0,0,0-9.59,4.05l.78.55a19.38,19.38,0,0,1,3.95-2.38l-.1-.29.45,1.63a17.9,17.9,0,0,0-3.18,1.89L26.47,29,35.84,41a18.11,18.11,0,0,0-4,9.74l.93-.14A17.72,17.72,0,0,1,34,46l1.24.68a19,19,0,0,0-.95,3.64L19.1,52.56,4,52.76l0,.81,16.8-.2L32,54.73a18.69,18.69,0,0,0,4.16,9.77l-9,12.07,11.81-9.31a18.59,18.59,0,0,0,9.86,3.9l1.63,11.11.2,16.8.81,0-.21-15.14,1.63-13.68-.09.86a18.86,18.86,0,0,0,9.66-4.22l-.62-.43,12.8,9.48-9.42-12A18.38,18.38,0,0,0,69,54.23l11.34-1.68,16.57-.21,0-.81ZM66.72,45.46l.29-.1-.24.16A19,19,0,0,1,68,50l-7.27-.86,4.12-2.43a14,14,0,0,1,.86,3l.8.09a14.75,14.75,0,0,0-1-3.55l-.41.21L67,45.35l-7.21,2,3.28-4.47-.24.28A17.39,17.39,0,0,1,64.51,46l.76-.2a17.08,17.08,0,0,0-1.94-3.3l.85-1.17A18.28,18.28,0,0,1,66.72,45.46Zm-3.15,6.89,1,0c.33.36,1.27,1.43,1.65,1.85l-.52.09h0S64,52.77,63.57,52.35Zm-1,0,1,0c.33.36,1.32,1.49,1.76,2l-.46.1h0C64.76,54.35,63,52.85,62.54,52.37Zm-1,0,1,0c.33.36,1.43,1.61,1.87,2.09l-.46,0h0S62,52.87,61.5,52.39Zm-1,0,1,0c.33.42,1.54,1.67,2,2.21l-.46,0h0S61,52.88,60.52,52.4Zm-1,0,1,0c.39.42,1.6,1.79,2.09,2.33l-.4,0h0C62.1,54.77,60,52.9,59.49,52.42Zm-1,0,1,0c.39.42,1.71,1.91,2.2,2.45l-.4,0v-.06Zm-3.05.05,1,0c.39.42,2,2.21,2.54,2.8l-.35,0v-.06S56,53,55.4,52.49Zm-1,0,1,0c.38.48,2,2.27,2.59,2.92l-.35,0V55.4C57.65,55.34,55,53.05,54.42,52.51Zm-1,0,1,0c.44.48,2.15,2.39,2.7,3l-.35,0v-.06C56.78,55.48,54,53.07,53.39,52.53Zm-1,0,1,0c.44.48,2.2,2.45,2.81,3.16l-.29,0v-.06C55.85,55.61,53,53.09,52.35,52.54Zm-1,0,1,0c.44.48,2.31,2.56,2.92,3.28l-.29,0v-.06C55,55.75,52,53.1,51.37,52.56Zm12-10.68-.3.39-2.65.18.72-.72C61.58,41.75,62.9,41.86,63.41,41.88Zm-2.24-.15.72-.72c.4,0,1.61.06,2.12.14l-.31.45C63.54,41.59,61.69,41.69,61.17,41.73Zm1.69.87-.3.39h0l-2.88.17.72-.72C60.86,42.52,62.29,42.58,62.87,42.6Zm-.55.73-.3.39h0l-3,.17.72-.72C60.19,43.25,61.74,43.31,62.32,43.33Zm-.55.73-.3.39h0c-.06,0-2.54.13-3.17.22l.72-.72Zm-.55.78-.24.34h0c-.06,0-2.65.18-3.34.21l.72-.72C58.81,44.69,60.59,44.76,61.22,44.84Zm-.55.73-.24.34h0c-.06,0-2.83.18-3.52.21l.72-.72C58.1,45.41,60,45.54,60.68,45.57Zm-.55.73-.24.34h0c-.06,0-2.94.17-3.69.26l.72-.72C57.43,46.13,59.39,46.26,60.13,46.29Zm-.55.73-.24.34V47.3c-.06,0-3.11.16-3.86.25l.72-.72C56.72,46.85,58.84,47,59.59,47Zm5.49-.76-4.77,2.86-1.43-.17Zm-6,1.49L58.8,48a.06.06,0,0,0-.06-.06c-.06,0-3.29.22-4,.24l.72-.72C56.05,47.63,58.24,47.71,59,47.74Zm-.55.78-.24.28a.06.06,0,0,0-.06-.06,2.93,2.93,0,0,0-.52,0l-3.09-.35.12-.11C55.33,48.35,57.69,48.44,58.49,48.53Zm-4.66-4.38v-.06l2.55-6.34L55,43.27Zm2.61,8.33,1,0c.39.42,1.87,2.09,2.43,2.68l-.35,0v-.06C59.44,55.12,57,53,56.44,52.47Zm8.74,5.92L59.88,57,59,55.91Zm-7.7-5.94,1,0c.39.42,1.76,2,2.31,2.56l-.4,0V55C60.31,55,58,52.94,57.47,52.46Zm7.08-.07,1,0c.28.3,1.16,1.31,1.54,1.73l-.52.09A20.15,20.15,0,0,0,64.55,52.39Zm1,0,1,0c.28.3,1.1,1.19,1.43,1.61l-.52.09C67.37,53.94,66,52.73,65.59,52.37Zm5.66-21-.12.17h-.06Zm-.18.17h0l-.49.67h-.23Zm-.72.78h.23l-.49.67a1,1,0,0,0-.4,0Zm-.72.72H70l-.49.67c-.11,0-.4,0-.58,0Zm-.72.72.52,0-.48.61c-.17,0-.52,0-.75,0Zm-.66.72.69,0-.48.61a5.73,5.73,0,0,0-.92.08Zm-.72.72.86,0-.43.62a7.85,7.85,0,0,0-1.1.07Zm-.72.72,1,0-.42.56c-.23,0-.92.08-1.27.07Zm-.72.72,1.15,0-.42.56c-.23,0-1.1.07-1.44.12Zm-.72.78,1.32.05-.42.56c-.23,0-1.21.07-1.61.11Zm-.72.72,1.49.06-.36.5c-.23,0-1.38.06-1.79.1Zm-.66.72,1.67.07-.36.5c-.23,0-1.5.11-2,.15Zm-.72.72,1.84.07-.36.5c-.23,0-1.67.11-2.13.15Zm-.72.72c.4,0,1.49.06,2,.13l-.36.45c-.17,0-1.79.1-2.31.14ZM61.19,38.4l.65-.55L55.26,43l1.23-4.84a17.57,17.57,0,0,1,2.87,1.61l.65-.49a14.49,14.49,0,0,0-3.32-1.86l.41-1.65L57,36A16.55,16.55,0,0,1,61.19,38.4Zm-8.72-3.51A17.3,17.3,0,0,1,57,36l-3.46,6.13-.86-5.79.14.81a13.56,13.56,0,0,1,3.07.81l.37-.73a15,15,0,0,0-3.59-.89l-.27-1.91ZM49.86,6.37l0-.52,0-.52,0-.52,0-.52,0-.52,0-.52,0-.52,0-.52,0-.52.2.7L50,2.18l.22.24h0l.2.64-.39-.42.44.54h0l.2.64-.61-.66.6.77h0l.15.58-.77-.84.82,1h0l.15.52-1-1.07,1,1.31h0l.15.47C50.87,5.55,50,4.65,50,4.65L51.3,6.2h0l.1.41L50,5.11s1.43,1.78,1.48,1.78h0l.1.41c-.5-.54-1.6-1.67-1.6-1.67l1.7,2.08h0l.1.35A10.64,10.64,0,0,1,49.86,6.37Zm.21,16.52.14.81c-.06.06-.06.11-.12.11Zm0,.92.12-.11.14.87c-.06.11-.18.22-.24.22Zm0,1,.24-.22.14.81c-.12.11-.3.33-.36.39Zm0,1,.36-.33.14.81a4.7,4.7,0,0,1-.48.5Zm0,1,.48-.44.14.81a3.5,3.5,0,0,0-.54.67Zm0,1,.6-.55.09.75c-.18.22-.6.72-.66.78Zm0,1,.72-.66L51,29c-.18.22-.72.83-.78.89Zm0,1c.06-.06.54-.5.83-.71l.09.69c-.18.22-.84,1-.9,1.06Zm0,1c.06-.06.66-.61,1-.83l.09.69c-.24.28-1,1.11-1,1.17Zm0,1c.06-.06.72-.66,1.07-.94l.09.64c-.24.28-1.08,1.22-1.15,1.34Zm0,1c.06-.06.84-.77,1.19-1l.09.64c-.24.28-1.21,1.39-1.26,1.45Zm0,1c.06-.06,1-.83,1.31-1.16l.09.64c-.18.22-1.32,1.5-1.38,1.56Zm0,1c.06-.06,1-.94,1.43-1.27l.09.58c-.18.22-1.44,1.61-1.51,1.72Zm0,1c.06-.06,1.13-1,1.55-1.38l.09.58c-.18.22-1.57,1.78-1.63,1.83Zm0,1c.06-.06,1.19-1.1,1.67-1.49l.09.52c-.24.22-1.63,1.83-1.74,1.94Zm0,1c.12-.11,1.31-1.16,1.79-1.6l.09.52c-.18.22-1.74,1.94-1.87,2.11Zm0,1c.12-.11,1.43-1.27,1.91-1.71l.09.52c-.18.17-1.81,2.06-2,2.22Zm0,1c.12-.11,1.49-1.32,2-1.82l.1.46c-.12.17-1.93,2.22-2.11,2.39Zm0,1c.12-.11,1.61-1.43,2.15-1.93l0,.46c-.06.11-2,2.34-2.23,2.5Zm0,1c.12-.11,1.67-1.49,2.27-2l0,.4c-.06.06-2.17,2.45-2.29,2.61Zm0,1c.12-.11,1.79-1.6,2.39-2.15l0,.4h0S50.5,44,50.38,44.18Zm0,1c.12-.11,1.85-1.71,2.51-2.26l0,.4h0S50.52,45,50.4,45.16Zm0,1c.12-.11,2-1.76,2.62-2.37l0,.35h0c0,.06-2.53,2.83-2.65,3Zm0,1c.12-.11,2.09-1.87,2.74-2.48l0,.35h0c0,.06-2.65,2.94-2.77,3.11Zm0,1c.12-.11,2.15-1.93,2.86-2.59l0,.35h-.06c-.06.06-2.71,3.11-2.89,3.28Zm0,1c.12-.11,2.27-2,3-2.7l0,.29h-.06c-.06.06-2.83,3.22-3,3.39Zm0,1c.12-.11,2.38-2.09,3.1-2.81l0,.29H53.5c-.06.06-3,3.34-3.07,3.5Zm0,1c.12-.11,2.45-2.2,3.22-2.92l0,.29h-.06c-.06.06-3.07,3.5-3.19,3.61Zm0,1c.12-.11,2.56-2.26,3.34-3l0,.29h-.06c-.06.06-3.19,3.61-3.31,3.78Zm-7-15.06a15.7,15.7,0,0,1,4.71-1.25l.09-.92-.34,2.69v-.34a13.55,13.55,0,0,0-3.78,1.06l.43.71a16.16,16.16,0,0,1,3.26-.91l-.67,5.32Zm3.24,11.17-.16,1.14h-.11L46,48.09c0-.17.17-2.75.2-3.67l.28.18h0C46.51,44.66,46.62,46.16,46.69,47.37Zm-2.5-9.47,3,5.07L47,44.28l-.23-.12ZM46,48.09l-.72-.72c0-.17.16-2.64.2-3.5l.28.24h0S46,47.86,46,48.09Zm-2-9.74-.2-.76,1.46,5.29-4-3A29.62,29.62,0,0,1,44,38.35Zm1.31,9-.72-.72c0-.17.16-2.52.19-3.39l.34.24h0C45.05,43.57,45.31,47.2,45.31,47.38Zm-.72-.66L43.86,46c0-.17.15-2.41.18-3.21l.34.24h0C44.33,43,44.59,46.48,44.58,46.71ZM43.86,46l-.72-.72c0-.17.15-2.24.18-3l.34.24C43.66,42.54,43.82,45.76,43.86,46Zm-.72-.72-.72-.72c0-.17.14-2.12.17-2.87l.34.24C42.93,42,43.1,45,43.15,45.28Zm-1.5-1.44c0-.17.14-2,.16-2.7l.39.3c0,.17.17,2.94.22,3.17Zm.66,5.26-.23,0-6.4-2.55L41.48,48Zm-1.22-8.5.39.3c0,.23.18,2.77.17,3l-.72-.72C40.93,43,41.06,41.28,41.09,40.59ZM40.36,40l.45.31c0,.29.19,2.6.18,2.77l-.72-.72C40.21,42.29,40.34,40.68,40.36,40Zm-.73-.55.45.31c0,.35.13,2.42.19,2.6l-.72-.72A13.51,13.51,0,0,1,39.63,39.5ZM38.85,39l.45.36c0,.35.14,2.25.13,2.42L38.71,41A20.39,20.39,0,0,0,38.85,39Zm-.73-.55.5.36c0,.35.15,2.08.14,2.25L38,40.3Zm-.73-.55.5.36c0,.35.1,1.9.15,2.08l-.72-.72Zm-.73-.55.5.36c0,.35.1,1.73.1,1.9l-.72-.72C36.55,38.8,36.65,37.77,36.67,37.31Zm-.73-.55.56.42c0,.35.11,1.61.1,1.73l-.72-.72A11.72,11.72,0,0,1,35.94,36.77Zm-6.59-4.92.61.48v.17Zm.66.66v-.17l.67.54c0,.11,0,.29,0,.35Zm.72.72v-.29l.67.49c0,.17,0,.46,0,.52Zm.72.72,0-.46.67.49c0,.23,0,.63,0,.69Zm.78.66,0-.63.61.48a3.48,3.48,0,0,0,.08.87Zm.72.72,0-.8.61.48c0,.29.08.92.07,1Zm.72.72,0-1,.62.43c0,.29.07,1.1.07,1.21Zm.72.72,0-1.09.56.42c0,.29.07,1.27.06,1.38Zm.72.72,0-1.26.56.42c0,.35.12,1.44.11,1.56Zm-1.42,8.34.28.07a17.63,17.63,0,0,1,2.47-4.27l-.33-.42,1.26,1.6a16.09,16.09,0,0,0-2,3.49l.8.2a15.9,15.9,0,0,1,1.73-3l3.4,4.33Zm2.19,1.24-.56-.31,4.78,2.66-5,.72A15.05,15.05,0,0,1,35.88,47.06ZM20.82,52.85l1-.13h0l.87-.14a.83.83,0,0,0,.17.12l-.11-.12.87-.14a2.25,2.25,0,0,0,.28.24l-.22-.24.81-.14a2.88,2.88,0,0,0,.45.36l-.33-.36.81-.14c.22.18.56.48.56.48l-.44-.48.81-.14.67.6-.55-.6.75-.09.83.72L27.35,52l.75-.09.94.84-.77-.84.69-.09,1.06,1-.88-1,.69-.09c.39.3,1.22,1.08,1.22,1.08s-.6-.71-1-1.13l.64-.09L32,52.78s-.72-.78-1.1-1.25l.64-.09c.39.36,1.5,1.32,1.5,1.32s-.77-.89-1.21-1.37l.64-.09c.45.36,1.61,1.44,1.61,1.44s-.88-1-1.32-1.49l.58-.09c.45.36,1.72,1.56,1.72,1.56s-.94-1.07-1.43-1.61l.58-.09c.44.42,1.89,1.63,1.89,1.63s-1-1.13-1.54-1.73l.52-.09c.44.42,2,1.75,2,1.75s-1.1-1.25-1.65-1.85l.52-.09c.5.42,2.11,1.87,2.11,1.87s-1.21-1.31-1.76-2l.46-.1c.5.42,2.28,2,2.28,2S37.8,51,37.19,50.33l.46-.1c.5.42,2.39,2.11,2.39,2.11s-1.38-1.49-2-2.21l.46,0c.5.42,2.56,2.23,2.56,2.23S39.65,50.72,39,50l.4,0c.5.42,2.67,2.35,2.67,2.35s-1.54-1.67-2.2-2.45l.4,0c.5.42,2.78,2.47,2.78,2.47s-1.6-1.79-2.26-2.56l.35,0c.5.42,2.95,2.59,2.95,2.59s-1.71-1.91-2.37-2.68l.35,0c.5.42,3.06,2.71,3.06,2.71s-1.76-2-2.48-2.8l.35,0c.5.42,3.22,2.83,3.22,2.83s-1.87-2.09-2.59-2.92l.29,0c.5.42,3.34,3,3.34,3s-1.93-2.15-2.7-3l.29,0c.5.42,3.45,3.07,3.45,3.07s-2-2.27-2.81-3.16l.23,0c.44.42,3.61,3.19,3.61,3.19s-2.09-2.33-2.92-3.28l.23,0c.33.3,1.89,1.69,2.89,2.53l.89.84h-.06l-.06-.06.06.06Zm15,5.94,5.12-3,1.49.17-.06.06Zm5.28-1.23L38,61.75a15.85,15.85,0,0,1-1.73-2.89l-.35.1Zm-7,2-.29.1.24-.16a18.37,18.37,0,0,1-1.31-4.71l-.51-.08,8.13,1L35.9,58.28A15.55,15.55,0,0,1,35,55l-.8-.09a14.6,14.6,0,0,0,1.06,3.84l-1.47.86,1.63-.45a17.35,17.35,0,0,0,2,3.3l.43-.62L36.5,63.54A19.92,19.92,0,0,1,34.13,59.53ZM29.89,73.75l.61-.78h0l.55-.73h.06l.49-.67a2,2,0,0,0,.4,0h-.34l.49-.67a4.44,4.44,0,0,0,.58,0l-.52,0,.49-.67a4.87,4.87,0,0,1,.75,0l-.69,0,.48-.61c.35,0,.92-.08.92-.08l-.86,0,.43-.62c.4,0,1.1-.07,1.1-.07l-1,0,.43-.62c.4,0,1.27-.07,1.27-.07l-1.15,0,.42-.56,1.44-.12-1.32-.05.42-.56L37,66.49l-1.49-.06.42-.56,1.79-.1L36,65.7l.36-.5c.58,0,2-.15,2-.15L36.56,65l.36-.5,2.13-.15s-1.32-.05-2-.13l.36-.5,2.31-.14s-1.44-.06-2.12-.14L38,63l2.48-.13s-1.55-.06-2.3-.15l.31-.45c.63,0,2.65-.18,2.65-.18S39.5,62,38.69,61.9l.3-.39,2.83-.18s-1.78-.07-2.58-.16l.3-.39,3-.17s-1.89-.13-2.75-.17l.3-.39c.63,0,3.17-.22,3.17-.22s-2-.14-2.93-.17l.24-.34,3.4-.21s-2.18-.14-3.1-.18l.24-.34,3.57-.2s-2.3-.15-3.27-.19l.24-.34c.63,0,3.75-.25,3.75-.25S43,57.47,42,57.43l.24-.28,3.92-.25s-2.52-.16-3.56-.2l.18-.28c.4,0,1.67-.11,2.71-.18l1.2.16v.11ZM46,61.67l1.19-.93-2.62,6.51Zm-1.58,5.17a20.72,20.72,0,0,1-2.93-1.61L45.59,62Zm4.3,3.33A19.47,19.47,0,0,1,43.88,69l-.13.28.07-.28a17.53,17.53,0,0,1-4.16-2.35l1.13-.88a17.77,17.77,0,0,0,3.38,1.92l.13-.45-.54,2.11,3.77-6.7,1.13,7.87ZM50.78,82.1V82h0l-.14-.87.12-.11-.12.11-.14-.87a2.25,2.25,0,0,0,.24-.28l-.24.22-.14-.81a3.44,3.44,0,0,1,.36-.39l-.36.33-.14-.81a6.3,6.3,0,0,0,.48-.56l-.48.44-.14-.81c.18-.22.6-.67.6-.67l-.6.55L50,76.72c.18-.22.72-.78.72-.78l-.72.66-.09-.75c.18-.22.84-.94.84-.94l-.84.77L49.85,75c.24-.22,1-1.06,1-1.06l-1,.88-.09-.69,1-1.17s-.77.66-1.07,1l-.09-.64L50.78,72l-1.19,1.1-.09-.64L50.76,71s-1,.83-1.31,1.21l-.09-.64c.18-.22,1.39-1.61,1.39-1.61l-1.43,1.32-.09-.58c.18-.22,1.51-1.72,1.51-1.72s-1.13,1-1.55,1.38l-.09-.58c.18-.17,1.63-1.83,1.63-1.83s-1.19,1.1-1.67,1.49l-.09-.52c.24-.22,1.75-2,1.75-2s-1.31,1.16-1.79,1.6L48.81,68c.18-.22,1.87-2.11,1.87-2.11s-1.37,1.27-1.91,1.71l-.09-.52c.18-.17,2-2.22,2-2.22s-1.49,1.32-2,1.82l-.1-.46c.12-.11,2.11-2.39,2.11-2.39S49,65.24,48.49,65.74l0-.46c.06-.06,2.23-2.5,2.23-2.5s-1.67,1.49-2.27,2l0-.4,2.35-2.67s-1.79,1.6-2.39,2.15l0-.4h0c0-.06,2.47-2.78,2.47-2.78S48.91,62.36,48.26,63l0-.4h0l2.53-2.89s-2,1.76-2.62,2.37l0-.35h0c0-.06,2.65-3,2.65-3S48.64,60.56,48,61.17l0-.35h0c0-.06,2.77-3.17,2.77-3.17s-2.15,1.93-2.86,2.59l0-.35h.06c0-.06,2.89-3.28,2.89-3.28s-2.27,2-3,2.7l0-.35h.06c.06-.06,3-3.39,3-3.39s-2.33,2.09-3.1,2.81l0-.29h.06c.06-.06,3.13-3.5,3.13-3.5s-2.45,2.2-3.22,2.92l0-.29h.06c.06-.06,3.25-3.67,3.25-3.67s-2.56,2.26-3.34,3l0-.29h.06s1.38-1.56,2.35-2.67l1-1.05h0ZM50.46,52.3c.06-.06.54-.44,1.07-1l-1.08,1.11Zm1.88,2-1.77-1.74.81,0c.44.48,2.37,2.68,3,3.4l-.29,0v-.06S53.23,55.11,52.34,54.27Zm4.32,12.88L53.8,62.38,54,60.89Zm-3.74,2.9.86-7.33,2.48,4.12a19,19,0,0,1-3.08.91l-.09.8a15.19,15.19,0,0,0,3.61-1l-.27-.41,1,1.65A16.64,16.64,0,0,1,52.93,70.05Zm4.64-1-2.12-7.5,6.2,4.62a18.19,18.19,0,0,1-4.19,2.6Zm14.16,4.18-.11-.06-.73-.55v0l-.67-.54a1.25,1.25,0,0,0,0-.35v.34l-.67-.49a4.46,4.46,0,0,0,0-.52l0,.46-.67-.49c0-.23,0-.69,0-.69l0,.63-.61-.48a6.25,6.25,0,0,0-.08-.87l0,.8L67.37,70c0-.29-.07-1-.07-1l0,1-.62-.43c0-.29-.07-1.21-.07-1.21l0,1.15L66,69c0-.35-.06-1.38-.06-1.38L65.85,69l-.56-.42c0-.35-.11-1.61-.11-1.61l-.06,1.44-.56-.42c0-.35-.1-1.79-.1-1.79l-.06,1.61-.5-.36c0-.35-.1-2-.1-2l-.07,1.78-.5-.36c0-.35-.15-2.13-.15-2.13s-.05,1.38-.13,2l-.5-.36c0-.35-.14-2.31-.14-2.31s-.06,1.49-.14,2.12l-.45-.36c0-.35-.13-2.48-.13-2.48s-.06,1.61-.15,2.24L61,65.19c0-.35-.18-2.65-.18-2.65s-.07,1.72-.15,2.41l-.45-.31c0-.29-.18-2.83-.18-2.83s-.07,1.9-.16,2.58l-.39-.3c0-.23-.17-3-.17-3s-.14,2-.17,2.75l-.39-.3c0-.17-.22-3.17-.22-3.17s-.14,2.12-.17,2.93L58,63.06c0-.11-.21-3.34-.21-3.34s-.15,2.24-.18,3l-.34-.24c0-.06-.21-3.52-.21-3.52s-.15,2.41-.18,3.21L56.58,62h0c0-.06-.26-3.69-.26-3.69s-.16,2.52-.19,3.39l-.34-.24h0c0-.06-.25-3.86-.25-3.86s-.16,2.64-.2,3.56l-.28-.24h0c0-.06-.24-4-.24-4s-.17,2.75-.2,3.73l-.28-.18h0s-.08-.92-.1-1.9l.25-1.95Zm-3.62-19A18.51,18.51,0,0,1,66.93,59l.28.13-.28-.07a16.25,16.25,0,0,1-2.29,4l-1.2-1.54.33.42a14.67,14.67,0,0,0,1.79-3.21l-.8-.2a16.23,16.23,0,0,1-1.55,2.76l-3.07-3.92,7,1.77L65.7,58.3a17,17,0,0,0,1-3.82l-.81.14a16.36,16.36,0,0,1-.82,3.3l-4.5-2.54,8.22-1.23Zm.25-.45c-.11-.06-1.33-1.2-1.78-1.57l1,0c.28.3,1,1.13,1.32,1.49Zm.87-.14c-.11-.12-1.22-1.08-1.61-1.44l1,0c.28.3.94,1,1.21,1.37Zm.92-.08c-.11-.12-1.11-1-1.5-1.32l1,0c.22.24.83,1,1.1,1.25Zm.87-.14c-.17-.12-1-.9-1.33-1.2l1,0c.22.24.77.84,1,1.13Zm.87-.14c-.17-.12-.94-.84-1.22-1.08l1,0c.22.24.66.72.88,1Zm.87-.14c-.17-.12-.83-.72-1.11-1l1,0c.17.18.55.65.77.89Zm.93-.14c-.17-.18-.72-.6-.94-.84l1,0a8.84,8.84,0,0,1,.66.77Zm.87-.14c-.17-.12-.61-.54-.83-.72l1,0c.17.18.38.48.55.65Zm.87-.14a6.09,6.09,0,0,1-.67-.6l1,0a4.18,4.18,0,0,1,.44.54Zm.92-.08a5,5,0,0,0-.56-.48l1,0a2.15,2.15,0,0,1,.33.42Zm.87-.14a3.19,3.19,0,0,0-.45-.36l1,0a1.25,1.25,0,0,1,.22.3Zm.87-.14c-.06-.06-.22-.18-.28-.24l1,0c.06.06.11.12.11.18Zm.87-.14c-.06-.06-.11-.12-.17-.12l1,0,.06.06Zm.93-.14h0l.23,0Zm-20,12.67a13.83,13.83,0,0,1-2.95,1.78l.2.76a14.14,14.14,0,0,0,3.42-2.11ZM44.62,67.77a17.48,17.48,0,0,0,3.87,1l-.14-.81A16.9,16.9,0,0,1,45,67.09Z"/></svg>