<svg id="Layer_1" data-name="Layer 1" xmlns="http://www.w3.org/2000/svg" viewBox="0 0 100 100"><defs><style>.cls-1{opacity:0.71;}.cls-2,.cls-3{fill:#735d47;}.cls-3{stroke:#735d47;stroke-width:0.38px;}</style></defs><title>embellishments</title><g class="cls-1"><path class="cls-2" d="M18.07,14.66a15.52,15.52,0,0,0-.4,2.1c-.2,4.9,2.7,8.2,6.5,10.5a4.48,4.48,0,0,0-4.6,3.4,10.92,10.92,0,0,0-.4,3.4l.5.1c1.6-3.3,3.5-3.7,5.4-3.2a12.71,12.71,0,0,1,5.3,4.1c2.3,2.8,1.4,8.7,1,10.3h0c-.2.8-2.6,5.5-3.3,7.3-.2.4-.3.9-.5,1.4a21.62,21.62,0,0,0-.4,9.8c.4,2.4,1.6,6.5,6.2,11h0c-.2-.1-.3-.1-.5-.2h-.1l-.1.1c0,1.3,1.4,2.2,2.8,2.7l1.3.3c.3.2.6.5.9.7a3.32,3.32,0,0,1-3.1.8c-.1,0-.1,0-.2.1v.2a3.07,3.07,0,0,0,1.5,1,7.81,7.81,0,0,0,3.7.1c.1.3.2.5.1.7a1.29,1.29,0,0,1-1.2.9c-.1,0-.1,0-.1.1v.2a.91.91,0,0,0,.7.3h0c1.2.3,2.5-.3,3.9-1.2a80,80,0,0,0,13.6,5.4h.1c1.1.3,2.2.6,3.3,1a20.54,20.54,0,0,0,13.6-.6,12.18,12.18,0,0,0,4.5-3.3,6.63,6.63,0,0,0,3.5,2.5c1.7.5,3.6.4,4.7-1.3a3.55,3.55,0,0,0,.4-.9c.8-2.7-1-6.3-1.7-7.4V77a7.05,7.05,0,0,0,1.9-3.4c.8-2.6.7-5.7-1.4-6.4a4.67,4.67,0,0,0-3.2.7c-1.4-2.4-3.2-5.3-6.7-6.4a4.67,4.67,0,0,0-1.7-.3,9.45,9.45,0,0,0-4.4-2.5,9.29,9.29,0,0,0-2.9-.5c-1.2-.1-5.8,1.2-8.7.3a3.54,3.54,0,0,1-1.6-.9,10,10,0,0,1-1.6-2,3.34,3.34,0,0,1-.4-2.5,3.77,3.77,0,0,1,3.1-2.4,5,5,0,0,1,2.1.2,10.09,10.09,0,0,1,1.5.7l.3.2.1-.4c.6-2.2-1.6-4-3.6-4.6a4.71,4.71,0,0,0-2-.2c-3.5.6-5.2,2.6-5.8,4.5a6.24,6.24,0,0,0,.1,4.1c-1.5-.6-2.3-3-1.8-4.8l.2-.6-.6.3a3.85,3.85,0,0,0-1.7,2.4,5.48,5.48,0,0,0-.1,3.1,5.22,5.22,0,0,1-.4-4.3c0-.1,0-.2.1-.2l.2-.5-.5.1a3.62,3.62,0,0,0-2.5,2.7,11.47,11.47,0,0,0-.2,4.5c-1.7-1.6-4-4.3-3.8-7.7.1-2.7.2-5.3.2-8a19.68,19.68,0,0,0-1.8-8.3,20,20,0,0,0-5.3-6.9c-1.9-1.8-3.9-3.9-4-6.5a5.9,5.9,0,0,1,.2-1.4,7.9,7.9,0,0,1,2-3l.2-.3-.3-.2-.6-.3a3.86,3.86,0,0,0-4.6,2.8,3.62,3.62,0,0,1-1.6-4.3c.4-1.3,1.6-2.7,4-3.7l.7-.3-.7-.2h-.1C23.27,8.06,19.27,10.66,18.07,14.66Zm28.7,38v-.2c0-.1,0-.1.1-.2C47.07,52.56,47,52.56,46.77,52.66Zm13.5-3,.4.1a.59.59,0,0,1-.1.7c-.1-.1-.3-.1-.4-.2A1.45,1.45,0,0,0,60.27,49.66ZM59,48.56c.6.7-.7.5-.8,1.4h-.4C57.47,49.46,58.67,48.76,59,48.56Zm-36.9-35.5c-.2-.4.6-1,.7-.4S22.27,13.46,22.07,13.06Zm.1,3.6c-.2-.4.6-1,.7-.4S22.37,17.06,22.17,16.66Zm-.3,1.1c.2-.1.5.2.5.3C22.37,18.86,21.27,18.06,21.87,17.76Zm-.7,2.2c-.2-.4.6-1,.7-.4S21.37,20.36,21.17,20Zm.8,1.6c0,.3-.5.7-.8.2S22,21.06,22,21.56Zm.9-2.9c.2-.1.5.2.5.3C23.37,19.76,22.27,19,22.87,18.66Zm1.2-.2c.2-.1.5.2.5.3C24.57,19.56,23.47,18.76,24.07,18.46Zm-1.5,3.1c.4-1,1.7-.4,1.7-1.9l.5.2C24.57,21.26,23.47,21.36,22.57,21.56Zm.9.8a1.22,1.22,0,0,1-1.4.7A1.51,1.51,0,0,1,23.47,22.36Zm2.7-2.6c0,.3-.5.7-.8.2S26.07,19.26,26.17,19.76Zm-.5,1.6c-.2-.4.6-1,.7-.4S25.87,21.66,25.67,21.36Zm1-1.6c.2-.1.5.2.5.3C27.27,20.86,26.07,20.06,26.67,19.76Zm1.5-2a6.88,6.88,0,0,0-.3.8c-.5.1-.8.8-1.5.6.2-.7.4-.3.8-.8.2-.2.4.1.6,0s.1-.6.2-.7A.31.31,0,0,1,28.17,17.76Zm-1.1,4.6c.1.3-.2,1.1-.6,1C25.77,23.06,26.77,21.86,27.07,22.36Zm.8-.4a.79.79,0,0,1-.5.5c-.6-.2,0-1.1.4-1.2A2,2,0,0,0,27.87,22Zm.6,1.3a.75.75,0,0,1-.5-.1c-.1-.2,0-.3.2-.4A2.19,2.19,0,0,0,28.47,23.26Zm1.4,2c-.3.2-1.3-.2-.5-.5h.1A2.18,2.18,0,0,0,29.87,25.26Zm6,7.5c0,.1-.1.1-.1.2-.1-.2-.3-.2-.4-.3s-.4.1-.5.3C35,32.46,35.07,32.16,35.87,32.76Zm-1.2.6a6,6,0,0,0-.2,1.2,2.48,2.48,0,0,0-.7-.9c.1,0,.1-.1.2-.2s.5.1.6,0a.1.1,0,0,1,.1-.1Zm2,1a4.37,4.37,0,0,0-.6-1c.2,0,.5,0,.6.2s.1.2.2.3V34A.76.76,0,0,1,36.67,34.36Zm.3,1.8a3.49,3.49,0,0,0-.6-.9c.1-.2.1-.8.6-.4A5.65,5.65,0,0,0,37,36.16Zm1.1,13.3c-.5-.3-1.1-1.5-1.7-.5-.7,0,.1-.9-.7-.8.1-.1.3-.3.4-.3s.2.1.2-.1a.85.85,0,0,1,.7,0,.79.79,0,0,1,.5.8h.1a.92.92,0,0,0-.6-1,.85.85,0,0,0-.7,0c0-.1.1-.3.2-.3.3-.1.8.4,1.1.3,0,0,.5-.8,1-.4v.4c-.4.4-.9.4-.8,1.2C37.67,49,38.67,49.06,38.07,49.46Zm.3,1.4v0Zm.4,1.9c-.1,0-.1,0-.3-.1s-.1-.2,0-.3c-.2-.2,0-.2.1-.2C38.67,52.36,38.67,52.56,38.77,52.76Zm.8,1.7c-.1.2-.2.4-.5.2-.1,0-.1-.2-.1-.3.2,0,.3-.1.4-.1Zm5.3-1.7c-.5.1-.6-.3-.7-.6a2.18,2.18,0,0,1,.4-.5c-.1.2-.3.5-.2.5s.3.1.5.2Zm2.8-1h-.2c0-.1.1-.1.2-.2Zm2.8,2.1a.76.76,0,0,1,.4.2c.2.2-.1.4,0,.6s.6.1.7.2a1.72,1.72,0,0,1-.2.8l-.3-.3c-.1-.1-.1-.2-.2-.3.1-.1.1-.2,0-.4s-.1-.2-.2-.2C50.57,54.26,50.57,54.06,50.47,53.86Zm.7-.4c.8.2.7.9.8,1.5C51.57,54.56,51,54.26,51.17,53.46Zm1.2-3.8c-.3-.5.7-.7.8-.2C53.17,49.66,52.57,50.06,52.37,49.66Zm.3,1.2c-.3.3-.2-.2-.7-.1-.1,0-.1.5-.2.5-.4.2-.2-.3-.6.2-.2.3-.3-.1-.7.4a1.85,1.85,0,0,1,.2-.7.1.1,0,0,1,.1-.1c.2-.3.3.1.7-.4.2-.2.4.1.6,0s.1-.7.2-.7C53.77,50.06,52.17,51.56,52.67,50.86Zm1.2-1.9c.2-.1.5.2.5.3C54.37,50.06,53.27,49.26,53.87,49Zm-.3,1c.2-.1.5.2.5.3C54.07,51.06,53,50.26,53.57,50Zm.6,1.6a.37.37,0,0,1,.3-.1,2.19,2.19,0,0,0-.3.5C54,52,53.87,51.86,54.17,51.56Zm-.5,2.3v.3h-.2C53.47,54.06,53.57,54,53.67,53.86Zm1.4-5.2c.2-.1.5.2.5.3C55.57,49.76,54.47,49.06,55.07,48.66Zm1.5,1.2c.3-.4.4-.1.4.2-.2,0-.3.1-.5.1A.77.77,0,0,1,56.57,49.86Zm-.5-.8c-.3-.5.7-.7.8-.2C56.87,49.06,56.37,49.46,56.07,49.06Zm-1.6,1.8a1.22,1.22,0,0,1,1.4-.7A1.62,1.62,0,0,1,54.47,50.86Zm1.3,7a.35.35,0,0,1-.4-.4A.78.78,0,0,1,55.77,57.86Zm12.9,1.5-.4-.1V59c.2,0,.3.1.5.1A.37.37,0,0,0,68.67,59.36Zm1.5.8c-.6.1-.9.8-1.1,1.7-.8.2-.2-.6-.5-.7-.7-.3,0,.2-.6.4-.1,0-.4-.2-.5-.2s-.1.5-.2.5c-.9,0-.1-.4-1-.9-.5.7.7.5.2,1.2-.4.3-.8-.2-1.1-.2-.1,0-.1.5-.2.5s-.4-.2-.5-.2-.1.5-.2.5c-.3,0-.7-.4-1.1-.3-.1,0-.1.5-.2.5-.3.2-.8-.5-1.2-.4.3,1.4-.9.5-1.4.7-.1.1-.1.4-.2.5s-.4-.1-.6,0-.1.5-.2.5c-.4.1-.7-.4-1.2-.4-.1,0-.1.5-.2.5-.4.1-.9-.5-1.6-.5-.1,0-.1.5-.2.5-.4.1-1.2-.5-1.7-.5-.1,0-.1.5-.2.5a6.09,6.09,0,0,1-2.5-.8c-.2-.1-.1-1.5-.7-.5-.3.5,1,.2.5.9-.5.4-.7-.3-.7-.6-.6-.5-.3.6-.8.3-.6.3.1-.4-.1-.6s-2-.3-2.6-.8c-.1-.1,0-.6,0-.6-.7-.4-1.6-.3-2-.6-.1-.1,0-.6,0-.6-1-.6-2.1-.3-1.5-1.6-.8-.1-.9.9-1.8.6,0-.2.5-.5.8-.8l.2.2-.1-.3c.1-.2.1-.4-.2-.6,0-.1-.1-.3-.1-.4s.1-.2,0-.3h-.1c0-.2-.1-.4-.1-.6h.4c.4-.5-.3-.4-.4-.5v-.3c0-.1.1-.2,0-.3h0a8.6,8.6,0,0,1,.1-1.6c.3,0,.5.6-.1,1.7.6.7,1.2-.6,1.2-1.5,0,.2-1.2-.9-.3-1.3.2-.1.4.1.8.3a.75.75,0,0,0,.1.5c-.2,0-.4-.1-.5.2s.3.4.6.5c.1.2.1.3.2.5-.2,0-.4-.1-.5,0a1.81,1.81,0,0,0-.1,2.1c-.4.1-1.1.5-.8,1.2.7-.3,2.1-.5,2-1.7-.6-.5-.3.8-.9.3a1.64,1.64,0,0,1,.1-1c.2-.2.4.1.6,0s.1-.2.1-.3a1,1,0,0,0,.5.4h0a.31.31,0,0,1,.2.1c.1.1.2.1.3.2h0c0,.4-.4.8-.5,1.5.5.8,1.1-.6,1.1-1.2H47l.4.2v-.1h-.1l-.3-.5a3.58,3.58,0,0,1-.4-1.1.37.37,0,0,1,.3.2c.3.1-.1.4,0,.6s.5,0,.5.2.1,1-.1.7c.2.3.8.2.2,1.2.6.4.8-.4.8-.9,0-.1-.5-.1-.5-.2s.3-.5.2-.7-.5,0-.5-.2.2-.4.2-.5-.4-.1-.5-.2-.1-.7-.6-.8v-.5a2.45,2.45,0,0,0,.8-1.6c1.2.5-.3,1.5-.1,2.4,0,.1.5.1.5.2.2.3.3,1.5.9,1.4.2-.7-1.3-1.8-.3-2.2.1.1.2.3.3.4a1.42,1.42,0,0,0-.2.6c0,.1.5.1.5.2s-.2.4-.2.5.5.1.5.2l.1-.4a.37.37,0,0,0,.3-.1,1.69,1.69,0,0,0,.5.2h.1c0,.2-.1.5,0,.5.3.2.8.1,1.1.3s-.2,1,.5.7c.2-.5-.8-1.7.3-1.6.3.2-.2.8-.2,1.1,1.3.3.4-1.1.5-1.6.4.2,1.1,1.7,1.6.5-.3-.3-.6.1-.9-.3-.1-.1.1-.5,0-.6-.3-.2-.7-.1-.9-.3a4.87,4.87,0,0,0-.4-1.1c0-.3,1.2-.2.8-1.2-.9.1-1.4.8-2.3.9v-.4c.1,0,.3.1.4,0a6.47,6.47,0,0,0,.8-.9c.2-.1.5.3.7.2.4-.2.7-1.1,1.4-.7.1.8-.7.1-.8.6a.92.92,0,0,1-.5,1.6c-.5.7.5.1.8.5l-.1.7c.1.1.3,0,.6.1.1.2.2.5.3.7h0a.1.1,0,0,0,.1.1,5.55,5.55,0,0,0,.6.8q0,.15-.3.3c.2,0,.9.8.8,1.1-.1.8-.2-.2-.6.1-.2.2-.1.8-.3,1.1s-.4-.1-.6,0-.1.5-.2.5c.4-.2.2.3.6-.2.2-.2.4.1.6,0s.1-.8.3-1.1c-.1.1.6-.2.8-.4a1.38,1.38,0,0,0,.4.3c0,.2,0,.5.4.4v-.1c.2.1.5.2.7.3a.78.78,0,0,0,.8.2,9.74,9.74,0,0,0,2.4.2,6.37,6.37,0,0,1,.7.2l.1-.2a2,2,0,0,0,.8-.1,1.23,1.23,0,0,0,1.2-.1,10,10,0,0,1,1.6-.2H65c0,.7-.3.1-.7.4-.1.1-.1.5-.2.5.4-.2.2.3.6-.2.1-.2.9-.1.9-.8H66c.1.3-.2.7.5.7a1.45,1.45,0,0,1,.2-.7.9.9,0,0,1,.5.1c.1.3.8.3.5.8-.6.1-1.2.2-1.5.8a4.59,4.59,0,0,0,2.7-1.3.37.37,0,0,1,.3.1c.1,0,.2.1.4.1C69.77,59.66,70,60.06,70.17,60.16ZM46,63.66a1.77,1.77,0,0,0,.5,1.5,4.33,4.33,0,0,1-.5.1c.2-.4-.6-1.3,0-1.9l.2.1A.22.22,0,0,0,46,63.66Zm.9,0-.3-.3h.2a2.61,2.61,0,0,1,1,.7l.1-.1c.3.1.8.2.8.2s-.1.4-.1.6c-.1,0-.1.1-.2.1s0-.1-.1-.2c-.4-.3-1.3-.2-1.6-.5C46.67,64.06,47.07,63.76,46.87,63.66Zm2.4,2.4c-.6.2-.3-.4-.5-.7,0-.1-.4,0-.4-.1v-.1l.3-.3h.2v-.1h.6l.6.3.1-.1c0,.1,0,.1-.1.2-.3,0-.9-.5-1.1-.2C48.57,65.66,49.87,65.36,49.27,66.06Zm.3-1.4a.45.45,0,0,0-.5,0c.3-.3,1.3-.2,1.2.4A5.74,5.74,0,0,0,49.57,64.66Zm-3.1-1.4c-.1-.1,0-.3.2-.4.7-.4.9.5,1,.9a3.51,3.51,0,0,0-.8-.5A.3.3,0,0,0,46.47,63.26Zm5.2,2.4h.2c.1.7-.5.3-.8.4A.68.68,0,0,1,51.67,65.66Zm2.3,5.7h0c-1-.7-1.2-1.3-1-1.7s.7-.8,1-1c.4.3.6-.5.8-.4.6.1-.1.6.8.8.5-.7-.5-.5-.3-1,0-.6.7.2.7-.4a5.93,5.93,0,0,1-.5-2.3c.8-.1.2.4.3.8,0,.1.3.1.5.1a2.18,2.18,0,0,0-.3.5c-.2.7,0,1.6.5,1.8a3.79,3.79,0,0,0-1.4,1.6,1.36,1.36,0,0,0-1.3.7,1,1,0,0,0,1.2-.6v.1a1.61,1.61,0,0,0,.7,1.9,2.21,2.21,0,0,0-1.2,1.3c-.2.7,0,1.5,1.3,2.5a4.11,4.11,0,0,0-1.1,1.7c-.2.7,0,1.5,1.2,2.1a3.29,3.29,0,0,0-1.3,1.5.66.66,0,0,0,.1.6h0c-.1,0-.4-.2-.5-.2-.3.2-.1.9-.3,1.1-.6.4-.7-.6-.5-1.3-.2-.6-.6.4-.6.4-.2.1-.9,0-.9.9a1,1,0,0,1-.2-.7c.1-.5.8-1,1.2-1.2a1.7,1.7,0,0,0,.7.1c.1,0,.1-.5.2-.5s.9.6.8-.3c-.8-.4-.9.7-1.9,0,0,.1,0,.1-.1.1a1.28,1.28,0,0,1-.6-1.7,3.53,3.53,0,0,1,.8-1.3l.1-.1h-.1c-.8-.7-1-1.2-.9-1.6.2-.7,1.5-1.2,1.5-1.2h.1l-.1-.1a1.45,1.45,0,0,1-.6-1.7c.3-.6,1.2-1.2,1.2-1.3Zm-.8,11.4c.3.5-.5.8-.7.5S52.87,82.26,53.17,82.76Zm3.7-16.1a1.42,1.42,0,0,1-.4-.2,1.22,1.22,0,0,1,.9-.3v-.1a1.13,1.13,0,0,0,.8.1,1.16,1.16,0,0,0,.5.7,1.54,1.54,0,0,0-.7.7c-.4-.1-.9-.1-1.1-.3S57,66.76,56.87,66.66Zm1.9,2.9-.1-.1c-.8-.5-1-.9-.8-1.3v-.1a1.69,1.69,0,0,1,.5.2c.3-.4.1-.5-.2-.6a2.23,2.23,0,0,1,.7-.6L59,67l-.1-.1a.82.82,0,0,1-.5-.8h0V66c.4.5,1.6-1,1.9-.7a1.8,1.8,0,0,1-.1,1h-.6c-.5.9-.3,1.4.5,2,.2-.7-.7-.9,0-1.9.9,0,0,.9.9.8,0-.8-.6-1,.4-1.3.2-.5-.7-.4-1-.6.3-.8,1.3-.9,2.1-.6-.6,0-.9.2-1,.6a1.62,1.62,0,0,0,.7,1.7c-.5.1-1.7.3-1.9,1-.1.5.2,1,1.4,1.8a2.92,2.92,0,0,0-1.9,1.5c-.1.5,0,1,.8,1.7-.3.1-.8.2-1,.6s.2.6.9,1.1a3.09,3.09,0,0,0-.9,1.2c-.2.6.1,1.2,1.2,1.7a2.16,2.16,0,0,0-.8,1c-.2.5,0,1.2,1.2,1.9a1.8,1.8,0,0,0-.9,1c-.1.5.1,1.1,1.1,1.6a.85.85,0,0,0-.3.6c-.1.4,0,.8.7,1.2a8.11,8.11,0,0,0-1.1.3c-.4-.4.5-.9.3-1.6,0-.1-.5-.1-.5-.2s-.4-1.3-.6-1.3a.76.76,0,0,0-.4.1,2.81,2.81,0,0,1-1.1-.5.55.55,0,0,0,.3-.5c-.1-.5-.6-.2-.7.1a1.13,1.13,0,0,1-.2-1.1,5.31,5.31,0,0,1,1.3-1.8l.2-.1h-.2a1.27,1.27,0,0,1-.6-.1c-.7-.2-.7-.8-.5-1.4a5.91,5.91,0,0,1,.6-1.2l.1-.1h-.1c-1.4-.4-1.5-1.1-1.3-1.8a3.56,3.56,0,0,1,1-1.5l.1-.1-.1-.1c-.5-.4-.7-.7-.7-.9s.2-.2.2-.3,0-.1-.1-.2a2.52,2.52,0,0,1,1.1-.8Zm.2,14.1v-.3a4.61,4.61,0,0,1,.5-1h.1c.1,0,.8,1.1.4,1.7,0,.1-.6,0-.6,0-.1.2-.1.5-.2.7a.91.91,0,0,1-.2-1.1Zm.7,1.4c.1-.4.5-.6.7-.1a.49.49,0,0,1-.1.3c-.1,0-.2-.1-.3-.1A.37.37,0,0,1,59.67,85.06Zm.3.3a.37.37,0,0,1,.3.1.35.35,0,0,1-.1.2c-.5.3-.6,0-.6-.4C59.77,85.26,59.87,85.26,60,85.36Zm.9,1.8a2,2,0,0,1-.3-1.1,1.69,1.69,0,0,0,.5-.2C61.27,86.46,60.87,86.86,60.87,87.16Zm2-2.3h-.1c-.2,0-.4-.1-.6-.1-1-.3-1.1-.8-1-1.1,0-.1.1-.2.1-.3,0,.1,0,.1.1.3.7.6.5-.7,1.1-.2,0,.6-.3,1.4.9,1.4-.2.3-1,.8-1.2,1.4v-.2a1.84,1.84,0,0,1,.6-.9ZM62.37,64c-.3-.5.7-.7.8-.2C63.17,64.06,62.67,64.46,62.37,64Zm-4.2,1.7v.1c-.2-.1-.6-.2-.3-.5,0-.1.2-.1.3-.1v.5Zm-1.8.7c-.1-.1-.1-.2.2-.4s.4,0,.7.1A1.22,1.22,0,0,0,56.37,66.36Zm-2.6.5c-.2.6.4.8.2,1.4a2.18,2.18,0,0,1-.3-.5,2.16,2.16,0,0,1-.1-1.1.35.35,0,0,1,.1-.2,1.7,1.7,0,0,0,.7.1c.2,0,.3-.2.3-.4a.6.6,0,0,1,.4.1c.1.2,0,1.4-.3,1.6C54,68.16,54.57,66.66,53.77,66.86Zm1-.9q0-.3.3,0ZM67,63.06c.2-.1.5.2.5.3C67.47,64.16,66.37,63.36,67,63.06Zm1.1.3c.2-.1.5.2.5.3C68.57,64.46,67.47,63.66,68.07,63.36Zm.1-.5c-.2-.4.6-1,.7-.4S68.37,63.26,68.17,62.86Zm4.9-1.7c0,.1-.1.3-.4.5-.5.4-1.3-.4-1.2-.8-.5.1-.7,1.8-1.6.7-.6-.7.8-1.1.8-1.1a8.14,8.14,0,0,0-.2-.9c.3.1.7.3,1,.4v.2c0,.1.5.2.9.3A4.62,4.62,0,0,0,73.07,61.16Zm-2.4,1.7c-.2.8-.9.7-1.5.8C69.47,63.26,69.87,62.66,70.67,62.86Zm.6-.4c.2-.1.5.2.5.3C71.87,63.56,70.77,62.86,71.27,62.46Zm1.8,0c.2-.1.5.2.5.3C73.57,63.56,72.47,62.76,73.07,62.46Zm2.6,1.5c-.4.5-.4,0-.7.4s-.1.7-.7.4a2.35,2.35,0,0,1,2.1-1.2C76.37,64.26,75.87,63.66,75.67,64Zm.9.7c-.3-.5.7-.7.8-.2C77.37,64.76,76.77,65.16,76.57,64.66Zm1.5,1.2c-.2-.4.6-1,.7-.4S78.27,66.16,78.07,65.86Zm1.1.3c-.2-.4.6-1,.7-.4S79.37,66.56,79.17,66.16Zm-.2.5c.2-.1.5.2.5.3C79.47,67.76,78.37,67,79,66.66Zm5.9,10c.2-2,1.4-5.6-1.1-6.6h0c-2.5-.2-3.7,1.9-4.8,4.1-.9,1.9-1.7,3.9-3.1,4.8a7.69,7.69,0,0,0,1.3-2,1.42,1.42,0,0,0,.2-.6c.7-2.4.2-5.2.7-7.1a3.13,3.13,0,0,1,.5-1,2,2,0,0,1,2.3-.8,2.56,2.56,0,0,1,1.3,1l.1.1a.35.35,0,0,0,.2-.1,3.65,3.65,0,0,1,2.9-.7c.8.2,1.3,1,1.5,2.1a9.59,9.59,0,0,1-.3,3.7A7.14,7.14,0,0,1,84.87,76.66ZM83,73.56l.1-.4c-1.1-.2-1.2-.8-1.4-1.4.9.2,1.2-.9,2.1-.7,0,.8-1.9.7-1.5,1.3.6,1.1,1.6-.7,2.4-.4-.1.8-1.6.6-1.5,1.3,0,0,.5.1.5.2a4.24,4.24,0,0,1-.4,1.2c-.1.1-.5-.2-.6,0s.5,1.2.6,1.2c.4,0,0-.8.7-.4-.1.4.2.7.6.8a.9.9,0,0,1-.1.5h0c-.6-.2-.5-.8-1.1-1,0,1.1-1,2.2-1.5,1C84.07,76.36,80.77,74,83,73.56Zm.3,4.6c.2-.7.8-.7,1.4-.8v.2C84.37,77.86,84,78.36,83.27,78.16Zm.3,1.3c.2-.1.5.2.5.3C84.17,80.56,83,79.76,83.57,79.46Zm-1.5.7c.2-.1.5.2.5.3C82.67,81.26,81.47,80.46,82.07,80.16Zm.1,1.3c.1,0,.1.2.1.4h-.4C81.47,81.46,81.77,81.46,82.17,81.46Zm.3-2.4c.2-.1.5.2.5.3C83,80.16,81.87,79.36,82.47,79.06Zm1.3-4.3c-.2-.4.6-1,.7-.4S84,75.06,83.77,74.76Zm.5-1.8c.2-.1.5.2.5.3C84.77,74.06,83.67,73.36,84.27,73Zm.5-1.5c-.7,0-.4-.3-.3-.6a1.63,1.63,0,0,1,.3.6Zm-.9-1H84C83.87,70.56,83.77,70.76,83.87,70.46Zm-5.8,12.3c-1.4-1.2-2.9-1.3-3.9-2a17.25,17.25,0,0,1,3.4-.2c.1,0,.3.1.4.1,1,.3,1.9,1,2.9,1.3.1,0,.2,0,.2.1a3.05,3.05,0,0,0,3.7-2.2c0-.1.1-.2.1-.3.1-.5,0-1.4.1-2,.7,1.3,2.1,4.5,1.4,6.7a2,2,0,0,1-.4.8c-.9,1.4-2.6,1.6-4.2,1.1a5.35,5.35,0,0,1-3.4-2.7h0C78.27,83.16,78.27,82.86,78.07,82.76Zm3.1-1c-.1,0-.1,0-.2-.1s-.4-.1-.6-.2a3.55,3.55,0,0,1,1.1.3h-.3Zm-2.3-1c-.2-.1-.3-.2-.5-.2l.3-.9.4.1C79.27,80,79.07,80.36,78.87,80.76Zm-2.5,2.5c-.6-.3-.6-1.2-1.1-1.7.4.1.7.3,1.1.4h-.2C75.87,82.66,77,82.56,76.37,83.26Zm-1-.3c-1.1.6-.4-1.7.2-.7A6.37,6.37,0,0,1,75.37,83Zm1.7.5c-.4-.6.3-.5.6-.7.1.1.2.1.2.2v.1a.31.31,0,0,0-.2-.1C77.37,83.06,77.57,84.06,77.07,83.46Zm-1.7,1.3a1.17,1.17,0,0,1,1.4-.7A1.42,1.42,0,0,1,75.37,84.76Zm-.3,1.1h0a2.09,2.09,0,0,1-.6.4l-.1-.1C74.17,85.86,75,85.26,75.07,85.86Zm-.1-1.7c0,.3-.5.7-.8.2S75,83.66,75,84.16Zm-2.3,1.6c.2-.1.5.2.5.3C73.17,86.86,72.07,86.06,72.67,85.76Zm-.3-.8a1.22,1.22,0,0,1,1.4-.7A1.62,1.62,0,0,1,72.37,85Zm-.9,1c.2-.1.5.2.5.3C72,87.06,70.87,86.26,71.47,86Zm.1-2.4c-.1-.1-.6-.1-.7-.2-.1-.5.4-.9.5-1.6-1-.6-.9,1.7-.6,2-.5.2-1.5-.4-2.1-.5l.1-.4c.9.8,2.2-1.2,1-1.6-.2.4,0,.6-.3.9-.1.1-1.2.3-1.3.6.1-.2.7,1.7-.1,2.1s0-1.6,0-1.9c0,0-1.2-.4-.3-1.3-1.2-.3-.6,1.1-.4,1.5-.4.2-1.1-.3-1.6-.3-.5.6.2.5.3.8.1.1-.2.4-.2.5.2.3.6-.1.4.4s-.2-.1-.6.1c-.1.1,0,.5-.2.5-.4.2-.2-.3-.6.2-.2.3-.3-.1-.7.4-.2.2-.4-.1-.6,0s-.1,1-.9.5c.7-1.3,4-1.1,2.4-2.9-.7-.3-.2,1.4-1,.9,0-.3,0-1.3.3-1.6s.6.2.6-.1c0,.1-.2-1.1-.3-1.1s-.7-.4-.7.1c-.3.5,1,.2.5.9-.7-.4-1.4,1-1.2,1.6.1.4,1.2,0,.5.6-.8.2-.5-.4-.9-.7a10.37,10.37,0,0,1-.4-1c.1-.4,1,0,.8-.8-1.2-.6-.7-.1-1.4.7-.2.3-.6.1-.8.1l.2-.2.1-.1h-.1c-1.1-.6-1.3-1.1-1.1-1.5a2.21,2.21,0,0,1,1-1l.1-.1-.1-.1c-1.2-.7-1.4-1.3-1.2-1.8a2.25,2.25,0,0,1,.8-1l.1-.1-.1-.1c-1.2-.5-1.4-1.1-1.3-1.6a3.46,3.46,0,0,1,.9-1.2l.1-.1-.1-.1c-.8-.5-1-.8-.9-1s1-.5,1-.5h.2l-.1-.1c-.9-.7-1-1.2-.9-1.6.3-.9,1.9-1.4,1.9-1.4h.1l-.1-.1a4.36,4.36,0,0,1-1-.8c.1,0,.3-.1.3-.4,0-.1-.3-.4-.5-.3s-.1.1-.2.2a1.09,1.09,0,0,1-.1-.5c.2-.7,2-.9,2-.9v-.1a1.27,1.27,0,0,1-.8-1.4c1.4.1.9,1.3,1.8,1.7-.2-.9-.3-1.9-1.6-2.2.2-.2.5-.3,1.2-.2.7.4,1.2,1.1.7,1.9.5.1.7-.4,1.2-.5.1-.6-.6-.3-.8-.5s.1-.4,0-.6-.7.1-.4-.7c.1-.2.4.1.6,0a6.47,6.47,0,0,0,.8-.9c.1-.1.4.2.5.2.1.8-1.7.5-1.6,1.4.1.3.9.3.9.3.2.1.5,2.1,1.1,1.2.3-.4-.4-.3-.5-.4s.1-.4,0-.6-.8,0-.4-.7c.1-.2.5.1.6,0s0-.8.3-.9a2.34,2.34,0,0,1,1.2.2c.5.9-.3.1-.7.4-.1.1-.1.5-.2.5s-.6-.2-.7-.2c-.5.8.5.7.6,1.5.5.2.4-.8.6-1.1l.4.1c.3.2-.2.8-.2,1.2,1.8.3-.7-3,1.7-1.9.4.7-.6.2-.7.5-.4.8.2-.2.4.6,0,.2-.3.5-.2.7s.6,0,.5.3c-.2.6-.9.1-1.5,1.1.9.1,1.3-.7,2.1-.8-.4-.5-.6-.4-.2-1.7,0-.1.5-1.6.8-.9.3.5-.7,1.4-.5,2.3,0,.1.4.1.4.1.1.2,0,1,.5.7,0-.5-.7-1.9.1-2.4a2.6,2.6,0,0,1,.7-.3h0c-.1-.2-.8-.1-.4-.7.7,0,.3.5.5.7h0c.7.4-.1-.1.6-.4.5-.2.2.3.6-.2.2-.2.4.1.6,0s.1-1,.7-.5-.6.5-.7.5-.1.5-.2.5a3.92,3.92,0,0,0-1.3.3c-.6,1.6.1-.3.4.6.2.5-.3.2.2.6.1.1,0,1.2.7.5-1.5-1,1.1-2.5.1-.3.9.5.7-.9,1-1.4.8-.3.2,1.9-.1,2.1-.1.1-.6,0-.6,0-.2.4-.7,1.3.2,1.3.3-.2-.1-.7.3-1.1H74c.3-.4.1-1.1.4-1.5.2-.2.4,0,.7-.4.2-.2.4.1.6,0s.1-.8.8-.3c.1.8-.4.2-.8.3-.1,0-.1.5-.2.5a2.57,2.57,0,0,1-.5-.2c-.4.5-.6,1.5,0,1.7.2.1,0-1.6.8-.9.7.5-1.4,1.7.1,1.9a1.33,1.33,0,0,1,1-1.3v-.2c-.2.1-.4.1-.1-.1-.2-.1-.7-.1-.9-.3l.1-.4c.8.3,1.1-.2,1.8-.2.1.8-.7.1-.8.6-.1.1-.2.1-.2.2l.1.1c.2-.1.5-.1.6.1s-.4.8-.3,1.1a.35.35,0,0,0,.2.1,1.69,1.69,0,0,0-.2.5v.1c-.1,0-.2,0-.2-.1s.5-.9-.3-.8c-.4.8.7.9,0,1.9a.37.37,0,0,0,.3.1c-.1,1-.1,2-.1,3.1h0c-.1.2-.1.3,0,.4a5.87,5.87,0,0,1-.4,2.3c-.1.2-.1.4-.2.6a6.1,6.1,0,0,1-1.9,2.5c-.1,0-.1.1,0,.2l.1.1h.1a6.38,6.38,0,0,0,1.4-.8c.1.3.7.6.6,0l-.3-.3a3.59,3.59,0,0,0,.7-1l.1-.1a22.33,22.33,0,0,0,1.5-3.1c.1-.2.1-.3.2-.5a1.27,1.27,0,0,0,.7.9,1.2,1.2,0,0,0-.6-1.3,4.35,4.35,0,0,1,.4-.7c.1,0,.1.1.2.1.2-.3.2-.4.1-.5.1-.1.1-.2.2-.3,0,.2.1.4.5.4.6-.4-.1-.4-.3-.6a3.76,3.76,0,0,1,2.3-1.6c0,.2,0,.4-.1.4-.5.2-.3-.4-.8.2-.1.1-1.4.4-.5,1.1.2.2-.1.4,0,.6s.6.1.7.2c.1.7-.8,1.3-.1,1.8-.1-.1.4.9.4,1s-1.1.1-.9,1.2c0,.1.5.1.5.2s-.3,1.1.9,1c-.3.5-1,.9-1.2.8s.2-.7.2-1.1c0-.1-.5-.1-.5-.2-.2-.4.4-.3-.2-.8-.1,0-.1-1.3-.7-.5,1,1,.7,2.8,1.2,4.1-.5.6-.4-.5-.4-.6s-.5-.1-.5-.2c-.1-.4.4-.8.3-1.1,0-.1-.5-.1-.5-.2s.2-.4.2-.5-.4-.1-.5-.2c-.3-.3,0-1.1-.5-.7-.6.7.7.5.3,1.1-.2.3-.8-.2-1.1-.2-.4.8.5.9.9.8,0,0,.2-1,.7-.4.2.2,0,.9-.2,1.1,1,.1.1,1.2,0,1.8-.2-.1-.3-.2-.5-.3.3-.3.3-1.1.5-1.5-.5.4-.6-.6-1.2-.4-.2.1,0,.6-.3.5-.5-.2-.1-.8-.8-.8-.2.6.5.8.2,1.5-.1,0-.2-.1-.4-.1h-.2v-.1c0-.1-.3-.4-.5-.3s-.2.2-.1.4H76c-.1-.3-.7-.2-.8.1a3.81,3.81,0,0,1-1.5.1c-.1,0-.1,0-.1.1v.2a2.59,2.59,0,0,0,1.1.7h-.8c-.7.3.3.2.4.6,0,.2-.3.5-.2.7s.6,0,.5.3-.7.6-1.3.6c-.1-.8.7-.1.8-.6-.7-.6-1.2-.7-.5-2.3-.5-.6-1,.8-1,1.6,0,.1.5.1.5.2a6,6,0,0,1-.5,1.6c-.9.5,0-1.6-.1-1.7s-.5-.1-.5-.2c.4,1.8-.4,2.2-.4,2.7,0,.3,1.1.4.4.7S71.67,83.66,71.57,83.56Zm-.5,1.7c-1.2.6,0-1.9.2-.5Zm-1.4,2.5c.3,0,.5.1.5.2-.2,0-.4.1-.6.1C69.57,87.86,69.57,87.76,69.67,87.76Zm-.1-1.8c.2-.1.5.2.5.3C70.07,87.06,69,86.26,69.57,86Zm-1-.3c.3-.7,1-.4,1-1.6C70.77,84.66,69.17,86,68.57,85.66Zm-.7.4c.2-.1.5.2.5.3C68.37,87.16,67.27,86.36,67.87,86.06Zm-1.1,1.5c.2-.1.5.2.5.3C67.37,88.66,66.17,87.86,66.77,87.56Zm.5-1.6c0,.3-.5.7-.8.2S67.27,85.56,67.27,86Zm-.1-1.9s-.1.5,0,.6c.3.3.7.1.4.7-.9,0-.4-.6-.6-.8C66.47,84.26,66.37,83.66,67.17,84.06Zm-1.7,1.8c.2-.1.5.2.5.3C66,87,64.87,86.16,65.47,85.86Zm-3.7.2c0-.1-.5-.1-.5-.2.1-.8.4-.4.8-.8a.52.52,0,0,0-.2-.4c.1,0,.1.1.2.1a4.33,4.33,0,0,0,.5.1,3.49,3.49,0,0,0-.6.9,1,1,0,0,0,.1.9h0c.1.2.2.3.4.3a1.07,1.07,0,0,0,.6.2,16.44,16.44,0,0,0,1.8.3v-.1a6.05,6.05,0,0,1-1.5-.2,4.87,4.87,0,0,0,1.5-.2c.7,1.3-1.5,1.1-2.6.5v-.1h-.1c-.1,0-.1-.1-.2-.1-.3-.2.1-.3-.4-.7C61.57,86.46,61.87,86.26,61.77,86.06Zm-3.1-2.2a1.58,1.58,0,0,0,.5,1.2c0,.8.4,1.3,1.3,1.1a1.54,1.54,0,0,0,.5,1.3c0,.1.1.1.2.2v.1c-.2-.1-.4-.1-.6-.2-.2-.6-.6-1.2-1.3-1.1-.2,0-.2.5-.4.6h-.1l-.2-.2c0-1,.7,0,.8-.6.1-.8-1.1-.4-1.5-.2-.3-.5,1.5-.8.6-1.7-.5-.3-.2,1-.9.5C57.37,84.06,58.27,84.06,58.67,83.86Zm-4.4,1.8v-.1c.4-.2.3,0,.3.2C54.47,85.76,54.37,85.66,54.27,85.66Zm-.9-1.8h0l.1-.1h0a.35.35,0,0,1,.2-.1s.5.1.5.2c-.2-.4.7-.9.8-.6.4-.5-.4-.4-.4-.7s.1-.3.2-.3a1.9,1.9,0,0,0,1.1.7,2.61,2.61,0,0,0-1.1,1.2c-.2.5.1,1,1.4,1.4.2,0,.3.1.5.1v-.1a4.33,4.33,0,0,1-.5-.1c-1.2-.4-1.4-.8-1.3-1.2a2.66,2.66,0,0,1,1.2-1.2l.1-.1H56a2.65,2.65,0,0,1-1.1-.6c.2,0,.5.1.5-.4-.3-.5-.3,0-.6.3a.45.45,0,0,1,0-.5c.2-.7,1.4-1.5,1.4-1.5l.1-.1-.1-.1c-1.3-.6-1.4-1.3-1.3-2a4,4,0,0,1,1.2-1.6l.1-.1-.1-.1c-1.3-1-1.5-1.8-1.3-2.4a2.48,2.48,0,0,1,1.2-1.3l.1-.1-.1-.1a1.49,1.49,0,0,1-.7-1.8,4.11,4.11,0,0,1,1.6-1.8l.2-.1h-.3c-.4-.1-.7-1-.5-1.7a.76.76,0,0,1,.2-.4c0,.1-.2.3-.2.4s.5.1.5.2c.1.4-.5.7-.2,1.1.4,0,.7-.3,1.1-.3v.1c-.1.5,0,1,.8,1.4a1.89,1.89,0,0,0-1,.8c-.3-.1-.8.1-.6.4a.37.37,0,0,0,.5.2,1.85,1.85,0,0,0,.7.9,3.84,3.84,0,0,0-1,1.5c-.2.7,0,1.5,1.3,1.9a13,13,0,0,0-.6,1.2c-.2.6-.2,1.4.6,1.6.1,0,.3.1.4.1a4.64,4.64,0,0,0-1.2,1.7,1.49,1.49,0,0,0,.3,1.4h0c0,.1.1.1.2.2a5.42,5.42,0,0,0,1.1.6c-.2.2-.5.4-.6.6a.76.76,0,0,0,.4.1c-.1.1-.1.3-.2.4A.81.81,0,0,1,58,83a3.91,3.91,0,0,1-.3-1.3c-.8-.6-1.5-.2-2,.5.7.1,1-.6,1.7-.1,0,0,.5,1.1.3,1.3-.8,0-.1-.6-.8-.8-1-.3.4.1-.4.4-.5.2-.2-.3-.6.2.1-.1-1.4.5-.8,1.2.5.5,1.1-1.3,1.9-.7.1,1-.8.2-.9.7s.8.4,1.1.6l-.1.4c-.7-.3-2.1,0-2.7-.7-.2-.2.2-1.1.2-1.1s-.5-.1-.5-.2C54.57,84.46,53.27,84.26,53.37,83.86Zm-.4,1.4a1.27,1.27,0,0,1-.1-.6l.3-.6c.1,0,.2,0,.2.1.2.3-.1.7-.4,1.1Zm-2-4.4a2,2,0,0,0,.1-.8c.2.2.4.4.3.7a3.91,3.91,0,0,0-.5.4A.37.37,0,0,0,51,80.86Zm.1,1.3c.3.5-.5.8-.7.5S50.77,81.56,51.07,82.16Zm-2.2,1.4c0-.3.9-.4.9-.4h.3l-.2-.1a.75.75,0,0,1-.5-.7,1.46,1.46,0,0,1,1.3,1.4,1.76,1.76,0,0,0-1.4.1c-.1,0-.2-.1-.3-.1A.31.31,0,0,1,48.87,83.56Zm.4-1.7v-.1c.1-.2.1-.2.3-.2s.1.1.2.1C49.57,81.76,49.37,81.66,49.27,81.86Zm-.6,1.8Zm-1-.5h0c.6-.3.5,0,.5.2C48,83.36,47.87,83.26,47.67,83.16Zm1.2-2c-.2-.4-.6-.7-.1-1.5l-.5-.2-.5,1.6-.4-.1a.45.45,0,0,1,0-.5.35.35,0,0,0,.2-.1l.2-.1-.2-.1h-.1a.6.6,0,0,0,.1-.4l-.4-.1a1.27,1.27,0,0,1-.1-.6,1.39,1.39,0,0,0,1.1-.2,1.79,1.79,0,0,1,.7.5v.2a.44.44,0,0,0,.3.1c.1.1.2.3.3.4-.1.4-.3,1.1.5,1.1,0,.1.1.2.1.3h0c-.1-.1-.2-.2-.3-.2s-.4.1-.5.3a1.34,1.34,0,0,0,.5,1.4,1.08,1.08,0,0,0-.7.3,1.09,1.09,0,0,0,.1-.5c0,.1-.9-.8-.9-.8C48.07,81.16,48.37,81.56,48.87,81.16Zm-.8-2.4c-.2-.1-.5,0-.8,0-.1,0-.1,0-.2-.1a.89.89,0,0,1,1-.4h.1A.9.9,0,0,1,48.07,78.76Zm-2.2,3.6c-.1-.2-.2-.4-.1-.5s.4.2.5.2c.2-.2.2-.7.3-1,.1-.1.2-.1.3-.2.5,0,.1.6.2.9s.6,0,.5.3-.7.5-1.2.7C46.17,82.56,46,82.46,45.87,82.36Zm-.3-.5a.6.6,0,0,0,.1.4c-.1,0-.1-.1-.2-.1S45.37,82,45.57,81.86Zm.9-2.5c.1-.1.3-.1.4-.2v.6h0c-.2,1.1-.8,1.2-1.4,1.4C45.37,80.46,46.37,80.46,46.47,79.36Zm-.8.6Zm-1.1,1.8a.1.1,0,0,1,.1-.1c.6-.5.4,0,.4.3C44.87,81.86,44.67,81.86,44.57,81.76Zm-1.3-2c0-.1-.5-.1-.5-.2-.1-.5.5-1.2.5-1.6,0-.2-1.1-.2-.4-.6.4-.3.8.2,1.1.2.1,0,.1-.5.2-.5s.5.3.7.2.1-.7.3-1.1c.2-.2.3.1.6,0,.1,0,.1-.3.1-.4.3-.2,1,0,.7-.5s-.4.3-.7.4c-.1,0-.4-.2-.5-.2s-.1.5-.2.5c-.5.2-.3-.4-.8.2-.2.2-.4-.1-.6,0s-.1.4-.2.5-1,.5-1.1.4c-.3-.2.3-.9.2-1.2,0-.1-.5-.1-.5-.2.1,1-.9.1-.9,1,.7.1.9.3.9.7,0,.1.8,1,.2,1.3-.4.2-2.2-.5-2.1-1.1.4-.3,1.4.6,1.8.3.5-.8-.4-.3-.9-.7-.1-.1.2-.5,0-.6s-.5-.1-.5-.2c-.2-1.3.8-1.3,1.5-.8-.2-.4.3-.2-.2-.6l-.2-.4a.76.76,0,0,1,.4-.2,2.73,2.73,0,0,0,1.1,1.6,1.34,1.34,0,0,0-.7-1.4c0-.5.3-.6.7-.4l.2-.5h0c.3.2,1,.3.7-.3h-.1c.1,0,.1-.1.2-.1.1.3.5,1,.2,1.4,1.2,0,.2-1.2.3-1.6.9.2,1.4-.2,2.2-.1.2.1.4.3.6.4-.1.1,0,.2.2.3a2.09,2.09,0,0,0,.4.6c0,.2-.3.2.2.5.2.2-.1.4,0,.6a.6.6,0,0,0,.4.1c0,.1.1.2.1.3s-.1.2-.1.3.1.1.3.1a1.38,1.38,0,0,0,.3.4.1.1,0,0,0,.1.1c.1.1.2.2.2.3s-.2.5.4.5h0a1.38,1.38,0,0,0,.4.3c-.2.2.2.6.4.6,0,.3.1.6.1.9h-.3c0,.2.2.3.3.5,0,.4-.1.7-.1,1s-.1.4-.2.5h-.3c-.2-.1.1-.4,0-.6s-.2-.1-.4-.1c0-.1-.1-.2-.1-.3s.2-.3.1-.3a1,1,0,0,0-.3-.1c-.1-.1-.1-.2-.2-.3.1-.3.4-.5.2-.9-.3-.2-.5,0-.6.4-.2-.1-.3-.3-.5-.4.1-.1.2-.2.2-.3l-.2-.2v-.1c-.1,0-.1-.1-.2-.1a.81.81,0,0,0-1.1.4c-.1-.1-.2-.1-.4-.1s-.1.5-.2.5h0c-.4.2-.8-.6-1.1-.2s.2.4.3.6c-.2.1-.3.2-.5.3-.1-.2.2-.7-.5-.7-.5.6.3.5.3.8-.2.1-.3.2-.5.3-.7,0-.9-.8-.3-1.7.2-.2.4.1.6,0s.1-.4.1-.5,1.2-.2,1.2-.2c.3-.4.6-1.2-.2-1.3,0,2.4-3.2,1.4-2.8,3.6,0,.2,1.2,0,.5.9C42.87,81,43.37,80,43.27,79.76Zm2.8-6.9c-.1.1-.2.1-.4,0Zm-6,3.7c.2.4.6-.1.4.4-.1.3-1.3.4-.9,1.2l-.4-.1c-.7-.6.8-1.1.8-1.1a2.57,2.57,0,0,0-.5-1.2h-.1c.1,0,.3-.1.4-.1s-.1.1,0,.2.5,0,.5.2S40,76.46,40.07,76.56Zm2.6,5c.1,0,.1-.1,0,0Zm-.3-1.3c-.6-.4-1.3-.1-.7-.9,1.2.1,1.1.9,1.2,1.7C42.27,81.26,42.87,80.56,42.37,80.26Zm-.5,1.8c-.1-.5-.6-1.3.4-1.2.3.2-.3.9-.1,1.1A.37.37,0,0,0,41.87,82.06Zm-1.5-.1c.5,0,.4.3.5.6-.2,0-.3.1-.5.1Zm.6-2.1-1.2-.4c-.2-.9,1.1-.5,1.3-.3s-.2.6-.1.7.5.1.5.2c.1.7-.5,1.4-.5,1.6s.4.1.4.1a.75.75,0,0,1,.1.5c-.1.1-.2.1-.4.2C41,81.56,40.17,81.16,41,79.86Zm-2.1.5c.4-.9,1.7-.3,1.2.7a1.08,1.08,0,0,0-.2-.8c0-.1-.1-.1-.2-.1C39.57,80.36,39.27,80.36,38.87,80.36Zm-.5-2c.5-.3,1,.4,1,.4C39.57,79.86,37.47,78.86,38.37,78.36Zm.3-2.3a.35.35,0,0,0-.1-.2h.1c.2,0,.4-.1.6-.1C39.07,75.86,39.27,76.36,38.67,76.06Zm-.6,3.5c.2-.1.5.2.5.3C38.57,80.66,37.47,79.86,38.07,79.56Zm-.9.8h.4C37.47,80.46,37.37,80.46,37.17,80.36Zm-.9-.8c.2.2.8.1.4.6s-.5-.1-.8-.5A.76.76,0,0,1,36.27,79.56Zm1.1.2c-.3.3-.4-.1-.6-.4.1,0,.2-.1.3-.1C37.37,79.36,37.67,79.36,37.37,79.76Zm1.5-3a1.14,1.14,0,0,1-.8.7h-.5C37.27,77.06,37.77,76,38.87,76.76Zm-2.2-.7c.2-.1.5.2.5.3C37.17,77.16,36.07,76.36,36.67,76.06Zm-1-.6a1.27,1.27,0,0,1,.6-.1c0,.1-.1.1-.1.2C36,75.56,35.87,75.46,35.67,75.46Zm-.8.7a1.76,1.76,0,0,1,.4-.5c.2,0,.5.1.7.1A1.37,1.37,0,0,1,34.87,76.16Zm-.3-.9c-.2-.1-.3-.3-.5-.4a.34.34,0,0,1,.5.3C34.67,75.06,34.67,75.16,34.57,75.26Zm-.6.1c.1,0,.2.1.4.1C34.17,75.46,34.07,75.46,34,75.36Zm-.3-3.2c.8,0,.2.5.5.7.8.7.1.2-.3.6s-.2.7-.5.5l-.2-.2c0-.8.5-.3.8-.6S33,72.76,33.67,72.16Zm-1.8.2c0-.1.1-.1.1-.2l.3.6h0C32.07,72.66,32,72.46,31.87,72.36Zm.2-.8c.2-.7,1.4-1,1.4-1h.2l-.1-.1c-.1,0-.1-.1-.2-.1.2-.2.4-.3.5-.4s.4.1.6,0,.1-.5.2-.5c.4-.2.2.3.6-.2.2-.3.7.3.7-.5-.5-.5-.4.2-.7.4s-.2-.3-.6.2c-.2.3-.3-.1-.7.4-.2.2-.4-.1-.6,0a.54.54,0,0,0-.3.4.47.47,0,0,1-.1-.6c.2-.6,1.3-1,1.3-1h.1l-.1-.1a1.76,1.76,0,0,1-.4-.5c.2.2.6.3.6-.2,0-.1-.3-.4-.5-.3s-.2.2-.2.3a1.39,1.39,0,0,1,0-.9c.3-1,1.7-1.7,1.7-1.7h.1v-.1a2.33,2.33,0,0,1-.3-1.7,1.06,1.06,0,0,1,1-.7h.1l-.1-.1c0-.1-.1-.1-.1-.2v-.1a.1.1,0,0,0-.1-.1v-.4c.2-.7,1.6-1.1,1.6-1.1h.1v-.1c0-.1-.1-.2-.1-.3a1.28,1.28,0,0,1,1.7-.2l.2-.5a1.8,1.8,0,0,0-1.9.2v-.7c.1-.4.5-.4.8-.3l.4.2.2.1-.1-.2a1.41,1.41,0,0,1-.1-.9c.1.6.9,1.6,1.5.9,0,.1,1-.4,1-.4s.7,1,.5,1.2h0a2.65,2.65,0,0,0-.6-.5c-.8-.2-1.6.6-1.8,1.4a.94.94,0,0,0,.1.9c-.5-.1-1.3-.1-1.5.6a2.2,2.2,0,0,0,.4,1.6,2.39,2.39,0,0,0-1.4,1.3,2.19,2.19,0,0,0,.5,1.9,1.47,1.47,0,0,0-1.3.8,1.9,1.9,0,0,0,.4,1.5c-.3,0-.9.1-1,.6-.1.3,0,.7.5,1.4a2.16,2.16,0,0,0-.8,1c-.2.6,0,1.3,1.1,2l.1-.1c-1.1-.7-1.2-1.4-1.1-1.9a2.25,2.25,0,0,1,.8-1h.1l-.1-.1a2.52,2.52,0,0,1-.6-1.3c.1-.5,1-.5,1-.5h.1l-.1-.1a1.67,1.67,0,0,1-.4-1.5c.2-.7,1.3-.7,1.3-.7h.1l-.1-.1a2.22,2.22,0,0,1-.6-1.8,2.49,2.49,0,0,1,1.4-1.3h.1v-.1a2.38,2.38,0,0,1-.4-1.6c.2-.8,1.7-.4,1.7-.4v-.1a.35.35,0,0,1,.2.1c.2.7-.6,1.3-1.2,1.9a1.61,1.61,0,0,0,1.7-1.8s-.9-.2-.3-.8c.9-.1,0,.8.6.9.6-.1.6-1.4.9-2.1v.1l.1-.1a2.61,2.61,0,0,0,2,1.1c-.1.2-.2.2-.3.3l.1-.1a4.05,4.05,0,0,0-.9-.5c-.7-.2-1.3.1-1.4.6a1.45,1.45,0,0,0,.1,1.1v.3a.31.31,0,0,0,.2.1,1.67,1.67,0,0,0-1.5.9,3.24,3.24,0,0,0,.8,2.4c-.4-.1-1.4-.2-1.6.5-.1.4,0,.9.6,1.8-.3.1-.9.2-1.1.8a.37.37,0,0,0-.1.3,2.64,2.64,0,0,0,.5,1.5c-.3,0-1.1,0-1.3.6q-.15.45.6,1.5c-.2.1-1,.5-1.1,1.1-.1.3,0,.7.6,1l.1-.1c-.5-.3-.6-.6-.5-.9a2,2,0,0,1,1.2-1h.1l-.1-.1a2.33,2.33,0,0,1-.7-1.5c.1-.5,1.2-.5,1.2-.5h.1l-.1-.1a3,3,0,0,1-.6-1.4c.2.2.5.2.5-.3,0,0-.2-.3-.4-.3a1.53,1.53,0,0,1,1-.6h.1l-.1-.1c-.6-.9-.7-1.4-.6-1.7.2-.7,1.6-.4,1.6-.4H41l-.1-.2h0c.2.2.5.2.5-.2,0-.1-.3-.4-.5-.3s-.2.2-.2.3c-.8-1.1-.9-1.8-.8-2.2.2-.8,1.5-.8,1.5-.8h.1l-.1-.1c.3-.1.3-.6.8-.4.2.4-.3,1.1-.3,1.6-.7.1-.4-1.4-1.1-.6.1-.1.7,1.7,1.5,1.3s.3-2.9,1-3.3c.5-.3,3.4,1,1.9,1.9-.5.3-.8-.7-.6-.9,0-.2-.8.4-1.1.5h0c.2-.5.5-.8,1-.6a5.74,5.74,0,0,1,.7.4l.1-.1c-.3-.2-.5-.4-.8-.4-.6-.2-1,.2-1.2.7a1.8,1.8,0,0,0,.2,1.6c-.5,0-1.5.1-1.7.8-.1.5.1,1.1,1,2.1-.4,0-1.4-.1-1.7.6-.1.4.1,1.1,1.1,2.1-.4,0-1.5.2-1.7.8-.1.3.1.8.6,1.4a2,2,0,0,0-1.2.9,1.3,1.3,0,0,0,.5,1.3l.1-.1a2,2,0,0,1-.5-.9c.1.3.7.5.6-.1,0-.1-.3-.4-.5-.3a.1.1,0,0,0-.1.1v-.1c.2-.6,1.2-.9,1.2-.9h.1l-.1-.1c-.6-.6-.8-1.1-.7-1.3.2-.7,1.7-.7,1.7-.7h.2l-.1-.1c-1-1.1-1.3-1.8-1.1-2.1.2-.7,1.7-.4,1.7-.4h.2l-.1-.2a3.49,3.49,0,0,1-1-1.5,4.12,4.12,0,0,1,.8.3c.4.3-.2,1,.5.7-.1-.7-.1-1.5-1.2-1.7a.31.31,0,0,0-.1.2v-.2c.2-.8,1.8-.7,1.8-.7v-.1c-.3-.1-.5-.7-.4-1.2.1.4.7.9.7,1.2s-1.1.1-.9,1.2c0,.1.5.1.5.2s-.3.6-.2.7.6.1.7.2c.1.4-1,1.4.1,1.7,0-.9.5-.9.9-1.2.1-.6-.6-.3-.8-.5s.3-.3.1-.7c-.1-.2-1,0-.5-.6.9-.5.3.8,1.1.8.2-.5-.8-1.7.3-1.6.3.2-.2.8-.2,1.1h.4a1.38,1.38,0,0,0-.3.4c-.1.3.1.7.7,1.3a1.86,1.86,0,0,0-1.1.9,1.83,1.83,0,0,0,.7,1.7c-.4,0-1.1,0-1.3.6a2.2,2.2,0,0,0,.4,1.6l.1-.1a2.06,2.06,0,0,1-.4-1.5c.2-.7,1.4-.5,1.4-.5H46l-.2-.2a3.4,3.4,0,0,1-.6-.6h0a1.56,1.56,0,0,1-.3-1c.2-.6,1.2-.9,1.2-.9h.1l-.1-.1c-.7-.6-.9-1-.8-1.2.1-.5,1-.6,1.1-.6h.1l-.1-.1a1.77,1.77,0,0,1-.5-1.5.35.35,0,0,1,.1-.2h.1c0,.6-.3,1.4.9,1.4,0,.8-1.2.1-1,1.4,0,.1.5.1.5.2s-.3.6-.2.7c.6.6,1.7.4,1.5-.8,0,.3-1.2-.7-.3-1.3a.44.44,0,0,1,.5.1c0,.1-.1.1-.1.2a1.33,1.33,0,0,0,.7,1.6c-.4.1-1.1.3-1.3.9V68c-.1-.4-.8-.5-1.1-.5-.1,0-.7,1.3-.9,1.4.8.1,1.1-.8,2-.7v-.1a3,3,0,0,0,.8,1.2,5.74,5.74,0,0,0-.7.4h0c0-.1-.3-.4-.5-.3-.4.2,0,.6.2.6,0,.1-.1.2-.1.3a1.83,1.83,0,0,0,.7,1.7l.1-.1c-.7-.7-.8-1.2-.7-1.6a1.92,1.92,0,0,1,1.1-1h.1l-.1-.1c-.8-.7-.9-1.2-.8-1.5.2-.6,1.4-.8,1.4-.8h.3l-.2-.1a1.31,1.31,0,0,1-.8-1.6v-.1a4.55,4.55,0,0,1,.3,1.1c.3.3.8.1,1.6.5l-.1.4c-1.5-.9-1.7,1.4-.6,1.8.5-.6-.4-.5-.3-.9.1-.6.2.1.6-.1.1-.1.1-.4.2-.5.4-.5.4.4.6-.2,0,0-.7-1.4,0-1.9.2-.2.5,0,.8.1a1.06,1.06,0,0,0-.6.7c-.2.6-.1,1.3.4,1.5-.4.1-1.3.4-1.5,1.1-.1.5.1,1.1.9,2v.1a2.08,2.08,0,0,0-1.2,1.1,1.92,1.92,0,0,0,.7,1.8,1.63,1.63,0,0,0-.9.8,2,2,0,0,0,.5,1.6l.1-.1c-.5-.7-.6-1.2-.5-1.5a1.17,1.17,0,0,1,.9-.7h.1l-.1-.1c-.8-.7-.9-1.3-.8-1.7a2.08,2.08,0,0,1,1.1-1c.2.3.6.4.6-.1,0-.1-.3-.4-.5-.3a.1.1,0,0,0-.1.1c-.8-.9-1-1.5-.9-1.9.2-.8,1.6-1,1.6-1v-.1h-.1c-.4-.1-.6-.7-.5-1.2a.4.4,0,0,1,.4.2c.3.4-.2.3.4.7.2.1-.1.5,0,.6s1.5.2.9.8c-.3.3-1.1-.4-1.6-.3-.1,0-.1.5-.2.5.9,0,1.2.7,1.7.1.1-.1.9.2.7-.4,0,0-.4-.2-.4-.4-.1-.4.2-.8-.9-.8l.1-.4c.2-.4,1,.4,1.1.1-.1-.6-1-.8-1.2-1.4.1,0,.2.1.4.2l.1-.1c-.2-.2-.4-.2-.5-.3a.76.76,0,0,1,.1-.4,5.69,5.69,0,0,0,1.7,1.2.35.35,0,0,1-.1.2,1.92,1.92,0,0,0,.4,1.8.35.35,0,0,1-.1.2h.1c-.4.2-.9.5-1,1s.1,1.1.9,1.7a3.39,3.39,0,0,0-1.1,1.4,1.45,1.45,0,0,0,.6,1.7c-.3.1-1.2.5-1.4,1.2-.1.5.1,1,.9,1.7-.1.1-.2.3-.4.5h0c0-.1-.3-.4-.5-.3-.4.2,0,.7.3.6-.1.2-.1.3-.2.5a1.58,1.58,0,0,0,.7,1.9c0,.1.1.2.2.3a3,3,0,0,0-1.2,1.3c-.1.4,0,.8.6,1.2.1.2.2.5.1.5a1.2,1.2,0,0,0,.8.2,2.18,2.18,0,0,0-.3.5.64.64,0,0,0,0,.6c-.1,0-.2-.1-.3-.1.1-.2.2-.5.1-.6-.3-.5-.9.2-1.4-.4-.3-.4.8-1.5-.1-2.2,1.2-.2.7-1.8,0-2.4a8.75,8.75,0,0,0-.2-1.6.1.1,0,0,0-.1-.1,3.51,3.51,0,0,1-.8-.5.22.22,0,0,0-.2-.2c-.1-.2-.3-.3-.4-.5.1-.1.1-.1-.2-.4h0a.35.35,0,0,0-.1-.2c0-.1,0-.2-.2-.4,0-.1-.1-.1-.1-.2s.1-.2.1-.4-.2-.1-.3-.1l-.3-.6c.1-.5.4-1-.6-1l-.5-.5c0-.5-.7-.5-1-.5a.31.31,0,0,1-.1.2,2.77,2.77,0,0,0-.9.1.37.37,0,0,0-.3.1c-.1,0-.1,0-.2.1s-.2.1-.3.1-.2,0-.2.1l-.6.3h-.1c-.1.1-.2.1-.2.2a.76.76,0,0,1-.4.2.58.58,0,0,0-.8.5,2.19,2.19,0,0,0-.5.3c-.1-.1-.3-.1-.5.3-.1,0-.1.1-.2.1-.5-.1.2-.9-.6-.8-.5.6.4.5.3.9-.1,0-.2.1-.3.1-.5-.3-.8-2.3-1.7-1,.2.2.6,0,.9.3s-.1.4,0,.6.5.1.5.2v.1c-.2.1-.4.1-.6.2.1-.1.1-.2.1-.4-1.2,0-.6-.9-1.6-1l-.1.3a1.17,1.17,0,0,1,.4,1.4h-.7c0-.2.2-.3.1-.5s-.5-.1-.5-.2c-.1-.6.5-1.4.5-1.7,0-.1-.5-.1-.5-.2-.1-.3.5-1.2.5-1.6,0-.1-.5-.1-.5-.2-.2-.3.6-.9-.3-.8-.1.6.7,2.2-.5,2.3-.3-.2.2-.8.2-1.1-1.3-.5-.5,1.6-.2,1.7.6.1,0-.6.8-.3.2.4-.3,1.2-.4,1.8-.9.1,0-.8-.6-.9-.5-.3-.2,1-.9.5-.3-.4.3-.8.2-1.2,0-.1-1-.7-1-.9a1.79,1.79,0,0,1,.4-1.4c.2-.2.8.3.8-.6l-.3-.1c-.6-.2-.2.3-.4.5s-.4-.1-.6,0,0,.5-.2.5c-.4.2-.2-.2-.6.2s-.5,0-.6.2.3.4.4.6c0-.1-.4.3-.7.5a5.73,5.73,0,0,1-.4-.7v-.2C32,71.66,32.07,71.66,32.07,71.56Zm15.3-5.5c.5.9-1.4.3-.5-.2C46.87,66,47.37,66.06,47.37,66.06Zm-6-4.1a1.1,1.1,0,0,1,0-.8c.1-.5.6-.7,1.2-.5a5.9,5.9,0,0,1,.8.4C42.77,61.46,41.67,61,41.37,62Zm-2-.8a.85.85,0,0,1,0-.7c.2-.7,1-1.5,1.6-1.3.2,0,.3.2.5.4-.3,0-.6-.3-.9-.1-.4.6.8.4.2,1.1-.8.1-.1-.7-.6-.8A1.68,1.68,0,0,0,39.37,61.16Zm.3-2.9c-.9.5-.3-.8-1-.7.1-.4.4-.7.8-.6.1,0,.1,0,.2.1h-.3C38.67,57.86,40.07,57.66,39.67,58.26Zm.2-1a4.23,4.23,0,0,1,.5.7h0v.1C39.67,58.06,40,57.56,39.87,57.26ZM36,62.56Zm-3.3,7.6c-.2-.1,0-.3,0-.4a.72.72,0,0,0,.4.6C33.07,70.46,33.07,70.36,32.67,70.16Zm.5.3h0c0,.1-.1.1-.3.2C33,70.56,33.07,70.46,33.17,70.46Zm-1.3,0c-.1-.1.1-.4,0-.6s-.5-.1-.5-.2.3-.6.2-.7c-.3-.3-1.2-.4-1.3.1v-.3c.1-.5.9-.3.9-.3h.1v-.1a2.54,2.54,0,0,1-.2-.7c1.1.1.4.6.5,1.4,0,.1.5.1.5.2-.2-.4.5-.6.3-1.1,0-.1-.5,0-.5-.2s.1-.9-.9-.8v.2c-.1-.4-.1-.7,0-.8s.1-.2.2-.3c.2.2.3.5.6.6.7-.3-.3-.3-.4-.7h0a2.13,2.13,0,0,1,.8,0l.4.2.2.1-.1-.2a3.87,3.87,0,0,1-.5-2.2c.2-.6.9-.5,1.3-.3a.77.77,0,0,0,.3.1l.2.1-.1-.2a3.75,3.75,0,0,1-.3-2.4c.2-.7.9-.6,1.3-.5a.35.35,0,0,1,.2.1l.2.1-.1-.2a4,4,0,0,1-.3-2.5.91.91,0,0,1,1.2-.5,1,1,0,0,0,.4.1l.2.1-.1-.2a2.33,2.33,0,0,1-.1-1.4,1.42,1.42,0,0,1,1.8-.9c.1,0,.1,0,.2.1h0a1,1,0,0,1,.5.4l.1-.1-.3-.3c.3,0,.6-.3,1-.4.6.6-.5.3-.6.4s-.1.5-.2.5c-.5.1-1.4-.6-1.6-.5-.8.6,0,1.7.5,2,.5-.7-.7-.5-.2-1.2.8.1,3.6-.8,2.7,1.1a1.89,1.89,0,0,0-1-1c-.5-.1-.8.2-1,.7a2,2,0,0,0,0,1.1c-.1,0-.2-.1-.3-.1a.76.76,0,0,0-1,.4,1.35,1.35,0,0,0,0,.9,2.7,2.7,0,0,0-.7.8,1.14,1.14,0,0,0,.8-.3c0,.1,0,.1.1.2-.3.1-1.4.5-1.6,1.2v.3c-.1-.1-.2-.1-.2,0-.4.2,0,.6.2.6a1.08,1.08,0,0,0-.8.8.37.37,0,0,1-.1.3,2.81,2.81,0,0,0-2.1,1,3.12,3.12,0,0,0,2.1-.9,3.92,3.92,0,0,0,.3,1.3,3.71,3.71,0,0,0-1.7,1.8,1.56,1.56,0,0,0,.5,1.6c-.3.1-1.1.4-1.3,1h0c-.1-.1-.6-.1-.7-.2.1.1-.3.5-.2.7s.4.1.5.2c.3.3-.3.5.1.6h.3c-.1.1-.3.2-.4.3C32.67,70.66,32.07,70.76,31.87,70.46Zm-.3.6c0-.3.4,0,.6.1a.52.52,0,0,0-.2.4v.1c-.1-.1-.2-.1-.5-.1ZM29,67.76a.45.45,0,0,1,.5,0,.35.35,0,0,1,.2-.1c.8-.1.9-.9.5-1.7a.52.52,0,0,1,.8.2c-.1.1-.2.2-.2.3a1.75,1.75,0,0,0,.1,1.2v.1h0a6.37,6.37,0,0,1,.2.7c-.2,0-.8,0-.9.4s.1,1,.8,2.1l.1-.1a5.29,5.29,0,0,1-.8-1.4c.1.1.4,0,.5.1.1.3-.1.9.9.8a1.39,1.39,0,0,1-.8.7,8.34,8.34,0,0,1-.8-1.2h0c-.1-.2-.3-.5-.4-.7.2-.4.5-.8.4-1.2,0-.1-.4-.2-.6-.2v.1c.2.3-.1.4-.3.5A1.42,1.42,0,0,0,29,67.76Zm-1.2-4h0s.5.1.5.2c.2.4-.1.5-.4.4a1.27,1.27,0,0,0-.1-.6Zm.9-2.6a2.63,2.63,0,0,0,.1,1.2h.1a2.29,2.29,0,0,1,0-1.2c.2-.7.8-.5,1.1-.5h.1l.1.1v-.1a3.1,3.1,0,0,1-.2-1.8c.3-.9,1.5-.6,1.7-.6h0l.1.1v-.1a4.37,4.37,0,0,1-.3-2c.1-.4.5-.4.9-.3l.4.2.1.1v-.1a4.25,4.25,0,0,1,.1-1.7,1,1,0,0,1,1.3-.7,3,3,0,0,1,.6.3l.1.1v-.5c.2-.7,1.3-1.6,1.9-1.4.3.1.5.4.7,1a.6.6,0,0,1-.4-.1s-.1-1.2-.5-.6-.2,0-.6.2c-.1.1-.1.4-.2.5s-1-.1-.7.5c.9.3,1.1-.8,1.8-.8.3.2-.2.8-.2,1.2a1.29,1.29,0,0,0-1.5.7,1.4,1.4,0,0,0,.2,1.2,2.18,2.18,0,0,0-.5-.3.8.8,0,0,0-1.1.6h0c0-.1-.3-.4-.5-.3-.5.3.2.9.4.5a5.29,5.29,0,0,0,0,1.8c-.3,0-1.5.1-1.7,1.1a2.58,2.58,0,0,0,.3,1.8c-.1,0-.2-.1-.3-.1-.5-.1-1.2-.2-1.4.5a3.44,3.44,0,0,0,.1,1.7c-.1,0-.2-.1-.3-.1a.85.85,0,0,0-.7,0c.5-.7-.7-.4-.3-1,1.1.1.5-1.2-.1-1.5-.5.7.8.6.2,1.2-.1.1-.6-.1-.6.1a1.18,1.18,0,0,0,.8,1.2c-.1.1-.3.2-.3.4a3.24,3.24,0,0,0,.3,2h.1a6.09,6.09,0,0,1-.3-1.9c.1-.5.5-.4.9-.3l.4.2.2.1v-.2a3.86,3.86,0,0,1-.1-1.8v0c.3.5.8.1.8-.2s-.3-.3-.6-.2a1.17,1.17,0,0,1,1,0,1.09,1.09,0,0,1,.4.2l.2.1-.1-.2a2.33,2.33,0,0,1-.4-1.8c.3-1,1.7-1,1.7-1h.1v-.1a4.74,4.74,0,0,1,0-2.1c.2-.6.6-.6.9-.5a1.7,1.7,0,0,1,.7.4l.1-.1a2.07,2.07,0,0,1-.3-1.4c.2-.6.9-.7,1.5-.5a1.22,1.22,0,0,1,.9.8l.1-.1c-.1-.4-.5-.6-.8-.8l.2.1q0-.75.3-.9h.1c.6-.2,1.5.7.2.8-1.1.8.2-.1.4.6.1.3-.4.8-.3,1a1.47,1.47,0,0,0-1.8,1,2,2,0,0,0,.1,1.3c-.1,0-.1-.1-.2-.1-.4-.1-1.2-.2-1.4.6a4.59,4.59,0,0,0,.3,2.4H35c-.4-.1-1.2-.2-1.4.6a4.18,4.18,0,0,0,.3,2.3c-.1,0-.1-.1-.2-.1-.5-.1-1.3-.3-1.5.4a3.87,3.87,0,0,0,.4,2.1c-.1,0-.2-.1-.3-.1a2.2,2.2,0,0,0-.8-.1c.1-.2.2-.4.1-.5s-.8-.2-.9-.3.1-.4,0-.6-.7-.1-.7-.2c0-.9,1.3-.1,1.7-1.2-.4-.6-.2.2-.7.4-.2.1-1.3,0-1.4.4s1.2,1.2.8,1.7c-.2.3-.7-.4-.8.2-.3.5,1,.2.5.9-.8.5-.5-.6-.7-.6-.6-.2-.2.3-.8.3,0-.1-.1-.2-.1-.3.3-.4,1.4-.8.5-1.4.1.1-.4-1-.5-.9.1-.5.7-.2.7-.4a3.34,3.34,0,0,0-.5-1.2c-.4-.1-.4.7-.8.3C27.37,61.76,28.37,61.66,28.67,61.16Zm.7-8.8c.6-.6.1-1.4,1.2-.8-.3.1-.6.4-.9,1.2v.1h0c0,.1-.1.3-.1.4h.1v-.2c.5.4.5-.2.8-.4-.1.1-.4-.1-.6-.1.4-1,.7-1,.9-.9a.35.35,0,0,1,.2.1l.1.1v-.2a3.09,3.09,0,0,1,.2-1.1c.2-.7.5-.8.8-.7a1.41,1.41,0,0,1,.5.3l.1.1v-.1c.4-1.4.9-1.6,1.3-1.4s1,.9,1,.9h.1a2.64,2.64,0,0,1,0-.9,2.19,2.19,0,0,1,.3-.5c-.1.6.4.9.4,1.4.3,0,.6-1,1.4-.3.3.3-.3.4-.1.7,0,.1.5.1.5.2.1.5-.3,1-.3,1.1s.6.1.7.2a1.74,1.74,0,0,1-.5,1.4,1.16,1.16,0,0,0-.7-1c-.8-.2-1.9.8-2.1,1.5v.2a.76.76,0,0,0-.5-.2,1.16,1.16,0,0,0-1.5.8,3.9,3.9,0,0,0-.1,1.6c-.1,0-.2-.1-.3-.1-.4-.1-.9-.1-1,.4a3.43,3.43,0,0,0,.2,1.9c-.4-.1-1.5-.3-1.8.7a3.84,3.84,0,0,0,.1,1.8.88.88,0,0,0-1.2.5.6.6,0,0,0-.1-.4c-.6-.3-.5.8-1.2.2v-.1c.4-.8,2-.3,1.6-1.7-.5-.6-.3.3-.6.4s-.5-.3-.6-.2a2.74,2.74,0,0,1-.5.4v-.4c.2-.1.7-.5.6-.5.2,0,.5.3.7.2s0-.5.2-.5a2.57,2.57,0,0,1,.5.2c.2-.2.7-1.3-.2-1.3.3,1-1.1,1.6-1.5.8-.3-.6.8-.6.9-.8v.9h.1a4.25,4.25,0,0,1,.1-1.7c.1.3.8.5,1.1.4s-.2-.5.3-.9.7.4,1.2-.2c0,0,1.3-.3.5-.7s0,.4-.5.6c-.3.1-.8-.4-1.1-.3h0a1.48,1.48,0,0,1,.1-.7,1.52,1.52,0,0,1,1.9-1h.1v-.1c0-.4.1-.7.1-.9.2-.6.5-.6.7-.6l.4.2.1.1v-.1a4.33,4.33,0,0,1,.1-.5.89.89,0,0,1,1.2-.7,4.21,4.21,0,0,1,.5.2h0c-.4.3-1,.2-1.2.9.9-.2,1.9-.3,2.2-1.6l-.4-.1a.73.73,0,0,1,.6-.2c.2.1.5.4.5,1.3h.1c0-.9-.2-1.3-.6-1.4s-1,.3-1.2,1v.1c-.1-.1-.3-.1-.4-.2a1.09,1.09,0,0,0-1.4.8c0,.1-.1.3-.1.4-.1-.1-.2-.1-.3-.2-.3-.1-.7,0-.9.6a2,2,0,0,0-.1.8,1.65,1.65,0,0,0-2,1.2,2.22,2.22,0,0,0-.1.9h0a.31.31,0,0,1-.2-.1,1,1,0,0,0-1.3.8,2.79,2.79,0,0,0-.1,1c0-.1,0-.1-.2-.2a2,2,0,0,1-.6-.9.37.37,0,0,1,.1-.3c.5-.4,2.9-.8,2.4-1.9-.3-.6-.7.3-.8.3s-.4-.2-.5-.2c-.2.2,0,1-.6.5-.2-.6,1.6-1.1.5-1.8,0-.1.1-.2.1-.3C29.07,52.46,29.27,52.46,29.37,52.36Zm.6,3h0c-.1.3-.3.6-.4.6-.3.1-.4-.2-.6-.2A.81.81,0,0,1,30,55.36Zm6.1-5a1,1,0,0,1-.4.8h0V51A1.54,1.54,0,0,1,36.07,50.36Zm-3.2-9h0c.1,0,.2.1.4.2a.35.35,0,0,0-.1.2,1.62,1.62,0,0,0,0,1h.1v-.9a.35.35,0,0,1,.1-.2c.1,0,.2.1.3.1l.3.3.1.2v-.2a2,2,0,0,1,.1-.8c.1-.4.3-.5.6-.4a2.48,2.48,0,0,1,.9.7l.1-.1a1.1,1.1,0,0,1,0-.8c.2-.5.6-.9,1-.8s.5.3.8.9l.1-.1a1.53,1.53,0,0,0-.9-.9.62.62,0,0,0-.7.2c0-.1,0-.4.1-.4a2.57,2.57,0,0,1,.5.2.92.92,0,0,0,0-1.3s-.4-1.2-1-.9a.1.1,0,0,0-.1.1.67.67,0,0,1,.8-.3c.4.1.9.7,1,1.7h.1a2.05,2.05,0,0,0-1.1-1.8.91.91,0,0,0-1.1.6,1.48,1.48,0,0,0-.1.7c-.2-.2-.5-.6-.8-.7s-.5,0-.6.4a3.11,3.11,0,0,0-.1,1.1h-.1c-.1,0-.2-.1-.4-.1.5-.6-.5-.5-.3-.9,1-.1.7-1.2-.1-1.6h0a1.27,1.27,0,0,1,.1-.6c.1-.4.3-.4.5-.4.5.1,1.1.9,1.1.9l.1-.1a.6.6,0,0,1-.1-.4,1.41,1.41,0,0,0,1.8.9c0-.5-.7-1.8-1.4-1.4q-.3.15-.3.3c.2-.5.6-.9,1.1-.8,0,.1.1.1.3.2s.1.1.2,0A3.37,3.37,0,0,1,37,37h.1c0-.1-.1-.3-.1-.4a1,1,0,0,0,.8.6c0,.2.1.3.1.5-.2.1-.6-.1-.6.2.6.4.3,1.3-.1,2.1.4.3.8,0,1.1.3.5.6-1.1,1.3-1,2a.31.31,0,0,0-.2-.1c-.5-.2-1.1.4-1.3,1,0,.2-.1.3-.1.5a2.18,2.18,0,0,0-.5-.4c-.3-.1-.6.1-.8.7,0,.1-.1.2-.1.3l-.2-.2c-.3-.1-.5.1-.7.9h.1c.2-.7.4-.8.6-.8s.3.2.3.2l.1.2v-.2c0-.2.1-.3.1-.4.2-.6.4-.7.6-.6a1.65,1.65,0,0,1,.6.5l.1-.1c-.1-.2,0-.5,0-.7.2-.6.7-1,1.1-.9s.6.4.7,1.3h.1a2.35,2.35,0,0,0-.4-1.2c.2.1.8-.1.9.2.3.5-.7,1.1-.5,1.7l-.4-.1c.4-.7-.3-1.8-1.1-1.2-.3.5,1,.2.5.9-.6-.2-.5.3-.9.5.2-.1.5.3.7.2s0-.6.3-.5c.5.1.1.4.5.7s.2-.8.8-.3c-.3,1.1.1,1.5-.5,2.1s-1.5,0-1.8.2-.2.9-.2,1.1h0a1.53,1.53,0,0,0-.7,1,1.48,1.48,0,0,0-.1.7,2.18,2.18,0,0,0-.9-.7c-.5-.1-1,.1-1.4,1.4a2.19,2.19,0,0,0-.5-.3c-.3-.1-.7,0-1,.8-.1.3-.1.6-.2,1a.35.35,0,0,0-.2-.1c.4-.7-.5-.7-1.1-.9l.1-.4c1,.4,1.6,0,1.7-1.4-.8-.6-.6.5-1.2.2h0c.1-.1.1-.2.2-.3h.4c.3-.2,0-.7.7-.4.2.1-.1.4,0,.6s.3,0,.4.1c.2.3,0,1,.5.7.6-.7-.7-.5-.3-1.1,1.5.8,1.7-1.2.7-1.8a.4.4,0,0,1,.4-.2c.3.1.5.6.5.6l.1.2v-.2c0-.2.1-.4.1-.6.2-.8.5-.9.7-.8s.6.6.6.6l.1-.1c-.1-.2,0-.4,0-.6.2-.7,1-1.3,1.4-1.1s.5.5.4,1.6h.1c.1-1.1-.1-1.6-.5-1.7-.6-.2-1.4.5-1.6,1.2,0,.1-.1.2-.1.3a1,1,0,0,0-.5-.4c-.3-.1-.6.1-.9.9,0,.1-.1.3-.1.4a1.21,1.21,0,0,0-.5-.5c-.3-.1-.7.2-1,1.1h.1a2.39,2.39,0,0,1,.3-.7c0,1,.4.2.3.8,0-.1-1,.7-.8.8-1.1-.1.2-2.1.1-2.4,0-.1-.5-.1-.5-.2v-.3h0a2.54,2.54,0,0,1,.2-.7c.2.5-.2.2.4.7.4.3-.3.5.1.6.9.3-.3-.1.6-.4.5-.2.2.3.6-.2.2-.2.4.1.6,0s.1-.4.2-.5.3.1.6,0c.1,0,.1-.5.2-.5s.4.2.5.2,0-.5.2-.5c-.4.2-.2-.3-.6.2-.2.2-.4-.1-.6,0s-.1.5-.2.5c-.3.1-.7-.4-1.1-.3.2,0-.8,1.3-1.4.3,0-.2.1-.4.1-.6l.2-.4c.3-.4.3.3.7.1s-.1-.6.7-.4c.4.1,1.2-.5.7-.9s-.2.3-.6.4c-.1,0-.4-.2-.5-.2s-.1.5-.2.5a3.71,3.71,0,0,1-.9-.2c0-.4.1-.9.1-1.3C32.77,41.56,32.87,41.46,32.87,41.36Zm2.2-1.6c.3-.2.6.2,1,.2a2.09,2.09,0,0,0-.4.6,1.27,1.27,0,0,0-.1.6,2.18,2.18,0,0,0-.8-.5h-.1C35,40.36,34.87,39.86,35.07,39.76Zm.8-1c-.1-.2.4-1,.7-.5S36.07,39.16,35.87,38.76Zm-1.7,1.9h.3a.7.7,0,0,0-.4.5c0,.2-.1.4-.1.6a.1.1,0,0,1-.1-.1C34.17,41.46,33.77,41.06,34.17,40.66Zm-1.7-2.3c.8,0,.2.7.7.8a.55.55,0,0,0-.5.3c-.1.2,0,.5.3,1l.1-.1a1.67,1.67,0,0,1-.3-.9c0-.2.2-.2.4-.2a1.27,1.27,0,0,1,.6.1.35.35,0,0,1,.2.1h.1v-.1a3.78,3.78,0,0,1,.1-1.2c.1-.3.2-.3.4-.3.4.1.9.8.9.8l.1-.1a1.38,1.38,0,0,1,0-.9v-.1a1.52,1.52,0,0,0,.4,1.2c-.3.8-1.5.2-1.6,1.7-1,.1-.1-.9-1-.9-.6.7.7.5.3,1.1-.3.2-.6,0-.8-.2a6.54,6.54,0,0,1-.4-2.1Zm-.4-1.5h.1a1.89,1.89,0,0,1,.6.4l.1.1v-.3c.2.2.6.2.2.7a1.38,1.38,0,0,0-.9,0A1.41,1.41,0,0,0,32.07,36.86Zm-.5-1.8a1,1,0,0,1,.4-.5c.1,0,.2.1.4.1v-.1a1,1,0,0,1,.5.6H33a3.42,3.42,0,0,1,.2-1.1c.1-.3.2-.5.4-.4s.4.3.8,1.1h.1a5.28,5.28,0,0,1,.2-1.4c.1-.4.3-.7.6-.6.1,0,.2.1.3.2-.4.4-1.3.9-.3,1.3a.94.94,0,0,1,.5-1,5.42,5.42,0,0,1,.6,1.1c-.2.2-.5.3-.6.5-.6-.2-1.1.4-1.3.9,0,.1-.1.3-.1.4a3.74,3.74,0,0,0-.7-.6.69.69,0,0,0,.3-.8c-.1-.7-1.1.4-.7.7-.2,0-.4.2-.5.5a2.79,2.79,0,0,0-.1,1,1.14,1.14,0,0,0-.6-.3h-.2a.76.76,0,0,0-.2-.4h0a.1.1,0,0,0-.1-.1h0l.1-.1A1.73,1.73,0,0,1,31.57,35.06ZM33,35a.66.66,0,0,0-.5-.4c0-.1,0-.3.1-.3s.4.2.5.2A4.33,4.33,0,0,0,33,35Zm.3-1.1Zm-9.7-3.6h0c.3-.3.4-.2.4,0Zm-3.7,2.5Zm.4-2.3c.1,0,.1.1.1.2,0,.3-.1.3-.3.3v-.2C20.17,30.76,20.27,30.56,20.27,30.46Zm.4-.8c0,.2,0,.2-.1.2a.31.31,0,0,0,.1-.2Zm1.4-.7c-.2.2-.5,0-.8-.1a1.76,1.76,0,0,1,.5-.4C22.07,28.46,22.27,28.56,22.07,29Zm2-2.4c.4-.3,1.6.2,1.5-1.1l.4.1c.3.6-.4,1.1-.3,1.6,0,.1.4.1.4.1s0,1,.5.7-.3-.6-.4-.7c-.1-.5.6-1.1.5-1.6,0-.1-.5-.1-.5-.2s.2-.4.2-.5-.5-.1-.5-.2.3-.5.2-.7-.5-.1-.5-.2c.2.3-.3,1.2-.6,1.1-.7-.2.3-1.6.6-1.1,0-.2,0-1.1.7-.9.3.3-.2.8-.2,1.1,0,.1.5.1.5.2s-.3.5-.2.7.5,0,.5.2c0,0,.5-2.6,1.1-2.1s-.8,1.5-.5,2.3c.1.2.8.1,1.1.3s-.1.4,0,.6.5,0,.5.2-.2.4-.2.5.3,0,.4.1c.2.3,0,1,.5.7s-.1-.1-.4-.7.3-.2-.2-.6c-.2-.2.1-.4,0-.6s-.5-.1-.5-.2.3-.5.2-.7-.5-.1-.5-.2,0-1.2.7-.9c.3.3-.2.7-.2,1.1,0,.1.5.1.5.2s-.3.5-.2.7.7.1.9.3c.4.5-.4.7.2,1.2.2.2-.2.8.6.8l.1-.3c-.8-.4-.1-.7-.3-1.5,0-.1-.5-.1-.5-.2-.2-.3,0-.5.1-.7l.4.4c0,.1-.1.2,0,.4s.4.1.5.2l.6.6c.2.1.3.3.4.4.1,1.1-.9.6-1,1.3l.3.1c.1-.2,1-.4,1.4-.7l.6.6c0,.1,0,.1-.1.1-.4.2-.2-.3-.6.2-.2.3-.7-.3-.7.5.5.5.4-.2.7-.4.1-.1.4.2.5.2s.1-.5.3-.6l.5.5c0,.2-.1.4.3.4.3.3.5.7.8,1,.1.6.2.9-.3,1.4-.2.3-.3-.1-.7.4-.2.2-.4-.1-.6,0l-.3.9c-.2.2-.4-.1-.6,0s0,.5-.2.5c-.4.2-.6-.2-.7.1,0,.1-.1.3,0,.4a.66.66,0,0,0-.4.5v.3c-.1-.2-.2-.3-.3-.5h0l-.1-.1a15,15,0,0,0-2.2-2.2c0-.1.1-.2,0-.2s-.2-.1-.4-.1-.4-.3-.6-.4c.1-.2.2-.3-.2-.4-.1,0-.1.1-.2.1a15.05,15.05,0,0,0-2.2-1.1h-.1c0-.3.5-.6,0-.9s-.4.5-.5.8a.9.9,0,0,1-.5-.1c-.2-.3.4-1.1.4-1.5l-.5-.2c-.1,1.3-.7,1.7-1.7,1.4a.76.76,0,0,0,.2.5c-.1.1-.3.1-.4.2.1-.2.1-.5-.4-.5-.4.2-.2.5.1.7a6.4,6.4,0,0,0-1.5,1.4c-.1,0-.2,0-.4.2a4.25,4.25,0,0,1,.2-1.1,2.62,2.62,0,0,0,.9-.5c.1-.1-.4-.6-.3-1,.1-.1.4,0,.7-.4.2-.2.4.1.6,0,.4-.3.3-.7,1.3-.2l.2-.5-1.2-.4.1-.4c.4-.2.8.2,1.2.2.1,0,.3-.8,1.1-.2.3.2-.3.7.5.7.4-.6-.4-.6-.3-1,.2,0,.4.1.6.1,0,.3-.1.6.4.6a1,1,0,0,0-.1-.9l.1-.2c-.1,0-.2-.1-.3-.1a1,1,0,0,0-.8-.5A.5.5,0,0,1,24.07,26.56Zm-.4-1.6c-.5-.4,0-.2-.2-.6-.1-.1-.5,0-.5-.2-.3-.7.7-.6.8-.6.2-.2.2-.9.3-.9s.5.1.6,0c.5-.6-.7-.3-.3-.8l.1-.3c.8-.3.1,1.4,1,.9.3-.1.1-.9.7-.4,0,.8-.5.2-.7.5-.4.5-.5,0-.8.3s0,.5-.3.9c-.1.1-.5-.2-.6,0-.4.7.2.4.4.7s-.2.4,0,.6.7.1.4.7C23.47,25.66,24,25.16,23.67,25Zm-.9-.3a1.34,1.34,0,0,1,.7,1.4A1.62,1.62,0,0,1,22.77,24.66Zm-.6.5a.66.66,0,0,1,.5.4A1.76,1.76,0,0,0,22.17,25.16Zm-1-1h0c.4-.1.5-.9,1.3-.2l-.1.4a1.67,1.67,0,0,0-1,0Zm-.9-1a1.29,1.29,0,0,1,1.5-.7c.1.9-.6.2-.8.3s-.2.7-.4.7S20.37,23.26,20.27,23.16Zm-1.2-1.9c.5-.3.3.1.7-.4.2-.2.4.1.6,0s.1-.5.2-.5c.5,0,.5.3.4.6s-.4-.1-.6,0,0,.5-.2.5a2.31,2.31,0,0,0-.9.2C19.17,21.46,19.17,21.36,19.07,21.26Zm0-1.9c.2-.1.5.2.5.3C19.57,20.46,18.47,19.66,19.07,19.36Zm1-3.3c-.2-.4.6-1,.7-.4S20.27,16.46,20.07,16.06Zm-.5,1.6c.2-.1.5.2.5.3C20.07,18.76,19,18,19.57,17.66Zm1.2-3.8c.2-.1.5.2.5.3C21.27,15,20.17,14.16,20.77,13.86Zm-1.5.6c.2-.1.5.2.5.3C19.77,15.56,18.67,14.86,19.27,14.46Zm12.3,12.8-.5-.2C30.17,27.66,32.07,28.16,31.57,27.26Zm2.7,3.3c-.1-.6-.9,0-.7.4S34.27,31.06,34.27,30.56Zm-3.5-.5c.2.4.7.1.7-.4S30.57,29.66,30.77,30.06Zm2.1.8c0-.1-.3-.4-.5-.3C31.77,30.86,32.87,31.66,32.87,30.86Zm.5.6c-.6.3.5,1.1.5.3C33.87,31.66,33.57,31.36,33.37,31.46Zm-2.2-.7c-.6.3.5,1.1.5.3C31.67,31,31.27,30.66,31.17,30.76Zm1.4,1.1c0-.1-.3-.4-.5-.3C31.47,31.86,32.57,32.66,32.57,31.86Zm-2.9.1c-.6.3.5,1.1.5.3C30.07,32.26,29.77,32,29.67,32Zm1.9,3.2c.5,1.6,2.1-.2,0,0Zm2.5,3.6c.3.5.8.1.8-.2S33.77,38.36,34.07,38.76Zm3.1,1.7c-.1-.4-1.2.2-1.3.3C35.87,41.36,37.37,41.56,37.17,40.46Zm-2.6.8c-.7,1,1,.6,1,1.6C36.67,42.36,35.77,41.16,34.57,41.26Zm2.5,3.9c-.2-.8-1.3.7-.6,1C36.87,46.26,37.07,45.56,37.07,45.16Zm-2.2,1.1c-.2.1-.5,1.4-.2,1.7C35.37,47.86,35.47,45.86,34.87,46.26Zm-1.1,4.4c.4.1.6-.3.5-.8C34.17,49.06,33.07,50.46,33.77,50.66Zm26.8,9.9.2-.5C60.47,58.66,59.37,61.16,60.57,60.56Zm-1-.9c-.1-.6-.9,0-.7.4S59.57,60.16,59.57,59.66Zm-8.2-2.6c-.3-.5-1.4.9-.6,1.1C51.07,58.26,51.57,57.46,51.37,57.06Zm13,4.8c0-.1-.3-.4-.5-.3C63.27,61.86,64.37,62.66,64.37,61.86ZM34.67,53c0-.1-.3-.4-.5-.3C33.57,53,34.77,53.76,34.67,53Zm-1.2-.4c0-.1-.3-.4-.5-.3C32.37,52.56,33.57,53.36,33.47,52.56ZM63,62.06c0-.1-.3-.4-.5-.3C61.87,62.06,63.07,62.86,63,62.06Zm-3.3-1c0-.1-.3-.4-.5-.3C58.57,61.06,59.77,61.86,59.67,61.06Zm-22.5-6.4c-.6.3.5,1.1.5.3C37.67,54.86,37.37,54.56,37.17,54.66Zm-.7,0c0-.1-.3-.4-.5-.3C35.37,54.66,36.47,55.46,36.47,54.66Zm-2.3-.2c0-.1-.3-.4-.5-.3C33.17,54.56,34.27,55.36,34.17,54.46Zm20.2,6.7c0-.1-.3-.4-.5-.3C53.27,61.16,54.37,62,54.37,61.16Zm-8.3-2.5c0-.1-.3-.4-.5-.3C45,58.66,46.07,59.46,46.07,58.66Zm-9.9-3c0-.1-.3-.4-.5-.3C35.07,55.66,36.17,56.46,36.17,55.66Zm35.1,11c-.3-.5-.9.3-.7.5S71.47,67.16,71.27,66.66Zm-13.4-3.3c.2.4.7.1.7-.4S57.67,63,57.87,63.36Zm-1.6-.5.2-.5C56.27,61,55.07,63.46,56.27,62.86Zm-1.7-.5c.2.4.7.1.7-.4S54.37,62,54.57,62.36Zm-2.1-1.2c-.1-.6-.9,0-.7.4S52.57,61.66,52.47,61.16Zm-1.1-.3c-.1-.6-.9,0-.7.4A.41.41,0,0,0,51.37,60.86Zm-2.7-.9c-.1-.6-.9,0-.7.4S48.67,60.46,48.67,60Zm26.7,8.8c0-.1-.8-.6-1.1-.3C73.77,69.06,75.37,69.36,75.37,68.76ZM53,61.86c-.6.3.5,1.1.5.3C53.47,62.06,53.17,61.76,53,61.86Zm-3.3-1c-.6.3.5,1.1.5.3C50.17,61.16,49.87,60.76,49.67,60.86Zm-4-1c0-.1-.3-.4-.5-.3C44.57,59.86,45.77,60.66,45.67,59.86Zm-10.9-3.5c-.6.3.5,1.1.5.3C35.27,56.66,35,56.36,34.77,56.36Zm41.6,13.1c-.6.3.5,1.1.5.3C76.87,69.76,76.57,69.36,76.37,69.46Zm-28-8.4c-.6.3.5,1.1.5.3C48.77,61.26,48.47,61,48.37,61.06ZM74,69.36c-.6.3.5,1.1.5.3C74.47,69.56,74.17,69.26,74,69.36Zm-7.1-2c0-.1-.3-.4-.5-.3C65.77,67.36,66.87,68.16,66.87,67.36ZM51,62.46c-.6.3.5,1.1.5.3C51.47,62.66,51.07,62.36,51,62.46Zm25.1,8.1c-.6.3.5,1.1.5.3C76.57,70.76,76.27,70.46,76.07,70.56Zm-3.3-.9c0-.1-.3-.4-.5-.3C71.67,69.76,72.77,70.46,72.77,69.66Zm-3.3-1c0-.1-.3-.4-.5-.3C68.37,68.76,69.47,69.46,69.47,68.66Zm-3.8-1.1c0-.5-1-.3-.8.2S65.67,67.86,65.67,67.56ZM37.07,59c0-.1-.3-.4-.5-.3C36,59,37.07,59.76,37.07,59Zm-1.1-.3c0-.5-1-.3-.8.2A.44.44,0,0,0,36,58.66Zm-4.1-.8c.3.5.8.1.8-.2C32.67,57.16,31.67,57.36,31.87,57.86Zm-.9-.7c0-.1-.3-.4-.5-.3C29.87,57.16,31.07,58,31,57.16Zm36.6,11.5c0-.1-.3-.4-.5-.3C66.47,68.76,67.67,69.56,67.57,68.66Zm-3.3-.9c0-.1-.3-.4-.5-.3C63.17,67.76,64.37,68.56,64.27,67.76Zm16.2,6c.2.4.7.1.7-.4S80.27,73.36,80.47,73.76Zm-14.6-5c-.1-.6-.9,0-.7.4S65.87,69.26,65.87,68.76Zm-27.1-7.6.2-.5C38.77,59.26,37.67,61.86,38.77,61.16Zm-3.3-.9c.2.4.7.1.7-.4S35.27,59.86,35.47,60.26ZM64,68.76c-.6.3.5,1.1.5.3C64.47,69,64.17,68.66,64,68.76Zm-32.5-9.6c0-.1-.8-.6-1.1-.3C30,59.46,31.57,59.76,31.47,59.16ZM74.07,73c.3.5.8.1.8-.2C74.77,72.26,73.77,72.46,74.07,73Zm-34.9-10.9c0-.1-.3-.4-.5-.3C38.07,62.06,39.17,62.86,39.17,62.06Zm-6.1-1.9c0-.1-.3-.4-.5-.3C32,60.26,33.07,61,33.07,60.16Zm47.4,15.3c.3.5.8.1.8-.2C81.27,74.76,80.27,75,80.47,75.46Zm-21.2-6.8c0-.1-.3-.4-.5-.3C58.17,68.66,59.27,69.46,59.27,68.66Zm-22-6.6c0-.1-.3-.4-.5-.3C36.17,62.06,37.27,62.86,37.27,62.06Zm-6.6-2c0-.1-.3-.4-.5-.3C29.57,60.06,30.67,60.86,30.67,60.06Zm48.1,15.5c-.6.3.5,1.1.5.3C79.27,75.76,78.87,75.46,78.77,75.56ZM59.17,71c.2.4.7.1.7-.4S59,70.56,59.17,71Zm-2.6-1.4c-.1-.6-.9,0-.7.4S56.57,70.06,56.57,69.56Zm-19.3-5.8c-.1-.6-.9,0-.7.4S37.37,64.26,37.27,63.76Zm-5.5-1.1c.2.4.7.1.7-.4S31.57,62.26,31.77,62.66ZM42,66.36c-.6.3.5,1.1.5.3C42.47,66.56,42.17,66.26,42,66.36Zm10.2,3.8c0-.1-.3-.4-.5-.3C51.17,70.16,52.27,71,52.17,70.16Zm-2.8-.5c-.6.3.5,1.1.5.3C49.77,70,49.47,69.56,49.37,69.66Zm-8.3-2.3c0-.1-.3-.4-.5-.3C40.07,67.36,41.17,68.16,41.07,67.36Zm-9.8-3.1c-.6.3.5,1.1.5.3C31.77,64.46,31.47,64.16,31.27,64.26ZM43,69c.3.5.8.1.8-.2C43.67,68.26,42.67,68.46,43,69Zm31.3,9.5c-.1-.6-.9,0-.7.4S74.37,79,74.27,78.46Zm-1.7-.5c-.1-.6-.9,0-.7.4S72.57,78.46,72.57,78Zm-39-11.2.2-.5C33.47,64.86,32.37,67.46,33.57,66.76Zm20.2,6.1c-.6.3.5,1.1.5.3C54.27,73.16,54,72.86,53.77,72.86Zm-3.3-.8c0-.1-.3-.4-.5-.3C49.37,72.06,50.57,72.86,50.47,72.06Zm-5-1.6c-.6.3.5,1.1.5.3C46,70.66,45.67,70.36,45.47,70.46Zm28,8.9c-.6.3.5,1.1.5.3C73.87,79.56,73.57,79.26,73.47,79.36Zm-32.7-9.1c0-.1-.3-.4-.5-.3C39.77,70.36,40.87,71.06,40.77,70.26ZM37.07,69c-.6.3.5,1.1.5.3C37.47,69.26,37.17,69,37.07,69Zm34.8,11.2c0-.1-.3-.4-.5-.3C70.77,80.26,72,81.06,71.87,80.16Zm-1.5-.6c-.6.3.5,1.1.5.3C70.87,79.86,70.47,79.46,70.37,79.56Zm-.6,0c0-.1-.3-.4-.5-.3C68.67,79.56,69.87,80.36,69.77,79.56Zm-1.3.2c0-.1-.3-.4-.5-.3C67.37,79.76,68.47,80.56,68.47,79.76Zm-25.2-7.7c-.6.3.5,1.1.5.3C43.77,72.26,43.47,72,43.27,72.06Zm26,9.2c0-.1-.3-.4-.5-.3C68.17,81.36,69.27,82.06,69.27,81.26Zm-1.7-.5c0-.1-.3-.4-.5-.3C66.47,80.76,67.57,81.56,67.57,80.76Zm-20.3-6.1c0-.1-.3-.4-.5-.3C46.17,74.66,47.27,75.46,47.27,74.66Zm-1.1-.3c0-.1-.3-.4-.5-.3C45.07,74.36,46.27,75.16,46.17,74.36Zm-6.7-1.5c0-.1-.3-.4-.5-.3C38.37,73,39.47,73.66,39.47,72.86Zm17.9,6c0-.1-.3-.4-.5-.3C56.27,78.86,57.37,79.66,57.37,78.86Zm-3.8-1.3c-.6.3.5,1.1.5.3C54.07,77.76,53.77,77.46,53.57,77.56Zm-2.8-.8c-.6.3.5,1.1.5.3C51.27,77,51,76.66,50.77,76.76ZM47,75.56c-.6.3.5,1.1.5.3C47.47,75.86,47.17,75.46,47,75.56Zm-2.8-.8c-.3-.5-1.3.8-.6,1C44,75.86,44.37,75,44.17,74.76Zm21.9,7.1c-.6.3.5,1.1.5.3C66.57,82.16,66.27,81.86,66.07,81.86Zm-4.4-1.3c-.6.3.5,1.1.5.3C62.17,80.86,61.87,80.46,61.67,80.56Zm-1.7-.5c-.6.3.5,1.1.5.3C60.47,80.26,60.17,80,60,80.06Zm-1-.3c-.6.3.5,1.1.5.3C59.47,80,59.07,79.66,59,79.76ZM47.67,77c.3.5.8.1.8-.2C48.47,76.26,47.47,76.46,47.67,77Zm6.5,2.5c.3.5.8.1.8-.2C54.87,78.76,53.87,79,54.17,79.46Zm7,2.8c.2.4.7.1.7-.4S61,82,61.17,82.26Zm-8.3-2.5c.2.4.7.1.7-.4S52.67,79.46,52.87,79.76Zm-24.5-53.5c-.1-.2-.8-.1-1.1-.3s.1-.4,0-.6-.5-.1-.5-.2c.1.1-.2.4-.2.5s.5.1.5.2c.1.5-.5,1-.5,1.6,0,.1.6.1.7.2.2.4-.3,1.4-1.1,1.1.2,1.2,1.6.6,1.6-1,0,.2-.9-.8-.2-1.2.4-.2.5.6.4.7.1,0,.3,0,.3.1a10.37,10.37,0,0,1,.4,1c-.1.5-.8-.2-.8.8l.3.1c.4-.6,1.2-.5,2.2-.1l.2-.5c-.8-.4-1.1-.1-1.6-.5-.2-.2.1-.4,0-.6s-.5,0-.5-.2c-.2-.4.3-.2-.2-.6C28.07,26.66,28.47,26.46,28.37,26.26Zm-.3,1.1Zm-2.5,1.7a1.3,1.3,0,0,0,.9,1.4C26.57,29.86,26.07,29.46,25.57,29.06Zm45.6,36.1c.1-.1.1-.2.2-.2h-.1C71.17,65,71.17,65.06,71.17,65.16Zm.9,16.8c-.1-.3.5-.9-.5-.9C71,81.76,71.87,81.66,72.07,82ZM50.87,69c-.4.2-.4-.4-.7-.1,0,0,0,.9.5.6C50.77,69.46,50.77,69,50.87,69Zm20.9-2.2c.1.2-.3.5-.2.7s.6,0,.5.3c-.2.7-.1,0-.6.2-.1,0,0,.3-.1.4s-.8-.2-.7.5c.9.1,1.3-.7,2.1-.8.4-.4-.5-.3-.6-.5s.3-.5.2-.7C72.27,66.86,71.77,66.86,71.77,66.76Zm-.6-1.6c-.2.2-.4.6-.3.8s.8.6.9.8c-.1-.1.2-.4.2-.5s-.5,0-.5-.2c-.2-.4.3-.2-.2-.6C71.07,65.36,71.07,65.26,71.17,65.16Zm-21.9-9.3c.2,1-1.4,2.3-.2,2.5,0,.7-.9-.1-.8.8.4.6.6-.3.7-.4.4-.2.4.4.6-.1a.31.31,0,0,0,.1-.2c.2.2,1.1.2.8-.3s-.9-.1-.8.3c-.1,0-.4.2-.5-.1-.2-.7.5-1.8,1.1-1.8C50.57,56,49.57,56.06,49.27,55.86Zm5.2,1c-.4.2-.6-.5-1.2-.2-.5.6.8.3.3,1-.4.3-.7-.3-1.1-.2-.1,0-.1.5-.2.5-.2.2-1.1,0-.7.5s.6-.3.7-.4c.3-.1.8.4,1.1.3.1,0,.1-.6.2-.7C53.87,57.56,54.57,58.06,54.47,56.86Zm-.8,2.8c-.8,0-.3-.7-1-.9.2,1,.3.8-.5,1.6.5.6.5-.3.7-.4s.5.3.7.2C53.57,60.16,53.57,59.66,53.67,59.66Zm-4.9,9.9a1.34,1.34,0,0,0-.7-1.4A1.34,1.34,0,0,0,48.77,69.56Zm-7.5-4.7c.1-.7-.4-1-.9-1.4A1.37,1.37,0,0,0,41.27,64.86Zm-4-6.6a1.34,1.34,0,0,0-.7-1.4A1.17,1.17,0,0,0,37.27,58.26Zm-7.7,9.6Zm3.5.5c.4-.6,0-.4-.4-.7-.1-.1,0-.6,0-.6-.7-.4-.7.2-.3.5S32.17,68.46,33.07,68.36Zm-5.9-38.2-.2.5c.4,0,.7.3,1.1.3.1,0,.1-.5.2-.5s.7.3,1.1.3,0-.7.7-.4c.3.2-.4.8.5.7,0-.8-.3-1.3-.9-1.4,0,0-.1.5-.2.5a2.07,2.07,0,0,0-1.1-.3S27.77,30.86,27.17,30.16Zm3.1,3.3c.7.1,1-.4,1.4-.9C31.07,32.66,30.57,32.76,30.27,33.46Zm4.1,4.1a1.34,1.34,0,0,0-.7-1.4A1.21,1.21,0,0,0,34.37,37.56Zm30,22.3c-.3.1-1.3-.1-1.5.7.5.6.5-.3.7-.4s.5.3.7.2C64.27,60.26,64.27,59.86,64.37,59.86Zm1.6.5a1.34,1.34,0,0,0-1.4.7A1.51,1.51,0,0,0,66,60.36Zm-35.4-7.7c.4-.2.2.3.6-.2.2-.2.4.1.6,0s0-.8.3-1.1c-.1.1.6,0,.6-.1a1.16,1.16,0,0,0-.8-1.2l-.1.3c-.2.6.8.3.3.8-.1.1-.6,0-.6,0-.1.2-.1.8-.3,1.1s-.3-.1-.6,0C30.67,52.26,30.67,52.66,30.57,52.66Zm31.4,7c0,1.2-.8.9-1,1.6C61.57,61.56,63.17,60.16,62,59.66Zm-3.4,1.4a1.3,1.3,0,0,0-1.3-1.5l-.2.5C58.27,60.06,57.77,60.86,58.57,61.06Zm-2-1.7a3.11,3.11,0,0,0-2.1,1.1A2.75,2.75,0,0,0,56.57,59.36Zm4.2,2.4a1.49,1.49,0,0,0-1.5.7A1.19,1.19,0,0,0,60.77,61.76Zm-3.3-1a1.49,1.49,0,0,0-1.5.7A1.19,1.19,0,0,0,57.47,60.76Zm-5.7-1.1.2-.5c-.4,0-.7-.4-1.1-.3-.1,0-.1.5-.2.5s-.4-.2-.5-.2-.1.5-.2.5c-.3.1-.8-.5-.8.3C50.37,60.46,50.47,58.86,51.77,59.66ZM48,58.46a1.58,1.58,0,0,0-1.3.5c-.3.4.9.3.3.9-.2.3-.7-.3-.7.5.5.5.4-.2.7-.4s.4.4.7-.5c0,0-.5-.1-.5-.2C46.77,58.76,48,59.26,48,58.46Zm-16-4.8a1.34,1.34,0,0,0-1.4.7A1.17,1.17,0,0,0,32,53.66Zm31.1,14.1c-.7-.1-1,.4-1.4.9C62.37,68.66,62.87,68.56,63.07,67.76Zm-24.9-2.6c.6,0,1.2-.1,1.4-.9A1.84,1.84,0,0,0,38.17,65.16Zm36.5,14c.7.1,1-.4,1.4-.9C75.37,78.26,74.87,78.46,74.67,79.16Zm-10.2,1.7a1.29,1.29,0,0,0,1.5-.7A1.49,1.49,0,0,0,64.47,80.86Zm-1.7,0a1.34,1.34,0,0,0,1.4-.7A1.42,1.42,0,0,0,62.77,80.86Zm-7.3.3c.6,0,1.2-.1,1.4-.9A1.84,1.84,0,0,0,55.47,81.16Zm-17.7-37.8Zm1,12.8Zm2.8,3.6Zm8.5,5.4Zm2.3.8Zm17.7,6.3c.2-3.3-4.5-2-6.4-1.3-.8,1.9,3.8,3.4,4.4,1.6-.3-.6-.7.1-1.2-.2s.1-.7.2-1.2C68.37,70.46,69.27,71.56,70.07,72.26Zm-7.5.3c-.5,1.3,1.3,2,2.5,2.2s2.3-.3,3.1-.2c0-.2.2-.2.3-.2l.1-.4C66.57,74,64.17,74.46,62.57,72.56Z"/><path class="cls-3" d="M54.87,88.36c.5-1.4.1-2.5.5-1,0,.5.1,1.6,1,1.7a3.36,3.36,0,0,0,1.6-1,5,5,0,0,1,2.1-1.5,1.79,1.79,0,0,1,2.1.8,2,2,0,0,0-1.8-1.2c-3.2.4-4.2,4.2-4.1.6a1.67,1.67,0,0,0-.8-1.1.9.9,0,0,0-1.2.7,11.63,11.63,0,0,0-.4,1.8c-.1,1.4-1.2,1.7-1.4.4-.1-.9.3-2-.2-3.3-.3-1.5-2.5-1.7-3.3-1.4-.7.7-2.1-2-3.8-1,.8-.3,1.8.4,2.3,1,.7,1.3,2.9-.2,3.8,1.2.7,1,.1,2.2.2,3.6.1.6.4,2.1,2.1,1.7A2.6,2.6,0,0,0,54.87,88.36Zm-19.1-10.7a2,2,0,0,0-1.2-2,24.91,24.91,0,0,0-4.7-2.1c-3.1-1.3-6.2.9-8.5.1-2.7-.2-4.9-2.8-7.4-4.3-1.5-.9-3.7-1-5.2-1.7a22.88,22.88,0,0,0,2.3,1c2.4.7,4,2.7,6.3,4.6a8.59,8.59,0,0,0,8.3,1.3c2.3-.8,4.7-.2,6.9.7.6.3,1.5.7,2.2,1.1C35.27,76.66,35.37,76.76,35.77,77.66Zm-28.7-7.6a3,3,0,0,0,.8,1.7c3.2,4.4,10,2.2,11.5,7.3.3.8,1,2.3,2.5,2.4a8.43,8.43,0,0,0,3.3-.7,3.09,3.09,0,0,1,.8-.2h0c.2.3-.1,1.8,1,1.9-1.2-.4-.3-1.8-.7-2.2,0-.1-.1-.1-.2-.1a.1.1,0,0,0,.1-.1c.7-.7,1-1.6,1.6-2.2s1.9-.5,2,.4a10,10,0,0,1-.4,2.4c-.1.5-.2,1.5.4,1.8a1.21,1.21,0,0,1-.3-1,4.71,4.71,0,0,1,.4-1.7,2.35,2.35,0,0,0,0-2.3h0c1,0,1.8-.6,2.6-.7a1.17,1.17,0,0,1,1.2,1.6,21.41,21.41,0,0,1-1,2.2c-.2.5-.4,1.4.1,1.8a1.73,1.73,0,0,1-.1-1,4.59,4.59,0,0,1,.7-1.6,2.9,2.9,0,0,0,.7-2.4c.5.5.7,1.2,1.7,1.8,3.6,1.1,5.6,2.8,5.3,6.3-.1,1.7-.4,3.6.4,5.4a9,9,0,0,0,3.8,3.9c2.8,1.9,6.9,1.3,9.5.2a8,8,0,0,1,5.5.3,10.27,10.27,0,0,0-3.1-1.3c-2-.1-4.2.7-6.3.9a9,9,0,0,1-8.1-4.8c-1.1-2.5.8-8.2-3.1-10.1a8,8,0,0,0-3.3-1,5,5,0,0,1-2.3-1.8c-.1-.1-.1-.3-.2-.4-.9-1.1-2.2-.2-2.9.1a3.54,3.54,0,0,1-1.1.3,1.14,1.14,0,0,0-.8-.3c-1.4-.1-1.8,1.2-2.3,2.1a2.27,2.27,0,0,1-.7,1.1c-.7,0-2.4.8-3.4.7-2.8.1-1.9-3.8-4.6-5.3s-5.2-.9-7.5-2.3C9.17,72.66,7.37,71.56,7.07,70.06ZM67,86.66a8,8,0,0,0-2.3-1,18.76,18.76,0,0,1-6.7-3.5c-2.5-1.7-5.5-1.5-8.2-1.1-2.6.7-4.3.7-5.7-1.5-1.2-1.3-3.7-2.5-5.1-1.3.9-.7,2,0,2.8.3,1.8.6,2.3,2.6,3.8,3.5,3.1,1,5.8-.6,8.4,0,2.7,0,4.9,2.3,7.7,3.3C63.27,86,65.57,85.86,67,86.66Zm-.4,11.9a17.57,17.57,0,0,1-3.3-.7,7.84,7.84,0,0,0,1.4.5c1.2.7,3.7.9,5-.4,1.3-1.1,2-2.8,3.6-3.2,1.3-.4,2.7.5,3.6,1.4.6.5.9,1.8,1.7,2.3a4.35,4.35,0,0,1-.8-1.5,5.26,5.26,0,0,0-2-2.2l-.1-.1c0-.1.1-.1.1-.2.1-1.5,1.2-2.9,2.8-2.6a4.25,4.25,0,0,1,1.7,1c.3.2.5.6.8.8a3.5,3.5,0,0,0,0,3,3.78,3.78,0,0,1,.4,2.1,3.08,3.08,0,0,0,.1-1c-.5-1.8-.9-4.5,1.4-4.8a4.6,4.6,0,0,1,2.4,1c.5.3,1.1.9,1.7.9a1.93,1.93,0,0,1-.9-.5,14.31,14.31,0,0,0-1.5-1.1c-.8-.6-2.4-.9-3.2.2-.1.1-.1.2-.2.3a2.18,2.18,0,0,1-.3-.5,3.18,3.18,0,0,0-1-1,2.35,2.35,0,0,0-2.4-.5,2.71,2.71,0,0,0-1.6,2,4.48,4.48,0,0,1-.1,1.1,3.63,3.63,0,0,0-4.8,1.1C69.67,97.06,68.67,98.66,66.57,98.56Zm14.9-10a23.06,23.06,0,0,0,7.1,4.1c1.4.7,3.4.7,4.7,1.5a9.34,9.34,0,0,0-2-1c-4.5-1.5-7.9-5.1-12.3-7.7a11.93,11.93,0,0,0-6.7-1.1c-1.4,0-3.8.8-4.3,2.2a3.37,3.37,0,0,1,2.3-1.3,10.66,10.66,0,0,1,4.7-.1A14.5,14.5,0,0,1,81.47,88.56Z"/></g></svg>