<?xml version="1.0" encoding="utf-8"?>
<!-- Generator: Adobe Illustrator 18.1.1, SVG Export Plug-In . SVG Version: 6.00 Build 0)  -->
<svg version="1.1" id="Layer_1" xmlns="http://www.w3.org/2000/svg" xmlns:xlink="http://www.w3.org/1999/xlink" x="0px" y="0px"
	 viewBox="0 0 62.9 142.8" enable-background="new 0 0 62.9 142.8" xml:space="preserve">
<g>
	<path fill="#01ABDF" d="M51.2,40c0-0.9,0.4-8.7-1.9-10.1c0,0-3.1,6.1-3.3,5.2c-0.3-2.3-0.7-4.3-1.1-6c0.3-1.3,0.3-2.8,0.2-4.8
		c-0.3-4.6-7.1-15.6-10.9-16c0,0-1.1,4.5-3.2,9.1c0-1.6-0.4-3.2-1.4-4.6c-2.5-3.5-4.8-7.4-6-12.8c0,0-6.6,7.1-9.5,13.2
		c-0.9,2-1,6.5-0.7,8c0.5,2.6,1.3,1.9,3,3.1c-4.3,5.5-5.6,15.8-5.6,15.8c-1,0.1-5.6-7.8-5.6-7.8c-3.9,5.4-5.9,10.3-4.9,16.6
		c0.4,2.3,2.6,11.8,3.3,13.4C5,66.2,6.3,65,8,67.5c1.8,2.8,5.1,3.7,7.5,5c4.2,2.3,8.4,3.5,16.1,1.9C47.5,71.3,51.8,71.4,51.2,40z
		 M5.8,43.2c-0.3,0.1-1.2,0.1-1.2,0.1s1-0.3,1.2-0.5c0.1-0.1,0.4-0.3,0.5-0.4c0,0,0,0,0.1,0.1C6.2,42.7,6,43.1,5.8,43.2z M12.7,50.9
		c0,0-0.3,0.4-0.5,0.5c-0.2,0.1-0.9,0.4-0.9,0.4s0.1-0.2,0.2-0.3c0.1-0.2,0.3-0.3,0.5-0.4c0.2-0.1,0.7-0.6,0.9-0.6L12.7,50.9z
		 M16.5,38.2c0,0.2-0.1,1-0.1,1s-0.1-0.2-0.2-0.3c-0.1-0.2-0.1-0.4-0.1-0.6c0-0.2,0.4-2.1,0.5-2.2l-0.3,1.5
		C16.3,37.5,16.5,38,16.5,38.2z M17.5,32.9c0.1-0.3,0.3-0.5,0.4-0.7L17.5,32.9z M19,27.2c0,0-0.2,0.5-0.4,0.6
		c-0.2,0.1-0.8,0.5-0.8,0.5s0.1-0.2,0.2-0.4c0.1-0.2,0.3-0.4,0.4-0.5c0.2-0.1,1.8-1,2-1L19,27.2z M33.8,15.1c0.3,0,0.7-0.2,0.9-0.2
		C34.5,14.9,34.1,15.1,33.8,15.1C33.8,15.1,33.8,15.1,33.8,15.1L33.8,15.1z M33.7,15.4c0.2-0.1,0.4-0.1,0.5-0.1c0.2,0,0.3,0,0.3,0
		s-0.6,0.2-0.8,0.3c0,0,0,0,0,0c0,0,0,0,0-0.1C33.7,15.5,33.7,15.5,33.7,15.4z M27.6,32.7c-0.2-0.1-0.3-0.3-0.5-0.5c0,0,0,0,0,0
		c0.1,0.1,0.3,0.3,0.5,0.3c0.2,0.1,1.2,0.4,1.2,0.4S27.8,32.7,27.6,32.7z M29.6,50.5C29.6,50.5,29.6,50.5,29.6,50.5
		C29.6,50.5,29.6,50.5,29.6,50.5c-0.2,0-0.8-0.3-0.8-0.3s0.1,0,0.3,0c0.2,0,0.3,0,0.5,0.1C29.6,50.3,29.6,50.4,29.6,50.5z
		 M30.9,44.3c0.1,0,0.6,0.2,0.9,0.2v0c0,0,0,0.1,0,0.1C31.4,44.5,31,44.3,30.9,44.3z M32,38.6c-0.3-0.1-0.8-0.2-0.8-0.2s0,0,0.2-0.1
		c0.1-0.1,0.4,0,0.5,0.1C32,38.5,32,38.5,32,38.6z M33.4,60.5C33.4,60.4,33.4,60.4,33.4,60.5l0.3,0.8C33.6,60.9,33.5,60.7,33.4,60.5
		z M35.2,45c-0.2,0.1-1.5-0.2-1.5-0.2s0.9,0.1,1.1,0.1c0.2,0,0.8-0.1,0.8-0.1S35.4,44.9,35.2,45z M36.4,29.5l0.4-0.4
		C36.8,29.2,36.6,29.4,36.4,29.5z"/>
	<path fill="#CFD2E6" d="M33.2,61.5l0.3,0.8C33.4,62,33.2,61.8,33.2,61.5C33.2,61.6,33.2,61.6,33.2,61.5z"/>
	<path fill="#01ABDF" d="M62.5,85.4c0,0.7-0.2,2.6-0.5,3c0,0-1.5,3.2-1.7,4c-4.1,18.5-8,43.3-10.3,49.5c0,0-9.8-5.8-10.1-20.5
		c-0.1-3.3,3.5-14.1,4-22.7c0,0-0.3-2.3-0.3-2.7c-0.1-0.7,0.8-2.8,0.5-3.4c0,0,1-2.1,1-2.1c0,0-1.6-1.8-1.6-1.8
		c-3.2-7.4-13.4-9.6-15.6-9.9c-0.1,0-6.6-2.8-7.3-3.3c0,0-4.3-1.2-5-1.8c-1.2-1.1-2.6-0.7-4.3-2.4c-1.5-1.5-2.3-0.8-2.7-1.6
		c-0.3-0.5-0.3-1.7,0.8-1.6c0.5,0,6.1,2.1,6.7,2.2c0,0,1.1,0.8,3,1.6c2.4,1,5.9,1.9,7.5,2.3c0,0,2.2,0.9,2.3,0.4
		c0,0-2.6-1.6-2.6-1.6c-0.4-0.3-10.5-5.7-11-6.1c-0.7-0.6-2.1-1-3.1-1.7c-0.1-0.1-0.8-0.3-0.9-0.4c-0.1-0.1-0.6-0.4-0.7-0.5
		c-2-1.6-2.8-2.1-3-2.5c-0.9-1.5-0.5-3.5,0.7-3.1c1.6,0.6,3.3,1.4,5,2.3c0.3,0.1,0.5,0.1,0.8,0.3c0.2,0.1,0.4,0.4,0.6,0.4
		c1,0.5,2.1,1,3.2,1.5c0.4,0.2,1.1,0.3,1.5,0.4c0.3,0.1,0.7,0.5,1.1,0.5c0.5,0.1,0.8,0.5,1.2,0.7c3.8,1.7,6.9,2.1,7.9,2.5
		c0.2,0.1,2.4,1.1,2.5,0.9c0.3-0.3,0.7-0.6,0.3-1.2c-1-1.6-4.9-4.4-7.5-6.7c-0.5-0.4-1.3-0.8-1.8-1.2c-0.5-0.5-0.6-0.9-1-1.4
		c-0.3-0.4-0.6-0.3-0.9-0.7c-0.9-1.1-2.9-3.1-4.8-4.9c-0.1-0.1-0.4-0.4-0.6-0.5c-1.7-1.6-2-2.6-2.1-3.2c-0.1-0.2-1.2-4.2,1.4-3.2
		c0,0,3,2.3,3.2,2.4c0.1,0,0.6,0.5,0.7,0.7c0.1,0.2,0.1,0.3,0.2,0.4c-0.1,0.2,4.9,3.8,6.5,5c0.3,0.2,0.5,0.9,0.7,1.1
		c0.3,0.3,0.3,0.1,0.7,0.3c3.2,2.5,6.1,5.4,8.3,6.5c0.4,0.2,0.7,0.7,1.1,0.9c0.6,0.3,2.1,0.4,2.1,0.3c0,0,0.9-0.4,1.3-1.4
		c0.2-0.7,0.3-0.7,0.3-1.2c-0.1-0.6,0.5-2.3,0.6-3.6c0.1-1.5-0.4-3.5-0.5-6.1c0-1.5,0.2-1.7,0.1-2.3c-0.2-1.1-0.6-2.2-0.5-6.2
		c0-0.3-0.4-1.8-0.4-2.2c-0.3-3.1,2-7.4,3.9-6.5c0.5,0.2,0.8,4,1.2,9c0,0.1,0.2,2.8,0.3,4.2c0,0.1,0,0.1,0,0.2c0,0.4,0.2,0.6,0.3,1
		c0.2,1,0.1,1.4,0.1,1.4c0,0,0,0,0,0c-0.1,0.4-0.1,0.8,0,1.1c0.6,4.5,1.6,9.3,2.1,12.2l0.3,0.6c0,0,0,0,0,0c0.1,0.2,0.2,0.6,0.5,0.6
		c0.1,0,0.4-0.4,0.4-0.5c0-0.6,0.4-3.9,0.4-4.6c0-0.2,0.2-0.9,0.2-1.1c0-0.3-0.2-1.2-0.2-1.5c0.3-3.7,0.9-6.3,3.8-5.8
		c0.2,0,0.1,2.8,0.3,6.7c0,0.2,0.1,0.5,0.2,0.8c-0.2,0,0.1,0,0,0.2c0,0,0,0,0,0c0,0,0,0,0,0c0.1,0.3,0.1,0.5,0.1,0.7
		c0,0.3,0,0.5-0.1,0.7c0,0,0.1,0.1,0,0.3c0,0.1,0,0.2,0,0.3c0.1,2.2,1.6,6.3,1.9,8.3c0.1,0.5,0.9,1.6,0.9,2c0.1,0.9,1.1,3.5,1.1,4.1
		c0,0,1.2,0.6,1.8,1.6C60.2,77.9,62.5,82.9,62.5,85.4z"/>
	<path fill="#01ABDF" d="M23.3,57.6C23.3,57.6,23.3,57.6,23.3,57.6c0.1,0.2,0.3,0.5,0.4,0.7L23.3,57.6z"/>
	<path d="M45.1,47.7c-0.4-0.1-1.5-0.2-1.5-0.2s1.1-0.1,1.5,0.1c0-0.2,0.1-0.5,0-0.6c-0.2-0.4-0.3-0.6-0.3-1c0-0.1,0-0.1,0-0.2
		c-0.1-1.4-0.2-2.7-0.3-4c-0.3,0-0.8-0.1-0.8-0.1s0,0,0.2-0.1c0.1-0.1,0.3,0,0.5,0c-0.4-5-0.7-8.9-1.2-9.1c-1.9-0.9-4.2,3.5-3.9,6.6
		c0,0.4,0.5,1.9,0.5,2.2c-0.2,4.1,0.3,5.2,0.5,6.3c0.1,0.6-0.1,0.9-0.1,2.4c0.1,2.7,0.6,4.7,0.5,6.2c-0.1,1.3-0.7,3-0.6,3.7
		c0.1,0.5,0,0.6-0.3,1.3c-0.4,1-1.3,1.4-1.3,1.4c0,0.1,0.4,0.1,0.5,0.2c0.5,0.3,0.9,0.5,0.5,0.4c-0.5-0.1-2.5-0.4-3.1-0.9
		c-0.4-0.2-0.7-0.7-1.1-0.9c-2.2-1.1-5.2-4-8.4-6.6c-0.3-0.3-0.4-0.1-0.7-0.3c-0.3-0.2-0.5-0.9-0.7-1.1c-1.7-1.3-4.6-3.5-6.5-5
		c0,0-0.7,0.2-0.9,0.3c-0.2,0.1-1,0.9-1,0.9s0.6-0.9,0.8-1c0.1-0.1,0.8-0.1,0.9-0.3c-0.1,0-0.1-0.2-0.2-0.4
		c-0.1-0.2-0.7-0.7-0.8-0.7c-0.1-0.1-3.2-2.4-3.2-2.4c-2.7-1-1.5,3.1-1.4,3.3c0.2,0.6,0.4,1.6,2.2,3.2c0.1,0.1,0.5,0.4,0.6,0.5
		c2,1.8,4,3.9,4.9,5c0.3,0.4,0.6,0.3,0.9,0.7c0.5,0.5,0.5,0.9,1,1.4c0.5,0.5,1.3,0.8,1.8,1.3c2.7,2.3,6.6,5.2,7.7,6.8
		c0.4,0.6,0,0.9-0.3,1.2c-0.1,0.2-2.4-0.9-2.6-1c-1-0.3-4.2-0.8-8.1-2.5c-0.4-0.2-0.7-0.6-1.2-0.7c-0.3-0.1-0.8-0.4-1.1-0.5
		c-0.4-0.2-1.1-0.3-1.5-0.4c-1.1-0.5-2.2-1-3.3-1.5c-0.2-0.1-0.4-0.4-0.6-0.5c-0.3-0.1-0.5-0.1-0.8-0.3c-1.8-0.9-3.4-1.7-5.1-2.3
		c-1.2-0.4-1.6,1.7-0.7,3.2c0.3,0.4,1.1,0.9,3.1,2.6c0.1,0.1,0.6,0.4,0.7,0.5c0.1,0.1,0.8,0.3,0.9,0.4c1.1,0.6,2.4,1.1,3.2,1.7
		c0.5,0.4,10.8,5.9,11.2,6.2c0.1,0.1,2.7,1.6,2.7,1.6c0,0.5-2.3-0.4-2.3-0.4c-1.9-0.5-5.6-1.6-8.1-2.6c-0.5-0.2-1.3-0.7-1.7-0.8
		c-0.2-0.1-0.6-0.3-0.7-0.4c-0.4-0.2-1.5-0.6-1.5-0.6c-0.6-0.1-5-1.6-5.5-1.7C8,68,8,69.2,8.3,69.7c0.4,0.7,0.2,0.6,1.8,2.1
		c1.7,1.7,3.2,1.4,4.4,2.5c0.7,0.6,4.3,2.3,4.3,2.3c0.8,0.5,7.7,3.9,7.7,3.9c0,2.7,13,7.8,16.3,15.4c0,0,0,0,0,0c0,0,0,0,0,0.1
		c0.3,0.6,0.5,1.3,0.6,1.9c0,0.4-0.1,0.7-0.1,0.7c-0.5,8.7-7.5,22-7.4,25.4c0.3,14.9,14.3,18.7,14.3,18.7
		c2.4-6.2,6.3-31.4,10.5-50.2c0.2-0.9,1.7-4.1,1.7-4.1c0.3-0.5,0.5-2.3,0.5-3.1c0-2.5-2.4-7.6-3.8-9.9c-0.6-1-1.6-0.8-2.3-1.8
		c-1.3-1.6-0.5-0.6-2-2c0,0-1.8-2.6-3.1-4.1c0,0,1.2,1.4,1.1,1.1c0.3,0.4,1.1,1.6,1.7,2.1l2.9,3.2c0-0.6-1.1-3.2-1.1-4.1
		c0-0.4-0.9-1.6-0.9-2.1c-0.3-2-1.8-6.2-1.9-8.5c0-0.1,0-0.2,0-0.3c-0.1,0-0.2,0.1-0.3,0.1c-0.2,0-0.8-0.3-0.8-0.3s0.3,0.1,0.5,0
		c0.2-0.1,0.2,0,0.4,0c0.1,0,0.2,0,0.3,0c0.1-0.2,0.1-0.4,0.1-0.7c0-0.2-0.1-0.4-0.1-0.7c0,0,0,0,0,0c0,0,0,0.1,0,0.1
		c-0.2,0-0.3,0-0.5-0.1c-0.2,0-0.4-0.1-0.4-0.1s0.7,0,0.9,0c-0.1-0.3-0.2-0.6-0.2-0.8c-0.2-4-0.1-6.8-0.3-6.8
		c-3-0.5-3.5,2.1-3.9,5.9c0,0.3,0.2,1.2,0.2,1.5c0,0.2-0.2,0.9-0.2,1.1c-0.1,0.7-0.4,4.1-0.4,4.7c0,0.1,1.6,2.3,1.6,2.3
		s-1.6-1.7-1.7-1.8c-0.3,0-0.8-0.7-0.8-0.7c0,0,0.1,0.2,0.1,0.2l-0.5-0.8c-0.5-3-1.6-7.9-2.2-12.4c0-0.4-0.1-0.8,0-1.1c0,0,0,0,0,0
		c-0.2-0.1-1.6-0.2-1.6-0.2s1.5-0.1,1.7-0.1 M25.3,56.3c0.1-0.2,0.3-0.4,0.4-0.5c0.2-0.1,0.4-0.4,0.6-0.4c0.2,0,0.2,0.2,0.2,0.2
		s-0.5,0.3-0.6,0.4c-0.2,0.1-0.7,0.7-0.7,0.7S25.2,56.5,25.3,56.3z M27.1,56.6c0,0-0.3,0.4-0.5,0.5c-0.2,0.1-0.7,0.7-0.7,0.7
		s0.1-0.2,0.2-0.4c0.1-0.2,0.3-0.4,0.4-0.5c0.2-0.1,0.6-0.7,0.8-0.7L27.1,56.6z M43.7,107c0.1-2.1,0.6-5.8,0.6-7.9
		c0-1.4-0.5-1.5-0.5-2c0.2,0.5,0.6,0.8,0.8,1.5C44.8,99.9,43.7,107.9,43.7,107z"/>
	<path fill="#01ABDF" d="M18.8,64.6c-0.1,0.1-0.5,0.9-0.5,0.9s0.5-0.5,0.5-0.6c0-0.1,0.6-0.5,0.5-0.6C19.1,64.5,18.9,64.5,18.8,64.6
		z"/>
	<path fill="#01ABDF" d="M18.4,64.2c-0.1,0-0.4,0.2-0.4,0.2c-0.2,0.2-0.4,0.9-0.4,0.9s0.3-0.7,0.6-0.9c0.2-0.2,0.5,0,0.6-0.2
		C18.8,64.2,18.4,64.3,18.4,64.2z"/>
	<path fill="#01ABDF" d="M13,61.6c-0.1,0.1-0.3,0.3-0.3,0.4c0,0.2,0,0.2,0,0.2s0.7-0.7,0.9-0.9C13.5,61.3,13.1,61.6,13,61.6z"/>
	<path fill="#01ABDF" d="M37.7,66.9c0.2-0.4,1.2-1.7,1.2-1.7s-1.2,0.6-1.5,1c-0.1,0.3-0.2,1.2-0.2,1.8c0,0,0.1,0,0.1,0.1
		C37.4,67.6,37.5,67.1,37.7,66.9z"/>
	<path fill="#01ABDF" d="M34.4,73.6c0-0.4,0.8-2.1,0.8-2.1s-0.7,0.3-0.8,0.8C34.4,72.6,34.3,73.9,34.4,73.6z"/>
	<path fill="#01ABDF" d="M14.5,69.8c0,0-0.4,0.1-0.6,0.2c-0.1,0.1-0.3,0.2-0.3,0.3c-0.2,0.1-0.3,0.7-0.3,0.7l0.7-0.9L14.5,69.8z"/>
	<path fill="#01ABDF" d="M19.9,73.9c0,0,0.2-0.7,0.4-0.8c0.1-0.1,0.4-0.2,0.6-0.2c0.2,0,0.4,0,0.4,0s-0.3,0-0.5,0.1
		c-0.1,0.1-0.3,0.2-0.4,0.2C20.2,73.3,19.9,73.9,19.9,73.9z"/>
</g>
</svg>
