<?xml version="1.0" encoding="utf-8"?>
<!-- Generator: Adobe Illustrator 18.1.1, SVG Export Plug-In . SVG Version: 6.00 Build 0)  -->
<svg version="1.1" id="Layer_1" xmlns="http://www.w3.org/2000/svg" xmlns:xlink="http://www.w3.org/1999/xlink" x="0px" y="0px"
	 viewBox="0 0 288 288" enable-background="new 0 0 288 288" xml:space="preserve">
<g>
	<g>
		<g>
			<path fill="#2A98B7" d="M158.6,227H8.7V91c0-16,13-29,29-29l92.3,0.4c16,0,28.6,12.6,28.6,28.6V227z"/>
			<path fill="#010101" d="M158.1,226.6c-5,0-9.9,0-14.9,0c-11.9,0-23.8,0-35.8,0c-14.4,0-28.9,0-43.3,0c-12.5,0-25,0-37.4,0
				c-4.1,0-8.3,0-12.4,0c-1.8,0-4.1-0.4-5.8,0c-0.1,0-0.2,0-0.3,0c0.4,0.2,0.8,0.4,1.3,0.6c0-9.3,0-18.7,0-28c0-19,0-38,0-57
				c0-15.1,0-30.2,0-45.3c0-3.9-0.2-7.8,0.6-11.6c2.7-13.3,14.6-22.9,28.1-23c12.5-0.1,25.1,0,37.6,0c16.7,0,33.3,0,50,0
				c1.4,0,2.8,0,4.1,0c6.1,0.1,11.9,2,16.7,5.7c7.5,5.8,11.1,14.5,11.1,23.8c0,12.1,0,24.3,0,36.4c0,19.3,0,38.6,0,57.9
				c0,12.9,0,25.7,0,38.6c0,0.7,0,1.3,0,2c0,0.5,1.6,0.8,1.6,0.5c0-9.6,0-19.2,0-28.9c0-19.3,0-38.6,0-57.9c0-14.9,0-29.8,0-44.7
				c0-4.9,0-9.7-1.7-14.4c-4.3-12-16-19.7-28.6-19.8c-12.5-0.1-25,0-37.4,0c-16.9,0-33.7,0-50.6,0c-7,0-13.6,0.7-19.7,4.6
				c-8.6,5.5-13.5,15-13.5,25.2c0,11.7,0,23.3,0,35c0,19.6,0,39.2,0,58.7c0,13.2,0,26.5,0,39.7c0,0.7,0,1.3,0,2
				c0,0.5,0.9,0.6,1.3,0.6c5,0,9.9,0,14.9,0c11.9,0,23.8,0,35.8,0c14.4,0,28.9,0,43.3,0c12.5,0,25,0,37.4,0c4.1,0,8.3,0,12.4,0
				c1.3,0,2.5,0,3.8,0c0.6,0,1.5,0.2,2,0c0.1,0,0.2,0,0.3,0C159.9,227.4,158.5,226.6,158.1,226.6z"/>
		</g>
		<g>
			<g>
				<path fill="#010101" d="M64,177c-1.3,0-2.1-2.7-2.8-3.9c-0.3-0.5-0.6-1-0.8-1.6c-0.4-1.2,0.1-1.8,0.7-2.5
					c0.9-0.9,1.8-2.3,2.8-2.9c1-0.7,2,0.2,2.9-1.2c0.6-0.9,0.6-2.1,0.6-3.2c-0.1-1.5,0-3.3-0.3-4.8c-0.6-3.6-4.6,0.3-5.9-1.8
					c-0.8-1.2-1.2-2.9-1.8-4.2c-0.8-1.7,0-2.5,1-3.4c1.1-1.1,2.3-2.1,3.4-3.2c0.6-0.5,1.2-1.3,1.8-1.4c0.8-0.1,1.7,0.2,2.5,0.2
					c1.3,0.1,2.7,0.3,4,0.4c1.3,0.1,2.7,0.3,4,0.4c0.6,0.1,1.5-0.1,2,0.2c0.3,0.2,0.6,0.6,0.8,0.8c0.5,0.4,1.2,0.7,1.7,1
					c1.3,0.8,3.2,1.3,2.5,4c-0.2,0.7-0.7,1.4-1.1,1.9c-0.2,0.4-0.8,1.9-1.2,2c-0.3,0.1,0.4,0-0.4-0.1c-0.3,0-0.5-0.3-0.5-0.3
					c0-0.4,1.1-1.4,1.3-1.7c0.1-0.2-0.2-0.2-0.2-0.2c-0.7,0.1-1.1,0.8-1.2,2c-0.1,0.6-0.2,1.2-0.1,1.8c0.2,2.2,0.8,4.9,1.1,7
					c0.2,1.7-0.3,3.3,1,3.8c0.1,0,0.4,0,0.6,0.1c0.6,0.2,0.7,0.1,1,0.8c0.5,1.4,0.6,3.6,0.2,5.1c0.2,0,0.4-0.1,0.6-0.1
					c0,0,0-0.1,0-0.1c0-0.2-0.2-0.1-0.3-0.1c-6.8,1.7-13.5,3.5-20.3,5.2c-0.3,0.1-0.3,0.4,0,0.3c6.8-1.7,13.5-3.5,20.3-5.2
					c-0.1,0-0.2-0.1-0.3-0.1c0,0.1,0,0.1,0,0.2c0,0.2,0.5,0,0.6-0.1c0.3-1.1,0.2-2.5,0.1-3.6c-0.2-1.5-0.3-2.2-1.3-2.5
					c-0.4-0.1-1.1-0.1-1.4-0.4c-0.6-0.7-0.8-2.9-1-4c-0.3-2-0.5-4-0.7-6c-0.1-0.6-0.3-1.4-0.2-2c0.1-1.4,1.4-2.3,0.7-1.5
					c-0.2,0.2-0.3,0.4-0.5,0.6c-0.2,0.3-0.5,0.6-0.7,0.9c-0.1,0.1,0,0.2,0.1,0.2c1.2,0.4,1.4,1.1,2.2-0.3c0.6-1.1,1.7-2.3,2.1-3.7
					c1-3.7-3-4.1-4.4-5.3c-0.7-0.6-0.8-0.8-1.5-0.9c-1.2-0.1-2.4-0.2-3.6-0.3c-2.7-0.3-5.3-0.5-8-0.8c-1.7-0.2-3,1.7-4.4,2.9
					c-0.9,0.9-2,1.7-2.9,2.7c-0.9,1.1-0.7,2-0.1,3.1c0.6,1.3,1.3,3.2,2.2,4.1c0.8,0.9,2.3,0.3,3.3,0.2c0.8-0.1,1.9-0.3,2.1,1.2
					c0.1,0.6,0.1,1.4,0.1,2c0.1,1,0.1,2,0.2,3c0,0.5,0.2,1.5,0.1,2c0,0-1.4,1.4-1.4,1.4c-0.1,0-0.3-0.2-0.5-0.2
					c-0.4,0.1-0.6,0-0.9,0.2c-0.4,0.2-0.7,0.6-1,0.9c-0.9,1-2.1,1.9-2.9,3.1c-1.1,1.5,0.2,3.2,0.9,4.5c0.8,1.5,1.3,3.4,2.7,3.4
					C63.9,177.4,64.3,177,64,177z"/>
				<path fill="#010101" d="M64,176.8c-1.3-0.2-1.9-2.7-2.4-3.7c-0.4-0.9-1.1-1.7-0.9-2.8c0.2-0.8,1-1.5,1.5-2.1
					c0.5-0.6,1-1.3,1.6-1.8c1-0.7,1.5-0.4,2.4-0.7c1-0.4,1.4-1.6,1.5-2.7c0.2-1.7,0-3.8-0.2-5.5c-0.1-0.7-0.2-1.6-0.8-2.1
					c-1.1-0.9-2.3-0.1-3.5-0.1c-2.2,0-3-2.8-3.5-4.5c-0.7-2.2,0.7-3,2.1-4.4c0.8-0.7,1.5-1.4,2.3-2.1c1.1-1.1,1.1-1.2,3.3-1.2
					c1.8,0,3.7,0.4,5.5,0.6c1.1,0.1,2.1,0.2,3.2,0.3c1,0.1,1.7,0.4,2.5,0.9c1,0.6,2.1,1.1,3,1.8c1.8,1.2,1.3,3,0.4,4.6
					c-0.5,0.8-0.8,2.1-1.5,2.5c-0.2,0.1,0.6,0.3,0.7,0.3c0,0,0,0,0.1,0c0.1,0,0.1-0.1,0.1-0.1c-0.1-0.4-0.6-0.5-0.4-1.1
					c0.1-0.5,1-0.7,0.9-1.2c0-0.1-0.3-0.2-0.4-0.2c-3.5-0.6-1.3,7.9-1,9.4c0.3,1.7-0.3,4.3,1.3,5.4c0.6,0.4,1.3,0.5,1.7,1.3
					c0.6,1.2,0.3,3.3,0.1,4.6c0,0.2,0.5,0.3,0.7,0.2c0.2,0,0.4-0.1,0.6-0.1c0,0,0.1,0,0.1-0.1c0.2-1.2-7,1.1-7.6,1.2
					c-2.6,0.7-5.2,1.3-7.8,2c-1.3,0.3-2.6,0.7-3.9,1c-0.7,0.2-1.6,0.3-2.3,0.7c0,0,0,0.1,0,0.1c0,0.1,0,0.1,0,0.2
					c0,0.1,0.4,0.2,0.5,0.2c1.1,0.1,2.4-0.5,3.5-0.8c2-0.5,3.9-1,5.9-1.5c3.8-1,7.5-1.9,11.3-2.9c0.2-0.1,0.1-0.2,0-0.3
					c-0.1,0-0.2-0.1-0.3-0.1c-0.1,0-0.6-0.2-0.6,0c0,0.1,0,0.1,0,0.2c0,0.1,0.1,0.1,0.1,0.1c2,1.5,1.8-5.3,0.3-6.2
					c-0.7-0.5-1.5-0.3-2-1.1c-0.6-1.1-0.5-2.8-0.7-4c-0.2-1.7-0.4-3.5-0.6-5.2c-0.1-1-0.7-3.1,0.6-3.8c-0.2-0.1-0.5-0.2-0.7-0.2
					c-0.2,0.7-1.7,1.4-1.3,2.2c0.1,0.3,1.5,0.8,1.9,0.7c1-0.2,1.8-2.1,2.3-2.9c0.7-1.2,1.3-2.6,0.7-4c-0.4-0.9-1.2-1.4-2-1.9
					c-0.5-0.3-1-0.5-1.4-0.7c-0.7-0.3-1.1-0.9-1.8-1.2c-1-0.5-2.2-0.5-3.3-0.6c-2.6-0.2-5.2-0.5-7.8-0.7c-1.4-0.1-2.5-0.3-3.8,0.5
					c-1.5,1-2.9,2.6-4.2,3.8c-1.3,1.2-2.1,2.1-1.5,3.8c0.5,1.4,1.3,3.7,2.5,4.7c0.5,0.5,1.2,0.6,1.9,0.7c0.7,0,1.6-0.4,2.3-0.3
					c1.7,0.3,1.3,2.5,1.4,3.8c0.1,1.4,0.7,3.5-0.2,4.7c-0.1,0.2-1.2,1-0.7,0.9c0,0-0.5-0.1-0.6-0.1c-1.7,0-3.2,2.1-4.2,3.3
					c-1.6,1.8-1.3,3-0.2,5c0.4,0.8,2.4,5.8,4.2,3.8c0.1-0.1,0-0.1-0.1-0.2c0,0-0.1-0.1-0.1-0.1c-0.2-0.1-1-0.1-0.6,0.1
					c-0.5-0.3-0.6-0.2-1-0.7c-0.3-0.3-0.5-0.7-0.6-1.1c-0.2-0.5-0.5-1-0.7-1.5c-1-1.8-1.6-3.1-0.2-4.9c0.8-1,1.8-2.1,2.8-2.9
					c0.8-0.6,1.1-0.1,1.8-0.4c1.2-0.4,1.6-1.7,1.5-2.8c-0.1-1.5-0.2-2.9-0.3-4.4c0-0.8,0-1.8-0.6-2.4c-0.3-0.3-0.8-0.4-1.2-0.5
					c-0.3,0-0.7,0-1,0c-1,0.1-0.9,0.2-2.2-0.4c-1.3-0.6-1.4-1-2-2.2c-0.2-0.5-0.5-1.1-0.7-1.6c-0.9-2,0-3.1,1.5-4.4
					c1-0.9,1.9-1.8,2.9-2.7c1.1-1,1.9-1.3,3.4-1.4c0.9,0,1.9,0.2,2.8,0.3c2.9,0.3,6.9,0,9.3,1.7c1.9,1.3,4.8,1.7,4.2,4.8
					c-0.2,0.9-0.7,1.6-1.1,2.4c-0.3,0.5-0.8,1.7-1.3,2c-0.8,0.5-0.9-0.3-0.6-0.9c0.2-0.4,0.7-0.7,0.9-1.2c0.1-0.2-0.6-0.3-0.7-0.2
					c-1.2,0.6-0.9,2.3-0.8,3.3c0.3,2.6,0.6,5.3,0.9,7.9c0.2,1.3,0.3,2.3,1.4,3c1,0.6,1.7,0.7,2,1.9c0.1,0.8,0.2,1.6,0.2,2.4
					c0,0.6,0.2,1.4,0.1,1.9c-0.2,0-0.4,0-0.6,0c-0.9-0.4-3.9,0.9-4.8,1.1c-1.7,0.4-3.4,0.9-5.1,1.3c-1.6,0.4-3.1,0.8-4.7,1.2
					c-0.8,0.2-1.6,0.4-2.3,0.6c-0.5,0.1-1,0.3-1.6,0.4c-0.9,0.1-1,0.2-0.5,0.2c1.5,0.1,3.5-0.8,4.9-1.2c1.6-0.4,3.1-0.8,4.7-1.2
					c3.1-0.8,6.5-1.9,9.3-2.6c0.2,0.1,0.4,0.2,0.7,0.2c0.3-1.4,0.6-4.4-0.5-5.6c-0.3-0.4-0.6-0.3-1-0.5c-1.5-0.7-1.2-1.8-1.4-3.3
					c-0.2-2.6-1.1-5.1-1.2-7.7c0-0.3,0.6-3.3,0.7-3.2c-0.1-0.2-1.1,1.2-1.3,1.5c0,0,0,0.1,0,0.1c0.3,0.2,0.5,0.4,0.8,0.3
					c0.2,0.1,0.5,0.2,0.7,0.3c0.7-0.4,1-1.5,1.3-2.2c0.6-1.1,1.4-2.1,1.1-3.4c-0.4-2-3.4-2.9-4.8-4c-0.6-0.4-0.9-0.6-1.6-0.7
					c-1.9-0.2-3.8-0.3-5.7-0.4c-1.8-0.2-3.7-0.5-5.5-0.6c-1.1,0-1.5,0.3-2.3,1c-1.4,1.2-2.7,2.5-4,3.7c-0.7,0.7-1.3,1.4-1.1,2.5
					c0.2,1.4,1.1,3.3,1.8,4.5c0.3,0.6,0.6,1,1.3,1.3c1.6,0.6,4.1-1.3,4.9,0.9c0.6,1.6,0.4,4,0.4,5.6c0,1.2-0.1,1.8-1.1,2.6
					c-0.9,0.7-1,0.5-1.8,0.8c-1.3,0.5-2.2,2-3.1,3c-0.9,1.1-1.3,1.9-0.7,3.3c0.7,1.7,1.6,4.8,3.7,5.2
					C64.4,177.3,64.5,176.9,64,176.8z"/>
			</g>
			<path fill="#FFFFFF" d="M64.8,176.4c-0.4,0.1-0.9-0.2-1.1-0.7l-2.2-4.8c-0.3-0.6-0.2-1.5,0.2-2l2.9-3.4c0.4-0.4,0.9-0.5,1.3-0.3
				h0c0.8,0.5,1.8-0.4,1.7-1.6l-0.4-6.8c-0.1-0.8-0.6-1.4-1.2-1.4l-2.6,0.3c-0.4,0-2-0.3-2.2-0.8l-1.9-4.5c-0.3-0.7,0.2-1.6,0.7-2.1
				l5.5-4.7c0.2-0.2,0.4-0.3,0.6-0.3l11.1,1.2c0.2,0,0.5,0.6,0.6,0.7l3.5,2.4c0.5,0.3,0.4,2.2,0.3,2.9l-2,3.7
				c-0.1,0.8-0.7-0.3-1.3-0.4l1.3-1.8c-0.8-0.1-1.4,0.8-1.3,1.8l0.8,7.6c0.1,1.1,0.7,4.9,1.4,4.2l1.3,0.4c1.1,3.1,0.3,6.3,0.4,5.4
				L64.8,176.4z"/>
		</g>
		<path fill="#010101" d="M100.4,194.1h-3.2l-28.8-23l-9.9-10c0,0,23-3.1,28.6,1.5c6.4,5.3,7.5,10.6,7.5,10.6L100.4,194.1z"/>
		<path fill="#FFFFFF" d="M69.1,166.6c0,0-0.9-1.3-1.1-1.7c-1.1-2.4-1.1-10.2-1.1-10.2l2.1-0.4V166.6z"/>
		<g>
			<g>
				<path fill="#FFFFFF" d="M87.7,208.5L67,210c-0.5,0-0.9-0.3-1.2-0.8l-2.1-5c-0.3-0.7-0.1-1.5,0.3-2l3.3-3.2
					c0.4-0.4,0.9-0.4,1.4-0.1l0,0c0.8,0.6,1.9-0.2,1.9-1.4l-0.2-6.9c0-0.8-0.6-1.5-1.2-1.5l-2.8,0c-0.5,0-0.9-0.3-1.1-0.8l-2-4.7
					c-0.3-0.7-0.1-1.6,0.4-2l5.4-4.6c0.2-0.2,0.4-0.3,0.7-0.3l12.3-0.2c0.2,0,0.4,0.1,0.6,0.2l5.1,3.3c0.5,0.3,0.8,1.1,0.6,1.8
					l-1,4.4c-0.2,0.8-0.8,1.3-1.4,1.2l-2.1-0.4c-0.8-0.1-1.5,0.7-1.4,1.7l0.6,7.7c0.1,1.1,1.1,1.8,1.9,1.2l0.1-0.1
					c0.5-0.4,1.1-0.3,1.5,0.2l3.2,4.1c0.3,0.4,0.4,1.1,0.3,1.6l-1.2,4.1C88.6,208.1,88.2,208.5,87.7,208.5z"/>
				<path fill="#010101" d="M87.5,208.3c-3.8,0.3-7.6,0.5-11.4,0.8c-2.3,0.2-4.7,0.3-7,0.5c-1.7,0.1-2.4,0.5-3.3-1.3
					c-0.8-1.7-2.7-4.7-1.4-6.3c0.7-0.9,1.7-1.6,2.5-2.4c0.8-0.8,1-0.6,2.1-0.5c2.2,0.2,1.8-2.5,1.8-3.9c0-1.2-0.1-2.4-0.1-3.6
					c0-0.8,0.1-1.8-0.5-2.4c-1.4-1.5-3.7,0.6-4.9-1.5c-0.9-1.6-2.8-5-1.2-6.5c1.5-1.4,3.3-3.3,5.1-4.3c1.2-0.7,3.3-0.3,4.6-0.3
					c2.4,0,4.8-0.1,7.3-0.1c1.7,0,3.1,1.3,4.5,2.2c0.8,0.5,1.6,0.8,2.1,1.7c0.6,1.1,0,2.4-0.2,3.5c-0.2,1.1-0.2,2.8-1.5,3
					c-0.8,0.1-1.7-0.5-2.6-0.3c-2,0.5-1.1,4.1-1,5.5c0.1,1.4-0.3,5.1,1.5,5.6c1,0.2,1.4-0.6,2.4,0c1,0.7,1.8,2.3,2.5,3.2
					c0.7,1,0.9,1.7,0.6,2.9c-0.3,1.1-0.7,4-2,4.4c-0.4,0.1,0.4,0.3,0.6,0.2c1.1-0.3,1.2-1.1,1.5-2.1c0.3-1.1,0.9-2.3,1-3.5
					c0.1-1.1-0.7-1.8-1.3-2.6c-0.7-0.9-1.4-2-2.2-2.8c-0.6-0.6-1-0.5-1.7-0.5c-0.9-0.1-1,1.7-1.8-0.8c-0.1-0.4-0.1-1-0.1-1.4
					c-0.1-1.3-0.2-2.5-0.3-3.8c-0.1-0.8-0.5-2.8,0-3.5c1.3-1.8,3.7,1.4,4.7-1.6c0.5-1.6,1.6-4.8,0.2-6.1c-0.7-0.6-1.6-1-2.4-1.5
					c-0.9-0.6-1.8-1.3-2.7-1.7c-1.4-0.6-3.3-0.2-4.7-0.2c-2.6,0-5.2,0.1-7.7,0.1c-1.5,0-2.2,0.7-3.3,1.6c-1.2,1-4.7,2.9-4.5,4.9
					c0.1,0.9,0.7,1.9,1.1,2.8c0.4,0.9,0.7,2.3,1.4,3c1.7,1.7,4.3-1.1,4.9,2.2c0.2,1.2,0.1,2.6,0.1,3.8c0,0.9,0.3,2.3-0.1,3.2
					c-0.6,1.5-1.5,0.3-2.6,0.7c-0.8,0.3-1.6,1.3-2.2,1.9c-0.6,0.6-1.6,1.2-1.9,2c-0.5,1.1,0.2,2.3,0.7,3.2c0.7,1.5,1.1,4.3,3.1,4.3
					c1.9,0,3.9-0.3,5.8-0.4c4.9-0.4,9.9-0.7,14.8-1.1C88.3,208.6,87.9,208.3,87.5,208.3z"/>
			</g>
			<g>
				<path fill="#010101" d="M87.5,208.3c-3.1,0.2-6.2,0.4-9.3,0.7c-2.3,0.2-4.6,0.3-6.9,0.5c-1.3,0.1-2.8,0.5-4.1,0.3
					c-1.5-0.2-2.2-3.2-2.8-4.7c-0.1-0.3-0.3-0.6-0.4-0.9c-0.3-1.2,0.2-1.6,0.7-2.3c0.8-0.9,1.7-1.9,2.6-2.6c1.3-1,3.4,1,3.5-2.3
					c0-2,0.1-4.5-0.2-6.5c-0.4-2.7-3-1.2-4.3-1.6c-1-0.3-1.4-1.9-1.9-3c-0.6-1.3-1.7-3-0.6-4.3c1.3-1.6,3.2-2.7,4.6-3.9
					c1.1-1,2-0.9,3.4-0.9c2.3,0,4.6-0.1,6.8-0.1c1.2,0,2.8-0.4,3.9,0.2c0.8,0.4,1.6,1,2.4,1.6c0.8,0.5,1.7,0.9,2.4,1.5
					c1.1,1,0.4,2.7,0.1,4.1c-0.4,1.7-0.5,3-2.1,2.9c-0.8,0-1.7-0.6-2.5-0.1c-0.9,0.6-0.7,1.9-0.6,3.1c0.1,1.6,0.2,3.2,0.4,4.9
					c0.1,0.9,0,2,0.7,2.7c1,1,2-0.4,3,0.2c0.8,0.5,1.6,2,2.2,2.8c0.9,1.1,1.4,1.6,1,3.3C89.2,205.3,88.7,208,87.5,208.3
					c-0.4,0.1,0.2,0.4,0.3,0.3c1-0.3,1.2-1.2,1.6-2.3c0.3-1,1-2.5,0.9-3.6c-0.1-1.1-1.1-2-1.7-2.7c-0.6-0.8-1.2-1.8-1.9-2.5
					c-0.3-0.3-0.6-0.5-1-0.6c-0.4-0.1-0.7,0.3-1.1,0.3c-1.7,0.1-1.4-2.1-1.5-3.7c-0.1-1.5-0.2-3-0.3-4.4c0-0.9-0.1-1,0.6-1.6
					c0.7-0.7,1.1-0.4,2-0.3c0.8,0.1,1.7,0.3,2.2-0.7c0.5-0.9,0.6-2.5,0.8-3.6c0.3-1.3,0.6-2.3-0.4-3.2c-0.6-0.5-1.4-0.9-2.1-1.3
					c-1.2-0.8-2.7-2.1-4.1-2.2c-1.9-0.1-3.7,0.1-5.6,0.1c-2.1,0-4.2,0-6.3,0.1c-1.4,0.1-2.4,1.3-3.5,2.3c-1.1,0.9-4.2,2.5-3.5,4.8
					c0.3,1.2,1,2.3,1.4,3.3c0.4,0.9,0.7,1.9,1.4,2.2c0.8,0.4,1.9,0.1,2.7,0.1c0.7,0,1.4,0.2,1.6,1.3c0.1,0.4,0,1.1,0,1.5
					c0,1.5,0.1,3,0.1,4.5c0,0.5,0.1,1.2-0.2,1.7c-0.2,0.3-1,0.5-1.3,0.5c-0.2,0-0.4-0.2-0.7-0.2c-0.9-0.1-1.6,0.9-2.3,1.6
					c-0.7,0.7-1.6,1.3-2.2,2.2c-0.7,1.1-0.1,2.1,0.3,3.1c0.5,1.2,1,2.6,1.6,3.7c0.7,1.2,1.5,1.1,2.5,1c1.9-0.1,3.7-0.3,5.6-0.4
					c4.4-0.3,8.9-0.6,13.3-0.9c0.3,0,0.6,0,0.9-0.1C88.2,208.6,87.7,208.3,87.5,208.3z"/>
				<path fill="#010101" d="M87.3,208.2c-5.4,0.4-10.8,0.7-16.2,1.2c-1.2,0.1-3.5,0.8-4.5-0.1c-0.6-0.5-1-1.7-1.3-2.5
					c-0.3-0.7-0.6-1.4-0.9-2.2c-0.5-1.4,0-2.1,0.9-3.1c0.7-0.7,1.6-2,2.7-2.3c0.6-0.2,1.1,0.1,1.7,0c1.1-0.2,1.3-1,1.4-2.1
					c0.1-2.1,0.3-4.5-0.2-6.5c-0.2-1-0.6-1.6-1.5-1.8c-1.4-0.4-2.6,0.4-3.8-0.8c-0.5-0.5-0.8-1.8-1.1-2.5c-0.7-1.6-1.2-2.7,0-4.2
					c1.2-1.5,4.3-4,6.2-4.3c2.5-0.3,5.2-0.1,7.7-0.1c1.5,0,3-0.2,4.4,0.4c1,0.4,1.9,1.2,2.8,1.8c1.3,0.8,2.1,1.7,1.8,3.3
					c-0.2,1-0.4,2.3-0.7,3.2c-1,2.2-2.8,0.3-4.2,1.2c-1.4,0.9-0.6,3.9-0.6,5.2c0.1,1.4-0.3,4.5,1,5.6c1.1,0.9,2.4-0.1,3.4,0.7
					c0.7,0.5,1.2,1.7,1.7,2.4c1,1.3,1.2,2,0.9,3.6c-0.2,0.9-0.4,1.9-0.8,2.7c-0.3,0.7-1,0.9-1.3,1.5c0,0,0.1,0.1,0.1,0.1
					c0.8,0.5,1.5,0.3,2-0.4c0.6-0.7,0.7-1.8,1-2.7c0.3-0.9,0.8-1.9,0.5-2.9c-0.2-0.9-0.9-1.6-1.5-2.3c-0.8-0.9-1.5-2.4-2.6-3
					c-0.3-0.2-0.6-0.3-1-0.3c-1-0.2-1.6,0.3-2-0.9c-0.3-1.1-0.2-2.6-0.3-3.7c-0.1-1.1-0.6-2.9-0.1-4c0.8-1.8,3,0,4.3-1.1
					c0.7-0.6,0.8-1.7,0.9-2.5c0.2-1.1,0.7-2.5,0.5-3.6c-0.3-1.8-3.2-2.9-4.5-3.8c-1.7-1.1-3.2-1.2-5.2-1.2c-3.1,0.1-6.4-0.2-9.5,0.2
					c-1.9,0.3-3.2,2-4.7,3.1c-1.2,0.9-2.8,2-2.6,3.7c0.1,1.3,1,2.6,1.5,3.8c0.3,0.8,0.6,1.6,1.3,2.1c0.5,0.3,1.1,0.4,1.6,0.4
					c0.4,0,0.8-0.1,1.2-0.1c1.5,0.2,1.5,1.1,1.6,2.3c0.1,1.5,0.1,2.9,0.1,4.4c0,0.9,0.2,1.4-0.6,1.9c-1,0.7-0.5,0.1-1.2,0.3
					c-1.7,0.4-3,1.8-4.2,3.1c-1,1.1-1,2-0.6,3.3c0.5,1.4,1,3.1,1.8,4.3c1,1.5,2.3,1.3,3.9,1.2c3.8-0.3,7.6-0.5,11.4-0.8
					c1.8-0.1,3.6-0.3,5.5-0.4c0.7,0,1.8,0.1,2.4-0.3c0,0,0-0.1,0-0.1c-0.2-0.2-0.4-0.3-0.6-0.3c-0.3-0.1-0.8,0.1-0.3,0.3
					c-0.9-0.3-2.8,0.2-3.8,0.3c-1.3,0.1-2.6,0.2-3.9,0.3c-3.2,0.2-6.3,0.5-9.5,0.7c-1.5,0.1-3.2,0.7-4.4-0.7
					c-0.7-0.8-0.9-2.1-1.3-3.1c-0.7-1.8-1.3-3,0.2-4.5c0.9-0.9,2.3-2.5,3.5-2.7c0.7-0.1,1.5,0.4,2.1-0.4c0.4-0.5,0.2-1.9,0.2-2.5
					c0-1.4-0.1-2.9-0.1-4.3c0-1.2-0.2-2.2-1.5-2.5c-0.4-0.1-0.8,0-1.3,0c-2.6-0.2-2.9-1.8-3.8-3.7c-0.6-1.2-1.1-2.4-0.3-3.7
					c0.4-0.6,1-1.1,1.6-1.6c0.6-0.5,1.2-0.9,1.8-1.3c0.4-0.3,0.8-0.7,1.2-1.1c1.3-1,2.7-1,4.3-1c2.8,0,5.8-0.3,8.6-0.1
					c1.9,0.1,3,1.2,4.5,2.2c1.5,1,2.8,1.6,2.5,3.7c-0.1,0.9-0.3,1.8-0.5,2.7c-0.3,1.1-0.4,2-2.2,2.1c-0.3,0-0.6-0.2-1-0.2
					c-0.9,0-1.7,0.5-2,1.4c-0.3,1,0.2,2.7,0.2,3.7c0.1,0.9,0.1,1.9,0.2,2.8c0.1,1,0.2,2.2,1.3,2.5c0.3,0.1,0.5,0,0.8,0.1
					c1.5,0.1,1.7,0.2,2.6,1.5c0.6,0.9,1.6,1.7,2.1,2.7c0.6,1.2,0.1,2.4-0.3,3.6c-0.3,0.9-0.8,1.8-1.1,2.8c-0.3,0.8,0.5-0.5,0.6-0.6
					c0.7-1.2,1.3-3.4,1.2-4.8c-0.2-1.4-1.8-3.3-2.7-4.3c-0.6-0.7-1.2-1.1-2.2-1c-0.8,0.1-1,0.6-1.8-0.3c-0.4-0.5-0.3-1.5-0.3-2.2
					c-0.1-1.3-0.2-2.7-0.3-4c-0.1-0.8-0.4-2.3,0-3.1c0.8-1.5,2.4-0.4,3.4-0.7c1.2-0.3,1.4-1.4,1.7-2.4c0.4-1.9,1.2-3.7-0.5-5.1
					c-0.6-0.5-1.3-0.8-2-1.2c-1-0.6-1.9-1.4-3-1.8c-1.5-0.4-3.1-0.1-4.6-0.1c-2.5,0.1-5.4-0.3-7.8,0.2c-1.7,0.3-3.1,1.8-4.4,2.9
					c-1.4,1.1-2.8,2.2-2.3,4.1c0.3,1.3,1.3,4.2,2.5,5c0.9,0.7,2,0.2,3,0.3c2,0.1,1.7,2.5,1.8,4c0,1.4,0.2,3.1-0.1,4.5
					c-0.4,1.8-2.1,0.9-3.4,1.6c-1.4,0.8-3.8,3.1-3.4,4.9c0.3,1.5,1.2,3.6,2.1,4.9c0.8,1.1,1.8,1.1,3.1,1.1c6.3-0.3,12.7-1,19-1.5
					C88.2,208.5,87.6,208.1,87.3,208.2z"/>
			</g>
		</g>
		<g>
			<path fill="#FFFFFF" d="M80,176.5l-9.4,1.5c-4.8,1.6-4-6.2-4.3-8.9l3.4-2.5c-0.5-2.3-1.6-10.3-1.8-12.3c-0.1-0.9-2.9,2.4-3.8,0.9
				c-1.3-2-3-8.2-3-8.2c-0.9,0.4,5.2-4.1,5.5-4.8c0.6-1.3,10.1,0.2,11.5-0.2l4.7,4.6c0.7,2.1,1-1.4-0.2,4.8
				c-0.5,2.6-3.9,0.6-3.8,0.4l2.6,13.6l2.5,1.4C85.7,175.4,84.8,174.9,80,176.5z"/>
			<g>
				<path fill="#010101" d="M80.1,176.3c-3.3,0.5-6.5,1.2-9.8,1.6c-3.3,0.5-3.4-3.9-3.6-7.2c0-0.2-0.2-1.5-0.2-1.5
					c0.1-0.3,0.8-0.6,0.9-0.7c0.8-0.6,1.6-1.2,2.5-1.8c0,0,0.1-0.1,0.1-0.2c-0.6-2.6-0.9-5.3-1.2-8c-0.1-0.9-0.1-4.3-0.9-4.5
					c-0.4-0.1-1,0.5-1.3,0.7c-0.7,0.4-1.5,1-2.2,0.3c-0.4-0.4-0.7-1.3-0.9-1.9c-0.8-2-1.5-4.1-2.1-6.2c0-0.1-0.2-0.1-0.3-0.1
					c0.4-0.1,0.6-0.2,1-0.5c0.5-0.4,1.1-0.9,1.6-1.3c0.9-0.7,1.9-1.5,2.8-2.3c1.6-1.6,4.4-0.8,6.3-0.7c1.3,0.1,2.5,0.2,3.8,0.2
					c0.4,0,0.8,0,1.1,0c0.5,0,0-0.3,0.4,0.1c1.6,1.5,3.3,3,4.6,4.8c0.5,0.6,0.5,0.4,0.3,1.3c-0.2,0.9-0.3,2.9-0.7,3.4
					c-0.3,0.5-2.8,1.1-3.1-0.1c-0.1-0.2,0.3,1.6,0.3,1.8c0.4,2.1-0.1,2.7,0.3,4.8c0.3,1.6,0.6,3.2,0.9,4.8c0.1,0.6,0.5,1.8,0.8,2.3
					c0.3,0.5,1.1,0.9,1.5,1.1c0.7,0.4,0.7,0.5,0.9,1.5c0.2,1,0.4,2,0.5,3.1c0.2,1.3,0.2,2.6-0.6,3.5
					C82.8,175.8,81.1,175.9,80.1,176.3c-0.4,0.1-0.4,0.5,0,0.3c1.4-0.5,4.3-0.7,4.9-2.9c0.4-1.4-0.1-3.2-0.3-4.5
					c-0.1-0.6-0.2-1.9-0.6-2.4c-0.4-0.4-1.2-0.6-1.6-0.9c-0.9-0.5-0.8-0.4-1-1.6c-0.3-1.5-0.6-3.1-0.9-4.6c-0.5-2.6-1-5.2-1.5-7.8
					c-0.2,0.1-0.4,0.1-0.6,0.2c0.2,0.9,2.2,1,2.8,1c1.7-0.3,1.7-2.2,2.1-4.1c0.1-0.3,0.3-1.1,0.3-1.4c0-0.2-0.2-0.1-0.3-0.3
					c-0.6-1.1-1.5-1.8-2.3-2.6c-0.8-0.7-1.9-2.4-2.8-2.7c-0.3-0.1-0.8,0.1-1.1,0.1c-0.8,0-1.6-0.1-2.3-0.1c-1.8-0.1-3.7-0.3-5.5-0.3
					c-0.9,0-2-0.1-2.8,0.5c-1,0.8-2,1.9-3,2.7c-0.4,0.3-2.8,1.7-2.8,2.4c0,0.1,0.1,0.1,0.2,0.1c0.3,0-0.1-0.3,0,0.2
					c0.1,0.6,0.4,1.2,0.5,1.8c0.5,1.7,1.1,3.3,1.8,4.9c0.4,1,0.8,1.7,1.7,1.7c0.4,0,0.8-0.2,1.2-0.4c0.3-0.2,1.1-1,1.4-0.9
					c0.4,0.1,0.6,3.7,0.7,4.5c0.3,1.9,0.5,3.9,0.9,5.8c0,0.3,0.5,1.8,0.5,1.8c0,0.2-0.8,0.6-0.9,0.7c-0.8,0.6-1.6,1.2-2.5,1.8
					c0,0-0.1,0.1-0.1,0.2c0.3,2.4,0,5.1,0.9,7.3c0.8,2.1,2.3,2,3.8,1.7c3.1-0.6,6.2-1,9.3-1.5C80.2,176.6,80.5,176.2,80.1,176.3z"/>
				<path fill="#010101" d="M79.8,176.1c-1.5,0.3-3.1,0.5-4.6,0.8c-1.5,0.3-3.7,1-5.2,0.8c-3-0.3-2.8-4.1-2.9-6.2
					c0-0.7-0.4-1.8,0-2.4c0.5-0.9,2.7-1.2,3.1-2.2c0.3-0.8-0.2-2-0.3-2.8c-0.3-1.6-0.5-3.2-0.7-4.7c-0.2-1.3,0.3-6.1-2.1-5.5
					c-0.4,0.1-0.6,0.5-1,0.6c-2,0.6-2-0.4-2.5-1.6c-0.6-1.5-1.1-2.9-1.5-4.4c-0.3-0.9-0.3-1.9-1.4-1.7c0.2,0.1,0.4,0.2,0.6,0.4
					c3.1-1.2,4.8-5,8.3-5.1c2.8,0,5.7,0.9,8.5,0.4c0,0,0.1,0,0.1-0.1c0,0,0,0,0,0c0-0.2-0.7-0.4-0.8-0.2c0,0,0,0,0,0
					c0,0,0,0.1,0,0.1c0.7,0.8,1.6,1.5,2.3,2.2c0.8,0.7,2.7,2.2,2.8,3.4c0.1,0.8-0.3,2.1-0.4,2.8c-0.1,0.4-0.1,0.7-0.4,1
					c-0.4,0.5-2,1-2.4,0.2c-0.1-0.1-0.7-0.5-0.8-0.2c-0.1,0.4,0.2,1.2,0.3,1.7c0.2,1.1,0.1,2.2,0.2,3.3c0,1.4,0.4,2.8,0.6,4.1
					c0.3,1.4,0.4,3.1,1,4.4c0.3,0.6,0.7,0.9,1.3,1.3c1.4,1.1,1.6,2.3,1.8,4c0.3,2,0.5,4-1.7,4.9c-0.9,0.3-2,0.3-2.7,0.9
					c0,0,0,0,0,0.1c0,0.1,0,0.1,0,0.2c0,0.2,0.4,0.3,0.5,0.3c1.4,0,3.7-0.7,4.7-1.8c1.6-1.7,0.7-5,0.2-7c-0.2-1-0.4-1.3-1.3-1.8
					c-1.4-0.8-1.6-1-1.9-2.6c-0.7-3.9-1.5-7.8-2.2-11.7c0-0.2-0.5-0.3-0.7-0.3c-0.2,0.1-0.4,0.1-0.6,0.2c-0.1,0-0.1,0.1-0.1,0.2
					c1,1.9,4.3,1.6,5.1-0.3c0.5-1.1,1.1-3.4,0.6-4.4c-0.7-1.6-2.8-3.1-3.9-4.4c-0.8-0.8-1.3-1.2-2.4-1.2c-3-0.1-5.9-0.4-8.9-0.3
					c-2.3,0-3.3,1.3-5,2.8c-1,0.9-2.9,1.6-3.4,2.9c0,0,0,0.1,0,0.1c0.2,0.3,0.6,0.4,1,0.3c0.3-0.1-0.4-0.4-0.5-0.4c0,0-0.1,0-0.1,0
					c0,0-0.2,0-0.2,0.1c-0.1,1.2,0.7,2.7,1.1,3.9c0.4,1.3,0.9,3.1,1.7,4.2c0.8,1,1.9,1,3,0.4c1-0.6,0.8-1.3,1,0
					c0.2,0.9,0.2,1.9,0.3,2.8c0.1,1.4,0.4,2.7,0.6,4.1c0.1,0.8,0.2,1.6,0.4,2.4c0.1,0.3,0.4,1,0.3,1.3c-0.1,0.9-2,1.6-2.7,2.2
					c-1,0.9-0.7,1.3-0.6,2.7c0.1,2.1-0.1,5.3,1.8,6.7c1.3,0.9,2.8,0.6,4.2,0.3c2-0.4,4.1-0.7,6.1-1c0.7-0.1,2.4,0,2.8-0.7
					c0.1-0.2-0.4-0.3-0.4-0.3c-0.1,0-0.1,0-0.2-0.1c-0.5-0.1-0.2,0.3,0.1,0.4c0.1,0,0.1,0,0.2,0.1c-0.1-0.1-0.3-0.2-0.4-0.3
					c-0.4,0.8-4,0.8-4.8,1c-1.2,0.2-2.4,0.4-3.6,0.6c-0.6,0.1-1.3,0.4-2,0.3c-1.9-0.1-2.4-1.5-2.7-2.8c-0.3-1.2-0.3-2.5-0.3-3.7
					c0-0.5-0.2-1.2-0.1-1.7c0.2-1.1,1.1-1.5,1.9-2.1c0.3-0.2,1.5-0.8,1.6-1.2c0.1-0.3-0.2-0.9-0.3-1.2c-0.3-1.1-0.4-2.3-0.6-3.5
					c-0.3-1.8-0.4-3.6-0.7-5.4c-0.1-0.7,0-1.8-0.7-2.2c-0.8-0.4-1.3,0.6-1.9,0.9c-2.1,0.9-2.7-2.3-3.2-3.7c-0.1-0.3-1-4-1.4-4.1
					c-0.2-0.1-0.3-0.3-0.5-0.4c0.4,0.2,0.8,0,0.9-0.5c0.2-0.2,0.5-0.4,0.7-0.6c0.4-0.3,0.7-0.5,1.1-0.8c1.1-0.8,1.9-1.8,3-2.6
					c1.6-1.2,3.6-0.9,5.5-0.8c1.8,0.1,3.7,0.1,5.5,0.3c1.6,0.2,2.1,1.2,3.2,2.2c0.8,0.9,2,1.6,2.4,2.8c0.4,0.9,0,1.8-0.2,2.7
					c-0.1,0.5-0.2,1.1-0.4,1.5c-0.1,0.4-0.4,0.8-0.7,1.1c-0.9,0.6-1.7,0.4-2.3-0.5c-0.2-0.1-0.5-0.2-0.7-0.3
					c0.6,3.2,1.2,6.5,1.8,9.7c0.3,1.7,0.1,3.5,1.7,4.5c0.6,0.4,1.2,0.3,1.6,1.1c0.2,0.4,0.2,1.1,0.3,1.6c0.2,1.4,0.7,2.9,0.5,4.3
					c-0.3,2.1-2.9,3.5-5,3.5c0.2,0.1,0.4,0.2,0.5,0.3c0-0.3,2.7-0.9,3.1-1.1c1.2-0.6,1.5-1.5,1.6-2.8c0-1.6-0.1-4.8-1.4-5.9
					c-0.6-0.5-1.4-0.8-1.9-1.6c-0.3-0.5-0.4-1.4-0.6-2c-0.4-1.8-0.8-3.6-1-5.4c-0.1-1.2,0-2.3-0.1-3.5c-0.1-0.7-0.6-1.8-0.4-2.4
					c-0.3-0.1-0.5-0.1-0.8-0.2c0.7,1.4,3.3,1.3,4,0c0.4-0.8,0.8-3.2,0.6-4c-0.2-0.8-5.2-5.2-5.1-5.4c-0.3-0.1-0.5-0.2-0.8-0.2
					c-0.1,0.4-8-0.6-9.1-0.4c-3.2,0.4-4.8,4-7.7,5.1c-0.3,0.1,0.5,0.4,0.6,0.4c-0.5,0.1,1.9,7,2.5,7.7c1,1.1,2,0.5,3.1,0
					c0.4-0.2,0.5-0.6,1-0.3c0.1,0.1,0.2,1.1,0.2,1.2c0.1,0.9,0.1,1.8,0.2,2.8c0.2,1.5,0.4,2.9,0.6,4.4c0.1,0.8,0.6,2.1,0.5,2.9
					c-0.1,1.1-1,1.6-1.8,2.2c-0.5,0.3-1.4,0.8-1.6,1.3c-0.2,0.4,0.2,1.8,0.3,2.4c0.1,1.7,0.1,3.9,1.2,5.4c0.6,0.8,1.5,1.2,2.5,1.2
					c1.4,0,2.9-0.4,4.3-0.6c2-0.3,4-0.7,6-1C80.7,176.4,80,176,79.8,176.1z"/>
			</g>
		</g>
		<g>
			<path fill="#010101" d="M78.2,170.6c-1.4-0.8-2.1-14.9-2.7-19.4c-0.1-1-1.4-4.6,0.9-5.6c0.4-0.2,0.1-0.4-0.2-0.3
				c-1.6,0.3-1.9,2.3-1.9,4.1c0,2.9,1.9,15.7,2.1,22.7c0,0.2,2.9,0.6,2.9,0.4L78.2,170.6z"/>
			<path fill="#010101" d="M78.6,170.4c-1-0.8-1-3.6-1.2-4.7c-0.3-2.5-0.6-5.1-0.8-7.7c-0.2-2.1-0.3-4.3-0.6-6.4
				c-0.1-0.9-0.4-1.8-0.5-2.7c-0.2-1.7,0.3-2.4,1.5-3.5c0,0,0.1-0.1,0-0.1c-0.4-0.5-1.2-0.2-1.7,0.1c-1.3,0.8-1.4,2.7-1.4,4
				c0,3.1,0.5,6.2,0.9,9.3c0.5,4.2,1,8.4,1.2,12.5c0.1,1.2,0.3,1.2,1.5,1.4c0.6,0.1,1.6,0.3,2.2-0.1c0,0,0.1-0.1,0-0.1
				C79.4,171.8,79,171.1,78.6,170.4c-0.1-0.2-0.9,0-0.7,0.2c0.3,0.4,0.8,1.1,0.9,1.6c0.1,0.4,0.3,0.2-0.4,0.1
				c-0.5-0.1-1.1,0-1.4-0.5c-0.4-0.6-0.2-2.4-0.3-3.2c-0.1-1.4-0.2-2.7-0.4-4.1c-0.5-4.5-1.1-9-1.4-13.5c-0.1-1.2-0.3-5.1,0.8-5.3
				c-1.6,0.3-0.9,3.7-0.7,4.6c0.7,3.5,0.8,7.1,1.1,10.7c0.2,2.2,0.4,4.4,0.8,6.5c0.2,0.9,0.2,2.5,1,3.1
				C78.1,170.8,78.8,170.6,78.6,170.4z"/>
		</g>
		<g>
			<g>
				<path fill="#FFFFFF" d="M82.5,211.2l-8.3,0.7c-4.3,1.1-3.2-6.4-3.5-9l3.1-2.1c-0.4-2.2-1-10.1-1.2-12.1
					c-0.1-0.8-2.6,2.1-3.4,0.6c-1.1-2.1-3-8.6-3-8.6c-0.8,0.3,5.2-3.1,5.6-3.8c0.6-1.2,9.1-0.1,10.3-0.5l4.6,4.7
					c0.5,2.1,0.1,0.2-1.1,6.1c-0.5,2.5-3.4,0.3-3.3,0.1l1.8,13.5l2.9,0.6C88.3,209.7,86.8,210.1,82.5,211.2z"/>
				<path fill="#010101" d="M82.5,211c-1.7,0.1-3.3,0.3-5,0.4c-1.4,0.1-4.3,0.8-5.4-0.3c-1.4-1.5-1-4.8-1-6.7c0-1-0.2-1.4,0.6-2
					c0.8-0.5,1.5-1.1,2.3-1.6c0,0,0,0,0.1-0.1c-0.4-2.6-0.6-5.3-0.8-7.9c-0.1-0.9,0.2-4.2-0.8-4.5c-0.4-0.1-0.9,0.3-1.2,0.4
					c-0.7,0.4-1.3,0.9-1.9,0.2c-0.4-0.4-0.6-1.3-0.7-1.8c-0.8-2.1-1.4-4.3-2.1-6.5c-0.1-0.2-0.5-0.2-0.6-0.1c0,0,0,0-0.1,0
					c0.2,0,0.4,0.1,0.6,0.1c0.2,0.3,5.2-3.6,5.9-4c1.5-0.8,4.3-0.2,5.9-0.2c1.1,0,2.6-0.2,3.6,0.1c0.3,0.1-0.5-0.3-0.1,0
					c0.2,0.2,0.4,0.4,0.6,0.6c0.5,0.5,1,1.1,1.6,1.6c0.8,0.8,2,1.7,2.4,2.7c0.2,0.8-0.1,1.3-0.3,2.1c-0.2,0.7-0.4,1.5-0.6,2.2
					c-0.2,0.9-0.3,2.4-1.7,2.2c-0.2,0-1.1-0.5-1.2-0.8c-0.1-0.2-0.8-0.2-0.8,0c0.6,4.5,1.2,9,1.8,13.5c0,0.1,0.1,0.1,0.2,0.1
					c0.6,0.1,2.5,0.2,2.8,0.6c0.1,0.1,0.1,1.7,0.1,1.8c0,0.4,0.1,0.8,0.1,1.1c0.1,0.8,0.1,1.7,0,2.5c-0.2,2.8-2.2,3.5-4.7,4.1
					c-0.5,0.1,0.2,0.3,0.4,0.3c1.5-0.4,3.4-0.7,4.4-2.1c1.5-2.1,0.6-5.6,0.2-7.9c0-0.1-0.1-0.1-0.2-0.1c-0.8-0.2-1.6-0.2-2.3-0.5
					c-0.7-0.3-0.1,0.3-0.4-0.4c-0.5-1.2-0.4-3.1-0.6-4.4c-0.4-2.9-0.8-5.8-1.2-8.7c-0.3,0-0.5,0-0.8,0c0.2,0.7,1.5,1.1,2.2,1.2
					c1.3,0.1,1.8-0.5,2.1-1.7c0.4-1.4,1.1-3,1.2-4.4c0.1-0.6-0.1-1.2-0.5-1.7c-0.9-1.2-2.3-2.3-3.3-3.4c-0.6-0.7-0.8-0.9-1.6-1
					c-1.7-0.2-3.6-0.1-5.3-0.1c-1.4,0-2.9-0.2-4.2,0.2c-1,0.3-1.7,1.1-2.5,1.7c-1.3,0.9-2.9,1.5-4.1,2.6c0,0-0.1,0.1,0,0.1
					c0,0,0,0,0,0c0.1,0.2,0.5,0.1,0.6,0.1c0,0,0,0,0.1,0c-0.2,0-0.4-0.1-0.6-0.1c0.5,1.6,1,3.3,1.5,4.9c0.4,1.1,0.8,3.7,2,4.2
					c0.4,0.2,0.9,0,1.3-0.1c0.3-0.1,0.6-0.3,0.8-0.4c0.2-0.1,0.4-0.3,0.6-0.3c0.4-0.1-0.2-0.4,0.1,0c0.3,0.5,0.1,1.9,0.2,2.5
					c0.1,1.4,0.2,2.8,0.4,4.2c0.1,1.2,0.2,2.3,0.4,3.5c0,0.4,0.2,0.8,0.2,1.2c-0.1,0.5-0.1,0.3-0.5,0.7c-0.6,0.5-1.7,0.9-2.2,1.5
					c-0.4,0.5-0.3,0.6-0.3,1.3c0.1,2.3-0.7,8,2.9,8.2c1.3,0.1,2.8-0.3,4.2-0.4c1.7-0.1,3.4-0.3,5.2-0.4C83,211.3,83,211,82.5,211z"
					/>
			</g>
			<g>
				<path fill="#010101" d="M82.6,211c-1.5,0.1-3,0.2-4.5,0.4c-1,0.1-1.9,0.2-2.9,0.2c-0.7,0.1-1.6,0.3-2.2,0.1
					c-2.2-0.7-1.9-5-2-7.4c0-0.1-0.1-1.5-0.2-1.4c0.1-0.2,0.7-0.5,0.9-0.6c0.7-0.5,1.4-1,2.2-1.5c0,0,0.1-0.1,0.1-0.2
					c-0.4-2.6-0.6-5.2-0.8-7.9c-0.1-0.9,0.1-4.3-0.7-4.5c-0.4-0.1-1.1,0.5-1.4,0.7c-1.6,0.9-2-0.6-2.6-2.2c-0.7-2-1.4-4.1-2-6.2
					c0-0.1-0.2-0.1-0.3-0.1c0.1,0.2,0.2,0.2,0.3,0.1c0.1-0.1,0.2-0.1,0.3-0.2c0.3-0.1,0.5-0.3,0.8-0.5c0.7-0.4,1.4-0.8,2.1-1.3
					c0.9-0.6,1.7-1.4,2.5-1.9c1.3-0.8,3.5-0.3,4.9-0.3c1.4,0,2.8,0.2,4.2,0.1c0.3,0,0.9,0.1,0.6-0.1c0.4,0.2,0.8,0.8,1.2,1.2
					c1,1,2.4,2,3.2,3.2c0.5,0.8,0.3,1.5,0,2.3c-0.4,1.1-0.5,2.9-1,3.8c-0.3,0.6-2.4,1.4-2.8,0c-0.1-0.2-0.6-0.1-0.6,0.1
					c0.6,4.5,1.2,9,1.8,13.5c0,0.1,0.1,0.1,0.1,0.1c0.8,0.2,1.8,0.1,2.5,0.5c0.4,0.2,0.2-0.1,0.4,0.4c0.1,0.3,0.1,1.1,0.2,1.5
					c0.1,0.9,0.2,1.9,0.2,2.9C87.1,209.9,84.8,210.4,82.6,211c-0.4,0.1-0.4,0.4,0,0.3c1.4-0.4,3.4-0.6,4.4-2.2
					c1.4-2,0.6-5.6,0.2-7.9c0-0.1-0.1-0.1-0.1-0.1c-0.6-0.1-2.6-0.3-2.8-0.6c-0.1-0.2-0.1-1-0.2-1.3c-0.1-0.9-0.2-1.8-0.4-2.7
					c-0.4-3.1-0.8-6.3-1.2-9.4c-0.2,0-0.4,0.1-0.6,0.1c0.2,0.9,1.8,1.2,2.4,1.2c1.6-0.1,1.7-2.1,2.1-3.8c0.2-0.9,0.8-2,0.7-2.9
					c-0.1-1.2-1.2-1.8-1.8-2.4c-0.6-0.6-1.1-1.2-1.7-1.8c-0.3-0.4-0.8-1-1.2-1.2c-0.7-0.3-1.7,0-2.4-0.1c-1.6-0.1-3.3-0.2-4.9-0.2
					c-1,0-2.2-0.1-3.1,0.4c-1,0.6-2,1.5-3,2.2c-0.8,0.5-2.4,1-3.1,2c-0.1,0.1,0.1,0.2,0.1,0.2c0.3,0-0.1-0.3,0,0.1
					c0.1,0.6,0.3,1.1,0.5,1.6c0.5,1.7,1.1,3.4,1.7,5.1c0.3,0.9,0.6,1.9,1.4,2.1c0.9,0.2,1.6-1,2.4-1c0.4,0,0.3,0.5,0.3,1.1
					c0.1,0.8,0.1,1.7,0.2,2.5c0.2,1.9,0.3,3.9,0.5,5.8c0.1,0.6,0.3,1.6,0.3,2.2c0,0.4,0.2,0,0,0.3c-0.1,0.2-0.4,0.3-0.5,0.4
					c-0.8,0.5-1.6,1.1-2.4,1.6c0,0-0.1,0.1-0.1,0.2c0.2,2.3-0.2,4.7,0.5,6.9c0.6,2.1,1.8,2.4,3.3,2.2c2.8-0.3,5.5-0.5,8.3-0.7
					C82.7,211.4,83,211,82.6,211z"/>
				<path fill="#010101" d="M82.3,210.8c-1.6,0.1-3.2,0.3-4.8,0.4c-1.3,0.1-4,0.8-5-0.1c-1.4-1.3-1-4.5-1-6.2c0-0.4-0.3-1.4-0.1-1.8
					c0.4-0.9,2.1-1.2,2.7-1.9c0.7-0.8,0.2-1.6,0.1-2.8c-0.2-1.6-0.3-3.2-0.4-4.7c-0.1-1.3,0.3-3.8-0.5-5c-0.5-0.8-1-0.5-1.7-0.3
					c-1.9,0.4-2,0-2.5-1.6c-0.5-1.4-0.9-2.7-1.3-4.1c-0.3-1-0.3-2.5-1.6-2.4c-0.1,0-0.2,0.1-0.1,0.2c0.1,0.1,0.1,0.1,0.2,0.2
					c0.1,0.1,0.5,0.3,0.7,0.2c0.9-0.4,1.8-1.1,2.7-1.6c1.4-0.9,2.7-2.3,4.4-2.6c1.4-0.3,2.8,0.1,4.2,0.1c1.4,0.1,2.8,0.1,4.1,0.1
					c0.1,0,0.3,0,0.2-0.1c0,0,0-0.1,0-0.1c-0.2,0-0.5,0-0.7,0c0.9,0.7,1.7,1.7,2.6,2.5c0.5,0.4,1,0.9,1.4,1.4
					c0.8,1.1,0.6,1.6,0.3,2.8c-0.2,1-0.4,2.1-0.7,3.1c-0.5,1.4-1,1.3-2.3,0.9c-0.4-0.1-0.7-0.5-1.2-0.2c-0.5,0.3,0,1.5,0,1.9
					c0.2,1.5,0.4,2.9,0.6,4.4s0.4,2.9,0.6,4.4c0.1,0.8,0,2.6,0.4,3.2c0.7,1,2.5-0.1,3,1.3c0.4,1,0.3,2.8,0.3,3.9
					c0,1.1-0.2,2.3-1,3.2c-1.1,1.2-2.6,1-3.8,1.8c0,0,0,0.1,0,0.1c0,0.1,0,0.1,0,0.2c0,0.2,0.4,0.2,0.6,0.3c1.8,0.2,4.3-1,5.2-2.6
					c0.6-1.1,0.6-2.5,0.5-3.7c0-0.9,0-3.1-0.5-3.8c-0.2-0.3-0.5-0.3-0.8-0.4c-0.4-0.1-0.9-0.1-1.3-0.2c-1-0.3-0.8-0.4-0.9-1.4
					c-0.4-4.1-1.1-8.1-1.6-12.1c0-0.2-0.5-0.3-0.7-0.2c-0.2,0-0.4,0.1-0.6,0.1c0,0-0.1,0.1-0.1,0.1c0.8,1.7,3.7,2,4.6,0.3
					c0.4-0.8,0.5-1.8,0.7-2.7c0.3-1,0.9-2,0.7-3c-0.2-1.7-2.4-3.1-3.5-4.3c-0.7-0.8-1.2-1.4-2.3-1.6c-2.3-0.3-5-0.1-7.3-0.1
					c-1.9,0-2.8,0.4-4.3,1.5c-1.1,0.8-2.2,1.4-3.3,2c-0.4,0.2-1.3,0.7-1.3,1.2c0,0.1,0.1,0.2,0.2,0.2c0.3,0.1,0.5,0.1,0.7,0.1
					c0.2-0.1-0.1-0.3-0.2-0.3c0,0-0.1,0-0.1,0c-0.1,0-0.5-0.2-0.5,0c-0.2,0.9,0.5,2.2,0.8,3c0.4,1.4,0.9,2.9,1.5,4.3
					c0.4,1.1,0.9,2.3,2.3,2.1c0.3,0,1.2-0.8,1.4-0.7c0.7,0.1,0.5,2.7,0.5,3.1c0.2,2.7,0.5,5.4,0.8,8.1c0,0.2,0.4,0.3,0.6,0.3
					c0,0,0,0,0.1,0c-0.2-0.1-0.4-0.2-0.6-0.3c-0.4,1.1-2.5,1.3-3.1,2.3c-0.4,0.7,0,2.7,0,3.5c0,1.8,0,4.5,1.8,5.5
					c1.3,0.8,3,0.3,4.4,0.2c1.6-0.2,3.3-0.2,4.9-0.4c0.6,0,1.6,0.2,2-0.5c0.1-0.1-0.2-0.2-0.2-0.2c-0.1,0-0.1,0-0.2-0.1
					c-0.3-0.1-0.8,0.1-0.3,0.2c-0.7-0.2-2.4,0.2-3.2,0.3c-1,0.1-2,0.1-3,0.2c-1.2,0.1-3.3,0.7-4.3-0.3c-0.6-0.6-0.7-1.6-0.9-2.4
					c-0.2-1-0.2-2-0.2-3.1c0-0.8-0.3-2.2,0-2.9c0.5-1,2.5-1.1,3-2.2c0.1-0.2-0.5-0.3-0.6-0.3c0,0,0,0-0.1,0c0.2,0.1,0.4,0.2,0.6,0.3
					c-0.3-2.3-0.5-4.7-0.7-7.1c-0.1-1.2,0.1-3-0.3-4.1c-0.1-0.4,0-0.5-0.5-0.7c-0.2-0.1-0.4-0.1-0.7-0.1c-0.9,0.1-1.7,1.1-2.6,0.2
					c-0.8-0.8-1.1-2.9-1.4-4c-0.3-1-1.3-2.9-1.1-4c-0.2,0-0.4,0-0.5,0c0.1,0,2.7-1.7,3-1.8c1-0.6,1.9-1.4,2.9-2.1
					c2.1-1.4,6.1-0.7,8.4-0.5c1,0.1,2,0.1,2.8,0.8c0.4,0.3,0.8,0.8,1.1,1.2c0.7,0.7,2.1,1.8,2.5,2.7c0.4,1.2-0.4,2.6-0.7,3.7
					c-0.1,0.5-0.2,1-0.4,1.6c-0.6,1.9-0.2,0.3-2.8,1c-0.2-0.1-0.5-0.2-0.7-0.2c0.5,3.6,0.9,7.2,1.4,10.8c0.2,1.6-0.2,2.7,1.5,3.1
					c0.3,0.1,0.7,0.1,1,0.2c0.9,0.1,0.6,0,0.9,0.7c0.4,1.2,0.4,2.9,0.4,4.1c-0.1,2.7-2.2,5.3-5.2,5c0.2,0.1,0.4,0.2,0.6,0.3
					c0-0.2,2.4-0.9,2.6-1c0.6-0.3,1-0.7,1.4-1.2c1.2-1.7,0.8-4.4,0.5-6.3c-0.2-1.4-0.5-1.6-1.9-1.9c-0.9-0.2-0.9,0.2-1.3-0.9
					c-0.2-0.6-0.2-1.7-0.3-2.4c-0.2-1.7-0.5-3.4-0.7-5.2c0-0.4-0.7-5.1-0.7-5.1c-0.2,0.1,0.8,0.6,0.8,0.6c0.8,0.3,2,0,2.5-0.6
					c0.6-0.7,0.6-2,0.8-2.9c0.2-0.9,0.7-1.9,0.5-2.9c-0.2-1.1-1.3-1.9-2-2.6c-0.9-0.8-1.7-1.8-2.6-2.6c-0.1-0.1-0.8-0.3-0.7,0
					c-0.1-0.2-5.6-0.3-6.2-0.3c-1.8-0.1-3,0-4.5,1.2c-0.9,0.7-1.9,1.4-2.9,2c-0.1,0.1-1.3,0.7-1.5,0.9c-0.4,0.6,0,1.5,0.2,2
					c0.6,1.9,1,4.7,2.3,6.4c0.4,0.5,0.9,0.8,1.5,0.8c0.6,0,1.2-0.7,1.7-0.6c0.6,0.1,0.4,0.1,0.5,0.7c0.1,0.5,0.1,1.2,0.1,1.7
					c0.1,2.1,0.3,4.1,0.5,6.1c0.1,0.7,0.2,1.3,0.2,2c0.1,0.9,0.1,1.1-0.5,1.6c-0.7,0.7-1.8,1-2.5,1.7c0,0,0,0.1,0,0.1
					c0.7,2.5-0.8,6.5,1.5,8.4c0.8,0.7,1.7,0.7,2.6,0.6c2.7-0.3,5.4-0.5,8.2-0.7C83.3,211.2,82.6,210.8,82.3,210.8z"/>
			</g>
		</g>
		<g>
			<path fill="#010101" d="M81.2,211.4c-0.2-4.7-0.5-9.4-0.7-14.1c-0.1-3.4-0.3-6.7-0.4-10.1c0-1.7-0.7-7.4,1.2-7.7
				c0.4,0,0.3-0.4,0-0.3c-1.8,0.3-1.9,2.9-1.9,4.9c0,3.5,0.2,7,0.3,10.5c0.2,5.6,0.5,11.2,0.8,16.9
				C80.6,211.7,81.2,211.6,81.2,211.4L81.2,211.4z"/>
			<path fill="#010101" d="M81.6,211.4c-0.4-7-0.7-14-0.9-21.1c-0.1-2.1-0.2-4.3-0.2-6.4c0-0.9,0-2,0.2-2.9c0.2-0.8,0.7-1.1,1.4-1.6
				c0.1-0.1-0.1-0.2-0.2-0.2c-1.7-0.8-2.5,1.3-2.7,2.7c-0.5,4.2,0.1,8.8,0.3,13c0.2,4.5,0.4,9.1,0.6,13.6
				C80.1,208.8,80,213.2,81.6,211.4c0.1-0.1-0.6-0.4-0.8-0.2c0.6-0.7,0-4.1-0.1-5c-0.1-1.6-0.2-3.2-0.2-4.8
				c-0.2-3.4-0.3-6.7-0.4-10.1c-0.1-2.9-0.4-5.9-0.2-8.8c0-0.4,0.4-3.2,1-3.1c-0.3,0-0.6,0.5-0.8,0.7c-0.8,1.4-0.5,3.5-0.5,5
				c0.1,2.2,0.2,4.4,0.2,6.7c0.2,6.5,0.5,13,0.9,19.5C80.8,211.6,81.6,211.6,81.6,211.4z"/>
		</g>
		<g>
			<path fill="#2A98B7" stroke="#000000" stroke-width="1.9" stroke-miterlimit="10" d="M109.4,239.6l1.3-31.1c0-0.4,0-0.8-0.1-1.2
				l-2.6-9c-0.2-0.5-0.4-1-0.8-1.4l-12.7-13.8c-0.7-0.8-1.8-1.2-2.8-1.2l-14.8,0.7l-14.2,0.7c-2.3,0.1-3.9,2.2-3.4,4.5l0.1,0.4
				l12.8,54.3c0.1,0.6,0.5,1.2,0.9,1.7h0c0.9,1,2.2,1.3,3.5,1c7.2-1.7,14.6-1.8,22-1.1c0.4,0,0.7,0,1-0.1c2.1-0.5,4.3-0.8,6.4-0.9
				C107.8,242.9,109.3,241.4,109.4,239.6z"/>
			<path fill="#010101" d="M109.7,243c0.3-7.3,0.6-14.7,0.9-22c0.2-3.9,0.3-7.7,0.5-11.6c0.1-2.5-0.9-4.7-1.6-7.1
				c-0.4-1.5-0.6-3.5-1.4-4.8c-0.4-0.7-1.2-1.3-1.8-1.9c-3.2-3.5-6.4-6.9-9.6-10.4c-1.3-1.4-2.4-3.6-4.4-3.6
				c-4.3,0.2-8.7,0.4-13,0.6c-7.1,0.3-14.3,0.7-21.4,1c-0.1,0-0.2,0-0.2,0.2c4.3,18.2,8.6,36.4,12.9,54.6c0.4,1.5,0.7,3.1,1.1,4.6
				c0.4,1.3,1.4,2,2.3,3c0.1,0.1,0.5,0.2,0.6,0.1c5.8-1.6,11.8-2.2,17.8-2c2.2,0.1,4.6,0.5,6.8,0.4c1.5-0.1,3.1-0.6,4.6-0.8
				c1.8-0.2,3.6-0.2,5.4-0.2c0.6,0,0.2-0.3-0.2-0.3c-1.9,0-3.7,0-5.6,0.2c-2,0.2-4,0.8-6.1,0.7c-3.8-0.3-7.6-0.4-11.5-0.2
				c-1.9,0.1-3.8,0.3-5.7,0.6c-0.8,0.1-1.6,0.3-2.4,0.4c-0.8,0.2-2.4,0.9-3.1,0.8c-0.5,0-1.8-1.5-2.2-2.1c-0.7-1.3-0.8-3.3-1.1-4.7
				c-0.8-3.2-1.5-6.4-2.3-9.6c-3.2-13.5-6.4-26.9-9.6-40.4c-0.1-0.5-0.3-1.1-0.4-1.6c-0.2-0.9-0.4-1.9-0.6-2.7c0,0-0.2-0.9-0.3-0.6
				c0,0.1-0.1,0.1,0.2,0c1-0.4,2.7-0.1,3.8-0.2c2.1-0.1,4.1-0.2,6.2-0.3c5.8-0.3,11.6-0.5,17.4-0.8c1.9-0.1,3.8-0.2,5.7-0.3
				c0.4,0,1.1,0.1,1.5-0.1c0.6-0.2-0.2-0.3-0.1,0c0.4,0.9,1.7,1.8,2.4,2.6c1.3,1.5,2.7,2.9,4,4.4c2.4,2.6,4.9,5.3,7.3,7.9
				c1.5,1.7,1.8,4.8,2.4,7c0.6,2,1.2,3.5,1.1,5.6c-0.1,3.2-0.3,6.4-0.4,9.6c-0.3,7.5-0.6,15-0.9,22.5c0,0.5,0,1-0.1,1.5
				C108.9,243.2,109.7,243.3,109.7,243z"/>
		</g>
		<g>
			<path fill="#010101" d="M116.6,73.9c-0.1-0.1-0.1-0.1-0.1-0.2C116.6,73.8,116.6,73.8,116.6,73.9z"/>
			<path fill="#010101" d="M124.8,99.3C124.8,99.3,124.8,99.3,124.8,99.3C124.7,99.3,124.7,99.3,124.8,99.3
				C124.7,99.3,124.8,99.2,124.8,99.3C124.8,99.3,124.8,99.3,124.8,99.3z"/>
			<path fill="#010101" d="M84.7,59.2c-2.9,0.3-6.6,0.8-8.5,0.8c0,0,0.1-0.1,0.1-0.1c0.2-0.2,1.5-0.2,1.8-0.3
				c1.9-0.2,3.7-0.3,5.6-0.4C84,59.2,84.4,59.2,84.7,59.2z"/>
			<path fill="#010101" d="M153.1,69.2c-0.4,0-0.8,0-1.2-0.1C152.4,69.2,152.8,69.2,153.1,69.2z"/>
			<path fill="none" d="M157.7,67.7"/>
			<path fill="none" d="M133.7,73.2"/>
			<path fill="#010101" d="M90.3,104L90.3,104C90.3,104,90.3,104,90.3,104C90.3,104,90.3,104,90.3,104z"/>
			<path fill="#010101" d="M72.3,69.7c0,0-0.1,0.1-0.1,0.1h0C72.2,69.8,72.2,69.7,72.3,69.7C72.3,69.7,72.3,69.7,72.3,69.7z"/>
			<path fill="#010101" d="M72.3,69.7c0,0-0.1,0.1-0.1,0.1h0C72.2,69.8,72.2,69.7,72.3,69.7C72.3,69.7,72.3,69.7,72.3,69.7z"/>
			<path fill="#010101" d="M124.9,99.3C124.9,99.3,124.8,99.3,124.9,99.3C124.8,99.3,124.8,99.3,124.9,99.3
				C124.8,99.2,124.8,99.2,124.9,99.3C124.8,99.2,124.8,99.3,124.9,99.3z"/>
			<path fill="#010101" d="M131.1,111.6c0.2,0.2,0.3,0.3,0.3,0.2C131.3,111.7,131.2,111.7,131.1,111.6z"/>
			<path fill="#010101" d="M90.3,103.7L90.3,103.7C90.1,103.7,90.3,103.7,90.3,103.7z"/>
			<path fill="#010101" d="M116.6,73.7c-0.2-0.4-0.2-0.8-0.3-1C116.5,73.2,116.7,73.6,116.6,73.7z"/>
			<path fill="#010101" d="M124.8,99.3C124.8,99.3,124.8,99.3,124.8,99.3C124.7,99.3,124.7,99.3,124.8,99.3
				C124.7,99.3,124.8,99.2,124.8,99.3C124.8,99.3,124.8,99.3,124.8,99.3z"/>
			<path fill="#010101" d="M102.4,146.5l-0.1,0.7c0,0-0.1,0-0.2,0c0,0-0.1,0-0.2,0c-0.1,0-0.2,0-0.2,0c-0.1,0-0.1,0-0.2,0
				c-0.9-0.1-2.5-0.3-4.5-0.5c-0.5-0.2-0.9-0.5-1.3-0.9C99.7,146.2,102.3,146.4,102.4,146.5z"/>
			<path fill="#3A3939" d="M102.1,147.2c0.1,0,0.1,0,0.2,0C102.3,147.2,102.2,147.2,102.1,147.2z"/>
			<path fill="#FFFFFF" d="M141.5,120.6c-4.6-2.6-5.5-6.3-9.7-8.5c-0.1,0.1,0.2,0.2,0,0c0.1,0.1-0.5-0.3-0.4-0.2c0-0.1,1,0.8,1,0.6
				c0.1-2.9-0.1-5.5,0.1-11.1c0.1-1.8-1.4-5.4-1.8-7c-1.3-5-0.3-9.2-1.4-11c0,0-1.1-2.1-1.1-2.6c0-0.1-1.1-0.9-4.2-1.7
				c-0.9-0.2-2.2-1-3.1-2.3c0.2,0,0.4-0.1,0.3-0.2c-0.7-1.4-0.5-3.6-1.6-4.7c-1.6-1.7-3.5-3.2-5.2-4.7c-2.2-2-4.5-4.4-6.8-6.3
				c-1.5-1.2-4.2-0.9-6-1.2c-4.2-0.9-8.6-1-12.9-0.9c-0.5,0-2.1,0.2-4,0.4c-2.9,0.3-6.6,0.8-8.5,0.8c-0.8,0-1.3,0-1.3-0.2
				c0,0.2-4.2,0.6-4,0.7c-5.9,1.2-6.5,1-11.3,3.8c-5,2.8-9.1,7.9-12.1,12.7c-3.6,5.9-6.4,13.5-6,20.6h0L38.4,109
				c-0.1,0.3-3.4,6.5-1.5,9.1c1.6,2.2,4.6,2,5.6,1.8c0.3,1.1,1.3,4.9,2.3,6.2c1.1,1.4,5.5,3,5.7,3c1.2,0.6,4.5,2.5,4.7,3.8
				c0.1,0.7,0.1,1.2,0.1,1.7c-0.1,0.8-0.1,1.6,0.5,2.6c0,0,0,0.1,0.1,0.2c1.4,2.8,2.9,4.3,4.6,4.6c8.5,1.5,27.3,3.6,36.5,4.6
				c-0.5-0.2-0.9-0.5-1.3-0.9c4,0.4,6.6,0.7,6.7,0.7l-0.1,0.7c6.5,0.7,17.7,3,25.7,7.3c3.3,1.8,14.1,11.9,14.1,11.9
				c3-1.7,3.4-17.7,3.4-17.7C145.4,137.5,143.8,121.9,141.5,120.6z M72.2,69.8L72.2,69.8C72.2,69.8,72.2,69.7,72.2,69.8
				c0.1-0.1,0.1-0.1,0.1-0.1C72.3,69.7,72.2,69.8,72.2,69.8z M90.3,103.7C90.1,103.7,90.3,103.7,90.3,103.7L90.3,103.7z M90.3,104
				C90.3,104,90.3,104,90.3,104C90.3,104,90.3,104,90.3,104L90.3,104z M116.6,73.7c-0.2-0.4-0.2-0.8-0.3-1
				C116.5,73.2,116.7,73.6,116.6,73.7c0,0,0,0.1,0.1,0.2C116.6,73.8,116.5,73.7,116.6,73.7z M124.8,99.3
				C124.8,99.3,124.8,99.3,124.8,99.3C124.7,99.3,124.7,99.3,124.8,99.3C124.7,99.3,124.8,99.2,124.8,99.3
				C124.8,99.2,124.8,99.2,124.8,99.3C124.8,99.2,124.8,99.3,124.8,99.3C124.9,99.3,124.8,99.3,124.8,99.3z"/>
			<path fill="#010101" d="M102.4,146.5l-0.1,0.7c0,0-0.1,0-0.2,0c0,0-0.1,0-0.2,0c-0.1,0-0.2,0-0.2,0c-0.1,0-0.1,0-0.2,0
				c-1.2-0.1-2.2-0.2-3-0.2c-0.6,0-1.1-0.1-1.6-0.3c-0.5-0.2-0.9-0.5-1.3-0.9C99.7,146.2,102.3,146.4,102.4,146.5z"/>
			<path fill="#010101" d="M131.4,111.8c-0.1,0.1-0.2,0-0.3-0.2C131.2,111.7,131.3,111.7,131.4,111.8z"/>
		</g>
		<g>
			<g>
				<path fill="#010101" d="M117.5,73.1c0,0.1,0,0.1,0.1,0.2C117.5,73.2,117.5,73.2,117.5,73.1z"/>
				<path fill="#010101" d="M117.1,73.2c0,0.1,0,0.1,0.1,0.2c0.3,0,0.5-0.1,0.8-0.1c0,0,0-0.1,0-0.1
					C117.9,72.9,117.1,72.9,117.1,73.2c0,0.1,0,0.1,0.1,0.2c0.1,0.2,0.9,0.1,0.8-0.1c0-0.1,0-0.1-0.1-0.2
					C117.8,72.9,117,73,117.1,73.2z"/>
			</g>
			<g>
				<path fill="#010101" d="M125.9,99.5c-0.1-0.1-0.1-0.2-0.1-0.3c0,0,0.1,0,0.1,0C125.9,99.4,126,99.6,125.9,99.5z"/>
				<path fill="#010101" d="M126.3,99.5c-0.1-0.1-0.1-0.2-0.1-0.3c0,0-0.1,0.1-0.1,0.1c0,0,0,0,0.1,0c-0.2-0.1-0.4-0.1-0.7-0.2
					c0,0.1,0.1,0.2,0.1,0.3C125.8,99.5,126.1,99.5,126.3,99.5C126.3,99.5,126.3,99.5,126.3,99.5c-0.1-0.1-0.3-0.2-0.5-0.2
					c-0.1,0-0.4,0-0.3,0.2c0,0,0,0,0,0C125.6,99.6,126.4,99.8,126.3,99.5c0-0.1,0-0.2-0.1-0.4c0-0.2-0.5-0.2-0.7-0.2c0,0,0,0-0.1,0
					c-0.1,0-0.2,0.1-0.1,0.1c0,0.1,0.1,0.2,0.1,0.3C125.6,99.7,126.4,99.7,126.3,99.5z"/>
			</g>
			<g>
				<path fill="#010101" d="M85.1,58.4c-3,0.3-6.7,0.8-8.7,0.8c0,0,0.1-0.1,0.1-0.1c0.2-0.2,1.5-0.2,1.9-0.3
					c1.9-0.2,3.8-0.3,5.7-0.4C84.4,58.4,84.7,58.4,85.1,58.4z"/>
				<path fill="#010101" d="M84.8,58.2c-2.9,0.3-5.7,0.7-8.6,0.8c0.2,0.1,0.4,0.2,0.5,0.3c0.6-0.6,3.3-0.5,4-0.5
					c1.5-0.1,3-0.2,4.5-0.3C85.8,58.5,85.1,58.2,84.8,58.2c-1.9,0.1-3.8,0.2-5.8,0.4c-0.8,0.1-2.4-0.1-3,0.5
					c-0.2,0.2,0.5,0.3,0.5,0.3c2.9-0.1,5.9-0.5,8.8-0.8C85.7,58.5,85,58.2,84.8,58.2z"/>
			</g>
			<path fill="#010101" d="M154.7,68.5c-0.4,0-0.8,0-1.2-0.1C154,68.5,154.4,68.5,154.7,68.5z"/>
			<path fill="none" d="M159.4,67.1"/>
			<path fill="none" d="M134.9,72.7"/>
			<g>
				<path fill="#010101" d="M48.8,104.1c-0.6-3.7-1.7-7.9,0.3-11.3c1.9-3.3,4.3-6.4,6.7-9.3c0.1-0.2-5.5,5.7-7.4,9.1
					c-1.9,3.4-0.9,7.7-0.3,11.4C48.1,104.1,48.8,104.3,48.8,104.1L48.8,104.1z"/>
				<path fill="#010101" d="M49.2,104.1c-0.6-3.6-1.6-7.5,0.1-10.9c1.7-3.5,4.4-6.6,6.8-9.6c0.2-0.2-0.6-0.4-0.7-0.3
					c-1,0.4-2.1,2.3-2.8,3.1c-1.6,1.8-3.3,3.8-4.5,5.9c-1.6,2.9-1.3,6.2-0.7,9.4C47.4,102.4,47.6,105.2,49.2,104.1
					c0.1,0-0.6-0.3-0.8-0.2c0.3-0.2-0.5-3.3-0.6-3.8c-0.2-1.4-0.3-2.8-0.1-4.2c0.3-2.3,1.4-4.1,2.7-5.8c1.1-1.4,2.3-2.8,3.5-4.2
					c0.5-0.6,1.4-2,2.1-2.3c-0.2-0.1-0.5-0.2-0.7-0.3c-2.5,3-5.2,6.1-6.9,9.6c-1.7,3.5-0.7,7.4-0.1,11
					C48.4,104.2,49.2,104.4,49.2,104.1z"/>
			</g>
			<g>
				<path fill="#010101" d="M67.3,84.7c5.1,0.4,11,0.3,14.5,4.8c3.4,4.3,6.2,9.5,8.9,14.6c0.2,0.3-4.8-11.3-8.3-15.6
					c-3.6-4.5-9.5-4.4-14.7-4.8C67.5,83.6,67,84.7,67.3,84.7L67.3,84.7z"/>
				<path fill="#010101" d="M67.3,84.9c5.4,0.4,10.9,0.6,14.6,5.2c1.8,2.3,3.4,4.8,4.9,7.4c0.7,1.2,1.4,2.4,2,3.6
					c0.5,0.9,0.9,2.3,1.6,3c0.1,0.1,0.8,0.2,0.8-0.1c-0.8-2.1-1.9-4.2-2.9-6.3c-1.5-3.1-3.1-6.4-5.3-9.2c-2.2-2.8-5.5-4-8.9-4.5
					c-1-0.2-2.1-0.3-3.1-0.3c-0.8-0.1-2.3-0.4-3.1-0.2c-0.5,0.1-1.4,0.6-0.9,1.3c0.1,0.2,0.9,0.1,0.8,0c-0.7-1,1.7-0.8,2.1-0.8
					c0.8,0.1,1.5,0.1,2.3,0.2c2.1,0.2,4.2,0.5,6.1,1.4c3.1,1.4,4.9,4.1,6.5,7c2.1,3.7,4.2,7.6,5.7,11.6c0.3,0,0.5,0,0.8-0.1
					c-1-1.2-1.7-3.2-2.4-4.6c-0.8-1.5-1.7-3-2.6-4.5c-1.5-2.5-3.2-5.3-5.5-7.1c-3.7-2.9-8.8-2.9-13.2-3.3
					C66.8,84.5,66.8,84.8,67.3,84.9z"/>
			</g>
			<path fill="#010101" d="M72.3,69.1c0,0-0.1,0.1-0.1,0.1L72.3,69.1C72.3,69.1,72.4,69.1,72.3,69.1C72.4,69.1,72.4,69.1,72.3,69.1z
				"/>
			<path fill="#010101" d="M72.4,69.1c0,0-0.1,0.1-0.1,0.1h0C72.3,69.1,72.3,69.1,72.4,69.1C72.4,69.1,72.4,69.1,72.4,69.1z"/>
			<path fill="#010101" d="M72,81.4c-0.1-0.2-0.3-0.4-0.4-0.6c2.4-1.3,9.4-1.7,9.6-3.5c0.1-0.5-4.5-2.6-5.7-3.4
				c0.1-0.2,0.1-0.4,0.2-0.6c2.4,1.1,5.5,4,8.2,3.7C88.6,76.3,75.7,80,72,81.4L72,81.4z"/>
			<path fill="#010101" d="M85.7,75.1c-0.6,0.2-1.5-0.8-0.9-1c2.8-0.8,0.3-1.8,2.8-0.8c1,0.4,3.4-1,4.6-2c0.2-0.2,0.6-0.2,0.8-0.1
				l0.2,0.1c0.6,0.3-0.6,1-1.3,1.2L85.7,75.1z"/>
			<path fill="#010101" d="M133.8,101.3c-0.2,5.7-1,7.4-1.1,10.3c-0.1,2.3-3.1-5.1-4.8-14.1c-1.7-9-2.3-15.7-0.1-16.1
				c0.3-0.1,0.6,0.1,0.8,0.4c-3.3-4.8-3.4,1.9-3.4,5.4c0,3.9,0.2,7.7,1.7,11.1l-1.7-1.7c0.1,0.1,0.5,1.8,0.6,2.6c0,0,0,0-0.1,0
				c-1.4-3.4-1.3-8.5-1.5-12.3c-0.1-2.9,0-4.9,0.4-6.2c0.1-0.4-1.8-2.1-3.6-3.9c0.9,8.2,4.6,22.7,4.9,22.7c1.1-0.2-0.4-0.3-0.1-0.3
				c0,0.1,0.1,0.2,0.1,0.3c0,0.1,0-0.1-0.1-0.4c0,0,0,0,0,0s1,1.2,0.7,1.3c-3.3,0.2-8.5,2.5-11.4,2.4c-8.1-0.5-24.4,1.7-24.4,1.7
				l-0.1-0.7c0.4,0,2.8-0.2,13.3-1.8c0.7-0.1-1.3-2.3-0.7-2.8c0,0,4.5,2,6.2,2.1c1.2,0.1,4.1,0.4,4.8-0.6c0.3-0.6-1.7-3.2-1-2.6
				c0.8,0.7,2.7,2,3.8,2.2c0.7,0.1,8.3-0.1,7.1-1.1c-1.1-1-4.3-19.3-6.6-25.8c0-0.1,0-0.1-0.1-0.2c0.1-0.1-0.1-0.5-0.3-1
				c-0.5-1-1.3-2.4-0.9-2c0.6,0.6,2,1.5,3.2,2.7c-0.3-0.5-0.7-0.9-1.1-1.2c-1.9-1.8-3.8-3.5-5.7-5.2c-1.9-1.8-3.8-3.9-6-5.5
				c-1.9-1.3-4.4-1.8-6.6-2.1c-5-0.8-10.1-0.7-15.1-0.5c2-0.2,3.6-0.4,4.1-0.4c4.4-0.1,8.8,0,13.1,0.9c1.8,0.4,3.8,0.9,5.3,2.1
				c2.4,1.9,4.5,4.2,6.8,6.3c1.7,1.6,3.6,3,5.2,4.7c1.1,1.2,1.9,2.8,2.6,4.2c0.1,0.1-0.1,0.2-0.3,0.2c0.9,1.3,2.3,2.1,3.2,2.3
				c3.2,0.8,3.7,3.3,3.7,3.4c0,0,0,0,0,0c1.1,1.8,1.8,7,3.1,12.1C132.3,95.8,133.8,99.4,133.8,101.3z"/>
			<path fill="#010101" d="M90.7,103.7L90.7,103.7C90.5,103.7,90.7,103.7,90.7,103.7z"/>
			<path fill="#010101" d="M117.5,73.1c-0.2-0.4-0.2-0.8-0.3-1C117.4,72.6,117.6,73,117.5,73.1z"/>
			<path fill="#010101" d="M125.9,99.5c-0.1-0.1-0.1-0.2-0.1-0.3c0,0,0.1,0,0.1,0C125.9,99.4,126,99.6,125.9,99.5z"/>
			<g>
				<path fill="#010101" d="M103,147.3l-0.1,0.7c-0.3,0-30.9-3.3-42.6-5.3c-1.7-0.3-3.3-1.9-4.7-4.7c0-0.1-0.1-0.1-0.1-0.2
					c-0.6-1-0.6-1.8-0.5-2.7c0-0.5,0.1-1.1-0.1-1.7c-0.2-1.3-3.6-3.2-4.8-3.9c-0.2-0.1-4.7-1.6-5.8-3.1c-1-1.3-2.1-5.1-2.4-6.3
					c-1,0.2-4,0.4-5.7-1.9c-1.9-2.7,1.4-9,1.5-9.3L41,97.5h0c-0.4-7.2,2.4-15,6.1-21c3-4.9,7.2-10.1,12.3-13
					c4.9-2.8,5.5-2.6,11.5-3.8c-0.2-0.1,4.1-0.5,4.1-0.7c0,0.1,0.5,0.2,1.3,0.2c-0.1,0.1,0,0,0.2,0.2c0.3,0.2,0.8,0.3,1.2,0.3
					c0.4,0,0.8,0.1,1.2,0.1c0,0,0,0,0.1,0c0.1,0,0.2,0,0.3,0c0.5,0.1-0.1,0.3-0.3,0.3c-6.4-0.4-13.2,0.3-18.9,3.5
					C55.8,66,52,70.3,49.2,74.5c-2.4,3.4-4.2,7.2-5.5,11.2c-0.2,0.7-0.8,1.4-0.7,2.2c0,0.2,1.3,0.5,1.7,1.1c0.6,0.9,0.3,2.3,0.2,2
					c-1.1-3.2-2.4-1.2-2.5-0.9c-0.5,2.5-0.8,5.2-0.6,7.7l0,0.1l-0.1,11.4c-2.7-2.7-6.1,6.7-4.8,8.6c1.5,2.1,4.7,1.6,5.2,1.5
					c0,0,0.1,0,0.1,0l0.3-0.1c0,0,0,0,0,0l-0.3,0.1c0.3-0.1,5.7-1.9,7.8-7.7c0.1-0.4,1.7-2.2,2.6-3.2c-0.4-1.4-0.5-2.8-0.4-4.3
					c0.7-10.1,4.9-15.8,14.2-15.6c8.1,0.2,16.3,8,16.3,16.4c0.3,10.6-8.4,14.5-15.4,14.8c-6.4,0.3-12.4-4.4-14.4-10.4
					c0,0-0.6,1.8-0.4,2.4c0.8,3.7,6.8,11.3,9.8,14.9c0.5,0.6,3,4.3,4.3,5.1c0.7,0.4,3.7-1.1,7.4-0.7c0.4,0,7.6-10.2,12.2-16.7
					c2.1-3,3-4.6,9.9-4.5c0.5,0,0-1.8,0.5-1.7c0.1,0-0.5,2.8-3.7,3.3c-3.7,0.7-6.2,3.4-7.8,6.1c-3.8,6.5-9.2,13.2-8.9,13.3
					c11.6,1.2,29.9,3.8,30,4c0.6,0.9-34.7-5.4-38.8-0.7c-0.8,0.9-4.3-5.4-4.3-5.4l-11.4-13.9l-7.7,6.6c0.3,1,0.2,3.5,1.1,4.7
					c0.8,1.1,4.2,2.4,5.5,2.9c0.5,0.3,4.9,2.5,5.3,4.4c0.1,0.8,0.1,1.4,0.1,1.9c0,0.8-0.1,1.4,0.4,2.2c0,0,0.1,0.1,0.1,0.2
					c1.6,3.2,3.2,4.1,4.2,4.3C72.1,144,102.7,147.2,103,147.3z"/>
				<path fill="#010101" d="M102.6,147.2c-0.1,0.7,0.6,0.5,0,0.6c-0.4,0.1-1-0.1-1.5-0.2c-1.7-0.2-3.3-0.4-5-0.5
					c-5.3-0.6-10.6-1.2-16-1.8c-5.5-0.7-10.9-1.3-16.4-2.1c-1.1-0.2-2.2-0.3-3.2-0.5c-2.3-0.5-3.6-2.5-4.7-4.6
					c-0.8-1.6-0.2-3-0.6-4.5c-0.3-0.9-1.1-1.6-1.9-2.1c-2-1.5-4.2-2.2-6.5-3.3c-3.1-1.6-3.8-4.7-4.7-7.9c0-0.2-0.5-0.2-0.6-0.2
					c-2.2,0.3-4.9-0.3-5.5-2.7c-0.4-1.4,0-3.1,0.5-4.5c0.5-1.5,1.2-2.8,1.7-4.3c0.6-2,1.1-4.1,1.7-6.2c0.3-1.1,0.6-2.2,0.9-3.4
					c0.1-0.3,0.2-0.7,0.3-1c0-0.5,0.3-0.4-0.2-0.4c0.1,0,0.3,0,0.3-0.1c-0.3-6.5,1.7-13,4.8-18.7c2.8-5.2,6.6-10.3,11.4-13.8
					c2.1-1.5,4.5-2.9,6.9-3.7c2-0.7,4-0.9,6-1.3c1.3-0.3,2.7-0.3,4-0.6c0.6-0.1,1,0,0.3-0.2c0.6,0.1,1,0.2,1.6,0.2
					c-0.2-0.1-0.3-0.1-0.5-0.2c0,0,0,0,0,0.1c0,0.1,0.1,0.1,0.2,0.2c0.7,0.3,1.1,0.4,1.8,0.5c0.7,0.1,1.7,0.1,0.4,0
					c-0.7,0-1.4-0.1-2.1-0.1c-2.6,0-5.2,0.1-7.7,0.6c-4.9,0.9-9.4,2.9-13.1,6.2c-4.2,3.7-7.6,8.5-10,13.5c-1,2.1-2.2,4.6-2.8,6.9
					c-0.2,0.8-0.1,0.7,0.2,1.1c0.3,0.4,1,0.5,1.4,1c0.2,0.2,0.6,1.7,0.4,1.8c0.2,0.1,0.4,0.1,0.7,0.2c-0.4-1.1-1.6-2.8-2.9-1.6
					c-1,1-0.9,3.2-1,4.5c-0.1,1.4-0.1,2.7-0.1,4.1c0,3.7-0.1,7.4-0.1,11.1c0.3,0,0.5,0,0.8,0c-3-2.7-5.3,3.6-5.7,5.6
					c-0.4,2-0.2,3.5,1.9,4.4c1.4,0.6,3,0.6,4.5,0.3c0.1,0,0.2-0.1,0.1-0.1c0,0,0,0,0,0c-0.1-0.2-0.5-0.2-0.7-0.2
					c-0.1,0-0.2,0-0.3,0.1c0.2,0.1,0.4,0.2,0.5,0.3c1.6-0.5,3.1-1.5,4.3-2.6c1.3-1.1,2.3-2.5,3.1-4.1c0.3-0.6,0.5-1.2,0.9-1.7
					c0.5-0.8,1.4-1.4,1.8-2.2c0.5-0.9,0.1-1.4-0.1-2.5c-0.1-1-0.1-2,0-3c0.2-1.9,0.5-3.7,1-5.5c0.9-3,2.6-5.8,5.4-7.4
					c7.6-4.5,17.3,0.4,21.3,7.5c3.7,6.6,2.1,15.4-4.6,19.3c-3.4,1.9-7.9,3-11.7,2.1c-5-1.1-9-5.2-10.7-9.9c-0.1-0.2-0.7-0.3-0.8-0.1
					c-0.7,2.2-0.2,3.6,0.9,5.6c1.4,2.6,3.2,5,4.9,7.3c1.4,1.9,3,3.7,4.4,5.6c0.9,1.2,2.2,3.6,3.8,4.1c0.4,0.1,0.9,0.1,1.4,0
					c0.6-0.1,1.2-0.3,1.8-0.4c1.4-0.3,2.7-0.1,4-0.4c1.1-0.2,1.4-0.8,2.1-1.7c3.5-4.6,6.8-9.4,10.2-14.1c1.4-1.9,2.6-4,5-4.8
					c0.9-0.3,1.8-0.4,2.7-0.5c0.8-0.1,2,0.3,2.7-0.1c0.7-0.4,0-1.5,0.6-1.8c-0.2,0-0.5-0.1-0.7-0.1c0.2,0.6-0.9,1.7-1.3,2.1
					c-1.3,1.2-3.2,1.2-4.8,1.9c-3.2,1.6-4.9,4.5-6.7,7.4c-1.9,3-4,5.9-6,8.8c-0.4,0.6-1.9,2-1.3,2.5c0.5,0.5,3.2,0.4,3.9,0.4
					c1.7,0.2,3.5,0.4,5.2,0.6c3.3,0.4,6.5,0.8,9.8,1.3c2.6,0.4,5.2,0.7,7.8,1.1c0.8,0.1,1.5,0.2,2.3,0.4c0.2,0,1.3,0.1,0.7,0
					c-1-0.2-2.1-0.2-3.1-0.3c-1.8-0.2-3.5-0.4-5.3-0.6c-4.6-0.5-9.1-1-13.7-1.4c-4.1-0.3-8.3-0.6-12.4,0c-1.2,0.2-2.4,0.4-3.5,1
					c-0.5,0.3-0.5,0.5-0.9,0.4c-0.7-0.2-1.7-2.2-2.1-2.8c-3.7-5.8-8.4-10.9-12.7-16.2c-0.2-0.2-0.6-0.3-0.8-0.1
					c-2.6,2.2-5.1,4.4-7.7,6.6c0,0,0,0.1,0,0.1c0.3,1.4,0.2,3,0.9,4.3c0.5,0.9,1.5,1.5,2.5,1.9c2.3,1.1,4.6,1.8,6.6,3.4
					c1.6,1.2,2,2.2,2,4.3c0,1.6,0.6,2.9,1.5,4.2c1.1,1.6,2.3,2.5,4.2,2.8c10.7,1.8,21.6,2.9,32.4,4.1c3.2,0.4,6.3,0.7,9.5,1
					c0.5,0,0.5-0.3,0-0.3c-9.9-1-19.8-2.2-29.7-3.4c-3-0.4-6-0.8-9-1.2c-1.2-0.2-2.4-0.3-3.6-0.6c-2.1-0.5-3.2-2.4-4.1-4.2
					c-0.8-1.6,0-3.5-0.8-5c-0.7-1.2-2.1-2.1-3.2-2.8c-2.3-1.4-6.2-1.9-7.6-4.3c-0.5-0.9-1.2-3.5-0.8-4.3c0.4-0.8,1.9-1.6,2.5-2.1
					c1.7-1.4,3.4-2.9,5.1-4.3c-0.3,0-0.5-0.1-0.8-0.1c2.2,2.7,4.5,5.5,6.7,8.2c1.8,2.2,3.8,4.3,5.3,6.7c0.8,1.3,1.9,3.7,3.3,4.4
					c1,0.5,1.3-0.2,2.1-0.6c3.4-1.7,8.3-1.1,12-0.9c5.1,0.2,10.2,0.8,15.3,1.4c3.2,0.4,6.4,1,9.6,1.1c0.2,0,1.1,0.1,1-0.3
					c-0.1-0.4-2.2-0.5-2.4-0.5c-5.9-0.9-11.9-1.7-17.8-2.5c-1.9-0.2-3.9-0.5-5.8-0.7c-0.9-0.1-1.8-0.2-2.8-0.3
					c-0.7-0.1-1.1,0.1-1-0.4c0.2-1.1,1.9-2.6,2.5-3.5c1.3-1.9,2.6-3.7,3.9-5.7c2.5-3.8,4.5-8.2,9.3-9.5c1.4-0.4,2.6-0.7,3.6-1.8
					c0.3-0.3,1-1.3,0.9-1.8c-0.1-0.2-0.6-0.2-0.7-0.1c-0.6,0.3,0,1.1-0.3,1.5c-0.5,0.6-3.4,0.4-4.2,0.5c-1.5,0.3-2.9,0.8-4,1.9
					c-1.5,1.5-2.6,3.4-3.8,5.1c-1.7,2.3-3.3,4.6-5,7c-1.3,1.9-2.7,3.8-4.1,5.6c-0.2,0.3-0.7,1.1-1,1.3c-0.3,0.2-1.1,0-1.5,0
					c-0.9,0-1.7,0.1-2.6,0.3c-0.9,0.2-2.3,0.8-3.2,0.3c-1-0.5-1.8-2-2.5-2.9c-1.2-1.6-2.5-3.2-3.8-4.8c-2-2.5-3.9-5-5.5-7.7
					c-1.3-2.2-2.3-4-1.5-6.6c-0.3,0-0.5,0-0.8-0.1c2.7,7.6,10.2,11.7,18,10.2c7.7-1.4,13-7.1,12.5-15.1c-0.4-8-7.7-15.1-15.6-16
					c-7.1-0.8-12.8,2.8-14.8,9.7c-0.7,2.3-1.1,4.9-0.9,7.3c0.1,1.7,0.6,2.6-0.6,4c-0.6,0.7-1.1,1.3-1.6,2.1
					c-1.3,2.2-2.1,4.1-4.2,5.7c-1,0.8-2.2,1.5-3.4,1.9c-0.4,0.1,0.4,0.3,0.5,0.3c0.1,0,0.2,0,0.3-0.1c-0.2-0.1-0.4-0.1-0.7-0.2
					c-0.1-0.2-0.4,0-0.7,0c-1.3,0-2.8,0-3.8-1.1c-0.8-0.9-0.7-2.1-0.5-3.1c0.2-1.1,2.2-7.6,4.2-5.8c0.1,0.1,0.8,0.3,0.8,0
					c0-3,0.1-6,0.1-8.9c0-1.1,0-2.2,0-3.2c0-1.8,0.1-3.6,0.4-5.4c0.1-0.4,0.1-1.6,0.5-1.9c0.9-0.6,1.2,0.6,1.4,1.2
					c0.1,0.2,0.5,0.2,0.7,0.2c0,0,0,0,0.1,0c0.1,0,0.1,0,0.1-0.1c0.4-1.3-0.3-2-1.2-2.8c-0.4-0.3-0.7-0.3-0.8-0.9
					c0-0.4,0.5-1.3,0.6-1.6c0.4-1.1,0.8-2.3,1.3-3.4c2-4.8,4.9-9.2,8.4-13c3.5-3.8,7.8-6.6,12.8-8c2.7-0.7,5.6-1.1,8.4-1.1
					c1.4,0,3.7,0.6,4.9-0.1c0.1-0.1,0-0.2,0-0.2c-0.5-0.3-3.2-0.4-3.1-0.6c0-0.2-0.4-0.2-0.5-0.2c-0.3,0-0.6,0-0.9,0
					c-0.1-0.1-0.5-0.2-0.7-0.1c-0.8,0.6-2.8,0.4-3.9,0.6c-1.8,0.3-3.6,0.7-5.4,1.1c-4,1-7.9,3.4-10.9,6.2
					c-4.2,3.8-7.6,8.7-10.1,13.8c-1.2,2.6-2.2,5.2-2.9,8c-0.2,0.8-1.8,8.8-0.7,8.8c-0.1,0-0.3,0-0.3,0.1c-1.1,3.9-1.8,8.1-3.3,11.8
					c-1,2.4-2.6,5.3-1.8,8.1c0.8,2.8,4.2,3.4,6.7,3c-0.2-0.1-0.4-0.1-0.6-0.2c0.6,2.3,1.2,5.4,3.1,7c1.7,1.4,3.9,1.9,5.8,2.8
					c1.3,0.6,2.8,1.5,3.6,2.6c1,1.4,0.2,3.1,0.8,4.7c0.9,2.3,2.7,4.9,5.2,5.5c4.9,1.3,10.2,1.5,15.2,2.2c5.9,0.7,11.7,1.4,17.6,2.1
					c3.4,0.4,6.8,0.8,10.2,1.1c0.1,0,0.4,0,0.4-0.1c0-0.2,0.1-0.5,0.1-0.7C103.5,147.1,102.6,147,102.6,147.2z"/>
			</g>
			<path fill="#010101" d="M102.8,117.4c4.7-0.5,3-0.5,2.4-2.2c-1.6,0.7-3.5-0.5-4.9,0.1c-0.1-0.2-0.2-0.4-0.3-0.6
				c1.5-0.8,4.7-3.4-2.3-8.7c7.9,2.5,4.7,6.2,10.4,11C110.3,118.6,106.1,121.9,102.8,117.4z"/>
			<path fill="#010101" d="M146.9,149.6c0,0-1.7,16.3-4.8,18c0,0-9.6-10.3-13-12.1c-10-5.5-25.1-7.7-30-7.7c-4.5,0-6.2-7.1-6.5-12.1
				c0-0.4,12.9,1.9,22,5.8c3.8,1.6,7.5,9.7,7.5,9.7c2.8,0.3-6-10-6.1-10.2c-0.3-1.4-22.8-6.1-23.4-7.4c-0.9-1.9,17.2,0.7,26.4,1.2
				c1.3,0.1,3.8-0.9,5.8-2.4c0,0-9-17.6-7.4-17.9c6.8-0.9,11.2,0.3,11.4,0.2l12.2,14.4c1.6-4.1-3.4-12.7-8.7-15.3
				c-7.2-3.5-11.9-4.2-9.2-5.9c1.3-0.8,5.2,2.8,6.6,3.1c6.7,1.8,7.4,6.9,13,10C145.2,122.2,146.9,138.2,146.9,149.6z"/>
		</g>
		<g>
			<polygon fill="#2A98B7" points="72.6,188.3 73.7,193 72.5,192.8 72.5,174.4 85.4,174.4 91.1,183.4 91.2,187.4 			"/>
			<path fill="#010101" d="M72.2,188.3c0.4,1.6,0.7,3.1,1.1,4.7c0.2-0.1,0.4-0.2,0.7-0.2c-0.7-0.1-0.9,0-1.1-0.4
				c-0.2-0.4,0-1.3,0-1.7c0-2.1,0-4.2,0-6.4c0-3.3,0-6.7,0-10c-0.2,0.1-0.4,0.2-0.6,0.2c2.3,0,4.6,0,6.8,0c1.5,0,3.1,0,4.6,0
				c0.4,0,0.9-0.1,1.2,0c0.5,0.1-0.2-0.2,0.2,0.1c0.8,0.8,1.3,2.1,1.9,3c0.8,1.3,1.7,2.7,2.5,4c0.4,0.6,1,1.3,1.1,2
				c0.3,1.2,0.1,2.6,0.1,3.8c0.2-0.1,0.3-0.2,0.5-0.2c-6.2,0.3-12.4,0.6-18.6,0.9c-0.4,0-0.7,0.4-0.2,0.3c6.2-0.3,12.4-0.6,18.6-0.9
				c0.1,0,0.5-0.1,0.5-0.2c0-1.2,0.2-2.8-0.1-3.9c-0.2-0.6-0.7-1.2-1.1-1.8c-0.9-1.4-1.8-2.8-2.6-4.2c-0.5-0.8-1.2-2.5-1.9-3.1
				c-0.4-0.3-0.8-0.2-1.2-0.2c-1.4,0-2.9,0-4.3,0c-2.5,0-5.1,0-7.6,0c-0.1,0-0.6,0-0.6,0.2c0,6.1,0,12.3,0,18.4
				c0,0.1,0.1,0.1,0.1,0.1c0.4,0.1,0.8,0.1,1.2,0.2c0.1,0,0.7,0,0.7-0.2c-0.4-1.6-0.7-3.1-1.1-4.7C73,188,72.2,188.1,72.2,188.3z"/>
		</g>
		<g>
			<g>
				<path fill="#2A98B7" d="M72.9,196.5l-2-1.5l-12.6-16.3l1.6-16c0.7,2.2,5.9,4.8,6.8,6.3c0.4,0.7,3.8,3.1,4.3,3.3
					c3.8,1.6,15.2,1.2,15.2,1.2s-1.2,1-1.7,2.6C82.9,182.3,72.9,196.5,72.9,196.5z"/>
				<path fill="#010101" d="M72.2,195.5c-1.8-1.3-2.7-2.4-4.1-4.1c-2.2-2.9-4.4-5.8-6.7-8.6c-0.9-1.2-1.8-2.4-2.7-3.6
					c-0.3-0.3-1-1.1-1.1-1.4c-0.2-0.7,0.2-1.9,0.3-2.6c0.2-1.7,0.3-3.4,0.5-5.1c0.3-3,0.6-6,0.9-8.9c-0.3,0-0.5,0-0.8,0
					c0.8,1.9,3,3.4,4.5,4.7c1,0.9,2.1,1.8,2.9,2.8c0.6,0.7,0.7,1.5,1.5,1.9c3.4,2,8.2,2,12,2.2c2.1,0.1,4.2,0.2,6.3,0.2
					c0.1,0,1,0.1,1.1,0c0.4-0.5-0.8-0.1-0.7-0.1c-0.5,0-1.1,0.4-1.4,0.7c-1.7,1-2,3.3-2.8,5c-1.1,2.4-2.5,4.7-3.9,7
					c-2.1,3.4-4.2,6.7-6.5,9.9c-0.1,0.2,0.6,0.3,0.8,0.1c2.2-3.2,4.4-6.4,6.4-9.7c1.5-2.4,2.9-4.9,4.1-7.4c0.4-0.9,0.8-1.9,1.1-2.8
					c0.5-1.5,1.7-2.2,3.1-2.6c0.4-0.1,0-0.3-0.2-0.3c-4.9,0-10.1,0.1-14.9-1c-1.2-0.3-2.8-0.6-3.8-1.3c-1-0.6-1.6-2.2-2.5-3.1
					c-1.9-1.9-5.2-3.7-6.2-6.3c-0.1-0.2-0.8-0.2-0.8,0c-0.3,2.5-0.5,5-0.8,7.5c-0.2,1.9-0.4,3.8-0.6,5.7c-0.1,0.9-0.5,2.3-0.3,3.2
					c0.3,1.4,2.2,3.1,3.1,4.2c2.3,3,4.6,6,6.9,9c1.5,2,2.6,3.4,4.6,4.8C71.7,195.8,72.5,195.7,72.2,195.5z"/>
			</g>
			<g>
				<path fill="#010101" d="M87.8,173.2c-1.8-0.8-4.4-0.2-6.3-0.3c-3.5-0.1-7.4-0.2-10.8-1.3c-2.1-0.7-2.8-2.1-4.1-3.5
					c-0.7-0.8-1.6-1.4-2.4-2.1c-1.1-0.9-2.1-1.7-3-2.7c-0.4-0.5-0.6-1.2-1-1.6c-0.1-0.1-0.2-0.2-0.4-0.3c-0.5-0.2-0.8-0.2-1,0
					c-0.1,0-0.2,0-0.2,0.1c0,0,0,0,0,0c-0.3,0.5-0.2,1.5-0.3,2.2c-0.3,3.4-0.6,6.8-1,10.1c-0.2,2.2-0.9,4,0.6,5.9
					c1.7,2.2,3.6,4.3,5.3,6.6c2,2.6,3.9,5.7,6.2,8c0.6,0.6,1.6,1.7,2.6,2c0,0,0.1,0,0.1,0h0.1c0.3,0.1,0.6,0.1,0.9,0
					c0,0,0.1,0,0.1,0c0.5-0.2,1-1.5,1.3-1.9c0.5-0.8,1-1.5,1.6-2.3c1-1.4,1.9-2.9,2.8-4.3c1.7-2.7,3.4-5.5,4.7-8.4
					c0.6-1.2,0.8-2.7,1.5-3.8c0.8-1.2,2.3-1.1,3-2C88.1,173.3,87.8,173.2,87.8,173.2z M73.6,194c0.3-0.5,0.8-1,1.1-1.5
					C74.4,193,73.9,193.5,73.6,194z M84.3,174c-0.8,0.6-1,1.4-1.4,2.3c-0.5,1.4-1.1,2.7-1.7,4c-2.6,5.1-5.9,10.1-9.2,14.8
					c-2.3-2-4-4.6-5.9-7c-2-2.6-4-5.3-6.1-7.9c-0.8-1.1-1.6-1.7-1.5-3.2c0.2-1.4,0.4-2.8,0.5-4.2c0.3-3.1,0.6-6.3,0.9-9.4
					c1.1,1.3,2.5,2.3,3.8,3.4c1.7,1.4,2.6,3.7,4.6,4.7c4.9,2.3,10.8,2.3,16.3,2.2C84.6,173.8,84.5,173.9,84.3,174z"/>
			</g>
		</g>
		<g>
			<g>
				<path fill="#2A98B7" d="M99,244c1.7-0.4,3.5-0.7,5.2-0.9c-4.5-23.1-9.7-50.5-9.9-52c-0.5-5.3,0.8-14.4,0.9-14.6l4.1,12.9
					l1.5,5.4l0.6-2.9l-0.9-4.5c0,0-5.4-15.5-5.8-15.2c-1,0.9-3.3,10.3-3.3,10.3l-4.3,10.3l9.4,51C97.4,243.8,98.2,243.9,99,244z"/>
				<path fill="#010101" d="M99.3,244.2c1.7-0.4,3.4-0.7,5.1-0.8c0.1,0,0.2,0,0.1-0.1c-2.3-11.7-4.5-23.3-6.7-35
					c-0.8-4.1-1.6-8.2-2.3-12.3c-0.4-2.2-0.9-4.4-0.9-6.7c0-2.7,0.1-5.3,0.4-8c0.1-1.5,0.1-3.2,0.6-4.6c-0.3-0.1-0.5-0.1-0.8-0.2
					c1.9,6.1,3.9,12.2,5.7,18.3c0,0.2,0.7,0.4,0.8,0.2c0.3-1.6,0.6-2.7,0.3-4.2c-0.2-1.3-0.4-2.5-0.8-3.8c-1.3-3.9-2.7-7.8-4.2-11.6
					c-0.7-1.8-1.7-5-3-1.7c-1.2,3.1-1.6,6.6-2.9,9.7c-0.8,2-1.7,4-2.5,6.1c-0.4,1-1.3,2.3-1.4,3.3c-0.1,1.5,0.7,3.6,0.9,5.1
					c1.6,8.7,3.2,17.4,4.8,26.1c1.2,6.6,2.4,13.2,3.6,19.7c0,0.2,0.4,0.2,0.6,0.2c0.8,0.1,1.5,0.1,2.3,0.2c0.6,0.1,0.2-0.3-0.1-0.4
					c-0.8-0.1-1.7-0.2-2.5-0.2c0.2,0.1,0.4,0.2,0.6,0.2c-2.5-13.6-5-27.3-7.5-40.9c-0.5-2.8-1-5.7-1.6-8.5c-0.1-0.4-0.3-1.1-0.3-1.5
					c0.1-0.9,0.9-2.2,1.3-3.1c1.1-2.7,2.5-5.5,3.3-8.3c0.5-2.1,1.1-4.3,1.8-6.4c0.2-0.6,0.9-1.7,0.9-2.3c0.1-0.1,0.1-0.2,0.2-0.3
					c-0.2-0.1-0.4-0.1-0.5-0.2c0,0.1,0.1,0.1,0.1,0.2c0,0.2,0.3,0.7,0.4,0.8c1.8,4,3.2,8.3,4.6,12.4c0.4,1.2,0.7,2.2,0.9,3.4
					c0.2,0.8,0.5,1.8,0.5,2.7c0,0.9-0.4,1.9-0.6,2.8c0.3,0.1,0.5,0.1,0.8,0.2c-1.8-6.1-3.7-12.2-5.7-18.3c-0.1-0.2-0.7-0.4-0.8-0.2
					c-0.4,1.2-0.4,2.6-0.5,3.9c-0.3,2.5-0.5,5.1-0.5,7.6c0,2.5,0.4,4.8,0.8,7.2c1.9,10.3,3.9,20.5,5.9,30.8
					c0.7,3.6,1.4,7.1,2.1,10.7c0.3,1.6,1.2,3.8,1.1,5.5c-0.1,1.2-1.2,1.1-2.3,1.2c-0.9,0.1-1.8,0.3-2.7,0.5
					C98.4,243.9,99.1,244.2,99.3,244.2z"/>
			</g>
			<g>
				<path fill="#010101" d="M99.3,244.2c1.7-0.4,3.4-0.7,5.1-0.8c0,0,0.2,0,0.2-0.1c-2.3-11.7-4.5-23.5-6.8-35.3
					c-0.8-4.1-1.5-8.1-2.3-12.2c-0.4-2.1-0.8-4.2-0.9-6.3c-0.1-2.7,0.1-5.5,0.4-8.2c0.1-1.5,0.1-3.2,0.6-4.6c-0.3,0-0.5,0-0.8,0
					c1.9,6.1,3.9,12.2,5.7,18.3c0.1,0.2,0.8,0.3,0.8,0c0.3-1.7,0.6-2.9,0.3-4.6c-0.2-1.2-0.4-2.3-0.8-3.4c-1.3-3.9-2.7-7.8-4.2-11.6
					c-0.7-1.7-1.7-4.9-2.9-1.7c-1.3,3.1-1.6,6.6-2.9,9.7c-0.8,2-1.7,4-2.5,6c-0.4,1-1.3,2.4-1.4,3.5c0,0.5,0.2,1.1,0.3,1.5
					c0.2,1.2,0.5,2.5,0.7,3.7c1.6,8.7,3.2,17.3,4.8,26c1.2,6.6,2.4,13.2,3.6,19.7c0,0.2,0.3,0.2,0.4,0.2c0.8,0.1,1.6,0.1,2.4,0.2
					c0.5,0,0.5-0.3,0-0.3c-1.7-0.2-1.9,0.4-2.2-1c-0.2-1-0.4-2-0.5-3c-0.6-3.5-1.3-7-1.9-10.5c-1.6-8.8-3.2-17.5-4.8-26.3
					c-0.5-2.8-1-5.7-1.6-8.5c-0.1-0.5-0.3-1.2-0.3-1.7c0.1-0.8,0.8-1.9,1.1-2.7c1.2-2.8,2.7-5.6,3.4-8.6c0.5-2.1,1.1-4.2,1.7-6.3
					c0.2-0.7,1.1-2,1.1-2.7c0-0.3-0.3-0.4-0.3-0.1c0,0.2,0.3,0.6,0.4,0.8c1.8,4.1,3.2,8.3,4.7,12.5c0.4,1.2,0.7,2.3,0.9,3.6
					c0.2,0.8,0.5,1.7,0.5,2.5c0,0.9-0.4,1.9-0.6,2.8c0.3,0,0.5,0,0.8,0c-1.8-6.1-3.7-12.2-5.7-18.3c-0.1-0.2-0.7-0.2-0.8,0
					c-0.4,1.2-0.4,2.6-0.5,3.9c-0.3,2.5-0.5,5.1-0.5,7.6c0,2.5,0.4,4.8,0.8,7.3c1.9,10.2,3.9,20.4,5.8,30.6c0.7,3.7,1.4,7.3,2.1,11
					c0.3,1.6,1.1,3.5,1,5.1c-0.1,1.3-1.1,1.1-2.2,1.2c-0.9,0.1-1.8,0.3-2.7,0.5C98.3,244,99.1,244.2,99.3,244.2z"/>
				<path fill="#010101" d="M99.6,244.3c1.5-0.3,2.9-0.6,4.4-0.8c0.2,0,1,0,1.1-0.3c0.3-0.7-0.7-3.6-0.9-4.4
					c-0.3-1.6-0.6-3.2-0.9-4.8c-1.3-6.5-2.5-13.1-3.8-19.6c-1.2-6.2-2.4-12.4-3.5-18.6c-0.6-3.3-1-6.6-0.8-10c0.1-3,0.2-6.2,0.9-9.1
					c0.1-0.2-0.4-0.3-0.6-0.3c-0.3,0-0.5,0-0.8,0c-0.1,0-0.3,0-0.2,0.1c1.6,5.1,3.3,10.1,4.8,15.2c0.3,1,0.3,2.9,1.4,3.4
					c0.9,0.4,1-0.1,1.3-0.8c1.3-4.1-1.3-9.4-2.7-13.2c-0.8-2.1-1.6-4.1-2.4-6.2c-0.3-0.8-0.7-2.3-1.6-2.7c-2.3-1.1-3,4.9-3.4,6.2
					c-1.1,4.6-3.3,8.7-5,13.1c-0.7,1.7,0,3.3,0.3,5.1c0.5,2.6,1,5.2,1.4,7.8c1,5.3,1.9,10.5,2.9,15.8c1,5.7,2.1,11.3,3.1,17
					c0.3,1.4,0.5,2.9,0.8,4.3c0.1,0.7,0.1,2,0.7,2.6C96.7,244.6,98.8,244.4,99.6,244.3c0.1,0,0.2-0.1,0.2-0.1c0-0.1,0-0.1,0-0.2
					c0-0.1-0.2-0.2-0.2-0.2c-0.5-0.2-1.2,0-1.6-0.2c-1.1-0.5-1.1-3.4-1.3-4.4c-0.6-3.2-1.2-6.5-1.8-9.7c-1.3-7.3-2.7-14.6-4-21.9
					c-0.6-3.5-1.3-7.1-1.9-10.6c-0.3-1.6-1-3.4-0.4-5c0.5-1.3,1.2-2.6,1.8-3.9c1.3-3,2.3-6,3.1-9.1c0.4-1.5,0.8-3,1.4-4.3
					c0.3-0.7,0.9-1.5,0.5-2.2c-0.1-0.2-0.6-0.3-0.7-0.2c-0.1,0.1-0.1,0.1-0.2,0.2c0,0,0,0.1,0,0.1c1.4,3.5,2.8,7,4.1,10.5
					c0.6,1.9,1.3,3.7,1.8,5.6c0.5,2.2,0.6,3.8,0.1,6.1c0,0.2,0.4,0.3,0.6,0.3c0.3,0,0.5,0,0.8,0c0.1,0,0.3,0,0.2-0.1
					c-1-3.5-2-6.9-3.1-10.3c-0.5-1.6-1-3.3-1.6-4.9c-0.3-0.9-0.5-2.6-1.2-3.2c-1.1-0.9-1.5,0.3-1.7,1.2c-0.5,3.2-0.7,6.6-0.7,9.9
					c-0.1,6.5,1.8,13.2,3,19.5c1.3,6.9,2.7,13.9,4,20.8c0.7,3.8,1.4,7.6,2.3,11.3c0.2,0.8,0.8,2.4,0.4,3.1c-0.4,0.7-1.2,0.8-2,0.9
					c-0.6,0.1-2.5,0.2-2.9,0.7c-0.1,0.1,0.2,0.2,0.2,0.2c0.3,0.1,0.5,0.2,0.8,0.2c0.6,0.1,0.2-0.3-0.1-0.4c0.8,0.1,2-0.4,2.9-0.5
					c0.4-0.1,0.9,0,1.2-0.2c0.8-0.5,0.7-1.5,0.6-2.3c-0.2-1.6-0.8-3.1-1.1-4.7c-0.4-2.1-0.8-4.2-1.2-6.3c-1.5-8-3.1-16-4.6-24
					c-0.8-4-1.6-8-2.2-12.1c-0.7-4-0.6-7.9-0.2-11.9c0.1-0.9,0.2-1.9,0.3-2.8c0.1-0.6-0.1-2.1,0.7-2c0.4,0.1,1.6,4.9,1.7,5.3
					c0.6,2,1.3,4.1,1.9,6.1c0.2,0.6,2,6,1.2,6c0.2,0.1,0.4,0.2,0.6,0.3c0.4-1.9,0.6-3.2,0.2-5.1c-0.5-2-1.1-4-1.7-6
					c-0.7-1.9-1.3-3.8-2-5.6c-0.2-0.6-2.6-5.3-2.2-5.7c-0.2-0.1-0.5-0.1-0.7-0.2c0.5,0.7-0.8,2.5-1,3.2c-0.5,1.5-0.9,3-1.3,4.5
					c-0.8,3-1.9,5.8-3.2,8.7c-0.5,1.2-1.4,2.4-1.6,3.7c-0.2,1.1,0.3,2.4,0.5,3.5c0.6,3.5,1.3,7,1.9,10.6c1.3,6.9,2.5,13.8,3.8,20.7
					c0.6,3.3,1.2,6.6,1.8,9.9c0.3,1.5,0.5,3,0.8,4.5c0.1,0.6,0.1,1.6,0.6,2.1c0.2,0.2,0.5,0.2,0.8,0.2c0.2,0,1,0,1,0
					c-0.1,0.4-1.7-0.4-1.9-0.6c-1-1-1-3.7-1.3-5.1c-0.3-1.7-0.6-3.4-0.9-5.1c-1.3-7-2.6-13.9-3.8-20.9c-0.6-3.4-1.3-6.8-1.9-10.2
					c-0.3-1.6-0.6-3.1-0.9-4.7c-0.3-1.5-1-3.4-0.7-4.9c0.2-1.1,0.9-2,1.3-3c0.8-1.7,1.5-3.5,2.2-5.2c1.2-3,1.7-6.1,2.7-9.1
					c0.1-0.3,0.2-0.7,0.4-1c0.3-0.6,0.4-1.4,1-1.2c0.6,0.2,0.8,1.2,1,1.7c0.6,1.5,1.2,3.1,1.8,4.6c1.3,3.4,2.7,6.8,3.3,10.4
					c0.2,1.1,0.3,2.1,0.2,3.2c0,0.2,0,0.7-0.2,1c-0.3,0.6-0.2,0.4-0.5,0c-0.5-0.5-0.6-2-0.8-2.7c-0.3-1-0.6-2-0.9-3.1
					c-0.5-1.8-1.1-3.6-1.7-5.3c-0.3-1-0.6-2-1-3c-0.1-0.3-1.1-2.9-0.4-2.9c-0.2-0.1-0.4-0.2-0.6-0.3c-0.7,2.7-0.7,5.6-0.9,8.3
					c-0.1,2.6-0.2,5.1,0.2,7.7c0.9,6.1,2.2,12.1,3.4,18.1c1.2,6.1,2.4,12.3,3.5,18.4c0.6,3.1,1.2,6.1,1.8,9.2
					c0.2,1.2,1.4,4.1,0.1,4.9c-0.4,0.3-1.4,0.2-1.8,0.3c-0.9,0.1-1.7,0.3-2.5,0.5C98.6,244.1,99.3,244.4,99.6,244.3z"/>
			</g>
		</g>
		<g>
			<g>
				<g>
					<path fill="#FFFFFF" d="M65.7,236.1c2.9,3.6,5.6,6.9,8.1,9.7c5.2-1.5,10.5-2.2,15.8-2.3c-9.4-19.4-18.8-39.1-19-40.4
						c-0.1-0.5-2.4-3.9-2.4-3.9l-2.5-5l-8.8-20l0.9-6.7l-13.7,15.6l-0.2,1.7l-5.4,6.7c0,0,0.9,1.1,0.5,1.5c-0.4,0.4-2.2,0.1-2.3,0.7
						c-3.6,15.2-6,36.9-6,36.9l12,0.5H44l16,0.1h7C68.1,232.7,64.7,234.8,65.7,236.1z"/>
					<path fill="#010101" d="M65.3,236.2c2.6,3.3,5.3,6.5,8.1,9.7c0.1,0.1,0.4,0.1,0.5,0c5.1-1.5,10.3-2.1,15.6-2.2
						c0,0,0.6-0.1,0.5-0.2c-4.7-9.6-9.3-19.2-13.9-28.9c-1.4-3-2.8-5.9-4.1-8.9c-0.6-1.4-1.1-2.9-1.9-4.2c-4.5-7.2-7.5-15.3-10.9-23
						c-0.5-1.2-1.7-2.9-1.9-4.2c-0.1-0.9,0.3-2.2,0.4-3.2c0.2-1.2,0.3-2.4,0.5-3.6c0-0.2-0.7-0.1-0.8,0c-3.9,4.4-7.8,8.9-11.7,13.3
						c-0.6,0.7-1.5,1.4-1.9,2.2c-0.3,0.6-0.2,1.3-0.4,1.9c-0.6,1.2-2,2.5-2.9,3.5c-0.8,1-1.6,2-2.4,3c0,0-0.1,0.1,0,0.1
						c1.4,1.7-0.9,1.1-1.7,1.9c-0.6,0.6-0.6,2.2-0.8,3.1c-0.3,1.2-0.5,2.4-0.7,3.6c-0.9,4.6-1.7,9.2-2.4,13.8
						c-0.9,5.6-1.6,11.1-2.3,16.7c0,0.1,0.2,0.1,0.2,0.1c10.2,0.5,20.4,0.6,30.6,0.6c1,0,2,0,3,0c0.5,0,2-0.3,2.4,0
						C67.7,232.2,64.5,234.9,65.3,236.2c0.1,0.2,0.9,0,0.8-0.2c-0.7-1.3,2.8-3.9,1.1-4.8c-0.3-0.2-1.2,0-1.5,0c-1.2,0-2.4,0-3.6,0
						c-2.9,0-5.8,0-8.7,0c-7,0-13.9-0.2-20.8-0.5c-0.2,0-1.3,0.1-1.5-0.1c0.3,0.3,0.2-0.4,0.3-0.7c0.4-1.6,0.4-3.5,0.7-5.2
						c0.9-6.5,1.8-13,3-19.5c0.4-2,0.7-4.1,1.2-6.1c0.2-0.8,0.3-1.6,0.5-2.4c0.1-0.7,0.2-2.4,0.7-2.9c0.5-0.6,1.8,0,2.3-0.7
						c0.5-0.7-0.5-1.1-0.5-1.5c0-0.3,0.9-1.2,1.1-1.4c0.8-1,1.5-1.9,2.3-2.9c0.8-1,1.8-1.8,2.1-3c0.2-0.7,0.1-0.9,0.4-1.4
						c0.3-0.5,0.9-1,1.3-1.5c1.6-1.8,3.1-3.6,4.7-5.4c2.5-2.8,4.9-5.6,7.4-8.4c-0.3,0-0.5,0-0.8,0c-0.3,2-1,4.4-0.9,6.5
						c0.1,1,0.7,2,1.1,2.9c2.1,4.8,4.3,9.7,6.4,14.5c1.2,2.7,2.3,5.5,3.8,8c1,1.7,2,3.1,2.7,4.9c1,2.5,2.2,5,3.4,7.5
						c4.9,10.6,10.1,21.1,15.2,31.7c0.2-0.1,0.3-0.2,0.5-0.2c-4.7,0.1-9.3,0.6-13.8,1.7c-1.5,0.4-1.9,0.4-3-0.8
						c-0.6-0.8-1.3-1.5-1.9-2.3c-1.6-2-3.3-4-4.9-6C65.9,235.8,65.1,236,65.3,236.2z"/>
				</g>
				<g>
					<path fill="#010101" d="M65.3,236.1c2.6,3.3,5.3,6.5,8.1,9.7c0.1,0.2,0.5,0.2,0.7,0.1c5.1-1.5,10.4-2.1,15.7-2.2
						c0.1,0,0.3,0,0.2-0.1c-4.6-9.5-9.2-19.1-13.7-28.6c-1.4-3.1-2.9-6.1-4.2-9.2c-0.6-1.4-1.1-2.8-1.9-4.1
						c-4.4-7.1-7.4-15.1-10.8-22.7c-0.6-1.3-1.8-3.1-2-4.5c-0.1-0.9,0.3-2.4,0.5-3.3c0.2-1.1,0.3-2.2,0.5-3.4c0-0.2-0.7-0.3-0.8-0.2
						c-3.9,4.4-7.7,8.8-11.6,13.2c-0.6,0.7-1.5,1.4-1.9,2.2c-0.4,0.6-0.2,1.4-0.5,2c-0.6,1.2-1.9,2.4-2.8,3.5c-0.8,1-1.6,2-2.4,3
						c0,0,0,0.1,0,0.1c1.5,1.8-1.2,1.2-1.9,2.1c-0.5,0.6-0.5,2.4-0.7,3.2c-0.2,1.1-0.5,2.2-0.7,3.3c-0.9,4.7-1.7,9.5-2.5,14.3
						c-0.8,5.4-1.6,10.7-2.2,16.1c0,0.2,0.4,0.3,0.5,0.3c9.7,0.4,19.4,0.6,29.1,0.6c2.4,0,4.8,0,7.2,0c-0.2-0.1-0.4-0.1-0.6-0.2
						C67.6,233.1,64.3,234.3,65.3,236.1c0.1,0.2,0.9,0.2,0.8,0c-0.8-1.5,2.6-3.4,1.3-4.7c-0.5-0.5-1.8-0.2-2.3-0.2
						c-2.4,0-4.8,0-7.2,0c-5.6,0-11.2,0.1-16.8-0.2c-3.5-0.2-6.9-0.3-10.4-0.5c0.2,0.1,0.3,0.2,0.5,0.3c0.5-4.3,1.1-8.7,1.7-13
						c0.6-4.2,1.3-8.3,2-12.5c0.4-2.1,0.8-4.1,1.2-6.1c0.2-1,0.4-2,0.6-3c0.1-0.4,0.1-0.8,0.3-1.2c0.3-1,0.7-1.2,1.6-1.5
						c1-0.4,1.2-0.2,0.9-1.3c-0.1-0.2-0.4-0.5-0.4-0.6c0-0.2,0.6-0.8,0.8-1c1.4-1.7,3.3-3.5,4.4-5.4c0.5-0.9,0.3-1.8,1-2.6
						c1.4-1.6,2.7-3.1,4.1-4.7c3-3.4,6-6.8,8.9-10.2c-0.3-0.1-0.5-0.1-0.8-0.2c-0.2,1.2-0.3,2.4-0.5,3.6c-0.1,0.9-0.6,2.2-0.4,3.2
						c0.2,1.4,1.4,3.2,2,4.6c2.2,5.1,4.4,10.2,6.7,15.2c1.6,3.6,3.9,6.8,5.4,10.4c3.6,8.8,8,17.3,12.1,25.8c1.6,3.3,3.2,6.7,4.8,10
						c0.3,0.5,1.3,2,1.2,2.5c-0.1,1-1.7,0.6-2.5,0.7c-1.6,0.1-3.1,0.2-4.6,0.4c-1.8,0.2-3.5,0.5-5.3,0.9c-0.6,0.1-1.7,0.7-2.3,0.6
						c-0.6-0.1-0.9-0.6-1.3-1.1c-2.3-2.7-4.6-5.5-6.8-8.3C65.9,235.9,65.1,235.9,65.3,236.1z"/>
					<path fill="#010101" d="M64.9,236.1c1.3,1.6,2.7,3.3,4,4.9c0.7,0.8,1.3,1.6,2,2.4c0.6,0.7,1.3,1.9,2.1,2.4
						c0.4,0.3,0.8,0.3,1.2,0.2c2.2-0.2,4.4-1.1,6.6-1.5c2-0.3,4-0.5,6-0.6c0.5,0,3.3,0.3,3.5-0.3c0.2-0.8-1.5-3.3-1.9-4
						c-1-2-2-4.1-2.9-6.1c-3.8-7.8-7.6-15.7-11.2-23.6c-1.7-3.7-3.3-7.4-5.3-10.9c-1.9-3.4-3.6-7-5.2-10.7
						c-1.6-3.7-3.1-7.6-4.9-11.2c-0.9-1.8-1.3-3.1-0.9-5.1c0.2-0.8,0.3-1.6,0.4-2.4c0.1-0.4,0.5-1.7,0.3-2.1
						c-1.2-1.7-3.1,1.5-3.6,2.1c-2.9,3.3-5.8,6.6-8.7,9.9c-0.9,1-2.3,2.1-2.8,3.4c-0.3,0.8-0.3,1.5-0.7,2.3
						c-0.6,0.9-1.4,1.7-2.1,2.5c-0.7,0.8-2.8,2.7-2.8,3.7c0,0.2,0.5-0.1,0.3,0.4c-0.3,0.8,0.6,0.3-0.6,0.9c-0.3,0.2-0.8,0.2-1.2,0.4
						c-0.8,0.5-0.8,1.5-1,2.4c-0.3,1.8-0.7,3.5-1,5.2c-0.8,4.4-1.6,8.7-2.3,13.1c-0.8,5-1.5,9.9-2,14.9c-0.1,1.1-0.5,1.7,0.6,2.1
						c1.8,0.6,4.4,0.2,6.3,0.3c10.1,0.3,20.2,0.4,30.2,0.4c0.2,0,0.5-0.2,0.1-0.3c-0.2-0.1-0.4-0.1-0.6-0.2c-0.1,0-0.7-0.1-0.6,0.1
						c0.8,1.8-2.3,3-1.4,4.5c0.3,0.5,1.1,0.7,1.6,0.4c0,0,0-0.1,0-0.1c-0.6-1.5,2.9-3.6,1.1-4.9c-0.5-0.4-1.3-0.3-1.9-0.3
						c-2.3,0.1-4.7,0-7.1,0c-9.3,0-18.6-0.2-28-0.6c-0.1,0-0.5,0.1-0.2,0.2c0.2,0.1,0.3,0.2,0.5,0.3c0.1,0.1,0.7,0.2,0.7,0
						c0.8-6.7,1.7-13.4,2.8-20c0.5-3.4,1.1-6.7,1.8-10.1c0.3-1.7,0.6-3.5,1.1-5.1c0.2-0.8,0.4-1.4,1.2-1.8c0.1,0,1.1-0.3,1.3-0.5
						c0.3-0.4,0.2-0.5,0.1-1.1c0-0.7-0.3-0.3,0-1c0.1-0.4,0.8-0.9,1-1.2c1.7-2,3.2-3.7,4.2-6.1c0.6-1.6,2-2.9,3.2-4.2
						c1.1-1.3,2.3-2.6,3.4-3.9c2.4-2.7,4.7-5.4,7.1-8.1c0.1-0.1-0.2-0.2-0.3-0.2c-0.3-0.1-0.5-0.1-0.8-0.2c-0.1,0-0.5-0.1-0.5,0.1
						c-0.2,1.7-0.5,3.4-0.8,5.2c-0.3,1.6,0.1,2.8,0.9,4.3c1.8,3.5,3.2,7.1,4.8,10.6c3.2,7.2,7,14.1,10.2,21.3
						c3.3,7.5,7,14.8,10.6,22.1c1.6,3.4,3.1,6.9,5,10.1c0.2,0.4,0.9,1.2,0.7,1.7c-0.2,0.8-1.6,0.6-2.3,0.6c-2.1,0-4.1,0.3-6.2,0.6
						c-1.7,0.3-3.3,0.9-5,1.1c-1.8,0.3-3.3-2.5-4.3-3.7c-0.7-0.9-1.5-1.8-2.2-2.7c-0.6-0.7-1.4-2.2-2.2-2.7
						c-0.4-0.2-0.8-0.3-1.3-0.2c-0.1,0-0.2,0-0.2,0.1C64.9,236,64.9,236,64.9,236.1c-0.1,0.1,0.7,0.2,0.8,0c0,0.5,1.6,2,1.9,2.3
						c0.6,0.8,1.3,1.6,1.9,2.4c1.1,1.3,2.2,3.1,3.5,4.2c1.5,1.2,3.5-0.1,5.1-0.4c2.2-0.4,4.5-0.8,6.8-0.9c0.9-0.1,2.8,0.3,3.7-0.2
						c0.6-0.4,0.6-0.7,0.4-1.4c-0.4-1.5-1.6-3-2.3-4.4c-3.7-7.6-7.4-15.2-11-22.8c-1.8-3.8-3.4-7.7-5.1-11.5
						c-1.6-3.6-3.8-6.9-5.5-10.5c-2-4.3-3.8-8.7-5.7-13c-0.8-1.8-2.2-3.7-2.4-5.6c-0.2-2.1,0.6-4.6,0.9-6.7c-0.2,0-0.4,0.1-0.5,0.1
						c0.5,0.1-1.4,2.2-1.6,2.4c-0.5,0.6-1.1,1.2-1.6,1.8c-1.2,1.4-2.5,2.8-3.7,4.2c-1,1.2-2.1,2.4-3.1,3.6c-0.9,1-2.3,2.2-2.9,3.5
						c-0.7,1.3-0.9,2.6-1.9,3.9c-0.9,1.1-1.8,2.1-2.8,3.2c-0.3,0.4-1.1,1-1.2,1.5c-0.1,0.5,0.8,0.5,0.5,1.3
						c-0.2,0.4-0.8,0.4-1.2,0.6c-2.1,1.1-2,4.3-2.5,6.4c-0.7,3.3-1.3,6.7-1.8,10c-1.1,6.9-2.1,13.9-2.9,20.8c0.2,0,0.5,0,0.7,0
						c0.6,0.3,2.2,0.1,2.9,0.2c1.2,0.1,2.4,0.1,3.6,0.2c2.5,0.1,5.1,0.2,7.6,0.3c4.9,0.1,9.9,0,14.8,0c1.8,0,3.8-0.2,5.6-0.1
						c2.7,0.3,0.2,2.3-0.2,3.5c-0.1,0.4-0.1,0.7-0.2,1c0.2-0.7,0.2-1.2,0.7-1.9c0.6-0.9,1.2-1.5,0.8-2.6c-0.2,0-0.4,0.1-0.6,0.1
						c-1.3-0.5-3.5-0.1-4.9-0.1c-2,0-4,0-6.1,0c-3.9,0-7.8-0.1-11.7-0.2c-1.9,0-3.8-0.1-5.7-0.2c-1.1,0-2.2-0.1-3.2-0.1
						c-0.8,0-2.6,0.2-3.2-0.1c-1.4-0.7-0.3-4.4-0.1-5.7c0.3-2,0.5-4,0.8-6c1.1-7.5,2.5-14.8,3.8-22.2c0.2-1.2,0.1-2.8,1.4-3.4
						c0.6-0.2,1.2-0.2,1.6-0.8c0.2-0.2-0.1-0.3-0.1-0.5c0.2-1.2,0.3-1.5,1.1-2.4c1.1-1.3,2.3-2.5,3.3-3.9c0.8-1.1,0.7-2.4,1.5-3.5
						c1.1-1.4,2.4-2.6,3.5-3.9c2.6-3,5.3-6,7.9-9c0.5-0.5,1.1-1.7,1.4-0.7c0.2,0.5-0.2,1.8-0.3,2.4c-0.2,1.2-0.6,2.4-0.4,3.7
						c0.3,1.4,1.2,2.7,1.8,4c0.8,1.6,1.5,3.3,2.2,5c1.4,3.3,2.8,6.6,4.3,9.8c1.5,3.2,3.5,6.1,5,9.3c3.2,6.6,6.1,13.4,9.2,20.1
						c1.9,3.9,3.8,7.9,5.7,11.8c0.9,1.9,1.8,3.8,2.8,5.7c0.3,0.6,1.7,2.6,0.9,3.2c-0.3,0.2-2.1,0.1-2.4,0.1
						c-3.9,0.2-7.5,1.2-11.3,1.7c-2.5,0.3-3.9-2.4-5.3-4.1c-1.4-1.7-2.8-3.4-4.3-5.2C65.5,235.9,64.7,235.9,64.9,236.1z"/>
				</g>
			</g>
			<g>
				<g>
					<path fill="#FFFFFF" d="M108.1,243c1.8,0,3.6,0.1,5.3,0.3l0.3-11.9l0.3,1.2l8.8-1.2h2c0,0-2.5-17.1-4.5-20.4
						c-3-5-22-25.1-22-25.1l9.2,16.5L108.1,243z"/>
					<path fill="#010101" d="M108.3,243.2c1.8,0,3.5,0.1,5.2,0.3c0.1,0,0.3,0,0.3-0.1c0.1-4,0.2-8,0.3-11.9c-0.3,0-0.5-0.1-0.8-0.1
						c0.1,0.4,0.2,0.8,0.3,1.2c0,0.2,0.5,0.2,0.7,0.2c3.6-0.5,7.1-1.2,10.7-1.2c0.1,0,0.2,0,0.2-0.1c-0.5-3.1-1-6.1-1.5-9.2
						c-0.7-3.6-1.1-8.1-3.1-11.4c-1.8-2.9-4.3-5.6-6.6-8.1c-3.1-3.6-6.3-7.1-9.6-10.6c-1.9-2.1-3.9-4.2-5.8-6.3
						c-0.1-0.1-0.9-0.2-0.8,0c2,3.7,4.1,7.4,6.1,11c1.2,2.2,3,4.3,3.1,6.8c0.2,9.8,0.3,19.6,0.5,29.4c0.1,3.3,0.1,6.5,0.2,9.8
						c0,0.3,0.8,0.3,0.8,0.2c-0.1-8.2-0.3-16.5-0.4-24.7c-0.1-4.6-0.2-9.1-0.2-13.7c0-0.7,0.1-1.6,0-2.2c-0.3-1.2-1.4-2.5-2-3.6
						c-2.4-4.3-4.8-8.6-7.2-13c-0.3,0-0.5,0-0.8,0c6.2,6.6,12.5,13.3,18.3,20.3c1.3,1.5,2.6,3,3.6,4.7c1.1,1.8,1.5,4.1,2,6.1
						c0.7,2.9,1.2,5.7,1.7,8.6c0.2,1.1,0.4,2.2,0.6,3.4c0.1,0.6,0.5,1.7,0.3,2.2c-0.1,0.4,0.4-0.2-0.1,0c-0.4,0.2-1.2,0-1.7,0
						c-0.7,0-1.3,0.2-2,0.3c-2.3,0.3-4.6,0.6-6.8,0.9c0.2,0.1,0.4,0.1,0.7,0.2c-0.1-0.4-0.2-0.8-0.3-1.2c0-0.2-0.8-0.3-0.8-0.1
						c-0.1,2.5-0.1,4.9-0.2,7.4c0,1.2,0.2,2.7-0.1,3.9c-0.2,0.7,0.2,0.2-0.4,0.4c-0.6,0.2-1.6-0.1-2.3-0.2c-0.8,0-1.6-0.1-2.4-0.1
						C107.4,242.8,108,243.2,108.3,243.2z"/>
				</g>
				<g>
					<path fill="#010101" d="M108,243.1c1.8,0,3.5,0.1,5.2,0.3c0.1,0,0.6,0,0.6-0.2c0.1-4,0.2-8,0.3-11.9c-0.3,0-0.5,0.1-0.8,0.1
						c0.1,0.4,0.2,0.8,0.3,1.2c0,0.1,0.3,0.1,0.4,0.1c3.6-0.5,7.1-1.2,10.7-1.2c0.1,0,0.5,0,0.5-0.2c-0.5-3.1-1-6.1-1.5-9.2
						c-0.7-3.6-1.1-8-3-11.3c-1.7-3-4.4-5.6-6.6-8.2c-3.1-3.6-6.3-7.1-9.6-10.6c-1.9-2.1-3.9-4.2-5.8-6.3c-0.1-0.1-0.9-0.1-0.8,0.2
						c2,3.7,4.1,7.4,6.1,11c1.2,2.2,3,4.3,3,6.8c0.2,9.8,0.3,19.6,0.5,29.4c0.1,3.3,0.1,6.5,0.2,9.8c0,0.2,0.8,0.1,0.8-0.1
						c-0.1-8.2-0.3-16.5-0.4-24.7c-0.1-4.6-0.2-9.1-0.2-13.7c0-0.7,0.1-1.6-0.1-2.2c-0.3-1.2-1.4-2.5-2-3.6c-2.4-4.3-4.8-8.6-7.2-13
						c-0.3,0.1-0.5,0.1-0.8,0.2c4.7,5,9.4,10.1,13.9,15.2c2.6,2.9,5.2,5.8,7.4,8.9c2.1,2.9,2.6,6.9,3.2,10.4
						c0.7,3.6,1.4,7.3,1.9,10.9c0.2-0.1,0.3-0.1,0.5-0.2c-1.9,0-3.7,0.2-5.5,0.5c-1.4,0.2-2.7,0.4-4.1,0.5c-0.3,0-1,0.3-1.2,0.2
						c0.5,0.2,0.1-0.7,0.1-1c-0.1-0.2-0.8-0.1-0.8,0.1c-0.1,4-0.2,8-0.3,11.9c0.2-0.1,0.4-0.1,0.6-0.2c-1.8-0.2-3.6-0.3-5.4-0.3
						C107.8,242.8,107.4,243.1,108,243.1z"/>
					<path fill="#010101" d="M108,243.3c1.2,0,2.4,0.1,3.6,0.2c0.5,0,1.4,0.3,1.9,0.1c0.3-0.1,0.4-0.1,0.7-0.4
						c0.3-0.4,0.1-2.6,0.1-3.2c0-0.8,0-1.6,0.1-2.4c0-2.1,0.1-4.2,0.1-6.4c0-0.2-0.4-0.2-0.5-0.2c-0.3,0-0.5,0.1-0.8,0.1
						c-0.1,0-0.3,0.1-0.3,0.2c0.2,0.6,0.1,1.2,0.7,1.4c0.8,0.3,2.5-0.3,3.2-0.4c1.7-0.2,3.3-0.5,5-0.6c0.6,0,3,0.2,3.6-0.3
						c0.7-0.6,0-2.1-0.1-3c-0.3-1.9-0.6-3.8-1-5.7c-0.6-3-0.9-6.2-1.9-9.1c-1-3-2.8-5.4-4.8-7.8c-2.4-2.7-4.8-5.5-7.3-8.2
						c-2.5-2.7-5-5.5-7.5-8.2c-0.6-0.7-1.2-1.3-1.9-2c-0.5-0.6-1.2-1.7-1.9-2c-0.3-0.1-0.6-0.2-1-0.1c-0.3,0.1-0.5,0-0.6,0.4
						c-0.1,0.3,0.8,1.5,1,1.8c0.5,0.9,1,1.8,1.5,2.8c1.7,3.1,3.5,6.2,5.3,9.3c1.9,3.3,1.4,6.9,1.5,10.6c0.1,4,0.1,7.9,0.2,11.9
						c0.1,3.8,0.1,7.6,0.2,11.4c0,1.8,0.1,3.5,0.1,5.3c0,0.8-0.4,3.6,0.1,4.2c0.4,0.4,1.3,0.2,1.6-0.2c0.3-0.4,0-2.3,0-2.8
						c0-0.9,0-1.9,0-2.8c0-2-0.1-4-0.1-6c-0.1-8.6-0.3-17.1-0.4-25.7c0-1.4,0.2-2.9-0.4-4.2c-0.7-1.5-1.8-3-2.6-4.5
						c-2.1-3.8-4.2-7.5-6.2-11.3c-0.1-0.2-0.5-0.1-0.6-0.1c-0.3,0.1-0.5,0.1-0.8,0.2c-0.1,0-0.3,0.1-0.2,0.2
						c6.4,6.8,12.8,13.6,18.7,20.7c1.2,1.5,2.6,3.1,3.5,4.8c1,1.9,1.5,4,1.9,6.2c0.9,4.6,1.7,9.1,2.4,13.8c0,0.2,0.6,0.2,0.7,0.1
						c0.2-0.1,0.3-0.1,0.5-0.2c0.3-0.1-0.2-0.3-0.3-0.3c-1.9,0-3.8,0.2-5.7,0.5c-0.9,0.1-1.8,0.2-2.7,0.4c-0.4,0.1-1,0.1-1.4,0.2
						c-0.1,0-1.1,0.5-0.8,0.5c0.1,0,0.4,0,0.4-0.2c0.1-0.9-1-2.1-1.8-1c-0.3,0.4-0.1,1.6-0.1,2.1c0,1.1,0,2.1-0.1,3.2
						c-0.1,2.3-0.1,4.5-0.2,6.8c0,0.2,0.6,0.1,0.7,0.1c0.2-0.1,0.4-0.1,0.6-0.2c0.3-0.1,0-0.3-0.2-0.3c-1.7-0.2-3.5-0.4-5.2-0.3
						c-0.5,0-0.9,0-1.2,0.4c-0.1,0.1,0.1,0.1,0.1,0.2c0.1,0,0.2,0.1,0.3,0.1c0.2,0.1,1-0.1,0.6-0.2c0.7,0.2,2.1,0,2.9,0.1
						c0.3,0,1.3,0.2,1.5,0.1c0.2,0,0.5,0.1,0.7,0.1c0.1-2.3,0.1-4.5,0.2-6.8c0-1.1,0-2.1,0.1-3.2c0-0.3-0.1-1.2,0.1-1.5
						c0.5-0.6-0.3,0.3,0.3,0.3c-0.3,0-0.6,0.3-0.1,0.3c1.4,0.1,2.8-0.3,4.1-0.5c0.9-0.1,1.8-0.3,2.8-0.4c1-0.1,2.7-0.1,3.3-0.3
						c0.2,0,0.5,0.1,0.7,0.1c-0.7-4.6-1.5-9.2-2.4-13.8c-0.8-4.1-2.3-7.2-4.9-10.5c-2.8-3.5-5.9-6.8-8.9-10.2
						c-1.7-1.9-3.4-3.7-5.1-5.6c-0.8-0.9-1.6-1.7-2.4-2.6c-0.3-0.3-2.6-2.8-2.1-2.9c-0.2,0-0.4-0.1-0.6-0.1c1.5,2.7,3,5.5,4.5,8.2
						c1.3,2.4,3,4.8,4.2,7.3c1.1,2.2,0.5,5.6,0.6,8c0.1,3.4,0.1,6.7,0.2,10.1c0.1,6.3,0.2,12.5,0.3,18.8c0,1.4,0,2.7,0.1,4.1
						c0-1.3,0-2.5-0.1-3.8c-0.1-3.4-0.1-6.8-0.2-10.2c-0.1-6.3-0.2-12.5-0.3-18.8c0-2.4,0.3-5.2-0.4-7.6c-0.9-2.7-2.9-5.3-4.3-7.8
						c-0.5-0.8-4.4-7.4-4.2-7.6c0.4-0.3,2.3,2.1,2.8,2.6c1.1,1.1,2.1,2.3,3.2,3.4c4.2,4.5,8.3,9.1,12.3,13.7c2.1,2.4,3.9,5,4.8,8.1
						c0.8,2.8,1.2,5.7,1.7,8.5c0.3,1.8,0.6,3.6,0.9,5.3c0.1,0.5,0.5,1.8,0.4,2.3c-0.4,1-1.4,0.8-2.3,0.9c-1.6,0.1-3.1,0.3-4.7,0.5
						c-0.7,0.1-1.6,0.3-2.3,0.3c-0.6,0.2-1.1,0.1-1.6-0.3c-0.2-0.4-0.1-0.6,0.4-0.5c-0.2-0.1-0.3-0.1-0.5-0.2
						c-0.1,2.9-0.1,5.8-0.2,8.7c0,0.6,0.1,1.4,0,2c-0.3,1-0.7,1-1.6,1.1c-1.2,0.1-2.6-0.2-3.8-0.2C107.5,243,107.5,243.3,108,243.3z
						"/>
				</g>
			</g>
			<g>
				<path fill="#010101" d="M43.6,184.9c3.5,8.4,7,16.7,10.4,25.1c0.1,0.1,0.3,0.1,0.4,0.1c4.8-0.4,10,1.8,14.4,3.7
					c1,0.4,1,0.2,0.8,1.1c-0.2,1.3-0.5,2.6-0.7,3.9c-1.1,5.8-1.9,11.7-3.7,17.3c-0.1,0.2,0.7,0.2,0.8,0c2.3-7.1,3.2-14.6,4.5-22
					c0,0,0-0.1-0.1-0.1c-4.8-2.3-10.7-4.7-16.1-4.3c0.1,0,0.3,0.1,0.4,0.1c-3.5-8.4-7-16.7-10.4-25.1
					C44.3,184.6,43.5,184.8,43.6,184.9L43.6,184.9z"/>
				<path fill="#010101" d="M43.2,184.9c1.7,4.2,3.5,8.4,5.2,12.5c0.8,2,1.6,3.9,2.5,5.9c0.8,2,1.5,4.5,2.6,6.3
					c0.3,0.5,0.3,0.5,0.8,0.7c0.6,0.2,1.4,0,2,0c1.5,0,2.9,0.3,4.4,0.7c2.1,0.5,4.1,1.3,6,2.2c0.5,0.2,2,0.6,2.4,1
					c0.5,0.6-0.2,2.2-0.3,3c-0.8,4.2-1.4,8.4-2.3,12.5c-0.4,1.9-1,3.7-1.4,5.6c-0.2,0.8-0.4,0.9,0.3,1.2c0.4,0.1,0.7,0,1-0.2
					c0.5-0.4,0.7-2.4,0.9-3c0.3-1.1,0.6-2.2,0.8-3.4c0.9-4.2,1.6-8.4,2.3-12.6c0.1-0.6,0.8-2.7,0.5-3.1c-0.1-0.2-0.3-0.2-0.5-0.4
					c-1.4-1.1-3.9-1.8-5.6-2.4c-3.4-1.3-7-2.1-10.7-1.9c-0.4,0,0.1,0.3,0.2,0.3c0.1,0,0.3,0.1,0.4,0.1c0,0,0.5,0.1,0.4-0.1
					c-2.4-5.8-4.8-11.6-7.2-17.3c-0.6-1.4-1.1-2.7-1.7-4.1c-0.4-1-0.8-3-1.6-3.7C44.4,184.5,43.6,184.4,43.2,184.9
					c-0.1,0.1,0.6,0.4,0.8,0.2c-0.1,0,2.5,5.5,2.7,6c0.9,2.1,1.7,4.2,2.6,6.3c1.7,4.2,3.5,8.4,5.2,12.5c0.1,0,0.3-0.1,0.4-0.1
					c1.9,0.6,4.1,0.4,6,0.8c1.9,0.5,3.8,1.1,5.7,1.9c0.6,0.3,1.3,0.5,1.9,0.8c1.5,0.7,1.6,1.1,1.3,2.6c-0.3,1.8-0.6,3.6-0.9,5.3
					c-0.6,3.6-1.2,7.1-2.1,10.6c-0.2,0.9-0.5,1.7-0.7,2.6c-0.2,0.8-0.3,1.3,0,0.2c0.6-1.8,1-3.7,1.4-5.6c0.7-3.4,1.2-6.8,1.9-10.2
					c0.2-0.9,1.2-3.6,0.8-4.5c-0.1-0.3-0.4-0.3-0.6-0.5c-2.6-1.4-5.8-2.5-8.6-3.2c-1.2-0.3-2.4-0.6-3.7-0.7
					c-1.8-0.2-2.7,0.1-3.5-1.8c-3.2-7.7-6.5-15.5-9.7-23.2C43.9,184.8,43.1,184.7,43.2,184.9z"/>
			</g>
			<g>
				<path fill="#010101" d="M111.2,200.5c2,3.9,3.9,7.7,5.9,11.6c0.5,1,1,2,1.5,3c0.1,0.2,0.9,1.3,0.8,1.6c0,0.1-1.8,0.6-2.1,0.7
					c-1.2,0.4-2.3,0.6-3.5,0.9c-1,0.2-2.1,0.4-3.2,0.6c-0.1,0-0.3,0.1-0.3,0.2c1,4.1,2,8.3,3,12.4c0.1,0.2,0.9,0.1,0.8-0.1
					c-0.8-3.5-1.7-7-2.5-10.5c-0.1-0.5-0.4-1.2-0.4-1.7c0-0.3-0.4,0.2-0.1,0c0.3-0.2,0.9-0.2,1.2-0.2c2.6-0.5,5.3-1.1,7.8-2.2
					c0.1,0,0.1-0.1,0.1-0.2c-2.7-5.4-5.5-10.8-8.2-16.2C111.8,200.1,111,200.2,111.2,200.5L111.2,200.5z"/>
				<path fill="#010101" d="M110.8,200.4c1.5,2.9,3,5.8,4.4,8.7c0.7,1.4,1.4,2.7,2.1,4.1c0.4,0.8,1.3,1.9,1.5,2.8
					c0.2,0.9-0.7,0.8-1.6,1.1c-1.2,0.4-2.5,0.7-3.7,1c-0.5,0.1-3,0.3-3.4,0.7c-0.5,0.5,0.1,1.6,0.3,2.2c0.7,3.1,1.5,6.2,2.2,9.3
					c0.2,0.6,0.4,2,1.5,1.4c1-0.5-0.6-4.2-0.8-5.2c-0.4-1.5-0.7-3-1.1-4.5c-0.1-0.6-0.3-2.6-0.8-3c-0.2-0.1-0.6-0.3-0.7-0.1
					c0,0-0.1,0.1-0.1,0.1c-0.2,0.2,0.5,0.3,0.6,0.3c2.4-0.3,4.9-0.9,7.2-1.7c1.3-0.4,2.6-0.3,1.9-1.8c-0.8-1.7-1.7-3.3-2.5-4.9
					c-0.8-1.6-1.7-3.3-2.5-4.9c-0.5-0.9-1-1.9-1.4-2.8c-0.3-0.7-0.8-2.4-1.4-2.8C111.9,200,111,199.8,110.8,200.4
					c-0.1,0.1,0.7,0.3,0.8,0.1c-0.1,0.3,1.4,2.5,1.6,2.9c0.5,1.1,1.1,2.1,1.6,3.2c1.1,2.1,2.1,4.2,3.2,6.3c0.4,0.7,1.4,2,1.4,2.8
					c0.1,1.5-2.4,1.7-3.4,2c-1.7,0.4-3.5,0.9-5.2,1.1c0.2,0.1,0.4,0.2,0.6,0.3c0,0,0.1-0.1,0.1-0.1c-0.2,0-0.5-0.1-0.7-0.1
					c0.6,0.6,0.8,3.2,1,4c0.4,1.5,0.7,3,1.1,4.5c0.2,0.8,0.4,1.5,0.5,2.3c0.3,1.5,0.1,0.6,0,0.1c-0.5-1.7-0.8-3.4-1.2-5
					c-0.4-1.5-0.8-3.1-1.1-4.6c-0.2-1.3-0.1-1.2,1.1-1.4c0.8-0.1,1.6-0.3,2.3-0.5c1.5-0.3,4-0.6,5.3-1.5c0.1,0,0.1-0.1,0.1-0.1
					c-0.1-0.8-0.9-1.7-1.2-2.4c-0.7-1.4-1.4-2.8-2.2-4.3c-1.6-3.1-3.2-6.3-4.8-9.4C111.5,200.3,110.7,200.2,110.8,200.4z"/>
			</g>
			<g>
				<path fill="#010101" d="M38.7,193.1c1.5,6.4,3.2,12.9,3.8,19.5c0.6,6.2,0.8,12.5,1.1,18.7c0,0.2,0.8,0.2,0.8,0
					c-0.2-6.2-0.5-12.5-1.1-18.7c-0.6-6.6-2.3-13.1-3.8-19.5C39.5,192.8,38.7,192.9,38.7,193.1L38.7,193.1z"/>
				<path fill="#010101" d="M38.3,193.1c1.5,6.4,3.2,12.9,3.8,19.5c0.3,3.2,0.5,6.5,0.7,9.7c0.1,1.6,0.2,3.1,0.2,4.7
					c0,0.8,0.1,1.6,0.1,2.3c0,0.4-0.2,1.7,0.1,2c0.3,0.4,1.2,0.4,1.5,0.1c0.5-0.5,0.1-2.6,0-3.3c-0.1-1.7-0.1-3.4-0.2-5.1
					c-0.3-6.6-0.8-13.1-2.1-19.5c-0.4-1.8-0.8-3.6-1.2-5.4c-0.2-0.9-0.4-1.8-0.6-2.7c-0.1-0.5-0.2-2-0.6-2.3
					C39.5,192.7,38.7,192.6,38.3,193.1c-0.1,0.1,0.6,0.2,0.8,0c-0.3,0.4,1,4.1,1.1,4.6c0.4,1.6,0.7,3.1,1.1,4.7
					c0.7,3.1,1.3,6.2,1.6,9.4c0.7,6.2,0.8,12.5,1.1,18.7c-0.3-6.1-0.5-12.2-1.1-18.3c-0.6-6.5-2.3-12.8-3.8-19.1
					C39.1,192.9,38.2,193,38.3,193.1z"/>
			</g>
		</g>
		<path fill="#010101" d="M118.1,208.6c1.7,4.3,2.1,9.2,2.5,13.8c0.3,3,0.5,5.9,0.6,8.9c0,0.2,0.8,0.2,0.8,0
			c-0.1-3.1-0.3-6.3-0.6-9.4c-0.4-4.4-0.8-9.2-2.5-13.4C118.8,208.3,118,208.4,118.1,208.6L118.1,208.6z"/>
		<g>
			<g>
				<path fill="#010101" d="M68.9,196.9c0,0,2.6,0.8,3.2,0.4c2.1-1.5,11.2-5.4,11.2-5.4s1.7,1.2,2.7,1.6c1.3,0.5,4.5,0.7,5.8,0.1
					c0.8-0.3,2.2-0.9,2.2-0.9s9.7,4.2,10.3,1.9c0.7-2.5-2.2-17.3-2.3-19.3c-0.1-2.2-9.3,3.6-9.3,3.6s-3-1.1-4.1-1.3
					c-1.5-0.2-5.9-0.1-5.9-0.1s-9.1-3-11.5-5.3c-0.6-0.5-2.7,0.6-3.2,1.2C64.5,178.4,68.9,196.9,68.9,196.9z"/>
				<path fill="#010101" d="M68.7,197.1c1.5,0.4,2.8,0.8,4.2,0c2.4-1.3,4.8-2.5,7.3-3.6c0.9-0.4,2-0.8,2.9-1.3
					c0.1-0.1,0.4-0.2,0.5-0.2c-1.1,0.1,0.7,0.8,1.1,1.1c2,1.1,4.8,1.5,7,0.8c0.6-0.2,1.2-0.4,1.8-0.7c0.1,0,0.5-0.3,0.7-0.3
					c-0.3,0-0.6-0.1-0.3,0.1c0.7,0.2,1.5,0.6,2.2,0.9c2,0.7,4.1,1.6,6.3,1.7c1.1,0.1,2.2,0,2.5-1.2c0.5-1.9-0.2-4.5-0.5-6.4
					c-0.4-2.8-0.8-5.6-1.3-8.3c-0.2-1-0.3-2-0.5-3c-0.1-0.4,0-1.3-0.3-1.6c-0.7-0.8-2.5,0-3.2,0.3c-2,0.8-3.9,1.9-5.7,3
					c-0.2,0.1-0.5,0.3-0.8,0.5c-0.4,0.3,0.5,0.2,0.2,0c-0.9-0.6-2.6-0.9-3.6-1.2c-2.1-0.4-4.3,0.1-6.3-0.2c-1.3-0.2-4-1.5-5.5-2.1
					c-1.3-0.5-2.5-1.1-3.8-1.8c-0.8-0.4-1.6-1.4-2.5-1.5c-2-0.4-3.8,1.6-4.3,3.2c-0.8,2.6-0.7,5.6-0.5,8.3c0.3,4.5,1.1,9.1,2.1,13.5
					c0.1,0.2,0.9,0.1,0.8-0.1c-0.7-3-1.2-6-1.6-9c-0.5-4.1-1.5-9.7,0.4-13.6c0.7-1.4,2-2.2,3.5-1.5c0.9,0.5,1.8,1.1,2.7,1.5
					c2.2,1.1,4.4,1.9,6.7,2.8c3.1,1.1,6.4,0.2,9.6,1.3c1,0.3,1.9,0.9,2.9,0.5c1.5-0.6,2.9-1.8,4.4-2.5c0.8-0.4,2-1.2,3-1.3
					c1-0.1,0.9,0.3,1,1.1c0.2,1.9,0.6,3.8,0.9,5.7c0.4,2.4,0.8,4.9,1.1,7.4c0.2,1.3,0.9,3.9,0.3,5.2c-0.8,1.7-5.5-0.4-6.7-0.8
					c-0.9-0.3-2.1-1.1-3-1.2c-0.7,0-1.5,0.6-2.2,0.8c-2.2,0.8-4.7,0.6-6.7-0.5c-1.5-0.8-1.6-1.3-3.1-0.6c-2.2,1-4.4,2-6.6,3
					c-1,0.5-2,1.1-3,1.6c-1.2,0.6-2.2,0.4-3.5,0C69,196.7,68.2,197,68.7,197.1z"/>
			</g>
			<path fill="#010101" d="M83.8,192c0.1-4.9-0.3-9.5-1.1-14.4c0-0.2-0.8-0.3-0.8-0.1c0.8,4.8,1.2,9.4,1.1,14.3
				C83,192.1,83.8,192.2,83.8,192L83.8,192z"/>
			<path fill="#010101" d="M94.5,192.6c0.4-2.5,1-5.2,0.5-7.8c-0.4-2-1-4-1.7-6c-0.1-0.2-0.9-0.1-0.8,0.1c0.7,1.9,1.4,3.9,1.7,6
				c0.4,2.6-0.1,5.2-0.5,7.8C93.6,192.9,94.4,192.9,94.5,192.6L94.5,192.6z"/>
		</g>
		<g>
			<ellipse fill="#FFFFFF" cx="91.5" cy="198" rx="2.2" ry="2.4"/>
			<path fill="#010101" d="M93.3,198c0,0.4-0.1,0.9-0.4,1.3c-0.1,0.2-0.2,0.3-0.4,0.4c-0.4,0.3-1.1,0.5-1.5,0.4
				c-0.9-0.2-1.4-1.3-1.4-2.2c0-0.4,0.1-0.8,0.3-1.2c0.3-0.6,0.7-0.8,1.4-0.9c0.7-0.1,1.2,0.1,1.6,0.7C93.2,197,93.3,197.5,93.3,198
				c0,0.2,0.8,0.2,0.8,0c-0.2-3.3-5.3-3.3-5.3,0c0,3.4,5.1,3.3,5.3,0C94.1,197.8,93.3,197.8,93.3,198z"/>
		</g>
		<g>
			<ellipse fill="#FFFFFF" cx="95.8" cy="216.6" rx="2.2" ry="2.4"/>
			<path fill="#010101" d="M95.8,219.4c-1.5,0-2.7-1.3-2.7-2.8s1.2-2.8,2.7-2.8s2.7,1.3,2.7,2.8S97.3,219.4,95.8,219.4z M95.8,214.6
				c-1,0-1.8,0.9-1.8,2s0.8,2,1.8,2s1.8-0.9,1.8-2S96.9,214.6,95.8,214.6z"/>
		</g>
		<g>
			<path fill="#2A98B7" d="M63.9,221.4l-1.7,0.2l-0.2-1.7c0-0.5,0.2-0.8,0.5-0.8l0.5,0c0.3-0.1,0.6,0.3,0.7,0.7L63.9,221.4z"/>
			<path fill="#010101" d="M64,221.2c-0.6,0.1-1.2,0.1-1.7,0.2c0.1,0,0.2,0.1,0.3,0.1c0-0.4-0.1-0.8-0.1-1.2c0-0.2-0.1-0.3-0.1-0.5
				c0-0.2,0.1-0.4,0.1-0.5c0-0.1-0.2,0,0-0.1c0,0,0.2,0,0.2,0c0.7,0,0.7,1.8,0.8,2.3c0,0.2,0.8,0.1,0.8-0.1
				c-0.1-0.5-0.1-1.1-0.3-1.6c-0.2-0.8-0.6-1-1.3-0.9c-0.7,0.1-1.2,0.4-1.1,1.2c0,0.5,0.1,1.1,0.2,1.6c0,0.1,0.3,0.1,0.3,0.1
				c0.6-0.1,1.2-0.1,1.7-0.2c0.1,0,0.5,0,0.5-0.2C64.3,221.2,64.1,221.2,64,221.2z"/>
		</g>
		<g>
			<ellipse fill="#FFFFFF" cx="99.7" cy="239.6" rx="2.2" ry="2.4"/>
			<path fill="#010101" d="M99.7,242.3c-1.5,0-2.7-1.3-2.7-2.8c0-1.5,1.2-2.8,2.7-2.8c1.5,0,2.7,1.3,2.7,2.8
				C102.4,241.1,101.2,242.3,99.7,242.3z M99.7,237.6c-1,0-1.8,0.9-1.8,2s0.8,2,1.8,2c1,0,1.8-0.9,1.8-2S100.8,237.6,99.7,237.6z"/>
		</g>
		<polygon fill="#010101" points="65.1,230.7 63,231 61.8,221.5 63,220.8 64.2,220.8 		"/>
		<polygon fill="#010101" points="61.9,228.9 59.8,229.2 58.6,219.7 59.8,219 61,219 		"/>
		<g>
			<path fill="#FFFFFF" d="M66.7,231.4H50.8c0,0-0.7-3.3,0-4.1l11.4-0.9c0,0,1.6,0.3,2.1,0.2c0.1,0,0.5-0.3,0.5-0.3l1.9-0.2V231.4z"
				/>
			<path fill="#010101" d="M66.6,231.2c-5.3,0-10.6,0-15.9,0c0.2,0.1,0.3,0.1,0.5,0.2c-0.2-0.9-0.3-1.9-0.3-2.8c0-1.1,0-1.1,0.9-1.2
				c2.2-0.2,4.4-0.3,6.7-0.5c1-0.1,2-0.1,2.9-0.2c0.6,0,0.9,0,1.1,0c1.6,0.2,2.8-0.3,4.4-0.4c-0.2-0.1-0.4-0.1-0.6-0.2
				c0,1.8,0,3.5,0,5.3c0,0.2,0.8,0.3,0.8,0.1c0-1.8,0-3.5,0-5.3c0-0.2-0.5-0.2-0.6-0.2c-1.6,0.1-3.1,0.4-4.6,0.3
				c-1.9,0-3.8,0.3-5.6,0.4c-1.1,0.1-2.3,0.2-3.4,0.3c-0.6,0-1.6-0.1-2.1,0.2c-1.2,0.5-0.6,3.1-0.3,4.2c0,0.2,0.4,0.2,0.5,0.2
				c5.3,0,10.6,0,15.9,0C67.4,231.5,67,231.2,66.6,231.2z"/>
		</g>
		<g>
			<polygon fill="#FFFFFF" points="61.9,228.4 60.9,228.7 59.8,220.7 61.1,220.3 			"/>
			<path fill="#010101" d="M61.6,228.2c-0.3,0.1-0.7,0.2-1,0.4c0.2,0.1,0.5,0.2,0.7,0.3c-0.2-1.7-0.4-3.3-0.7-5
				c-0.1-0.8-0.4-1.8-0.3-2.7c0.1-0.6,0.4-0.5,1.2-0.7c-0.2-0.1-0.5-0.2-0.7-0.3c0.3,2.7,0.5,5.4,0.8,8.1c0,0.2,0.8,0.4,0.8,0.2
				c-0.3-2.7-0.5-5.4-0.8-8.1c0-0.2-0.5-0.3-0.7-0.3c-0.4,0.1-0.9,0.3-1.3,0.4c-0.1,0-0.1,0-0.1,0.1c0.4,2.7,0.7,5.4,1.1,8.1
				c0,0.2,0.5,0.3,0.7,0.3c0.3-0.1,0.7-0.2,1-0.4C62.5,228.5,61.8,228.1,61.6,228.2z"/>
		</g>
	</g>
	<g>
		<path d="M181.1,105.3c0,1.7,0,3.4,0,5c0,1.6,0,3.2,0,4.7v8.3c0,1.4,0,2.6,0,3.7c0,1.1,0,2,0.1,2.8c0,0.8,0,1.6,0.1,2.3
			c0,0.7,0.1,1.3,0.1,2c0.1,0.8,0.2,1.6,0.2,2.5c0,0.9,0.1,1.7,0.1,2.6c0,0.4,0,0.7,0,1.1c0,0.4,0,0.8-0.1,1.2
			c-0.1,0.8-0.3,1.3-0.6,1.5c-0.8,0-1.2-0.1-1.3-0.3l0.1-1.4c0-0.8,0.1-1.5,0.1-2.3c0-0.8,0-1.5,0-2.3c0-0.9,0-1.6,0-2.1
			c0-0.6,0-1.2-0.1-1.9c0-0.3,0-0.6,0-0.9c0-0.4-0.1-0.8-0.1-1.2c-0.1-2-0.2-3.8-0.2-5.5c-0.1-1.6-0.1-3.2-0.1-4.6
			c0-1-0.3-2-0.8-3.1c-0.9-2-1.6-3.7-2.3-5.1c-0.7-1.4-1.3-2.7-1.9-4c-1.3-2.8-2.4-5.4-3.3-7.6c-0.9-2.3-1.8-4.7-2.7-7.2l0,0.2
			c-0.1,1.5-0.1,2.9-0.1,4.4c0,1.5,0,2.9,0,4.1v2.6c0,1.4,0,2.8,0,4.1c0,1.3,0,2.7,0.1,4c0,2.6,0.1,5.3,0.1,8c0,2.7,0,5.6,0,8.6
			c0,2.4,0,4.4,0.1,5.8c0,1.5,0.1,2.9,0.2,4.2v1.1c0,0.6,0,1-0.1,1.3c-0.1,0.3-0.2,0.5-0.4,0.8c0-0.1,0,0-0.1,0
			c-0.1,0.1-0.3,0.1-0.6,0.1c-0.4,0-0.5-0.2-0.5-0.5c0-1.9,0-3.5,0-4.9c0-1.4,0-2.7,0-4.1v-6.2c0-4.4-0.1-8.9-0.2-13.7
			c-0.1-1.9-0.1-3.9-0.1-6.1c0-2.1,0-4.4,0-7c0-2.3,0-4.4,0-6.2s-0.1-3.8-0.2-5.9c0.1-0.5,0.3-0.6,0.5-0.5c0.7,0,1.3,0.5,1.7,1.4
			c0.1,0.6,0.3,1.4,0.6,2.3c0.3,1,0.6,1.9,0.9,2.8c0.3,0.9,0.6,1.8,0.9,2.6c0.3,0.8,0.6,1.4,0.8,1.8V99c0.4,0.6,0.7,1.1,1,1.6
			c0.3,0.5,0.5,1,0.8,1.4c0.8,1.8,1.5,3.5,2.2,5c0.7,1.5,1.3,3.1,2,4.6l1.6,3.4v-0.3c-0.1-4.2-0.1-8.4-0.2-12.6
			c-0.1-4.2-0.1-8.4-0.2-12.6c0-0.5,0.1-0.9,0.3-1.1c0.1-0.2,0.5-0.3,1.1-0.3c0.2,0.2,0.3,0.3,0.3,0.5c0,0.7,0,1.4,0,2.1
			c0,0.7,0,1.4,0,2.1c0,1.8,0.1,3.8,0.1,6C181.1,101,181.1,103.2,181.1,105.3z"/>
		<path d="M194.7,129c0,1.2,0,2.5,0.1,4c0.1,1.5,0.1,2.9,0.1,4.2c0,0.9,0,1.7-0.1,2.4c-0.1,0.8-0.3,1.5-0.6,2.1
			c-0.4,0.6-0.9,1.1-1.6,1.4c-0.7,0.4-1.7,0.5-2.9,0.5h-0.4c-0.7-0.2-1.3-0.5-1.9-1.1c-0.6-0.6-1-1.2-1.4-2
			c-0.4-0.8-0.7-1.7-0.9-2.7c-0.2-1-0.3-1.9-0.3-2.9c0-3,0.4-5.5,1.3-7.5c0.9-2,2.5-3.4,4.8-4.3c0,0,0.2,0,0.4,0
			c0.2,0,0.5-0.1,0.7-0.3c0.3-0.2,0.5-0.4,0.7-0.8c0.2-0.4,0.3-1,0.3-1.7v-6.3c0,0,0-0.1,0-0.2c0,0,0-0.1,0-0.2v-0.4
			c0-0.8-0.1-1.7-0.2-2.7c-0.1-1-0.2-1.9-0.4-2.8c-0.2-0.9-0.4-1.6-0.7-2.1s-0.6-0.9-1-0.9c-0.2,0-0.5,0.1-0.8,0.3
			c-0.3,0.2-0.6,0.5-0.9,0.8c-0.3,0.3-0.6,0.7-0.9,1.1c-0.3,0.4-0.5,0.8-0.7,1.2c-0.2,0.4-0.4,0.7-0.6,1c-0.2,0.3-0.5,0.5-0.8,0.5
			c-0.4,0-0.5-0.3-0.5-1c0-0.9,0.2-1.7,0.6-2.4c0.4-0.7,0.9-1.3,1.4-1.9c0.6-0.5,1.1-0.9,1.7-1.2c0.6-0.3,1-0.4,1.4-0.4
			c0.8,0,1.5,0.4,2,1.1c0.6,0.7,1,1.7,1.3,2.9c0.3,1.2,0.5,2.7,0.6,4.3c0.1,1.7,0.2,3.4,0.2,5.3c0,1.2,0,2.4,0,3.8
			c0,1.4,0,2.7,0,3.9V129z M192.3,141.2c0.5-0.4,0.8-1,0.9-1.9c0.1-0.9,0.2-1.9,0.2-3c0-0.5,0-1.2,0-2.1c0-0.9-0.1-1.8-0.1-2.8
			c0-1-0.1-1.8-0.1-2.6c0-0.8,0-1.3,0-1.5v-2.5c-1,0-2.1,0.3-3.2,0.9c-1.1,0.6-2,1.7-2.7,3.5v0.1c-0.3,0.8-0.4,1.6-0.6,2.6
			c-0.1,1-0.2,2-0.2,3c0,0.7,0,1.4,0.1,2.2c0.1,0.8,0.2,1.4,0.5,1.8v0.1c0.7,1.1,1.1,1.8,1.4,2.3c0.3,0.5,0.8,0.7,1.5,0.7h0.5
			c0.2,0,0.4,0,0.7-0.2C191.4,141.6,191.8,141.5,192.3,141.2z"/>
		<path d="M206.4,136.7c0-0.1,0.1-0.2,0.2-0.3c0-0.1,0.2-0.2,0.5-0.2c0.4,0,0.6,0.4,0.6,1.1c0,0.4,0,0.7-0.1,0.9v0.1
			c-0.2,1.6-0.6,2.9-1.2,4c-0.6,1.1-1.5,1.6-2.7,1.6c-0.9,0-1.6-0.3-2.2-0.9c-0.6-0.6-1-1.4-1.3-2.4c-0.3-1-0.6-2.1-0.7-3.3
			c-0.1-1.2-0.2-2.5-0.2-3.7c0-0.8,0-1.5,0-2.3c0-0.8,0-1.5,0-2.3v-4.5c0-2.7,0-5.7-0.1-8.8c-0.1-3.2-0.1-6.1,0-8.8v-0.8h-1.3
			c-0.4,0-0.7-0.1-1.1-0.2c-0.4-0.1-0.5-0.4-0.5-0.7c0-0.2,0.1-0.4,0.2-0.8c0.1-0.4,0.2-0.7,0.3-1c0.4,0.3,0.7,0.5,0.9,0.5
			c0.2,0.1,0.6,0.1,1.2,0.1c0.3,0,0.4-0.4,0.4-1.3c0-0.9,0-1.6,0-2c0-0.4-0.1-0.9-0.1-1.3c-0.1-0.4-0.1-1-0.1-1.7c0-0.7,0-1.8,0-3.2
			V92c0-0.8,0.1-1.5,0.3-2.2c0.2-0.7,0.3-1.1,0.3-1h0.3c0.3,0,0.5,0,0.7,0.1c0.2,0.1,0.3,0.2,0.3,0.3v7.9c0,0.4,0,0.9,0,1.7
			c0,0.8,0,1.5,0,2.3c0,0.8,0.1,1.4,0.2,2c0.1,0.6,0.3,0.9,0.5,0.9c0.3,0,0.6-0.1,0.9-0.2c0.3,0,0.5-0.1,0.9-0.1c0.3,0,0.6,0,0.9,0
			c0.4,0,0.6,0.2,0.9,0.5s0.3,0.6,0.3,0.9c0,0.1-0.2,0.2-0.6,0.3l-2.9,0.2l-0.5,0.1c-0.2,0-0.3,0.2-0.4,0.5
			c-0.1,0.3-0.2,0.7-0.2,1.2c0,0.5,0,1.1,0,1.7c0,0.7,0,1.3,0,2v1.5c0,2.3,0,4.9,0.1,7.7c0,2.8,0,5.4,0,7.8v2.1c0,0.5,0,1,0,1.6
			c0,0.6,0,1.2,0,2c0,1,0,1.9,0.2,2.9c0.1,1,0.3,1.9,0.5,2.7c0.2,0.8,0.5,1.5,0.8,2.1c0.3,0.6,0.7,0.9,1.2,0.9
			c0.7,0,1.2-0.4,1.6-1.3c0.4-0.9,0.7-2,1.1-3.3v-0.2c0-0.1,0-0.2,0-0.2c0,0,0,0,0-0.2L206.4,136.7z M199.5,88.7L199.5,88.7l0.1-0.2
			C199.5,88.6,199.5,88.7,199.5,88.7z"/>
		<path d="M221,112c0,4.4,0.1,7.9,0.1,10.6c0,2.7,0,4.7,0,6.1c0,1.9,0,3.8,0,5.6c0,1.8-0.2,3.5-0.4,4.9c-0.2,1.5-0.7,2.6-1.4,3.5
			c-0.7,0.9-1.6,1.4-2.9,1.4c-1.3,0-2.3-0.3-3.1-0.9c-0.8-0.6-1.4-1.5-1.9-2.6c-0.5-1.1-0.8-2.4-1-3.8c-0.2-1.5-0.3-3.1-0.4-4.8
			c-0.1-1.7-0.1-3.5-0.2-5.3c-0.1-1.8-0.1-3.6-0.1-5.3v-1.5c0-1.7,0-3.3-0.1-4.9c-0.1-1.5-0.1-3.1-0.1-4.8v-0.8c0-0.5,0-1.1,0-1.8
			s0-1.5,0.1-2.2c0.1-0.7,0.2-1.3,0.3-1.8c0.1-0.5,0.3-0.8,0.6-0.8c0.2,0,0.5,0.1,0.7,0.4c0.2,0.3,0.3,0.6,0.3,0.9
			c0,0.9,0,1.7,0,2.4c0,0.8,0,1.6,0,2.4v4.8c0,1.6,0,3.1,0,4.4c0,1.3,0,2.8,0.1,4.4v2.3c0,2.5,0,4.7,0.1,6.9
			c0.1,2.1,0.3,3.9,0.6,5.5c0.3,1.5,0.7,2.7,1.3,3.6c0.6,0.9,1.4,1.3,2.5,1.3c0.9,0,1.5-0.5,2-1.5c0.5-1,0.8-2.2,1.1-3.7
			c0.3-1.5,0.4-3.2,0.5-5c0.1-1.8,0.1-3.6,0.1-5.3c0-3.5-0.1-6.9-0.2-10.3c-0.2-3.4-0.2-7.1-0.2-11.1c0-0.4,0-0.9,0.1-1.5
			c0-0.6,0.2-0.9,0.6-0.9c0.8,0,1.2,0.6,1.2,1.7c0,0.3,0,0.5,0,0.7c0,0.2,0,0.5,0,0.7v1.3L221,112z"/>
		<path d="M232,104c0.4,0.4,0.7,0.7,0.9,1c0.3,0.3,0.5,0.7,0.6,1.1c0,0.1,0,0.1,0,0.1c0,0,0,0,0,0.1v0.1c-0.3,0.2-0.5,0.3-0.7,0.3
			c-0.6,0-0.9-0.1-0.9-0.2c0-0.2,0-0.3-0.2-0.4v0.1c-0.2,0-0.3-0.1-0.4-0.4c-0.4-0.4-0.8-0.7-1.2-0.9c-0.4-0.3-0.8-0.4-1-0.4h-0.3
			c-0.9,0.5-1.4,1.4-1.7,2.6c-0.3,1.3-0.4,2.5-0.4,3.8c-0.1,0.8-0.1,1.5-0.1,2.2c0,0.7,0,1.4,0,2.2c0,1.3,0,2.6,0,3.9
			c0,1.3,0,2.6,0.1,3.9c0,1.3,0,2.6,0,3.9c0,1.3,0,2.5,0,3.8c0,1.8,0,3.6-0.1,5.5c-0.1,1.9-0.2,3.7-0.3,5.4
			c-0.1,0.6-0.3,0.9-0.6,0.9c-0.2,0-0.4-0.1-0.6-0.2c-0.2-0.3-0.3-0.5-0.3-0.8c0-0.3,0-0.6,0-1v-9.6c0-1.4,0-2.8,0.1-4.2
			c0-1.4,0.1-2.8,0.1-4.2c0-1.3,0-2.5,0-3.7c0-1.2-0.1-2.5-0.2-3.7v-2c0-0.4,0-0.7,0-1.1c0-0.4,0-0.8,0-1.2c0-0.9,0-1.7,0.1-2.4
			c0.1-0.8,0.2-1.5,0.5-2.2c0.4-1.2,0.9-2.1,1.7-2.7c0.7-0.7,1.5-1,2.4-1c1.2,0,2,0.5,2.6,1.4V104z M233.6,106.2c0,0.1,0,0.2,0,0.2
			c0,0.1,0,0.1,0,0.2v-0.3C233.5,106.3,233.5,106.2,233.6,106.2C233.6,106.2,233.6,106.2,233.6,106.2z M233.7,106.2
			C233.6,106.2,233.6,106.2,233.7,106.2c0-0.1,0-0.1,0-0.2C233.6,106.1,233.6,106.1,233.7,106.2l-0.1-0.2l0.1-0.1V106.2z"/>
		<path d="M243.5,129c0,1.2,0,2.5,0.1,4c0.1,1.5,0.1,2.9,0.1,4.2c0,0.9,0,1.7-0.1,2.4c-0.1,0.8-0.3,1.5-0.6,2.1
			c-0.4,0.6-0.9,1.1-1.6,1.4c-0.7,0.4-1.7,0.5-2.9,0.5h-0.4c-0.7-0.2-1.3-0.5-1.9-1.1c-0.6-0.6-1-1.2-1.4-2
			c-0.4-0.8-0.7-1.7-0.9-2.7c-0.2-1-0.3-1.9-0.3-2.9c0-3,0.4-5.5,1.3-7.5c0.9-2,2.5-3.4,4.8-4.3c0,0,0.2,0,0.4,0
			c0.2,0,0.5-0.1,0.7-0.3c0.3-0.2,0.5-0.4,0.7-0.8c0.2-0.4,0.3-1,0.3-1.7v-6.3c0,0,0-0.1,0-0.2c0,0,0-0.1,0-0.2v-0.4
			c0-0.8-0.1-1.7-0.2-2.7c-0.1-1-0.2-1.9-0.4-2.8c-0.2-0.9-0.4-1.6-0.7-2.1c-0.3-0.6-0.6-0.9-1-0.9c-0.2,0-0.5,0.1-0.8,0.3
			c-0.3,0.2-0.6,0.5-0.9,0.8c-0.3,0.3-0.6,0.7-0.9,1.1c-0.3,0.4-0.5,0.8-0.7,1.2c-0.2,0.4-0.4,0.7-0.6,1c-0.2,0.3-0.5,0.5-0.8,0.5
			c-0.4,0-0.5-0.3-0.5-1c0-0.9,0.2-1.7,0.6-2.4c0.4-0.7,0.9-1.3,1.4-1.9c0.6-0.5,1.1-0.9,1.7-1.2c0.6-0.3,1-0.4,1.4-0.4
			c0.8,0,1.5,0.4,2,1.1c0.6,0.7,1,1.7,1.3,2.9c0.3,1.2,0.5,2.7,0.6,4.3c0.1,1.7,0.2,3.4,0.2,5.3c0,1.2,0,2.4,0,3.8
			c0,1.4,0,2.7,0,3.9V129z M241.1,141.2c0.5-0.4,0.8-1,0.9-1.9c0.1-0.9,0.2-1.9,0.2-3c0-0.5,0-1.2,0-2.1c0-0.9-0.1-1.8-0.1-2.8
			c0-1-0.1-1.8-0.1-2.6c0-0.8,0-1.3,0-1.5v-2.5c-1,0-2.1,0.3-3.2,0.9c-1.1,0.6-2,1.7-2.7,3.5v0.1c-0.3,0.8-0.4,1.6-0.6,2.6
			c-0.1,1-0.2,2-0.2,3c0,0.7,0,1.4,0.1,2.2c0.1,0.8,0.2,1.4,0.5,1.8v0.1c0.7,1.1,1.1,1.8,1.4,2.3c0.3,0.5,0.8,0.7,1.5,0.7h0.5
			c0.2,0,0.4,0,0.7-0.2C240.3,141.6,240.6,141.5,241.1,141.2z"/>
		<path d="M252.2,143.7l-0.1,0.4c-0.1,0.2-0.3,0.3-0.6,0.3c-0.1,0-0.2,0-0.3,0c-0.1,0-0.3-0.1-0.5-0.2l-0.7-0.7
			c-0.6-0.6-1.1-1.5-1.4-2.8c-0.3-1.3-0.6-2.7-0.7-4.3c-0.1-1.6-0.2-3.2-0.3-4.9c0-1.7,0-3.2,0-4.7v-15.2c0-3.4,0-6.3,0-8.8
			c0-2.5,0-4.9-0.1-7c0-1.6,0-3.1,0-4.5c0-1.4,0-2.8,0-4.2c0-1.3,0.3-1.9,0.9-1.9c0.1,0,0.3,0.1,0.5,0.2c0.2,0.1,0.3,0.4,0.3,0.8
			c0,4.8,0,8.9,0,12.4c0,3.5,0,6.6,0,9.1c0,2.5,0,4.6,0,6.2c0,1.7,0,3,0,4.1s0,1.9,0,2.5c0,0.6,0,1.2,0,1.6v4.1
			c0,3.1,0.1,5.6,0.2,7.6c0.1,2,0.3,3.5,0.5,4.7c0.2,1.2,0.5,2.1,0.9,2.6c0.4,0.6,0.7,1,1.1,1.4L252.2,143.7z"/>
		<path d="M256.2,94.6c-0.2,0-0.3,0-0.5-0.1c-0.2,0-0.3-0.2-0.5-0.5c-0.2-0.3-0.3-0.6-0.4-1.2c-0.1-0.5-0.2-1.3-0.2-2.2
			c0-1,0-1.9,0.1-2.8c0.1-0.9,0.2-1.4,0.5-1.4c0.3,0,0.6,0.2,0.8,0.6c0.2,0.4,0.4,0.9,0.5,1.5c0,0.4,0.1,1,0.2,1.8
			c0,0.8,0.1,1.6,0.1,2.3c0,0.5,0,0.9-0.1,1.3C256.6,94.5,256.4,94.6,256.2,94.6z M255.1,116.9c0-1.4,0-2.8,0-4.2c0-1.4,0-2.7,0-3.8
			c0-1.2,0-2.2,0-3c0-0.9,0-1.5,0-1.8c0-1.3,0.4-1.9,1.1-1.9c0.1,0,0.2,0.1,0.4,0.2c0.2,0.1,0.3,0.3,0.3,0.7v17.6c0,3.4,0,6.2,0,8.3
			c0,2.1,0,4,0,5.7v6.5c0,1.3-0.3,1.9-1,1.9c-0.1,0-0.2-0.1-0.4-0.2c-0.2-0.1-0.3-0.3-0.3-0.7V116.9z"/>
		<path d="M268.2,112.3c-0.2-0.3-0.2-0.7-0.2-1.2v-0.7c0-0.1,0-0.3,0-0.4c0-0.1,0-0.3,0-0.6c0-1-0.1-2-0.4-2.9
			c-0.3-0.9-0.6-1.5-1.1-1.9c-0.3-0.5-0.7-0.7-1.1-0.7c-0.3,0-0.6,0-0.8,0.1c-0.2,0.1-0.4,0.1-0.6,0.2c-0.3,0-0.6,0.3-0.8,0.6
			c-0.3,0.4-0.5,0.8-0.7,1.4s-0.4,1.1-0.5,1.7c-0.1,0.6-0.2,1.2-0.2,1.8c0,1.2,0.1,2.2,0.3,3c0.2,0.8,0.4,1.6,0.7,2.3
			c0.3,0.7,0.5,1.5,0.9,2.4c0.3,0.9,0.6,1.6,0.9,2.1h0.1v0.4c0.3,0.7,0.6,1.3,0.9,1.9c0.3,0.6,0.6,1.1,0.9,1.7
			c0.8,1.5,1.6,3,2.3,4.6c0.7,1.6,1.1,3.6,1.1,5.9c0,1.2-0.1,2.3-0.2,3.3c-0.1,1.1-0.3,2.1-0.5,2.9c-0.3,0.9-0.6,1.6-1.1,2.3
			c-0.5,0.6-1,1-1.7,1.2v0.1c-0.1,0-0.4,0.1-0.8,0.1c-1.5,0-2.8-0.9-3.8-2.8c-1.1-1.9-1.6-4.1-1.6-6.8c0-0.6,0-1.2,0.1-1.9
			c0.1-0.7,0.3-1.1,0.7-1.1c0.3,0,0.5,0,0.5,0.1c0.2,0.4,0.3,0.8,0.3,1.2v1.7c0,0.9,0,1.5,0.1,2c0,0.5,0.1,0.9,0.2,1.2
			c0,0.1,0,0.2,0,0.2c0,0.1,0,0.1,0,0.2v0.2c0.3,1.2,0.7,2.2,1.3,3c0.6,0.9,1.2,1.3,1.8,1.3c0.7,0,1.4-0.7,1.9-2
			c0.6-1.4,0.9-2.9,1-4.7v-0.1c0-2.6-0.4-4.8-1.1-6.6s-1.6-3.6-2.5-5.2c-0.6-0.9-1.1-1.8-1.6-2.8c-0.5-1-0.8-1.9-1.1-2.7l-0.6-1.9
			c-0.4-1.2-0.7-2.2-0.9-3c-0.2-0.9-0.4-2-0.4-3.3c0-0.7,0.1-1.6,0.2-2.7c0.2-1.1,0.5-2,1-2.7c0.4-0.7,0.9-1.2,1.6-1.5
			c0.7-0.4,1.4-0.6,2.1-0.6c0.9,0,1.6,0.2,2.3,0.7c0.7,0.5,1.1,1.3,1.4,2.4c0.3,0.7,0.5,1.5,0.6,2.3c0.2,0.8,0.3,1.7,0.3,2.5
			c0,0.4-0.1,0.9-0.2,1.4c-0.1,0.6-0.3,0.8-0.7,0.8c-0.2,0-0.3,0-0.3,0c0,0-0.1-0.1-0.1-0.1v-0.1l-0.2-0.2V112.3z"/>
		<path d="M280.3,136.7c0-0.1,0.1-0.2,0.2-0.3c0-0.1,0.2-0.2,0.5-0.2c0.4,0,0.6,0.4,0.6,1.1c0,0.4,0,0.7-0.1,0.9v0.1
			c-0.2,1.6-0.6,2.9-1.2,4c-0.6,1.1-1.5,1.6-2.7,1.6c-0.9,0-1.6-0.3-2.2-0.9c-0.6-0.6-1-1.4-1.3-2.4c-0.3-1-0.6-2.1-0.7-3.3
			c-0.1-1.2-0.2-2.5-0.2-3.7c0-0.8,0-1.5,0-2.3c0-0.8,0-1.5,0-2.3v-4.5c0-2.7,0-5.7-0.1-8.8c-0.1-3.2-0.1-6.1,0-8.8v-0.8h-1.3
			c-0.4,0-0.7-0.1-1.1-0.2c-0.4-0.1-0.5-0.4-0.5-0.7c0-0.2,0.1-0.4,0.2-0.8c0.1-0.4,0.2-0.7,0.3-1c0.4,0.3,0.7,0.5,0.9,0.5
			c0.2,0.1,0.6,0.1,1.2,0.1c0.3,0,0.4-0.4,0.4-1.3c0-0.9,0-1.6,0-2c0-0.4-0.1-0.9-0.1-1.3c-0.1-0.4-0.1-1-0.1-1.7c0-0.7,0-1.8,0-3.2
			V92c0-0.8,0.1-1.5,0.3-2.2c0.2-0.7,0.3-1.1,0.3-1h0.3c0.3,0,0.5,0,0.7,0.1c0.2,0.1,0.3,0.2,0.3,0.3v7.9c0,0.4,0,0.9,0,1.7
			c0,0.8,0,1.5,0,2.3c0,0.8,0.1,1.4,0.2,2c0.1,0.6,0.3,0.9,0.5,0.9c0.3,0,0.6-0.1,0.9-0.2c0.3,0,0.5-0.1,0.9-0.1c0.3,0,0.6,0,0.9,0
			c0.4,0,0.6,0.2,0.9,0.5c0.2,0.3,0.3,0.6,0.3,0.9c0,0.1-0.2,0.2-0.6,0.3l-2.9,0.2l-0.5,0.1c-0.2,0-0.3,0.2-0.4,0.5
			c-0.1,0.3-0.2,0.7-0.2,1.2c0,0.5,0,1.1,0,1.7c0,0.7,0,1.3,0,2v1.5c0,2.3,0,4.9,0.1,7.7c0,2.8,0,5.4,0,7.8v2.1c0,0.5,0,1,0,1.6
			c0,0.6,0,1.2,0,2c0,1,0,1.9,0.2,2.9c0.1,1,0.3,1.9,0.5,2.7c0.2,0.8,0.5,1.5,0.8,2.1c0.3,0.6,0.7,0.9,1.2,0.9
			c0.7,0,1.2-0.4,1.6-1.3c0.4-0.9,0.7-2,1.1-3.3v-0.2c0-0.1,0-0.2,0-0.2c0,0,0,0,0-0.2L280.3,136.7z M273.4,88.7L273.4,88.7l0.1-0.2
			C273.4,88.6,273.4,88.7,273.4,88.7z"/>
		<path d="M220.5,148.4c1.2,0.9,2,2.1,2.6,3.8c0.6,1.7,1,3.7,1.3,6.1c0,1-0.2,1.9-0.5,2.6c-0.4-0.3-0.7-0.4-0.8-0.6
			c-0.1-0.1-0.2-0.3-0.3-0.6v-1c0-0.2,0-0.4,0-0.6c0-0.2,0-0.4,0-0.6c0-0.4-0.1-0.9-0.2-1.4c-0.1-0.5-0.3-1.3-0.6-2.2l-0.5-1.2
			c-0.6-1.2-1-2.1-1.5-2.7c-0.4-0.6-1-0.9-1.8-0.9c-0.5,0-0.8,0.2-1.2,0.6c-0.3,0.4-0.6,0.9-0.8,1.5c-0.2,0.6-0.3,1.2-0.4,1.8
			c-0.1,0.6-0.2,1-0.2,1.3c-0.1,0.7-0.2,1.3-0.2,1.9c0,0.6,0,1.3,0,2.1v3.2c0,0.6,0,1.2,0,1.9c0,0.7,0,1.3,0,2
			c-0.1,1.2-0.1,2.2-0.2,3.2c-0.1,1-0.1,2.2-0.1,3.5c0,1.3,0,2.7,0,4.2c0,5.5,0.1,9.9,0.3,13.2c0.2,3.3,0.5,5.9,0.8,7.7
			c0.4,1.8,0.9,3,1.4,3.6c0.6,0.6,1.3,0.9,2.1,0.9c0.2,0,0.5,0,0.9-0.1c0.4,0,0.7-0.2,0.9-0.4c0.4-0.3,0.7-0.8,1-1.4
			c0.3-0.7,0.5-1.4,0.6-2.1c0.2-0.8,0.3-1.5,0.3-2.3c0-0.8,0.1-1.4,0.1-2c0-0.3,0-0.5,0-0.8c0-0.3,0-0.6,0-0.9c0-0.4,0-0.9,0-1.5
			c0-0.6,0-1.5,0-2.5c0-1.1,0-2.2-0.1-3.2c-0.1-1.1-0.1-1.9-0.2-2.6v-0.8c0-0.8,0-1.2,0-1.4c0-0.2-0.2-0.4-0.6-0.6
			c-0.1,0-0.1,0-0.1,0c0,0,0,0-0.1,0l-2.2,0.5l-1,0.5c-0.7,0-1-0.4-1-1.1c0-0.4,0.3-0.7,0.8-0.9c0.5-0.2,1.1-0.3,1.8-0.4
			c0.7-0.1,1.3-0.1,1.9-0.2c0.6,0,1-0.1,1.2-0.1c0.4,0.7,0.7,1.7,0.9,3c0.2,1.3,0.2,2.8,0.2,4.6c0,0.9,0,1.7,0,2.5
			c0,0.8,0,1.6,0,2.5c0,0.4,0,0.9,0,1.5c0,0.7,0,1.2,0,1.6c0,0.8-0.1,1.6-0.2,2.5c-0.1,0.9-0.3,1.8-0.5,2.7
			c-0.3,0.9-0.6,1.7-0.9,2.4c-0.4,0.8-0.8,1.3-1.4,1.7c-0.3,0.2-0.6,0.3-0.9,0.3c-0.4,0.1-0.8,0.1-1.2,0.1h-0.5
			c-2-0.4-3.4-1.8-4.3-4.1c-0.9-2.3-1.3-5.5-1.3-9.7v-1.5c0-2.4,0-4.3-0.1-5.7c-0.1-1.4-0.1-2.7-0.1-4v-2.5l0.3-19.2v-0.1l0.1-2.3
			c0.1-0.9,0.2-1.7,0.4-2.6c0.2-0.9,0.4-1.7,0.8-2.5c0.3-0.6,0.6-0.9,1.1-1.1c0.5-0.2,1.1-0.3,1.7-0.3
			C219,147.7,219.8,147.9,220.5,148.4z"/>
		<path d="M237,189c0,1.2,0,2.5,0.1,4c0.1,1.5,0.1,2.9,0.1,4.2c0,0.9,0,1.7-0.1,2.4c-0.1,0.8-0.3,1.5-0.6,2.1
			c-0.4,0.6-0.9,1.1-1.6,1.4c-0.7,0.4-1.7,0.5-2.9,0.5h-0.4c-0.7-0.2-1.3-0.5-1.9-1.1c-0.6-0.6-1-1.2-1.4-2
			c-0.4-0.8-0.7-1.7-0.9-2.7c-0.2-1-0.3-1.9-0.3-2.9c0-3,0.4-5.5,1.3-7.5c0.9-2,2.5-3.4,4.8-4.3c0,0,0.2,0,0.4,0
			c0.2,0,0.5-0.1,0.7-0.3c0.3-0.2,0.5-0.4,0.7-0.8c0.2-0.4,0.3-1,0.3-1.7v-6.3c0,0,0-0.1,0-0.2c0,0,0-0.1,0-0.2v-0.4
			c0-0.8-0.1-1.7-0.2-2.7c-0.1-1-0.2-1.9-0.4-2.8c-0.2-0.9-0.4-1.6-0.7-2.1c-0.3-0.6-0.6-0.9-1-0.9c-0.2,0-0.5,0.1-0.8,0.3
			c-0.3,0.2-0.6,0.5-0.9,0.8c-0.3,0.3-0.6,0.7-0.9,1.1c-0.3,0.4-0.5,0.8-0.7,1.2c-0.2,0.4-0.4,0.7-0.6,1c-0.2,0.3-0.5,0.5-0.8,0.5
			c-0.4,0-0.5-0.3-0.5-1c0-0.9,0.2-1.7,0.6-2.4c0.4-0.7,0.9-1.3,1.4-1.9c0.6-0.5,1.1-0.9,1.7-1.2c0.6-0.3,1-0.4,1.4-0.4
			c0.8,0,1.5,0.4,2,1.1c0.6,0.7,1,1.7,1.3,2.9c0.3,1.2,0.5,2.7,0.6,4.3c0.1,1.7,0.2,3.4,0.2,5.3c0,1.2,0,2.4,0,3.8
			c0,1.4,0,2.7,0,3.9V189z M234.6,201.2c0.5-0.4,0.8-1,0.9-1.9c0.1-0.9,0.2-1.9,0.2-3c0-0.5,0-1.2,0-2.1c0-0.9-0.1-1.8-0.1-2.8
			c0-1-0.1-1.8-0.1-2.6c0-0.8,0-1.3,0-1.5v-2.5c-1,0-2.1,0.3-3.2,0.9c-1.1,0.6-2,1.7-2.7,3.5v0.1c-0.3,0.8-0.4,1.6-0.6,2.6
			c-0.1,1-0.2,2-0.2,3c0,0.7,0,1.4,0.1,2.2c0.1,0.8,0.2,1.4,0.5,1.8v0.1c0.7,1.1,1.1,1.8,1.4,2.3c0.3,0.5,0.8,0.7,1.5,0.7h0.5
			c0.2,0,0.4,0,0.7-0.2C233.8,201.7,234.2,201.5,234.6,201.2z"/>
		<path d="M256.3,198.8c0,0.1,0,0.2,0,0.4c0,0.2,0,0.3,0,0.4v0.2c0,0.3,0.1,0.6,0.2,0.9c0,0.3,0.1,0.6,0.1,0.9
			c0,0.4-0.1,0.8-0.3,1.1c-0.2,0.3-0.5,0.5-1,0.5l-0.4-0.3c-0.1-0.1-0.1-0.3-0.1-0.7c0-0.4,0-0.8,0-1.3v-20.2c0-1,0-2,0-3
			c0-1,0-2,0-3V174c0-0.8,0-1.8,0-2.9c0-1.1-0.1-2.1-0.3-3.1c-0.2-1-0.4-1.8-0.8-2.5c-0.4-0.7-0.9-1.1-1.5-1.1
			c-0.7,0-1.2,0.3-1.6,0.9c-0.4,0.6-0.7,1.4-0.8,2.3c-0.2,0.9-0.3,1.9-0.3,3c-0.1,1.1-0.1,2-0.1,2.8v17.8c0,1.7,0,3.4,0,5.1
			c0,1.7,0,3.3,0.1,5c0,0.4-0.1,0.8-0.2,1.2c-0.1,0.5-0.3,0.7-0.5,0.7c-0.3,0-0.5-0.3-0.6-0.9c-0.2-0.6-0.3-1.4-0.3-2.3
			c-0.1-1-0.1-2-0.2-3c0-1.1,0-2.1,0-3.1c0-1.4,0-2.8,0-4.1c0-1.3,0-2.6,0.1-3.9c0-0.5,0-1.1,0-1.8c0-0.7,0-1.4,0-2.1
			c0-0.7,0-1.4,0-2.1c0-0.7,0-1.3,0-1.8v-3.4c0-1.1,0-2.2-0.1-3.4c0-1.2-0.2-2.3-0.4-3.3c-0.2-1-0.5-1.9-0.9-2.6
			c-0.4-0.7-0.9-1-1.6-1c-0.5,0-1,0.2-1.3,0.6c-0.3,0.4-0.6,1-0.8,1.7c-0.2,0.7-0.3,1.4-0.4,2.2c-0.1,0.8-0.1,1.5-0.1,2.3
			c0,1,0,1.7,0,2.1c0,0.5,0,0.9,0,1.3v2.3c0,1,0,2.1,0,3.3c0,1.2,0,2.5,0,3.8v6.9c0,0.9,0,1.7,0,2.4c0,0.8,0,1.6,0.1,2.4
			c0,0.8,0.1,1.6,0.1,2.4c0,0.8,0,1.7,0,2.5c0,0.4-0.1,0.8-0.2,1.3c-0.1,0.5-0.3,0.8-0.6,0.8c-0.6,0-0.9-0.5-0.9-1.5
			c0-2.4,0-4.8,0-7.2c0-2.4-0.1-4.9-0.1-7.4c-0.1-2.4-0.1-4.8-0.1-7.3c0-2.5,0-4.9,0-7.3v-1.4c0-3,0.3-5.1,1-6.3
			c0.7-1.3,1.6-1.9,2.8-1.9c0.9,0,1.7,0.3,2.4,0.9c0.8,0.6,1.3,1.5,1.7,2.7v-0.1c0.3-1.4,0.8-2.2,1.6-2.6c0.8-0.4,1.7-0.6,2.7-0.6
			c0.9,0,1.6,0.5,2,1.5c0.5,1,0.8,2.2,1,3.6c0.2,1.4,0.4,2.9,0.4,4.6c0,1.6,0,3.1,0,4.4c0,1,0,2,0,2.9c0,1-0.1,1.9-0.1,2.9
			c-0.1,1-0.1,1.9-0.1,2.8c0,0.9,0,1.9,0,2.8c0,1.8,0,3.5,0,5.3C256.2,195.3,256.2,197.1,256.3,198.8z"/>
		<path d="M269.4,194.6c0.3,0.3,0.5,0.9,0.5,1.8c0,1.5-0.1,2.7-0.3,3.6c-0.2,0.9-0.5,1.6-0.9,2.1c-0.4,0.5-0.9,0.8-1.4,1
			c-0.6,0.2-1.2,0.3-1.8,0.4c-1,0-1.9-0.3-2.9-0.9c-1-0.6-1.7-1.9-2.1-3.7l-0.1-0.5c-0.3-0.6-0.5-1.7-0.6-3.2
			c-0.2-1.6-0.3-3.3-0.3-5.2c-0.1-1.9-0.1-3.9-0.2-5.9c0-2,0-3.8,0-5.3c0-3.1,0.1-5.7,0.3-7.8c0.2-2.1,0.5-3.8,0.9-5.1
			c0.4-1.3,1-2.2,1.6-2.7c0.6-0.6,1.4-0.8,2.3-0.8c1.1,0,1.9,0.3,2.6,0.8c0.7,0.6,1.2,1.5,1.5,2.9c0.4,1.4,0.7,3.2,0.8,5.6
			c0.2,2.4,0.3,5.3,0.4,9c-0.2,0.5-0.6,0.8-1.4,0.8c-0.2,0-0.7,0-1.4,0c-0.7,0-2-0.1-3.9-0.2c-0.4,0-0.8,0-1.1,0
			c-0.3,0-0.6,0.1-0.9,0.2v1.1c0,0.4,0,0.7,0,1c0,0.3,0,0.6,0,0.9c0,3,0,5.5,0.2,7.7c0.1,2.2,0.3,4,0.6,5.5c0.3,1.5,0.8,2.5,1.5,3.3
			c0.7,0.7,1.6,1.1,2.8,1.1c0.5,0,0.8-0.1,1-0.3c0.2-0.2,0.4-0.5,0.5-0.9c0.1-0.4,0.3-1,0.4-1.7c0.1-0.7,0.3-1.6,0.6-2.6v-0.3
			c0.2-0.8,0.5-1.2,1.1-1.3V194.6z M261.9,166.4c-0.4,1.3-0.7,2.5-0.8,3.9c-0.2,1.3-0.2,2.7-0.2,4.2c0,0.8,0,1.6,0,2.3
			c0,0.7,0,1.4,0.1,2.1v0.7c0.5,0,1.1,0,1.7,0c0.6,0,1.4,0.1,2.2,0.2c0.4,0,0.9,0,1.6-0.1c0.7,0,1.1-0.1,1.2-0.1v-0.8
			c0-3.3-0.1-5.9-0.2-7.9c-0.1-2-0.3-3.4-0.6-4.5c-0.3-1-0.6-1.7-1-2c-0.4-0.3-0.9-0.4-1.4-0.4h-0.4c-0.4,0.1-0.8,0.3-1.1,0.6
			C262.6,164.9,262.2,165.5,261.9,166.4L261.9,166.4z"/>
		<path d="M279.3,172.3c-0.2-0.3-0.2-0.7-0.2-1.2v-0.7c0-0.1,0-0.3,0-0.4c0-0.1,0-0.3,0-0.6c0-1-0.1-2-0.4-2.9
			c-0.3-0.9-0.6-1.5-1.1-1.9c-0.3-0.5-0.7-0.7-1.1-0.7c-0.3,0-0.6,0-0.8,0.1c-0.2,0.1-0.4,0.1-0.6,0.2c-0.3,0-0.6,0.3-0.8,0.6
			c-0.3,0.4-0.5,0.8-0.7,1.4c-0.2,0.5-0.4,1.1-0.5,1.7c-0.1,0.6-0.2,1.2-0.2,1.8c0,1.2,0.1,2.2,0.3,3c0.2,0.8,0.4,1.6,0.7,2.3
			c0.3,0.7,0.5,1.5,0.9,2.4c0.3,0.9,0.6,1.6,0.9,2.1h0.1v0.4c0.3,0.7,0.6,1.3,0.9,1.9c0.3,0.6,0.6,1.1,0.9,1.7
			c0.8,1.5,1.6,3,2.3,4.6c0.7,1.6,1.1,3.6,1.1,5.9c0,1.2-0.1,2.3-0.2,3.3c-0.1,1.1-0.3,2.1-0.5,2.9c-0.3,0.9-0.6,1.6-1.1,2.3
			c-0.5,0.6-1,1-1.7,1.2v0.1c-0.1,0-0.4,0.1-0.8,0.1c-1.5,0-2.8-0.9-3.8-2.8c-1.1-1.9-1.6-4.1-1.6-6.8c0-0.6,0-1.2,0.1-1.9
			c0.1-0.7,0.3-1.1,0.7-1.1c0.3,0,0.5,0,0.5,0.1c0.2,0.4,0.3,0.8,0.3,1.2v1.7c0,0.9,0,1.5,0.1,2c0,0.5,0.1,0.9,0.2,1.2
			c0,0.1,0,0.2,0,0.2c0,0.1,0,0.1,0,0.2v0.2c0.3,1.2,0.7,2.2,1.3,3c0.6,0.9,1.2,1.3,1.8,1.3c0.7,0,1.4-0.7,1.9-2
			c0.6-1.4,0.9-2.9,1-4.7v-0.1c0-2.6-0.4-4.8-1.1-6.6c-0.8-1.8-1.6-3.6-2.5-5.2c-0.6-0.9-1.1-1.8-1.6-2.8c-0.5-1-0.8-1.9-1.1-2.7
			l-0.6-1.9c-0.4-1.2-0.7-2.2-0.9-3c-0.2-0.9-0.4-2-0.4-3.3c0-0.7,0.1-1.6,0.2-2.7c0.2-1.1,0.5-2,1-2.7c0.4-0.7,0.9-1.2,1.6-1.5
			c0.7-0.4,1.4-0.6,2.1-0.6c0.9,0,1.6,0.2,2.3,0.7c0.7,0.5,1.1,1.3,1.4,2.4c0.3,0.7,0.5,1.5,0.6,2.3c0.2,0.8,0.3,1.7,0.3,2.5
			c0,0.4-0.1,0.9-0.2,1.4c-0.1,0.6-0.3,0.8-0.7,0.8c-0.2,0-0.3,0-0.3,0c0,0-0.1-0.1-0.1-0.1v-0.1l-0.2-0.2V172.3z"/>
	</g>
</g>
</svg>
