<?xml version="1.0" encoding="utf-8"?>
<!-- Generator: Adobe Illustrator 18.1.1, SVG Export Plug-In . SVG Version: 6.00 Build 0)  -->
<svg version="1.1" id="Layer_1" xmlns="http://www.w3.org/2000/svg" xmlns:xlink="http://www.w3.org/1999/xlink" x="0px" y="0px"
	 viewBox="0 0 1000 400" enable-background="new 0 0 1000 400" xml:space="preserve">
<path fill="none" stroke="#010101" stroke-width="6" stroke-miterlimit="10" d="M41,1018l204-250l72.9-84.7c0.7-0.8,1.2-1.9,1.2-3
	l5.9-127.6c0-0.5,0.1-0.9,0.2-1.3l16.3-49.4c0.4-1.2,1.3-2.3,2.5-2.9l50.7-26.1"/>
<path fill="none" stroke="#010101" stroke-width="6" stroke-miterlimit="10" d="M874.8,374.6l53.8,92c0.5,0.8,0.7,1.8,0.7,2.8
	l-2.5,48.5c0,0.4,0,0.7,0.1,1.1l8.8,54.7c0,0.3,0.1,0.5,0.1,0.8v85.3c0,0.2,0,0.4,0,0.6L953,797.7c0,0.2,0.1,0.4,0.1,0.6L1007,1007"
	/>
<path fill="none" stroke="#010101" stroke-width="6" stroke-miterlimit="10" d="M772.6,830.1l25.1-45.2c0.4-0.7,1-1.3,1.7-1.8
	l36.7-23.3c4.4-2.8,9.5,2.1,7.1,6.6l-8.1,14.9l-24,44.1c-0.5,0.8-1.1,1.5-2,2L786,840.1c-4.8,2.6-2.5,10,3,9.4l28.4-3.2
	c1.1-0.1,2.1-0.6,2.9-1.3l69.7-65.8c0.7-0.7,1.2-1.5,1.4-2.4l28.2-112.9c0.3-1.1,0.2-2.2-0.3-3.2L868,545l13.6,30.7
	c1.8,4.1,7.8,3.9,9.3-0.3l38.5-107.5"/>
<path fill="none" stroke="#010101" stroke-width="6" stroke-miterlimit="10" d="M325,552l17,122.5c0.1,0.5,0.2,1,0.5,1.5L406,806.2
	c1.2,2.4,4.1,3.5,6.6,2.4l4.8-2.2c2.2-1,3.4-3.5,2.7-5.9l-11.8-43.3c-0.1-0.4-0.2-0.9-0.2-1.3v-17c0-1.2-0.4-2.3-1.2-3.2l-50.4-60.5
	c-0.6-0.7-1-1.6-1.1-2.6l-13.2-105.8c-0.1-0.5,0-1,0-1.5l3.9-21.4c0.9-5,7.9-5.6,9.6-0.8l10.3,28.9"/>
<path fill="none" stroke="#010101" stroke-width="6" stroke-miterlimit="10" d="M334.6,1005.6l42.7-163.4c0.2-0.9,0.7-1.7,1.3-2.3
	l29.5-29.3"/>
<path fill="none" stroke="#010101" stroke-width="6" stroke-miterlimit="10" d="M850.6,546.6l27.6-45.4c0.4-0.7,1-1.3,1.8-1.7
	l27.2-15.9"/>
<path fill="none" stroke="#010101" stroke-width="6" stroke-miterlimit="10" d="M411.7,12.2l14.8-6.5c2.3-1,3.5-3.7,2.8-6.1
	L425.5-12c-0.1-0.2-0.1-0.3-0.1-0.5l-3.1-14.8"/>
<path fill="none" stroke="#010101" stroke-width="6" stroke-miterlimit="10" d="M641-28l17.4-12.2c0.4-0.3,0.9-0.5,1.4-0.7l24.5-7.5
	c0.5-0.1,1-0.2,1.5-0.2h20c0.4,0,0.8,0,1.2,0.1l19.2,4.7c0.4,0.1,0.7,0.2,1.1,0.4l18.7,9.6c0.8,0.4,1.5,1,2,1.8l6.5,10.4"/>
<path fill="none" stroke="#010101" stroke-width="6" stroke-miterlimit="10" d="M666.7-40.7l-0.4,8.5c0,0.6,0.1,1.2,0.2,1.8l2.1,6.6
	c0.3,0.8,0.7,1.5,1.3,2.1l12.9,12.4c1.2,1.1,2.8,1.6,4.4,1.3L702-11c1.1-0.2,2.1-0.8,2.8-1.6l7.9-8.9c0.7-0.8,1.1-1.7,1.2-2.7
	l2.4-19.8"/>
<path fill="none" stroke="#010101" stroke-width="6" stroke-miterlimit="10" d="M625.6-15.5v-15.9c0-1.1,0.4-2.2,1.1-3.1l17.3-21.9
	c0.3-0.4,0.7-0.7,1.1-1l11.4-7.8c0.8-0.6,1.8-0.9,2.8-0.9H733"/>
<path fill="none" stroke="#010101" stroke-width="6" stroke-miterlimit="10" d="M641-28l5.8,14.5c0.7,1.7,2.3,3,4.2,3.1l33.6,2.8"/>
<line fill="none" stroke="#010101" stroke-width="6" stroke-miterlimit="10" x1="703.7" y1="-11.3" x2="751.3" y2="-19.6"/>
<line fill="none" stroke="#010101" stroke-width="3.0503" stroke-miterlimit="10" x1="386.3" y1="-93" x2="336.1" y2="-113"/>
<path fill="none" stroke="#010101" stroke-width="6" stroke-miterlimit="10" d="M874.8,374.6l15.8,106.9c0.2,1.3-0.2,2.7-1,3.8
	l-23,29.8c-0.2,0.2-0.4,0.5-0.5,0.8l-15.7,30.7L839.3,569c-0.5,1-0.6,2.1-0.4,3.2l8.5,42.6c0.1,0.5,0.1,1,0.1,1.5l-8.8,86.5
	c-0.1,0.8-0.4,1.6-0.8,2.3l-26.6,39.3c-0.1,0.1-0.1,0.2-0.2,0.3l-28.5,36.1c-0.6,0.8-1.5,1.4-2.5,1.7l-57,17.5l-39.9,10.3
	c-0.4,0.1-0.8,0.2-1.3,0.2h-6.6c-1.1,0-2.3-0.4-3.1-1.1l-53.3-43.2c-0.5-0.4-1.1-0.8-1.8-0.9l-24.8-6.9c-0.8-0.2-1.6-0.2-2.4-0.1
	l-40.3,8.6c-0.4,0.1-0.7,0.2-1,0.3l-43.7,20.1c-2.6,1.2-5.7,0-6.7-2.7l-26.9-68c-0.2-0.4-0.3-0.8-0.3-1.2l-11.9-93.4
	c0-0.3-0.1-0.6-0.2-1l-37.7-112.7"/>
<path fill="none" stroke="#010101" stroke-width="6" stroke-miterlimit="10" d="M394.6,1005.8l19.4-89.6c0.1-0.4,0.3-0.9,0.5-1.3
	l32.9-62.3c0-0.1,0.1-0.2,0.1-0.3l18.6-40.5c0.4-0.9,1.1-1.6,1.9-2.2l32.3-20.2"/>
<path fill="none" stroke="#010101" stroke-width="6" stroke-miterlimit="10" d="M907.1,308l-15.8,24.6c-0.2,0.4-0.4,0.8-0.6,1.2
	l-8.3,27.1c-0.2,0.8-0.7,1.5-1.2,2.1l-30,30c-0.3,0.3-0.6,0.6-0.8,1L836,418.5c-0.2,0.3-0.3,0.5-0.5,0.7l-24.1,27.9
	c-0.2,0.2-0.4,0.4-0.6,0.6l-118.9,98.5c-0.2,0.2-0.4,0.3-0.7,0.5l-54.1,31.4c-0.5,0.3-1.1,0.5-1.6,0.6l-37.7,6.7
	c-0.2,0-0.5,0.1-0.7,0.1l-57.2,1.5c-0.1,0-0.2,0-0.3,0l-37.3-1.6c-0.8,0-1.5-0.2-2.2-0.6L472,569.4c-0.6-0.3-1-0.7-1.4-1.2
	L404.3,488c-0.1-0.2-0.2-0.3-0.3-0.5L381.1,452l-25.5-40.4L342.1,388"/>
<path id="Full_head_outline_1_" fill="none" stroke="#010101" stroke-width="6" stroke-miterlimit="10" d="M907.1,308l38.5,27.6
	c0.3,0.2,0.7,0.5,0.9,0.9l38.2,46c0.3,0.3,0.5,0.7,0.7,1.1l40.6,87.1c0.1,0.2,0.2,0.5,0.3,0.7l13.7,46.9c0.1,0.5,0.2,0.9,0.2,1.4
	V1002c0,2.8-2.2,5-5,5l-1070-2c-2.8,0-5-2.2-5-5l0-384.7c0-1.2,0.4-2.3,1.2-3.2l38.5-45.7c0.2-0.3,0.5-0.5,0.8-0.8l103.6-79
	c0.6-0.5,1.3-0.8,2.1-0.9L239,459.7c1.9-0.4,3.9,0.4,5.1,2l2.5,3.5c1.5,2.1,4.4,2.8,6.6,1.4l24.6-14.4c0.3-0.2,0.6-0.4,0.8-0.6
	l56-51.1c0.4-0.3,0.7-0.7,0.9-1.2l5.4-9.2c0.8-1.3,0.9-2.9,0.3-4.4L330.1,358l-12.9-31.7c-0.1-0.2-0.1-0.4-0.2-0.6l-16.9-64.1
	l-7.9-25l-8.6-25.3l0,0l-0.5-31.2l-0.4-45.3c0-1-0.3-2-0.9-2.8l-10.5-15.2c-0.4-0.6-0.9-1.1-1.5-1.4l-23.1-14.1
	c-0.4-0.2-0.8-0.5-1.1-0.9L228.7,82c-0.4-0.5-0.7-1-1-1.5l-9.5-24.2c-0.1-0.2-0.1-0.4-0.2-0.6L204.3,2.8c-0.1-0.5-0.4-1.1-0.7-1.5
	l-12.3-18.4c-0.8-1.2-2-2-3.5-2.2l-7.1-1c-2.3-0.3-4.1-2.3-4.3-4.6l-2.1-32.7c-0.2-2.5,1.5-4.7,4-5.2L251.5-78
	c2.6-0.5,4.3-3,3.9-5.7L244.2-156l-6-31.7c0-0.2-0.1-0.4-0.1-0.6l-2-33.5c0-0.1,0-0.2,0-0.3l-2.2-18.7c-0.1-0.7,0-1.4,0.2-2.1
	l0.8-2.7c1.6-5-4.7-8.8-8.4-5l-2.4,2.5c-2.3,2.4-6.2,1.9-7.9-0.9l-6-10c-1-1.7-3-2.6-4.9-2.4l-4.5,0.6c-3.3,0.4-6.1-2.5-5.6-5.8
	l5.9-34.9c0.2-1.3-0.1-2.7-0.9-3.8l-10.1-13.9c-0.8-1.1-1.1-2.4-0.9-3.7l6.7-44.5c0.1-0.4,0.1-0.8,0-1.2l-1.8-20
	c-0.1-0.9,0.1-1.9,0.5-2.7l25.3-50.5c0.1-0.1,0.1-0.3,0.2-0.5l15.5-40.6c0.3-0.8,0.8-1.5,1.4-2l38-32.3c0.7-0.6,1.4-0.9,2.3-1.1
	l59.5-11.5c0.8-0.2,1.5-0.5,2.1-1l62.6-48.9c0.3-0.2,0.6-0.4,0.9-0.6l78.5-37.3c0.7-0.3,1.4-0.5,2.1-0.5h59.5c0.9,0,1.8,0.3,2.6,0.7
	l66.5,41.1c0.2,0.1,0.4,0.2,0.6,0.3l67.8,29.6l21.8,9.2l32.9,13.8l40.7,17.1c0.3,0.1,0.6,0.3,0.9,0.5l38.8,27.2
	c0.5,0.4,0.9,0.8,1.3,1.3l14.6,21.9c0.6,0.9,1.4,1.5,2.4,1.9l12.8,4.8c1.1,0.4,2,1.2,2.6,2.3l18.7,33.8c0.2,0.4,0.5,0.8,0.8,1.1
	l29.1,29c0.3,0.3,0.6,0.6,0.8,1l41.3,70.9c0.2,0.4,0.4,0.8,0.5,1.2l23.2,86.8c0.1,0.4,0.2,0.8,0.2,1.1l2.3,73c0,0.2,0,0.4,0,0.6
	l-4.5,45.6l-2.9,30l-0.6,6.4c-0.3,3.5,3,6.3,6.4,5.3l10.3-3.1c1-0.3,2-0.3,3,0.1l25.9,8.6c1.6,0.5,2.9,1.9,3.3,3.6l6.2,26.6
	c0.1,0.4,0.1,0.9,0.1,1.4l-4.7,101.2c0,0.3-0.1,0.6-0.1,0.9l-15.8,65.8c-0.2,0.9-0.7,1.7-1.3,2.3l-36.7,37.7c-0.8,0.9-2,1.4-3.2,1.5
	l-20.2,1.6c-2.3,0.2-4.2,1.9-4.5,4.1l-3.3,19.2l-9,52.9L907.1,308"/>
<g id="Glasses_1_">
	<path fill="none" stroke="#010101" stroke-width="6" stroke-miterlimit="10" d="M539.6-53L546-5.5c0.1,0.5,0.2,1,0.4,1.5l21,44.7
		c0.1,0.2,0.2,0.5,0.4,0.7l11,16.2c0.2,0.3,0.5,0.6,0.7,0.9l13.3,12.4c0.5,0.5,1.1,0.8,1.7,1l31.3,11.6c0.2,0.1,0.3,0.1,0.5,0.2
		l28.8,7.4"/>
	<path id="Glasses_Outline_1_" fill="none" stroke="#010101" stroke-width="6" stroke-miterlimit="10" d="M174.1-62l86.7-18.1
		c0.2,0,0.4-0.1,0.5-0.1l105.2-10.2c0.4,0,0.8,0,1.2,0L451.1-79l41.9,3.9c0.7,0.1,1.4,0,2.1-0.2L550-94c0.2-0.1,0.4-0.1,0.7-0.2
		l107.2-20.6c0.2,0,0.3-0.1,0.5-0.1l46.5-4.1c0.1,0,0.3,0,0.4,0h147.7c0.7,0,1.4,0.1,2,0.4l65.7,28.4c0.2,0.1,0.4,0.2,0.6,0.3
		l11.1,6.8c1,0.6,1.8,1.6,2.1,2.7l7.2,22.5c0.2,0.5,0.2,1,0.2,1.5v4.4c0,1.2-0.4,2.3-1.2,3.2l-6.6,7.9c-2.6,3.1-7.7,2-8.7-2l-1-3.9
		c-0.4-1.5-1.4-2.7-2.8-3.3L867-74.7c-1.8-0.8-3.8-0.5-5.3,0.8l-8.7,7.4c-0.1,0.1-0.3,0.2-0.4,0.3l-14.6,10c-1.2,0.8-1.9,2-2.1,3.4
		l-10.6,76c-0.1,0.5-0.2,1-0.5,1.5l-14.3,29.6c-0.2,0.4-0.5,0.9-0.8,1.2l-24.1,26c-0.6,0.6-1.3,1.1-2.1,1.4l-68.5,21.9
		c-0.5,0.2-1,0.2-1.5,0.2h-73.6c-0.4,0-0.8,0-1.2-0.1l-53.3-12.6c-0.8-0.2-1.5-0.5-2.1-1l-29.2-24.5c-0.6-0.5-1.1-1.2-1.4-1.9
		l-33.2-80.1c-0.2-0.5-0.5-0.9-0.8-1.4l-9.9-11.5c-0.4-0.5-1-0.9-1.6-1.2L493.2-36c-1.3-0.6-2.8-0.7-4.1-0.1l-9.4,4
		c-1.6,0.7-2.7,2.1-3,3.8l-11.4,71.5c-0.1,0.5-0.3,1-0.5,1.5l-20.3,39.1c-0.2,0.5-0.6,0.9-0.9,1.3L425.2,103
		c-0.7,0.7-1.5,1.1-2.5,1.3l-42.6,8.7l-67.6,10.8c-0.6,0.1-1.3,0.1-1.9-0.1l-41.9-9.3c-0.5-0.1-1-0.3-1.5-0.6l-20.5-12.5
		c-0.4-0.2-0.8-0.5-1.1-0.9L228.7,82c-0.4-0.5-0.7-1-1-1.5l-9.5-24.2c-0.1-0.2-0.1-0.4-0.2-0.6L204.3,2.8c-0.1-0.5-0.4-1.1-0.7-1.5
		l-12.3-18.4c-0.8-1.2-2-2-3.5-2.2l-7.1-1c-2.3-0.3-4.1-2.3-4.3-4.6L174.1-62"/>
	<path fill="none" stroke="#010101" stroke-width="6" stroke-miterlimit="10" d="M241.1-44l-12.2,8.6c-0.8,0.6-1.4,1.4-1.8,2.3
		l-4,10.5c-0.6,1.6-0.4,3.4,0.6,4.7l3,4.1c0.6,0.8,1.4,1.4,2.3,1.7l48.8,18.4c3.3,1.2,6.8-1.2,6.8-4.7v-22.5c0-2-1.2-3.8-3-4.6
		l-35.5-15.3l-8-3.4"/>
	<path fill="none" stroke="#010101" stroke-width="6" stroke-miterlimit="10" d="M379.6-74l-64.7,4c-0.2,0-0.4,0-0.5,0.1l-34.3,5.9
		c-0.3,0.1-0.6,0.1-0.9,0.2l-31.1,11.3c-1,0.4-1.8,1-2.4,1.9l-4.1,5.9c-0.3,0.5-0.8,0.9-1.2,1.3l-11.7,8.2c-0.7,0.5-1.3,1.2-1.6,2
		l-6.8,14.4c-0.4,0.9-0.6,2-0.4,3l2.1,12c0.1,0.3,0.1,0.6,0.1,0.9v23.4c0,0.5,0.1,0.9,0.2,1.4l10.1,35.2c0.1,0.4,0.3,0.9,0.6,1.3
		l17.1,27.5c0.4,0.6,0.9,1.1,1.5,1.5l18.4,12.4c0.5,0.3,1.1,0.6,1.6,0.7l44.3,10.6c0.5,0.1,1.1,0.2,1.6,0.1l54.8-5.3
		c0.6-0.1,1.1-0.2,1.6-0.4l50.3-23.5c0.9-0.4,1.7-1.1,2.2-2l8.7-15c0.2-0.3,0.3-0.7,0.4-1l13.2-42.2c0.1-0.3,0.2-0.6,0.2-0.9
		l3.7-32.8c0-0.4,0-0.9,0-1.3l-4.2-28.8c-0.1-1-0.6-1.9-1.3-2.7l-10.7-11.6c-0.5-0.5-1-0.9-1.6-1.2l-20.1-8.9
		c-0.3-0.1-0.7-0.3-1-0.3L379.6-74"/>
	<path fill="none" stroke="#010101" stroke-width="6" stroke-miterlimit="10" d="M273.7-61.9l7.3,12.7c0.4,0.8,0.7,1.6,0.7,2.5V-32
		c0,0.7,0.1,1.3,0.4,1.9l2.2,5.3c0.2,0.5,0.4,1.1,0.4,1.7l5.1,127.7"/>
	<path fill="none" stroke="#010101" stroke-width="6" stroke-miterlimit="10" d="M538.5-48.7l8-16.5c0.4-0.9,1.1-1.7,2-2.2l11.7-6.7
		l10.4-6.2c0.4-0.2,0.8-0.4,1.2-0.5l39.5-11.2c0.2-0.1,0.4-0.1,0.7-0.1l38.5-5.4c0.1,0,0.3,0,0.4,0l47.4-3c0.3,0,0.5,0,0.8,0
		l53.6,4.9c0.3,0,0.6,0.1,0.9,0.2l31,9.1c0.7,0.2,1.3,0.5,1.8,0.9l12.9,10.7c0.5,0.5,1,1,1.3,1.7l10,20.4c0.4,0.7,0.5,1.6,0.5,2.4
		l-2.4,58.5c0,0.5-0.1,1-0.3,1.5L795,47.1c-0.2,0.6-0.5,1.2-1,1.6l-19.2,21.5c-0.5,0.5-1,0.9-1.7,1.2l-21.7,9.9
		c-0.2,0.1-0.4,0.2-0.7,0.2l-31,9.2c-0.5,0.1-0.9,0.2-1.4,0.2h-55.3h-36.6c-0.6,0-1.2-0.1-1.8-0.3l-32.1-12.4
		c-0.4-0.1-0.7-0.3-1.1-0.6l-25.1-17.5c-0.6-0.4-1.1-1-1.5-1.7l-17.6-31.4c-0.2-0.4-0.4-0.8-0.5-1.2l-13.5-52.6
		c-0.2-0.8-0.2-1.7,0-2.5l6.2-23.7"/>
</g>
<path fill="none" stroke="#010101" stroke-width="6" stroke-miterlimit="10" d="M273.7-81.4v-122.3c0-0.5,0.1-1,0.2-1.4L304-305.7
	c0.1-0.4,0.3-0.9,0.6-1.2l25.5-40.4l11-16.5c0.6-1,1.6-1.7,2.7-2l43-12.9c0.1,0,0.3-0.1,0.4-0.1l33.4-13.2c0.3-0.1,0.7-0.2,1.1-0.3
	l56.6-8.9c0.2,0,0.4-0.1,0.6-0.1l53.6-14.7c0.4-0.1,0.9-0.2,1.3-0.2h48.5l96.1,3c0.8,0,1.5-0.1,2.2-0.4l35.6-16.2
	c1.2-0.6,2.6-0.6,3.9-0.1l82.5,32.1c0.9,0.3,1.6,0.9,2.2,1.7l20.1,26.9c0.4,0.5,0.7,1.1,0.8,1.8l14.9,59.3c0.2,0.8,0.2,1.6,0,2.4
	l-8.1,34.4c-0.2,0.7-0.2,1.4,0,2.2l17.5,85.5c0.1,0.4,0.2,0.9,0.4,1.3L891-103"/>
<path fill="none" stroke="#010101" stroke-width="6" stroke-miterlimit="10" d="M904.2-61.9l2.7,44.1c0,0.2,0,0.3,0,0.5l-1.2,37.6
	c0,0.7,0.1,1.4,0.4,2.1l11.1,27c0.2,0.5,0.3,1,0.4,1.5l2.4,30.8c0,0.3,0,0.5,0,0.8L918.7,98c0,0.3,0,0.5,0,0.8l1.9,25.2l1.2,15.2
	l0,0l13.8-77.5c0.1-0.4,0.1-0.9,0.1-1.3l-7.5-93.6"/>
<path fill="none" stroke="#010101" stroke-width="6" stroke-miterlimit="10" d="M320.3,2.5l4-5.8c0.4-0.6,1-1.1,1.6-1.5L347.2-17
	c0.6-0.3,1.2-0.5,1.9-0.6l38.9-5c0.2,0,0.4,0,0.6,0h21c1.3,0,2.6,0.5,3.5,1.4l7.3,7.2c1.1,1.1,1.7,2.7,1.4,4.3l-0.6,4.1
	c-0.1,0.6-0.3,1.2-0.6,1.8l-8.2,14.6c-0.6,1-1.5,1.8-2.6,2.2l-14.1,5.3c-0.6,0.2-1.2,0.3-1.8,0.3h-6.3c-1,0-1.9-0.3-2.7-0.8
	l-11.6-7.5c-1.1-0.7-1.9-1.9-2.2-3.2l-2.8-14.3c-0.2-0.8-0.1-1.7,0.2-2.5l3.5-10.7"/>
<path fill="none" stroke="#010101" stroke-width="6" stroke-miterlimit="10" d="M367.7-17.5l-24,11.9c-1.1,0.5-1.9,1.4-2.4,2.5
	L337.8,5c-1,2.3-0.1,4.9,2,6.2l10.6,6.5c0.8,0.5,1.7,0.7,2.6,0.7h33.3"/>
<path fill="none" stroke="#010101" stroke-width="6" stroke-miterlimit="10" d="M320.3-17.5l9.7-12.9c0.2-0.3,0.4-0.5,0.7-0.7
	l10.6-9.5c0.5-0.5,1.2-0.8,1.8-1l21.8-6.8c0.5-0.1,1-0.2,1.5-0.2h19.2c0.5,0,0.9,0.1,1.4,0.2l38.4,11.1"/>
</svg>
