<?xml version="1.0" encoding="utf-8"?>
<!-- Generator: Adobe Illustrator 18.1.1, SVG Export Plug-In . SVG Version: 6.00 Build 0)  -->
<svg version="1.1" id="Layer_1" xmlns="http://www.w3.org/2000/svg" xmlns:xlink="http://www.w3.org/1999/xlink" x="0px" y="0px"
	 viewBox="0 0 288 288" enable-background="new 0 0 288 288" xml:space="preserve">
<image overflow="visible" width="1500" height="2100" xlink:href="../Naturalist/Lairs/Illustrations/Caves/King/King-of-Caves-card concept.png"  transform="matrix(0.2853 0 0 0.2892 238.0425 -4.2214)">
</image>
<rect x="-14.1" y="-11.7" fill="#27AAE1" width="309.7" height="343.6"/>
<path fill="none" stroke="#FFFFFF" stroke-width="3.9773" stroke-miterlimit="10" d="M158.1,204.4c-4.5-8.3-15.4-17-15.4-17
	s24.9,2.3,26.1-22.9c1.2-25-16.6-29-16.6-29h-40.6l0.9,80.4l1.9,0.2H98.1l-2-8.7c-25.9-20.5-47.3-26.2-47.5-93.2
	c-0.2-49.1,25.5-106.3,92-106c53.8,0.2,82.7,52.4,83,112.6c0.3,75.9-47.6,82-57.2,90.8c0,0,0,12.1,0,12.1H98.1v7.5h68.3v7.5H98.1
	v7.5h68.3v7.5H98.1v9.9c0,0,18,4.7,19.9,9.5l28.6,0c3-4.7,14.5-9.1,19.6-9.4c2.4-0.1,2.4-3.6,5.4,0.2c6.4,8.2,15.7,25.1,15.7,25.1"
	/>
<polyline fill="none" stroke="#FFFFFF" stroke-width="3.9773" stroke-miterlimit="10" points="110.5,122.7 114.5,114.8 121.6,122.7 
	128,114.8 134.4,122.7 139.9,114.8 146.3,122.7 153.8,114.8 158.2,122.7 "/>
</svg>
