<svg id="Layer_1" data-name="Layer 1" xmlns="http://www.w3.org/2000/svg" viewBox="0 0 100 100"><defs><style>.cls-1,.cls-2{fill:#735d47;}.cls-2{stroke:#735d47;stroke-width:0.28px;}</style></defs><title>embellishments</title><path class="cls-1" d="M30.25,48.5a6.75,6.75,0,0,1,.2,1.4,34.13,34.13,0,0,1-.3,10.2,32.15,32.15,0,0,1-1,4.8l-.2.8.6-.5.4-.4a2,2,0,0,1,.8-.4c.6,2.6,1.6,4.7,3.8,9.2.8,1.4,3,1.8,6.1,1.8a64.68,64.68,0,0,0,10.8-1.2,125.65,125.65,0,0,0,15.4-3.7c5.5-1.9,6.2-8,6.2-8a9.63,9.63,0,0,0,0-2.4,7.19,7.19,0,0,0-1.1-3c-.7-.7-1.5-.8-1.6-1.4.1-1.8,1.8-2.8,3.1-4.2a4.68,4.68,0,0,0-.8,1.4l-.1.2.1.1a1.43,1.43,0,0,0,1,.4,3.69,3.69,0,0,0,1.4-.8c1.4-1.4,2-4.3,2.9-5.5.9-.1,1,.2,1.1.7.2,1.1-.8,3.4-1,4l-.1.4h.4c1.3-.3,2.7-2.2,3.2-4.2a12.1,12.1,0,0,0,.2-4.3,7.29,7.29,0,0,0-2.3-4.8c1-1.1,2.9-2.2,2.7-4.1v-.3l-.1-.3-.2.2c-1.3,1.2-2.6,2.4-3.8,3.7a11.6,11.6,0,0,0-3.7-.3c-1.8-3.3-4.2-6.1-7.6-7.4a11.26,11.26,0,0,0-5.5-.1,15.45,15.45,0,0,1-.6-2.3,9.36,9.36,0,0,1,1.6-.4c1.8-.3,3.6-.1,4.5.9a27,27,0,0,1,2,2.5l.1.2.2-.2c.2-.2.2-.5.2-1a11.56,11.56,0,0,0-.1-1.7c-.3-2.3-1.1-5.4-2.6-6.6a9.13,9.13,0,0,0-7.1-2h0a23.39,23.39,0,0,1-.7-3.2,14.27,14.27,0,0,1-.1-3v-.2h-.2a.85.85,0,0,0-.7,0c-.9.2-1.3,1-1.8,1.8s-.8,1.5-1.2,1.5a1,1,0,0,1-.8-.3l-.4-.3.1.5a2.56,2.56,0,0,0,1.1,1.5c-.1,0-.1.1-.2.1a1,1,0,0,1-.4.1l-.5.1.4.6a3.84,3.84,0,0,0,2.4.5,3.27,3.27,0,0,0,1.6-.9c.1.1.1.3.2.6s.2.7.3,1h-.1c-1.4.2-2.7.1-4.1.3h-.4l.3.4c.9,1.2,1.5,1.2,2.1,2.8a.75.75,0,0,1,.1.5c.2,1.3-.6,3.2-1.4,4.5-.7-3-2.5-5-4.1-6.8-.9-1.1-2.3-1.3-3.9-1.1-.1-.5-.2-1.1-.3-1.7-.2-1.4-.3-2.8-.5-4.2-.1-.8-.3-1.7-.4-2.5l-.1-.3-.2.1c-.1,0-.1,0-.1.1s-.1,0-.1-.1-.1-.2-.3-.3h-.2c-.9.4-2,.6-2.7,1.8h0c-.1,1-.2,1.6-.7,1.7h-.1c-.3.1-.9-.2-1.3-.4a5.91,5.91,0,0,0-.8-.5l-.5-.5.2.7a7.35,7.35,0,0,0,1.3,2.6h-.6l-.4-.1.2.4s1,2,2.9,1.7a5.49,5.49,0,0,0,3.1-2.4c.1.3.1.6.2,1,.1.8.2,1.8.3,2.9a6.21,6.21,0,0,1-1,.3c-.7.2-1.5.4-2.4.7a24.84,24.84,0,0,0-5.1,1.9l-.3.1.2.2c1,1.2,2.1,1.6,2.3,3.5v.3c.2,2.4-1.2,5.6-2.4,8l.2.2A17.73,17.73,0,0,0,33,39.9c-.2-1.8-.7-5.5-1.1-8.2-.2-1.7-.4-3-.5-3.5V28h-.2c-.5.1-.9,0-1.4.1a1.33,1.33,0,0,0-.8.3c-.6.4-.6,1.1-1,1.1h0a.71.71,0,0,1-.6-.3,1.05,1.05,0,0,0-1-.4h-.2v.6c.1.6.4.7.5,1.2a2.16,2.16,0,0,0-.1,1.1,2.45,2.45,0,0,0,2.8,2,2,2,0,0,0,1.3-.8,23.5,23.5,0,0,1,1,4.8c.2,1.1.2,2.2.3,3,0,.6-.1,1.1-.1,1.3a40.43,40.43,0,0,0-6.4-4.8c-.9-.5-4.2-1.7-5.7-1.4a.52.52,0,0,0-.4.2l-.4.3.4.2a21.68,21.68,0,0,1,7.5,4.9A16.15,16.15,0,0,1,30.25,48.5Zm9.3-33.1Zm.7.4h0Zm4.7,1.2c0-.1,0-.2.1-.2S44.95,16.9,44.95,17Zm-.4.5Zm-.2-1.5c.1-.1.4,0,.4,0C45,16.6,44,16.4,44.35,16Zm-.8.1c.1-.1.4,0,.4,0C44.25,16.8,43.25,16.6,43.55,16.1Zm-.9.2c0-.6.4-.8.8-1.1C43.35,15.7,43.25,16.2,42.65,16.3Zm1.2-.7a.9.9,0,0,1,.7-1A1,1,0,0,1,43.85,15.6Zm-.2,1.5c.1-.1.4,0,.4,0C44.35,17.8,43.45,17.6,43.65,17.1Zm-.2,1c.1-.1.3-.1.6-.1a1.76,1.76,0,0,1-.5.4C43.45,18.3,43.35,18.1,43.45,18.1Zm-.5.7v-.1c0-.1.1,0,.2,0A.31.31,0,0,0,42.95,18.8Zm-.7.2a.37.37,0,0,0,.1-.3.22.22,0,0,1,.2.2C42.55,19,42.45,19,42.25,19Zm.2-1.3c.1-.5.2-.2.3-.5s-.1-.6.4-.5c.4.7-.3.5-.4.7s.1.4.1.5-.3,0-.4.1.2.7-.3.5C41.95,17.7,42.45,18,42.45,17.7Zm-.2-1.7c.3.6-.7.4-.4,0C41.95,15.8,42.25,16,42.25,16Zm1.3-2.7c-.1.5-.2.2-.3.5-.2.5.7.3.5.8-.5.3-.3-.3-.5-.4-.4-.2-.2.5-.2.5s-.4,0-.5.1.2.7-.3.5v-.1c.1-.1.1-.2.1-.4a.22.22,0,0,0,.2-.2c.1-.6.2-.1.4-.4.1-.1-.1-.5-.1-.6s.3,0,.4-.2c.1-.6.1-.1.3-.4.1-.1,0-.2,0-.3a.37.37,0,0,1,.3-.1C44.15,13.3,43.65,13,43.55,13.3Zm.9.8c-.2-.2.1-1,.3-.5C44.95,13.9,44.75,14.3,44.45,14.1Zm.3-1.7h0ZM25.45,37.9h-.1a.1.1,0,0,0-.1-.1C25.35,37.8,25.35,37.8,25.45,37.9Zm5.3,3.8a1,1,0,0,0-.3.1.6.6,0,0,1-.1-.4C30.45,41.4,30.65,41.6,30.75,41.7Zm-.1-10.6c-.2-.2.1-1,.3-.5C31.15,30.9,30.95,31.3,30.65,31.1Zm-.1.5a1.61,1.61,0,0,1,.4.7l-.1.2-.3.3C30.45,32.4,30.15,31.7,30.55,31.6ZM29.25,33c.3-.8.7,0,1.1,0-.1.1-.2.1-.3.2v-.1C29.75,33,29.25,33.4,29.25,33Zm-.1-.7a.9.9,0,0,1,.7-1A1.26,1.26,0,0,1,29.15,32.3Zm-.5,1a1.27,1.27,0,0,1,.6-.1v.2A1.27,1.27,0,0,1,28.65,33.3Zm-1.3-3.6c-.1,0-.2.1-.2,0a.37.37,0,0,1-.1-.3Zm.4,1c.1.2-.1.7-.4.4h0c0-.1,0-.1.1-.2v-.2h0C27.45,30.6,27.65,30.5,27.75,30.7Zm.1-.6c-.2,0-.2,0-.2-.1A.35.35,0,0,0,27.85,30.1Zm.8,1.8a.9.9,0,0,1-.7,1A1.26,1.26,0,0,1,28.65,31.9Zm.6-2.1a.9.9,0,0,0,.1.5c-.2.1-.7,0-.8.3,0,.6.7,0,.5.8-.5.3-.3-.3-.5-.5-.5-.6-.3,1-.4-.2,0-.5.2,0,.3-.4S28.75,29.9,29.25,29.8Zm.3-.5c-.3.1-.4,0-.4-.1s.1-.2.2-.2h.1C29.55,29,29.55,29,29.55,29.3Zm.5.5c.8,1.1-1.1.9-.5,0A.28.28,0,0,1,30,29.8Zm-.1-1c.1-.1.4,0,.4,0C30.65,29.4,29.65,29.2,29.95,28.8Zm.9.9c.3.6-.7.4-.4,0C30.55,29.5,30.85,29.6,30.85,29.7Zm.5-.6a.52.52,0,0,0-.2-.4h.1A.76.76,0,0,0,31.35,29.1Zm.4,2.8c.4,2.9.9,6.7,1.1,8.4-.5-1.3-.4-5.2-1.1-6,0-.1-.1-.2-.1-.3.3-.4.1-.6-.3-1-.1-.2.3-.1.4-.3a11.45,11.45,0,0,0-.1-1.5A2,2,0,0,0,31.75,31.9Zm14.1-2.1c.1.4.1.8.2,1.2a4.87,4.87,0,0,1,.1,1.2A67.83,67.83,0,0,0,38,36c2.2-2.1,5-5.9,7.6-6.3h.2C45.75,29.7,45.75,29.8,45.85,29.8Zm-3.2.9c0-.1-.1-.3,0-.3s.4-.1.6-.1A2.09,2.09,0,0,0,42.65,30.7Zm-.4.4v-.2c0-.1.1,0,.2,0A.22.22,0,0,0,42.25,31.1Zm-.8.6v-.2h.2C41.65,31.6,41.55,31.6,41.45,31.7Zm-.7.7v-.2a.37.37,0,0,1,.3-.1Zm-.3.4Zm-.8.8c0-.1-.1-.2,0-.3s.2,0,.3,0Zm-.3.4v-.1h.2C39.45,33.9,39.35,33.9,39.35,34Zm-.9,1c0,.1-.1.1-.1.2V35Zm.5-.6a1.38,1.38,0,0,0-.3.4c0-.1-.1-.2,0-.3S38.85,34.4,38.95,34.4Zm.1-1.3c.1.1.1.2.2.3-.2.1-.2.1-.3,0S39,33.2,39,33.1Zm.3-.6h.2c.4.3-.1.6-.4.5C39.25,32.8,39.25,32.6,39.35,32.5Zm6.1-19.6c-.1,0-.2.1-.2,0a.35.35,0,0,1-.1-.2.77.77,0,0,0,.3.2Zm.8,6.3a.9.9,0,0,0,.1.5.22.22,0,0,1-.2-.2c0-.3-.1-.7-.1-1s.1-.3.1-.5C46.15,18.4,46.25,18.8,46.25,19.2Zm.2,1.3c-.1,0-.3,0-.3-.2s.1-.2.2-.3A.9.9,0,0,1,46.45,20.5Zm-.5-3.8c0,.3.1.6.1.9h-.2c0-.2-.1-.4-.1-.6S45.95,16.8,45.95,16.7Zm4.2,5.1h0c-.1,0-.1,0-.1-.1Zm.8.8a1,1,0,0,0-.3.1.75.75,0,0,1-.1-.5h0Zm.3.4c-.1,0-.2.1-.2,0v-.3C51.15,22.8,51.25,22.9,51.25,23Zm.4.4a3,3,0,0,0,.7,1.9c-.3.5-.1-.3-.5-.4s-.6.2-.8.1c-.4-.2.4-.6-.3-.4-.4.1,0,.2-.1.5-.1.1-.8.2-.2.5.5.1,0-.7.5-.6.1.5.5.4,1,.3.1.4,0,1.2.3,1.3.7.1-.2-1,.4-1,.2.5.6.8.8,1.4-1.2.5-1-.3-1.7-.3-.1.8.4.4.6.5s0,.4.2.4.8-.3,1.1-.2c.1,0,0,.4.1.5s.8-.1.5.4c-.5.1-.7-.8-1.2-.1v.3c.8-.6,1.1.6.7.8-.1.1-.8-.8-.9-.8-.4.1,0,.9-.6.6.2-1-1.5-1.8-1.3-.7.3,0,.8-.4.8.1.1.3-.2.3-.3.4a4.33,4.33,0,0,0-.5-.1h0c.1-.4-1-.2-1.7-.1h-.4a1,1,0,0,0-.1-.3c-.5-.2-2.3.7-2.7.5-.1,0-.1-1-.4-.4.1.9-.6.3-1.3.7a4.33,4.33,0,0,1,.1.5c.1,0,.3-.1.4-.1-.1.1-.3.1-.4.2v-.1l-.1.1-.1.1c-.4.1-.8-.5-.8-.5s-.5.7-.5.7c-.2.8-.8,0-1.2.6,0,.1.1.4.1.5-.2.2-.7,0-.8.1s.1.4.1.5c-.2.2-.7-.1-.9.2s.4.9-.2.6c-.1-.1-.1-.2-.2-.3a2.35,2.35,0,0,0,.2-.8l.1-.1v-.2c.1-.2.1-.5.2-.7a.35.35,0,0,0,.2-.1,1.18,1.18,0,0,0-.1-.8,3.79,3.79,0,0,0,0-1.5v-.2l.1-.1a4.44,4.44,0,0,0-.2-1.3h-.2l-.3-.6a2.22,2.22,0,0,0-.1-.9c0-.1-.4.1-.5.1h0c-.1-.2.1-.6-.1-.9s-.6.4-.4-.3c.3-.4.7,0,.8-.4v-.2c.6-.2,1.3-.5,2.1-.7s1.9-.3,1.8-.3v-.2c.7-.2,1.4-.4,1.9-.5a8.11,8.11,0,0,0,1.1-.3,20.15,20.15,0,0,1,2.3-.1c0,.3-.7.5-.2.8.3-.2.6-1.2,1.1-.8s-.8,1.1-.7,1.6c.8,0,.5-1,.9-1.1.2,0,.7.6.7.7s-.7.9-.7.8c-.1.3.2.6.1.8a1.42,1.42,0,0,0-.4.2,1.22,1.22,0,0,0,.2.9A.37.37,0,0,0,50,25c-.4-.8.2-1,.2-1.2s-.1-.7-.1-.8.3,0,.4-.1-.2-.9.2-.5c-.1.9.1,1.4.9,1Zm-4,7.1a4.33,4.33,0,0,1,.1.5C47.15,31.9,47,29.6,47.65,30.5Zm.2-1.5h0a10.38,10.38,0,0,1,.4,1.3c-.1,0-.2.1-.2,0A2.18,2.18,0,0,1,47.85,29Zm4.7,1c.2.1.3.2.5.3a.1.1,0,0,1,.1.1,16.35,16.35,0,0,0-2.2.2,16,16,0,0,0-2.1.5c-.2-.6-.4-1.4-.5-1.8,2.6-.2,3.2.2,4.2.7l.1-.2h0Zm1.2-.1c.1-.1.4,0,.4,0C54.35,30.6,53.45,30.4,53.75,29.9Zm-1.4-5.6c-.1,0-.2.1-.2,0a.6.6,0,0,1-.1-.4A1.38,1.38,0,0,0,52.35,24.3Zm.6.9c-.1,0-.2.1-.3.1v-.5A1.38,1.38,0,0,1,52.95,25.2Zm.3.4h-.1v-.2A.31.31,0,0,0,53.25,25.6Zm.7,1.4c-.1,0-.2.1-.2,0a2.49,2.49,0,0,1-.1-.8C53.75,26.5,53.85,26.7,53.95,27Zm.6,1.8c-.4,0-.3-.5-.3-1C54.35,28.1,54.45,28.4,54.55,28.8Zm1.3-7.9h0Zm.9-2.2a1.08,1.08,0,0,1,.8-.2,2.51,2.51,0,0,1-.7.4A.31.31,0,0,1,56.75,18.7Zm.3-1c.1-.1.4,0,.4,0C57.65,18.3,56.75,18.1,57,17.7Zm-1.1.8s.5-.7.6-.7c.5.1-.6,1.1-.5,1.3v.1h-.6c0-.1,0-.1.1-.2C55.85,18.6,55.85,19.1,55.95,18.5Zm.2-1.6c.3.6-.7.4-.4,0C55.75,16.7,56,16.9,56.15,16.9Zm.3-.7c-.3.4-.3.2-.4,0,.1-.1.1-.2.2-.3S56.45,15.8,56.45,16.2Zm.2-.9a.19.19,0,0,1,0-.3c0-.1.1-.1.1-.2s.3-.2.3-.4l.2-.2A.87.87,0,0,1,56.65,15.3Zm.9.3a2.47,2.47,0,0,1-1,1.6A2.47,2.47,0,0,1,57.55,15.6Zm.6-1.2a17.72,17.72,0,0,0,.1,2.4l.3,1.5h-.1a.37.37,0,0,1,.1.3c0-.1-.1-.2-.1-.3h0a3.08,3.08,0,0,1-.1-.9c-.2-.3-.9.2-.5-.4-.3-.4.3.1.5-.2s-.5-1.3-.3-2.2C57.95,14.7,58,14.6,58.15,14.4Zm.8,5.5a.35.35,0,0,1-.1-.2c0-.1-.1-.3-.1-.4h.1A1.27,1.27,0,0,0,58.95,19.9Zm3.7.7h-.2C62.55,20.5,62.55,20.6,62.65,20.6Zm2.4.9Zm.7.5h-.2c-.1,0-.1-.1-.1-.2S65.65,21.9,65.75,22Zm.9.7h-.2a.37.37,0,0,1-.1-.3C66.45,22.6,66.55,22.6,66.65,22.7Zm.3.4Zm1.3,3.2h0c-.3-.1-.9.3-.9-.1.3,0,.5-.3.7-.6A1.85,1.85,0,0,0,68.25,26.3Zm-1.7,1.6c0-.1.1-.1.1-.2.3-.4.9-.1,1.2-.3.1-.1-.1-.5-.1-.6s.3-.2.4-.3a15.52,15.52,0,0,1,.4,2.1,14.93,14.93,0,0,1,.1,1.9c0-.1-.1-.1-.1-.2-.1-1.2-.1-3.1-1.1-2.3-.1.6.6,0,.5.6-.3.3-.5.3-.5.3l-.1-.1c-.1-.2-.1-.6-.3-.8,0-.2-.2-.1-.5-.1C66.65,28,66.55,28,66.55,27.9ZM64,26.8c-.2-.4.4-.2.5-.3s.1-.8.3-1c.3-.4.3.2.4-.3s-.3,0-.5-.4.6-.3.3-.9c-.2,0-.7.7-.7.7,0,.6.3.1.5.7-.4-.2-.2.4-.3.6s-.4,0-.5.1.1.4.1.5c-.4.2-1.1.2-1.2,0s1.2-1.2.8-1.9c-.2-.5-.3.7-.2.6-.1.1-.3,0-.4.2-.1.6-.1.1-.3.4-.1.1.1.4.1.5s-.3,0-.4.1c-.4.5.5.2-.1.5-.2.1-.5-.7-.7-.3a4.33,4.33,0,0,1,.1.5c-.4.1-1.5-.1-1.9.3a4.33,4.33,0,0,1,.1.5c-.5.2-1.3,0-1.7.3a4.33,4.33,0,0,1,.1.5c-.3.2-1-.1-1.3.2-.1,0,.1.5.1.6-.4.2-.9-.1-1.2.2,0,.1.1.4.1.5a2.81,2.81,0,0,0-.8.1c-.3.4.3.3-.1.5,0,0-.3.3-.3-.3.5,0,.4-.3.3-.7l.2-.3c.2-.3.3-.5.5-.8.1-.1.2-.1.1-.3a.35.35,0,0,1,.1-.2,3.55,3.55,0,0,0,.4-.9l.4-.2c.1-.2-.1-.4-.1-.6s.1-.2.1-.3a1.42,1.42,0,0,1,.4-.2,11.94,11.94,0,0,0-.4-3.3h-.3c-.1-.2-.2-.3-.3-.5v-.4H56l-.2-.2v-.1a8.4,8.4,0,0,0,3-.8h0a.37.37,0,0,0,.3-.1h.3v.1h.4a2.49,2.49,0,0,1,.8-.1c.1,0,.2,0,.2.1s.2.4.2.4c.5,0,1.1-.4,1.6-.3.1,0,.1.4.2.4.4,0,.7-.2,1.1-.2a.35.35,0,0,1,.2.1c.2.4-.4.3-.4.6.2.8.5-.1.9-.4.2.1.3.1.5.2.1.3-.1.9.1,1.3-.6.4-.3-.7-.8-.3-.1.6.4.2.5.6a2.35,2.35,0,0,1-.8,1c.3.9.4,0,.5-.2s.2.1.3-.4c.1-.3.2-.1.3-.5,0,.1.5-.7.4-.7.4-.1.2.2.6.4.2.1.3.6.7.6-.1.3-.8.4-.3,1.2-.2-.3,1.1.5.7.5.7,0-.1-.7-.2-1,.2-.4.4.4.6.4a.35.35,0,0,0,.1-.2,4.88,4.88,0,0,1,.3.7c-.3.2-.5,1.4-.5,1.5-.2,0-.4-.8-.7-.2.2.5.9.4,1,1-.6.7-1.4-.1-1.7.1,0,.3.8.5.4.8-.1,0-.1-.1-.2-.1-.1-.4-.3-.3-.6-.2-.1,0-.2-.1-.4-.1a.6.6,0,0,0-.1-.4C64.55,26.7,64.15,27.4,64,26.8Zm-8.6,3.8c-.1-.3.1-.2.3-.2-.1.1-.1.2-.3.2Zm.1.4Zm.4.6a.35.35,0,0,0,.1.2h-.1C56,31.8,55.95,31.7,55.95,31.6Zm3.7-2.9a15.19,15.19,0,0,0,.6,2c-1.3.3-2.6.6-3.8.9a5.74,5.74,0,0,0-.4-.7A12.85,12.85,0,0,1,59.65,28.7Zm-1.1,0v-.2a.85.85,0,0,1,.9-.2A3.55,3.55,0,0,0,58.55,28.7Zm-1.2.6h0c.1-.1.1-.1.2-.1A.35.35,0,0,1,57.35,29.3Zm-1.1.8v-.2c.1,0,.2-.1.3-.1Zm4-2.3-.2.1v.4a18,18,0,0,0,.5,1.9h-.2c-.1-.3-.2-.8-.3-1.1a8.47,8.47,0,0,1-.1-1.3,15.86,15.86,0,0,1,4-.7v.1a14.08,14.08,0,0,0-2,.1A15.43,15.43,0,0,0,60.25,27.8Zm5.5,2.9h-.3v-.1A.37.37,0,0,0,65.75,30.7Zm1.7.6c-.1,0-.2.1-.3.1s-.1-.1-.1-.2C67.25,31.2,67.35,31.3,67.45,31.3Zm2.5,1.6h0a.1.1,0,0,1-.1-.1A.1.1,0,0,0,69.95,32.9Zm2.6,2.9c-.1,0-.2.1-.2,0a1.42,1.42,0,0,1-.2-.6A2.09,2.09,0,0,0,72.55,35.8Zm.5.8c-.1,0-.2.1-.3,0v-.4A.54.54,0,0,1,73,36.6Zm6.1,2.8c-.1,0-.1,0-.1-.1h0C79.15,39.3,79.15,39.3,79.15,39.4Zm2.6-3.9a.76.76,0,0,1-.2.5C81.45,35.8,81.35,35.6,81.75,35.5Zm-.9,1.2a.37.37,0,0,1,.3-.1l-.3.3A.14.14,0,0,1,80.85,36.7Zm-.5.6h.2l-.2.2Zm-.7.6a.37.37,0,0,1,.3-.1l-.3.3Zm-.3.5Zm.3,1.5h-.1v-.2A.35.35,0,0,1,79.65,39.9Zm.6.8c-.1,0-.2.1-.2,0s-.1-.3-.1-.6Zm.6,1.2c-.2,0-.5.2-.6.2-.2-.4.2-.5.3-.8Zm.3,4.1a.35.35,0,0,1,.2-.1,4.87,4.87,0,0,1-.1,1.2C81.25,46.8,81.15,46.2,81.15,46Zm-.2,1.4c0-.1.2-.1.3-.2,0,.2-.1.5-.1.7a.37.37,0,0,1-.1.3C81,47.9,80.95,47.6,80.95,47.4Zm-.2,1.7h0V49C80.85,49,80.85,49,80.75,49.1Zm-1.2,1.8-.2.2c-.1-.2-.5,0-.5-.4h0C79.15,50.4,79.35,50.8,79.55,50.9ZM76.85,48h.1c0,.1-.1.1-.1.2Zm-.3.7c0-.1.1-.1.2-.1s-.1.2-.1.3A.31.31,0,0,1,76.55,48.7Zm-.3.6c0-.1.1-.1.2-.1s-.1.2-.1.4A.77.77,0,0,1,76.25,49.3Zm-.3,1.1h0c0-.1,0-.1.1-.1Zm-.3.3c.1-.2.2-.1.2-.1s-.1.3-.2.4Zm-.3.5c0-.1.1,0,.2,0-.1.1-.1.2-.2.3C75.35,51.4,75.25,51.3,75.35,51.2Zm-.4.7a.37.37,0,0,1,.3-.1c-.1.1-.2.3-.3.4C74.95,52,74.85,51.9,74.95,51.9Zm-.3.6a.1.1,0,0,1,.1-.1A.1.1,0,0,0,74.65,52.5Zm-.2-1.1a1.16,1.16,0,0,0-.2-1h0c-.1-.1-.1-.2-.2-.3l.1-.2v-.1a.22.22,0,0,0,.2.2c.4-.1.1-.5,0-.9a.9.9,0,0,1,.1-.5,1.42,1.42,0,0,1,.4-.2,10.4,10.4,0,0,0-.5-2.9v-.3l-.1.1a6.6,6.6,0,0,1-.1-1.4c0-.2.3,0,.4-.2s-.1-.4-.1-.5.7-.3.3-.6c-.7.1-.5,1.4-1,1.2-.2-.1-.2-.9-.2-1s-.3.1-.4.1,0-.4-.1-.5a2.27,2.27,0,0,0-.4.1c-.1-.2,0-.7-.1-.9s-.3.1-.4.1,0-.4-.1-.5-.3.1-.4.1,0-.5-.1-.6-1.4.4-1-.8c0-.1.7,0,.9-.2a4.33,4.33,0,0,1-.1-.5c.4-.4,1.6-.1,2.4-.4-.1,0,0-.3.2-.5h.4l.2.4a11.63,11.63,0,0,0,1.8-.4h.2c.3.3-.9,1-.6,1.5.7,0,.5-1.6,1.3-1.2.2.1.2.5.2.8s-.3,0-.4.2.1.4.1.5c-.2.4-.9.8-.6,1.2s.1-.3.3-.5.2.2.3-.4c0-.2.3,0,.4-.2s-.1-.3-.1-.5.4-.5.4-.6h-.1c.1-.1.1,0,.1,0,.3,0,1,.4.9.8,0-.1-.8.1-.9.3-.2.8.5,1,1.1,1.2.1-.7-.6-.1-.5-.7,1-1,.8.7,1,1.6,0,0,.6-.2.4.4l-.4.2c.1.8.9,1.4.6,1.7s-.7-.1-.8.1a1.81,1.81,0,0,0,.4,1.4c.4,0,0-.7.1-1.1.7-.3.6,1.2.2,1.1-.1.6.6,0,.5.7-.6.4-.3-.7-.8-.3-.1.7.6.1.5.7-.4.6-.3-.6-.8-.2.1.8.9.4,1,1.3-.7.4-.2-.4-.6-.5s-.3.5-.2.6.6,0,.5.7c-.1.4-.7.5-.8.7-.3.4.2.7-.2.5-.2-.1-.2-.4-.2-.7a1.27,1.27,0,0,0,.1-.6,1.55,1.55,0,0,0,.6-.3c.2-.6-.4-.1-.5-.3v-.8a.91.91,0,0,0-.3-.7v-.4c.1-.3.8-.4.3-1.1-.6-.1-.4.5-.4,1-.3.5-.3-.3-.5-.4,0,0-.5.2-.7.1s0-.5-.3-.4c-.5.1,0,.2-.2.5-.1.1-.4,0-.4.1s.1.4.1.5c-.2.1-.7-.1-.9.2-.1.1.1.6.1.8-.1.4-.7.6-.7.7-.1.3.2.7.1.9s-.2,0-.4.2.1.4.1.5-.3,0-.4.1.1.4.1.5-.4,0-.5.1.1.4.1.5c.5.1.2,0,.2.1s.2.6-.3.5C73.65,51.5,74.45,51.6,74.45,51.4Zm-.7-5.5c-.1.1-.1.2-.2.2s-.4-.2-.2-.4.4,0,.4,0Zm0,7h.4c-.1.1-.3.1-.4.2v-.2a.22.22,0,0,0-.2.2C73.65,52.9,73.75,52.9,73.75,52.9Zm-.1-2.2c0-.1,0-.2.1-.2S73.65,50.6,73.65,50.7ZM72.25,49c-.2,0-.3.1-.5.1.8-1,1.5-2,2.3-2.9a8.39,8.39,0,0,1-.1,3.2A2.09,2.09,0,0,0,72.25,49Zm-.2-.9a.1.1,0,0,1-.1-.1c-.3-.3.3-.8.4-.4v.1A1.38,1.38,0,0,0,72,48.1Zm.8,3.1a.6.6,0,0,1,.4-.1l-.4.4Zm-.2-1.4c.1-.1.4,0,.4,0C73.35,50.5,72.35,50.3,72.65,49.8Zm-.2,2h.2l-.2.2Zm-.6-.9c.1-.1.4,0,.4,0C72.55,51.6,71.65,51.4,71.85,50.9Zm-.5-.8c.1-.1.4,0,.4,0C72,50.7,71.15,50.5,71.35,50.1Zm-.1,2c.3-.4.4.1.6.3l-.2.2C71.55,52.4,71.25,52.5,71.25,52.1Zm-.1-1.1c.1-.1.4,0,.4,0C71.85,51.7,70.85,51.5,71.15,51Zm-2.7-3.8a2.2,2.2,0,0,0-.8.1l-1.3.3v-.2a4.87,4.87,0,0,1,2.1-.2Zm1.8.7c-1.2,1.2-2.2,2.6-3.5,3.7a2.46,2.46,0,0,0-1.7-.5c-.2,0-.3.1-.5.2a10.11,10.11,0,0,1-.3-1.7v-.3a7.94,7.94,0,0,1,3.5-1.5A4.19,4.19,0,0,1,70.25,47.9ZM63.85,49v.2a.75.75,0,0,0,.1.5,17.66,17.66,0,0,0,.4,2v.1a.1.1,0,0,1-.1.1,6.18,6.18,0,0,0-.4-1.6v-.4a.6.6,0,0,0-.1-.4v-.1c-.1-.2,0-.3.1-.4-.1,0,0-.1,0,0Zm.8,3.8c.3.6-.7.4-.4,0C64.35,52.6,64.65,52.7,64.65,52.8Zm.5.7c-.1.8.4.4.6.5s0,.4.2.4.6-.7.6-.7-.1-.4-.1-.5.3,0,.4-.2c.1-.6.1-.1.3-.4s-.2-.7.3-.5c.3.6-.3.3-.3.6-.1.5-.2.2-.3.5,0,.1.1.4.1.5s-.3,0-.4.2c-.1.5-.3.2-.3.5-.1.6-.1.1-.3.4,0,.1.1.4.1.5-.3.3-.4-.2-.5.2,0,.2,0,.7.2.8.5.3.3-.5.3-.5.1-.2.3,0,.4-.2.1-.5.3-.2.3-.5.1-.6.1-.1.3-.4s-.2-.7.3-.5c.3.6-.3.3-.3.6-.1.6-.1.1-.3.4-.1.1.1.4.1.5s-.3,0-.4.1.1.4.1.5-.3,0-.4.2a4.33,4.33,0,0,1,.1.5c-.7.3-.3-.3-.6-.5a2.27,2.27,0,0,0-.4.1c-.1-.3.1-.7-.2-.9-.5-.2,0,.6-.4.5s-.4-.6-1-.3a.9.9,0,0,0-.1-.5q.75-.3.9.3a.37.37,0,0,0,.3-.1c0-.2-.2-.6.1-.5.3-.1.3.8.6.4,0-.1-.1-.4-.1-.5s.5,0,.5-.2-.9-.8-1-.6c-.2.4.1.6-.7.6a.9.9,0,0,0-.1-.5C65,54.5,64.55,53.6,65.15,53.5Zm-1.7-3.6a7.14,7.14,0,0,1-.2,2,9.5,9.5,0,0,0-1.7,1A7.32,7.32,0,0,1,63.45,49.9Zm-.3-.3c0-.1,0-.2.2-.1A.35.35,0,0,0,63.15,49.6ZM61.95,51c.1-.2.1-.3.2-.3S62,50.9,61.95,51Zm-.3.6a1,1,0,0,0-.1-.3.37.37,0,0,1,.3-.1C61.75,51.3,61.75,51.4,61.65,51.6Zm-1.7,3.5a5.77,5.77,0,0,1,.8,2.3,5,5,0,0,1-1.5,4.2,7.8,7.8,0,0,1-4.5,2.3,4.33,4.33,0,0,0-.5.1,9,9,0,0,1-.4-1.9c-.1-.6-.1-1.2-.2-1.8C55.65,58.5,58.15,57.3,59.95,55.1Zm-.7.1v-.1c.1,0,.1-.1.2-.1C59.35,55.1,59.35,55.2,59.25,55.2Zm-.7.7v-.2h.2C58.65,55.8,58.65,55.9,58.55,55.9Zm-.5.4h0a.1.1,0,0,1,.1-.1C58.15,56.3,58.15,56.3,58,56.3Zm-.7.6h0l.1-.1A.1.1,0,0,1,57.35,56.9Zm-1.1.8v-.2h.3C56.55,57.6,56.35,57.6,56.25,57.7Zm-.8.6v-.2h.2A.22.22,0,0,1,55.45,58.3Zm-1.1.8v-.2c.1-.1.2-.1.4-.1A1.38,1.38,0,0,1,54.35,59.1Zm-.1,8.6a.9.9,0,0,0,.1.5c-.7-.1-.9.3-.7,1-.8.2-.4-1-.2-1.1-.7-.2-.4-1.1.2-1.3C53.55,67.3,53.15,68,54.25,67.7Zm1,.7c-.1.1-.4,0-.5.1s.2.7-.3.5c-.2-.6.2-.4.3-.6.1-.4-.2-.7-.1-.8s.8-.2.9-.2c.3.3-.1.3-.3.6S55.35,68.4,55.25,68.4Zm1.5-.9c0,.3-.6.7-.7.8s.2.7-.3.5c-.3-.6.3-.3.3-.6s.5-.4.3-.9l-.4.1c0-.7.2-.4.3-.8.1-.6.1-.1.3-.4,0-.1-.1-.4-.1-.5.2-.2.5.1.9-.2a4.33,4.33,0,0,1-.1-.5c0-.1.3,0,.4-.1s-.1-.4-.1-.5.3,0,.4-.2-.2-.6-.1-.9a.6.6,0,0,0,.4-.1c0,.3.2.7.1,1,0,.1-.4,0-.4.1s.1.4.1.5-.3,0-.4.2c-.1.6-.1.1-.3.4,0,.1.1.4.1.5-.2.3-.8.1-.9.2a4.33,4.33,0,0,1,.1.5c-.1.2-.3,0-.4.2C56.15,67.3,56.75,67.2,56.75,67.5Zm.4-3.8c.1,0,.1-.1.2-.1h.1c.3.7-.2.5-.3.8-.1.6-.1.1-.4.4-.4.5.7.4-.1.5-.2,0-.6-.4-.7-.8.5-.3.3.3.5.4.4.2.2-.5.2-.5s.4,0,.5-.1S57.15,63.8,57.15,63.7ZM56,65.4c.3.3-.2.4-.3.6s.1.3,0,.3-.3,0-.4.1.2.7-.3.5C55.25,66.5,55.35,64.8,56,65.4Zm-.9-.8c.1-.1.4,0,.4,0C55.85,65.2,54.85,65.1,55.15,64.6Zm-.3,1c.4.5-.3.4-.4.7s.4.7-.1.8C53.85,66.8,53.85,65.2,54.85,65.6Zm-.5-.4c-.3-.3.3-.8.4-.4C54.85,65,54.65,65.5,54.35,65.2ZM59,63c.2.3.2.9-.1.9C58.35,64,58.65,62.5,59,63Zm2.2-2.4c.7.2,0-.9.7-.7-.1.8.6.2.5,1-.5.3-.3-.3-.5-.4-.5-.2-.1.9-.7.6,0-.4-.1-.5-.5-.4a3.79,3.79,0,0,1-1.3,2.1c.1-1,1-1.4,1.2-2.4,0-.1.1-.2.1-.3A.37.37,0,0,0,61,60C61.15,60.2,61,60.7,61.25,60.6Zm-1.7,2.6c.1-.3.4.2.8-.1h0c0,.2.2.4.1.6C59.95,64.1,59.45,63.8,59.55,63.2Zm3.7-5.7v.3c.3-.1.6-.1.5.4-.6.3-.4-.3-.6-.4-.7-.2-.5.4-.6.6s-.3,0-.4.2a2.62,2.62,0,0,1-.5.9h-.2c0-.7.6-.8-.2-1.1v-.2a.37.37,0,0,0,.3-.1c.2.1.1.7.5.4-.3-.6.2-.4.3-.5s-.1-.4-.1-.5c.4-.4.6.1.8-.3s-.3-.8-.1-.9C63.75,55.9,63.95,57.3,63.25,57.5Zm-.7-2c.1-.1.4,0,.4,0C63.25,56.1,62.25,55.9,62.55,55.5Zm.2,1c.3.6-.7.4-.4,0C62.35,56.3,62.65,56.5,62.75,56.5Zm.3,2.3a.9.9,0,0,1-.7,1A1,1,0,0,1,63,58.8Zm-2.2-4c.1-.1.4,0,.4,0C61.55,55.5,60.65,55.3,60.85,54.8ZM61,53c0-.1,0-.1.1-.1C61,52.9,61,52.9,61,53Zm.8,3.2c.3.6-.7.4-.4,0C61.55,56,61.85,56.1,61.85,56.2Zm.1-2c.2.4-.1.7-.3.5S61.75,53.8,61.95,54.2Zm-.7-2.3c0-.1.2-.1.3-.1-.1.1-.1.3-.2.5A.76.76,0,0,1,61.25,51.9Zm2.6.4q-.3.15-.3,0l.1-.1v-.3A.52.52,0,0,0,63.85,52.3Zm.1,1c-.2.7-.3,1.4-1.1,1.7-.3-.7.3-.3.4-.7,0-.1-.1-.4-.1-.5s.3,0,.4-.1S63.45,53.1,63.95,53.3Zm.5,3.4c.2.4-.1.7-.3.5S64.15,56.2,64.45,56.7Zm1.4,2c0-.1.4,0,.5-.1.4-.4-.5-.5.2-.5.2,0,.2.8.5.4a.9.9,0,0,1,.7-1c.2.7-.9,1-.6,1.5l.4-.1c-.1,1.1-1.1,1.2-.7,2.6.5.2,0-.6.4-.5h.2c.3.6-.3.3-.3.6-.1.5-.2.2-.3.5s.1.6-.4.5c-.3-.6.2-.6.4-.8v-.3c-.5.4-.7-.4-.6-.8,0-.1.4,0,.5-.1s-.1-.4-.1-.5.3,0,.4-.1-.1-.4-.1-.5.4,0,.4-.2c0-.4-.2-.5-.9-.8.3.9-.1.8-.3,1.1-.4.4.6.4-.2.5-.2,0-.1-.3-.3-.4-.5-.2-.9.4-.8-.4.6-.2.8-.1,1,.4a.37.37,0,0,0,.3-.1C66.15,59.4,65.75,59.1,65.85,58.7Zm-.1,4.5c-.1-.5-.1-1-.2-1.5a.6.6,0,0,0,.4-.1c.1.8.1,1.5.6,1.6v.2c-.6.5-.3-.6-.8-.2.1.3.1.6-.2.5-.3.1,0-.7-.4-.4-.4,0,.1.7-.5.6,0-.5.3-1,.6-1C65.35,62.8,65.35,63.6,65.75,63.2Zm-.9,2.1a4.33,4.33,0,0,1,.1.5C64.35,66.7,64.25,64.4,64.85,65.3Zm.1.9c.1-.1.4,0,.4,0C65.65,66.9,64.65,66.7,64.95,66.2Zm-.3-1.9c.1-.1.4,0,.4,0C65.35,65,64.35,64.8,64.65,64.3Zm.8-.1c.1-.1.4,0,.4,0C66.15,64.8,65.15,64.6,65.45,64.2Zm.6,1.4c.1-.1.4,0,.4,0C66.75,66.2,65.75,66,66,65.6Zm-.7-5.2.4-.1C66.25,60.8,64.85,61.1,65.35,60.4Zm2.4,2.4c.1-.5.2-1,.6-1.2A1,1,0,0,1,67.75,62.8Zm.7,2.4c.1-.1.4,0,.4,0C69.15,65.8,68.15,65.6,68.45,65.2Zm1.4-9.4h0c0,.2.1.3.1.4s-.2.1-.3.1,0-.5-.1-.6-.7.1-.5-.4c.6-.3.2.5.6.4h0c.2-.1.2,0,.2.1ZM69,51c.2-.7.3-1.4,1.1-1.7.3.7-.3.3-.4.7,0,.1.1.4.1.5s-.3,0-.4.1S69.55,51.2,69,51Zm.4.3c.1-.1.4,0,.4,0C70.15,52,69.15,51.8,69.45,51.3Zm1.5-1.2a.9.9,0,0,1-.7,1A1.45,1.45,0,0,1,70.95,50.1Zm-.2-.2Zm-.3,1.7c.1-.1.4,0,.4,0C71,52.3,70.15,52.1,70.45,51.6ZM69,51.5c.3.6-.7.4-.4,0C68.75,51.4,69,51.5,69,51.5Zm-.2.9c.1-.1.4,0,.4,0C69.55,53,68.55,52.8,68.85,52.4Zm.5.9a.9.9,0,0,1-.7,1A1.45,1.45,0,0,1,69.35,53.3ZM67.85,55c0-.1,0-.9-.1-.9.4-.3.7.2.6.8,0,.1-.4,0-.5.1s.2.4.1.5-.3,0-.4.2c-.1.5-.3.2-.3.5s.3.6.1.9-.3,0-.4.2c-.1.5-.3.4-.7.5a1.09,1.09,0,0,0-.1-.5c1.1.2.5-.5.6-1.2,0-.1.3,0,.4-.2.1-.6.1-.1.3-.4.1-.1-.1-.4-.1-.5C67.55,55,67.75,55.1,67.85,55Zm.5,3.4c.3.6-.7.4-.4,0C68,58.2,68.35,58.4,68.35,58.4Zm.2-1.9c.1.2-.1.7-.4.4S68.45,56.2,68.55,56.5Zm-.9-2.9c-.1-.7.4-.9.7-1.2C68.35,53,68.25,53.5,67.65,53.6Zm.3-2c.1-.1.4,0,.4,0C68.65,52.3,67.65,52.1,67.95,51.6Zm1.8,7.5c-.2-.2.1-1,.3-.5C70.25,58.9,69.95,59.3,69.75,59.1Zm-.3.5c.1-.1.4,0,.4,0C70,60.3,69.15,60.1,69.45,59.6Zm1,4.7c.2.3-.1.7-.3.5S70.25,63.9,70.45,64.3Zm-1.5-8c.1-.1.4,0,.4,0C69.65,57,68.65,56.8,68.95,56.3Zm-.5-.9c.1-.1.4,0,.4,0C69.15,56,68.15,55.8,68.45,55.4Zm-.2,2.4c-.3-.3.3-.8.4-.4C68.85,57.6,68.55,58.1,68.25,57.8ZM68,59.4c.1-.1.4,0,.4,0C68.75,60,67.75,59.9,68,59.4Zm.5.8a.9.9,0,0,1-.7,1A1.45,1.45,0,0,1,68.55,60.2Zm-.7,3.5a.9.9,0,0,1-.7,1A1.45,1.45,0,0,1,67.85,63.7Zm-.9-.7c.1-.1.4,0,.4,0C67.65,63.6,66.65,63.4,66.95,63Zm-.7-11.1v-.1c.1,0,.2.1.3.1Zm-.9-.4h.2c0,.1-.1.1-.2,0Zm.2.7c.1.2-.1.7-.4.4S65.35,51.8,65.55,52.2Zm.5.8c.3.6-.7.4-.4,0C65.65,52.8,65.95,53,66,53Zm4.4-3.8c.1-.1.4,0,.4,0s.1.2,0,.2l-.1.1C70.65,49.7,70.25,49.5,70.45,49.2Zm.5,4.1A1,1,0,0,1,71,53a.31.31,0,0,1,.2-.1A1.38,1.38,0,0,1,70.95,53.3Zm-.7.8h.1c-.1.1-.1.2-.2.3A.37.37,0,0,1,70.25,54.1Zm-.5-.4c-.2-.6.2-.4.3-.6.2-.7-.8-.2-.5-.8.5-.3.3.3.5.4s.3-.1.4-.1c.5.5-.4.7-.4.7S70.35,53.9,69.75,53.7Zm.2,1.3a9.23,9.23,0,0,1-.5-.8c.5-.3.3.4.6.4h0A.6.6,0,0,1,69.95,55Zm.2,1.4.2.2h-.1C70.15,56.5,70.15,56.5,70.15,56.4Zm.9,4c.3.6-.7.4-.4,0C70.75,60.2,71,60.3,71,60.4Zm-.1,1.9c.1-.1.4,0,.4,0C71.65,62.9,70.65,62.7,70.95,62.3Zm.2,1.3c.1-.1.4,0,.4,0C71.85,64.3,70.85,64.1,71.15,63.6Zm.6-5.9c-.2.1.1.7-.3.6-.2-.3.1-.5.2-.8h0A.35.35,0,0,1,71.75,57.7Zm.8,2.4h-.2c-.2-.3-.1-1-.2-1.5A5.42,5.42,0,0,1,72.55,60.1Zm-.1,3.2a.75.75,0,0,1,.1-.5C72.55,63,72.45,63.1,72.45,63.3Zm-.2-1c.7-.1-.1-1.4.4-1.8a6.69,6.69,0,0,1,0,2v.1C72.45,62.5,72.25,62.6,72.25,62.3ZM72,64a.35.35,0,0,1,.2-.1,4.33,4.33,0,0,0-.1.5C72,64.3,72,64.2,72,64Zm-.6-4.7c.1-.1.4,0,.4,0C72.15,59.9,71.15,59.7,71.45,59.3Zm-.6-2.4h-.2c-.1,0-.1-.1-.1-.2C70.75,56.8,70.75,56.9,70.85,56.9Zm-.1,9.7c.2-.3.2.1.3-.4,0-.1.6-.5.2-1.1a4.33,4.33,0,0,0,.5-.1,9.3,9.3,0,0,1-1.1,1.9A.37.37,0,0,0,70.75,66.6Zm-.3.6c0-.1.1-.1.2-.1-.1.1-.1.2-.2.3Zm-.2-1.4c.1-.1.4,0,.4,0C70.95,66.4,69.95,66.2,70.25,65.8Zm-1-4.7c.1-.1.4,0,.4,0C69.85,61.7,68.95,61.5,69.25,61.1Zm.9,6.7Zm-1.2-4.7c-.3-.3.3-.8.4-.4C69.55,62.9,69.25,63.3,68.95,63.1Zm-.3.5c.1-.1.4,0,.4,0C69.35,64.2,68.35,64.1,68.65,63.6Zm.7,4.8c0-.1.2-.1.3-.1l-.3.3C69.35,68.5,69.25,68.4,69.35,68.4Zm-.7-1.9c.1-.1.4,0,.4,0C69.35,67.2,68.35,67,68.65,66.5Zm-.1,2.5c0-.1.2-.1.4-.1-.1.1-.2.2-.3.2Zm.2-1.5c.2.4-.1.7-.3.5S68.55,67.1,68.75,67.5Zm-.9-1.3c.1-.1.4,0,.4,0C68.45,66.8,67.55,66.7,67.85,66.2Zm-.1,2.5c.1-.1.4,0,.4,0C68.45,69.3,67.45,69.1,67.75,68.7Zm-.4,1a.75.75,0,0,1,.5-.1c-.2.1-.3.2-.5.3ZM66.25,64c.1-.1.4,0,.4,0C66.95,64.7,65.95,64.5,66.25,64Zm0,2.9c.1-.1.4,0,.4,0C66.95,67.6,65.95,67.4,66.25,66.9ZM66,69c.1-.1.4,0,.4,0C66.75,69.6,65.85,69.4,66,69Zm-.8-3.3c-.2-.2.1-1,.3-.5C65.75,65.5,65.55,65.9,65.25,65.7Zm-.1,1.9c.1-.1.4,0,.4,0C65.85,68.3,64.85,68.1,65.15,67.6Zm-.2,2.5a2.92,2.92,0,0,0,.9.2,1.88,1.88,0,0,1-.8.2A.76.76,0,0,0,64.95,70.1Zm-1.1-2.3c.1-.1.4,0,.4,0C64.55,68.5,63.55,68.3,63.85,67.8Zm-.2-1.8c-.2-.2.1-1,.3-.5C64.15,65.8,63.85,66.2,63.65,66Zm0,.5c.1-.1.4,0,.4,0C64.35,67.1,63.35,66.9,63.65,66.5Zm-.8-2.8c0-.1.7-.1.8-.3s-.3-.9-.2-1.4c0-.1.4,0,.4-.1s-.1-.4-.1-.5c.2-.2.7.1.4-.4-.1-.3-.6.2-.5-.3.2-.9.5.4.9.1.1-.8-.3-.7-.5-.8s.3-.5-.2-.6-.2.4-.3.6-.3,0-.4.2c-.1.4.2.8.2,1.3a1.42,1.42,0,0,0-.4.2c-.1.5.4,1.2,0,1.4-.5,0-.1-1.3-.5-1.4-.5.2-.1.5-.5.6,0,0-.5-.6-.7-.6.1-.7.5.1.7.1.4.1-.1-.7.4-.5.2.1.1.7.5.4.1-.3-.3-.9-.2-1.4,0-.1.3-.1.4-.2s-.1-.4-.1-.5.3,0,.4-.2-.3-.7-.1-.8c.4-.4,1.2.2,1.6-.4.1-.8-.9.2-.9-.4.3-.4,1.1-.4.6-1.4.5-.1.6.5.9.8,0,.3-.7,0-.7.4v.3c.3.1.8-.4.8.1.3.5-.6.2-.7.4a4.33,4.33,0,0,1,.1.5c-.4.2-1-.1-1.2.3-.2.6.2,0,.4.3.1.1,0,.5.1.6s.3-.1.4-.1c.2.3,0,.7.1.9s.7-.2.5.4c-.6.4-.2-.5-.7-.3a3,3,0,0,0-.4,1c.2.2.7-.5.8.1-.3.9-.8-.2-1.3,0,.1.8.3,1.5-.2,1.8,0,.4.6-.1.5.6-.6.4-.3-.7-.8-.3,0,.3.3.9-.1.9A4.14,4.14,0,0,1,62.85,63.7Zm-.7,4c0-.6.4-.8.8-1.1C62.85,67.1,62.65,67.6,62.15,67.7Zm.9-.2c.1-.1.4,0,.4,0C63.75,68.2,62.75,68,63,67.5Zm.1-1.9c.2.4-.1.7-.3.5S62.95,65.2,63.15,65.6Zm-.9-.9c.1-.1.4,0,.4,0C62.95,65.4,61.95,65.2,62.25,64.7ZM63,71c0-.2.3,0,.4-.2s-.2-.6.3-.5c.3.6-.3.4-.3.7-.1,0-.3.1-.4.1Zm.1-2.5c.2.4-.1.7-.3.5S62.95,68.1,63.15,68.5Zm-.9.2c.2.4-.1.7-.3.5S62,68.3,62.25,68.7ZM60.85,67c-.4-.3.2-.4.3-.6s-.1-.4-.1-.5.3,0,.4-.2c.1-.4-.3-.9-.2-1.2,0-.1.3,0,.4-.1s-.1-.4-.1-.5c.2-.2.4.1.5-.2.1-.9-.3-.6-.6-.8-.1-.1,0-.4-.2-.4a1.45,1.45,0,0,0-.7.2c.2.2,1.1,1.2.2,1.4-.1-.3,0-.9-.2-1s-.3-.1-.3,0c0-.1-.1-.3-.1-.4s.3,0,.4-.1-.1-.4-.1-.5c.6-.5.8.2.9.3.5.2.2-.2.4.3.1.2.4,0,.4,0a3.2,3.2,0,0,1,.2,1.5c-.1.3-.6-.3-.9.2-.2.2,0,.2.1.7.2,1.1.5.2.7,1.2-.7.5-.3-.8-1-.4A.74.74,0,0,1,60.85,67Zm.1.4c.1-.1.4,0,.4,0C61.55,68.1,60.65,67.9,60.95,67.4Zm-.3,3.9a.9.9,0,0,1,.7-1A1.26,1.26,0,0,1,60.65,71.3ZM60,67.1c.1-.1.4,0,.4,0C60.75,67.7,59.75,67.6,60,67.1Zm.5.9a1,1,0,0,1-.8,1.1A1.61,1.61,0,0,1,60.55,68Zm-1,1.7c.1-.1.4,0,.4,0C60.25,70.3,59.25,70.1,59.55,69.7Zm-.2,2c.3-.8.3.2.4.3h0c-.1,0-.1,0-.2.1C59.55,72,59.35,71.9,59.35,71.7Zm-.2.4c.1-.1.1-.1.2-.1C59.25,72.1,59.25,72.1,59.15,72.1Zm-.8.2c.1-.1.2-.2.3-.1C58.55,72.2,58.45,72.3,58.35,72.3Zm-.1-3.3c.2.3.2.9-.1.9C57.65,70,57.85,68.4,58.25,69Zm-.6-1.6v-.3c-.4.2-.6,0-.6-.5.5-.3.5.3.7.5A.37.37,0,0,0,58,67c.1-.2-.2-.6-.1-1,0-.1.3,0,.4-.2.1-.5.3-.2.3-.5.1-.6.2-.1.3-.8s.5.2.5.3c.5.2.3-.5.3-.5.6-.1,1.2.1,1.3.6,0,.3-.3,0-.4.3s.2.7.1.8a1.42,1.42,0,0,0-.4.2c-.2.3.2.8-.2.5-.1-.9-1.1-.4-1,.1h0a.52.52,0,0,0,.4.2c-.5.4-.1,1.6-.9,1.8-.2-.6.2-.4.3-.6s-.2-.5-.1-.8.4.2.4-.3v-.3h0c0,.1-.1.6-.4.2-.1-.2.3-1.1.2-1.1.3-.2,1-.1,1,.3a.37.37,0,0,0,.3-.1c-.4-.9.3-.8.2-1.4-.6-.3-.8.6-.7.6-.5.1-.6-.4-.7-.3s-.5.7-.5.7c-.1.5-.3.2-.3.5s.2.6.1.9c-.1.1-.3,0-.4.2-.1.5-.3.2-.3.5,0,.1.2.7.1.8C57.25,68.9,56.65,67.3,57.65,67.4Zm-.5,3.1c.1-.1.4,0,.4,0C57.85,71.2,56.85,71,57.15,70.5Zm-.9-.7c-.1.4.2.6-.3.5a2.16,2.16,0,0,1,1-1.7c.3.6-.3.3-.3.6C56.45,69.7,56.35,69.4,56.25,69.8Zm-.1,2.3c.1-.1.4,0,.4,0C56.85,72.8,55.85,72.6,56.15,72.1Zm-.5-1.3c.1-.1.4,0,.4,0C56.25,71.5,55.35,71.3,55.65,70.8Zm-.7-.9c-.3-.3.3-.8.4-.4C55.55,69.7,55.25,70.1,54.95,69.9Zm-.1,2c.1-.1.4,0,.4,0C55.55,72.5,54.55,72.3,54.85,71.9Zm-.7-2.3c.1-.1.4,0,.4,0C54.85,70.2,53.85,70,54.15,69.6Zm-.3,1.1c.1-.1.4,0,.4,0C54.55,71.3,53.65,71.1,53.85,70.7Zm-.2,1.4c.1-.1.4,0,.4,0C54.35,72.7,53.35,72.5,53.65,72.1Zm-.3-2.4c.1-.1.4,0,.4,0C54,70.3,53,70.2,53.35,69.7Zm-.8,3.8c0-.4.4-.4.5-.1A1.09,1.09,0,0,1,52.55,73.5Zm-.6-2c.2-.7.3-1.4,1.1-1.7.3.7-.3.3-.4.7,0,.1.1.4.1.5s-.3,0-.4.1S52.45,71.7,51.95,71.5Zm.5-2.1c-.3-.3.3-.8.4-.4C52.95,69.2,52.75,69.7,52.45,69.4Zm-.8.1c.1-.1.4,0,.4,0C52.35,70.2,51.35,70,51.65,69.5Zm-.1,2.5c.1-.1.4,0,.4,0C52.25,72.6,51.25,72.5,51.55,72Zm-.6-2.3a1.34,1.34,0,0,1-.2-.9,2.2,2.2,0,0,1,.8-.1,4.33,4.33,0,0,1-.1-.5c.1-.1.3,0,.4-.2s-.1-.4-.1-.5.3,0,.4-.1-.1-.4-.1-.5.4,0,.5-.1-.1-.4-.1-.5.3,0,.4-.1-.1-.4-.1-.5.3,0,.4-.2-.2-.6-.1-.8.3,0,.4-.2-.1-.4-.1-.5.3,0,.4-.2v-.1a.1.1,0,0,0,.1.1h0c-.1.1.1.5.1.6s-.3,0-.4.2.2.6.1.8-.3,0-.4.2c-.1.5-.3.2-.3.5-.1.6-.1.1-.3.4,0,.1.1.4.1.5-.3.4-.5-.2-.5.2,0,.6.3.2.6.6-.4.9-.3-.3-.8-.1.1,0-.4.8-.4.7-.1.6-.1.1-.3.4C50.85,69.6,51.55,69.9,50.95,69.7Zm2.4-7.5c0,.2.1.5.1.7-.1,0-.2.1-.3.1-.3-.2-.1-.7.1-.9A.1.1,0,0,1,53.35,62.2Zm-.4-1.1a.22.22,0,0,0,.2-.2.9.9,0,0,0,.1.5C53.15,61.4,53,61.4,52.95,61.1Zm-2.1.6.4-.1c.5-.2.8-.3,1-.4.1.5.3,1.8.5,3.1a19.72,19.72,0,0,1-3.1-.4c-.1-.5-.4-1.4-1-1.6,1-2.3,1.7-5,4.4-5.4h.1a20.91,20.91,0,0,0-2.2,4.5Zm-.1-4.3c0-.1-.1-.2,0-.2a1.42,1.42,0,0,1,.6-.2C51.15,57,50.95,57.2,50.75,57.4Zm-1.4,1.4c.1-.1.2-.1.4-.1-.1.2-.2.3-.3.5A2.27,2.27,0,0,0,49.35,58.8Zm.1.4-.3.6a1.27,1.27,0,0,1-.1-.6S49.35,59.3,49.45,59.2Zm-.7,1.5a.44.44,0,0,1,.1-.3C48.85,60.5,48.75,60.6,48.75,60.7Zm-.5,5.1c.1-.1.4,0,.4,0C48.95,66.5,47.95,66.3,48.25,65.8Zm.1.9c.1-.1.4,0,.4,0C49,67.4,48,67.2,48.35,66.7Zm-.2-1.9c.1-.1.4,0,.4,0C48.75,65.4,47.85,65.3,48.15,64.8Zm.6-.9c.3.6-.7.4-.4,0C48.45,63.7,48.75,63.8,48.75,63.9Zm-.6-1.8h0c-.3-.3-.1-.2.1-.3C48.25,62,48.25,62,48.15,62.1ZM50,70.3c-.2.6-.4-.4-.5-.4-.2-.2-.6.2-.4-.4.5-.4.5.9.8.3.1-.3-.1-.7.4-.5.3.6-.3.4-.4.5S50,70.2,50,70.3Zm1.3-2.7c-.1.1-.3,0-.4.2-.1.4.2.6-.3.5-.3-.7.2-.5.3-.8.1-.6.1-.1.3-.4.1-.1-.1-.4-.1-.5s.3,0,.4-.1-.1-.4-.1-.5c.2-.3.6,0,.3-.5,0-.1-.7.1-.5-.4.5-.3.4.3.5.4.6.3.2-.9.7-.6.3.6-.3.3-.3.6-.1.6-.2.1-.4.4,0,.1.1.4.1.5a3.19,3.19,0,0,1-.7.6C51.25,67.2,51.45,67.5,51.35,67.6Zm0-2.9Zm-.6,1.2c.2.2.6-.2.4.4-.4,0-.9-.4-.9-.7-.1-1,.2.4.4-.3.1-.4-.1-.6.3-.5C51.45,65.4,50.25,65.5,50.75,65.9Zm-.4,1.4c-.6.1-.2-1.3.1-.8C50.65,66.8,50.65,67.3,50.35,67.3Zm-.6-2.7c.1.2-.1.7-.4.4S49.65,64.3,49.75,64.6Zm-.6-.5h0v0Zm.6,3.8c0-.1-.4.1-.4.1-.1-.2,0-.5-.1-.9a.6.6,0,0,0,.4-.1c-.2,1,.8.7.7,1.4,0,.1-.4,0-.5.1s.1.9-.3.5C49.45,68.2,50.15,68.4,49.75,67.9Zm-.6-1.3a1,1,0,0,1,.8-1.1A1.37,1.37,0,0,1,49.15,66.6Zm-.6-3.9.3.3c0,.1.1.1.1.2s-.2.1-.3.1A1.27,1.27,0,0,1,48.55,62.7Zm-.2-1.8c.1-.1.3,0,.3-.1a4.88,4.88,0,0,0-.3.7Zm1.5,10.9a2.26,2.26,0,0,1,1.1-1.7A2.35,2.35,0,0,1,49.85,71.8Zm1,.9c.1.2-.1.7-.4.4S50.75,72.4,50.85,72.7Zm-1.2.1c.1-.1.4,0,.4,0C50.25,73.5,49.35,73.3,49.65,72.8Zm-1.1-4.1c-.8-.2-.1-.5,0-.6s-.2-.7.3-.5c.3.5-.7.6-.3,1.1.3.1.7-.2.5.4C48.55,69.4,48.85,68.8,48.55,68.7Zm-2,.3c.1-.1.4,0,.4,0C47.25,69.7,46.35,69.5,46.55,69Zm.2-.6c-.6.1-.2-1.3.1-.8S46.95,68.4,46.75,68.4Zm-.5-2.2c.1-.1.4,0,.4,0C46.85,66.8,45.95,66.7,46.25,66.2Zm.2-1.1c.1-.1.4,0,.4,0C47.15,65.7,46.15,65.6,46.45,65.1Zm1,.9s.5.8.5.7c0,.2-.4.4-.4.3-.1.3.2.7.1.8-.5.5-1-1-.1-1v-.3c-.2,0-.6.3-.5-.1C46.95,65.9,47.35,65.9,47.45,66Zm.1,4.3c0-.6.4-.8.8-1.1C48.25,69.7,48,70.2,47.55,70.3Zm1.3-.3a.9.9,0,0,1-.7,1A1.2,1.2,0,0,1,48.85,70Zm-1-1.2c-.6.9-.6-1.4-.1-.5C47.85,68.4,47.85,68.8,47.85,68.8Zm-.6-4.3c.1-.1.4,0,.4,0C47.95,65.1,46.95,64.9,47.25,64.5Zm1.7,9.6a.26.26,0,0,1,.5-.1A.9.9,0,0,1,48.95,74.1Zm-.7-2.4c.1-.1.4,0,.4,0C48.95,72.3,47.95,72.1,48.25,71.7Zm-.9.1c.1-.1.4,0,.4,0C48,72.5,47,72.3,47.35,71.8Zm-.9-.9a.9.9,0,0,1,.7-1C47,70.4,46.85,70.8,46.45,70.9Zm-.5-.7c.3.6-.7.4-.4,0C45.65,70,45.95,70.2,45.95,70.2Zm-.5-1c-.6.9-.6-1.4-.1-.5A4.33,4.33,0,0,0,45.45,69.2Zm.2-1c.1-.1.4,0,.4,0C46.35,68.8,45.35,68.6,45.65,68.2Zm-.2-1.4c.1-.1.4,0,.4,0C46.15,67.4,45.25,67.2,45.45,66.8Zm.4,2.4c.1-.1.4,0,.4,0C46.55,69.8,45.55,69.6,45.85,69.2Zm.6,4.6a.9.9,0,0,1,.7-1C47,73.3,46.85,73.7,46.45,73.8Zm-.6-1.7c-.2-.2.1-1,.3-.5C46.35,71.9,46,72.3,45.85,72.1Zm-.3,1.9c-.3-.3.3-.8.4-.4C46.15,73.8,45.85,74.3,45.55,74Zm-1.3-6.5c.1-.1.4,0,.4,0C44.95,68.1,44,67.9,44.25,67.5Zm.2,1.4c.2.4-.1.7-.3.5S44.25,68.5,44.45,68.9Zm.8,5.7c.1-.1.2-.2.3,0Zm-.7-2.3c.1-.1.4,0,.4,0C45.25,73,44.25,72.8,44.55,72.3Zm-.2-1.5c.1-.1.4,0,.4,0C45,71.5,44,71.3,44.35,70.8Zm-1.2,3.6c0-.6.4-.8.8-1.1C43.85,73.9,43.65,74.3,43.15,74.4Zm-.8-3.2a2.36,2.36,0,0,1,1.1-1.6A2.73,2.73,0,0,1,42.35,71.2Zm-.5-3.6c0-.3.8,0,.8-.4,0-.6-.8.1-.6-.8.7-.5.3.8,1,.4.1-.8-.6-.2-.5-1,.5-.5.3.5.7.3.2-.1,0-.3,0-.5s.3,0,.4-.1-.1-.4-.1-.5c.2-.3.5.2.4-.3s-.6.1-.5-.5c1,.1.5-.8.6-1.3,0-.1.4,0,.5-.2s0-.3,0-.5h.2l.1-.2c.1-.4.2-.8.3-1.3a.6.6,0,0,0,.1-.4.9.9,0,0,1,.1-.5c.1,0,.1,0,.2-.1a1.27,1.27,0,0,0-.1-.6c0-.3.1-.5.1-.8a.35.35,0,0,0,.2-.1,3,3,0,0,0-.1-1.3V55.8a.35.35,0,0,0,.2-.1,27.28,27.28,0,0,0-.7-5.1h-.2a5,5,0,0,0-.5-1.3,2,2,0,0,1,0-1.1c0-.2.9-.2.2-.5-.5-.1,0,.7-.5.6s0-1-.3-1.3c0-.1-.4.1-.4.1-.1-.3,0-.8-.1-.9a2.27,2.27,0,0,0-.4.1c-.2-.3,0-.8-.1-1,.1.1-.8-.4-.5-.4-.5,0-.2.6-.7.6.2-.5.6-2.4-.5-1.8a.1.1,0,0,0-.1-.1c0-.3-.1-.6-.1-.8-.6.4-.8-.3-.9-.3-.4-.1-.2-.3-.5-.4a.9.9,0,0,0-.5.1.37.37,0,0,0-.3-.1c0-.1,0-.2-.1-.2-.4-.1-.2-.3-.5-.4s-.6.3-1.1.2l-.2-.6c-.9-.4-3.2,1.2-3.9.5v-.3c.2-.2.4.1.7-.1a4.33,4.33,0,0,1-.1-.5c0-.1.3,0,.4-.1s-.1-.3-.1-.4l.1-.1h.4a.37.37,0,0,0-.1-.3l.2-.2h.5c-.1,0,.4-.7.4-.7v-.2c.1-.1.2-.2.3-.2a.76.76,0,0,0,.5-.2v-.2c.1-.1.3-.2.4-.3a1.72,1.72,0,0,0,.8-.1s0-.3-.1-.4c.1,0,.1-.1.2-.1.3-.1.9,0,1-.2a4.33,4.33,0,0,1-.1-.5c.4-.2,1,0,1.3-.2a4.33,4.33,0,0,1-.1-.5c.1-.1,1,0,1.2-.2a2.27,2.27,0,0,1-.1-.4c.1,0,.2-.1.3-.1.6-.1,1.2,0,1.4-.2,0,0,0-.3-.1-.4a10.38,10.38,0,0,1,1-.4,1.35,1.35,0,0,1,1.4.4h.2c.1-.8-.5-.3-.5-.8h0c.1,0,.1-.1.2-.1.4-.1,1.5-.3,1.5-.6.1,0,.2-.1.3-.1a1.24,1.24,0,0,0,.2.3c.2.1.7-.9.8-1.1,0,.1,1,.6,1.4.2.2-.2-.4-.4.1-.5s.1.7.5.4c-.1-.8,1.4-.8,1.6-.3.4.1-.1-.7.4-.5.3,0,0,.9.3.9a.37.37,0,0,0,.3-.1c0-.3-.3-.9.1-.9.4-.2.1.7.5.4.1-.3,0-.7.5-.6-.1,1.1.5,1.2.7,1.9-.8.5-.9-.2-1.1-.9,0,0-.3,0-.3.1-.4,1.6,1.7,1.5,2.6.9v-.3c-.7.5-.6-.3-.9-.4l-.4.1c-.2-.4-.2-1.1.2-1,0,.9.8,1.2,1,.6.1-.2-.2-.7-.1-.8s.8-.2.9.1a1.52,1.52,0,0,0-.4.8c-.1.1-.3,0-.4.2-.2.7,2.6.3,2.9-.2a.77.77,0,0,0,.1-.3.37.37,0,0,0,.3-.1,9.82,9.82,0,0,0,3-.7h.1c.1,0,.1,0,.2-.1h.3l2.1-.3a.76.76,0,0,0,.2.5c.6.2,1.6-.7,2-.1-.4.3-.2,1.3-.7,1.5v.2c.6.1.3-.3.4-.5s.3,0,.4-.2c0,0-.2-.7-.1-.8a1,1,0,0,1,1.2,0c.1.2-1.4,1.7-.9,1.8.1,0,.6-.7.6-.7.1-.6.1-.1.3-.4.4-.5-.3-.4.2-.5.1,0,.1.1.1.2.2.5.6-.1.9.1v-.1a.1.1,0,0,1,.1.1h-.1c.1,0,0,.4.1.5.4.4.3-.3.4.3,0,.2-.3.1-.4.3-.2.7.4.3.1.9,0,.1-.3,0-.4.1-.3.4.4.3-.1.5-.3.1-.8-.6-.8-.6v-.2h0c-.1.2-.4-.2-.4.3.8.3,0,.6.3,1.1.5.1,0-.7.5-.6.5,1.3-1,1.9-1.1,3.1.6-.1.5-1,.8-1.1s.2.9.6.2c-.3-.7-.5-.1-.5-.7,0-.2.7-.7.8-.8.1-.4-.4-.7.1-.8s.1.7.6.4c.1-.7-.6-.1-.5-.7.6,0,0-1.1.4-1.2.4-.3.1.3.3.5s.3-.1.4-.1,0,.4.1.5.3-.1.4-.1,0,.3.2.4.3-.1.4-.1c.2.3-.1.9.2.9s.4-.3.5-.5l.4.4h-.1c-.2,0,.1.4,0,.5-.4.5-1-.2-1.3.2-.1.1.1.9.2,1,.5.3.3-.5.3-.5a.6.6,0,0,1,.9.3,1.74,1.74,0,0,0,.7.3,3.08,3.08,0,0,0,.1.9l.4-.1s.4,1-.2,1.1c-.3,0,0-1-.3-1a.37.37,0,0,0-.3.1,1.24,1.24,0,0,1-.5,1.6c-.3-.2-.1-.7-.2-1,0-.1-.3.1-.4.1s0-.4-.2-.4-.5.2-.8.1c0,0-.1-.4-.2-.4-.3-.2-.9,0-.6.6.3,0,.8-.4.8.1-.6.2-1,.9-.4,1.8.6.1,0-.4.2-1,0-.1.3,0,.4-.2s-.1-.4-.1-.5c1.1-1,1.4,1.5.1,1,.4.9-.2,1-.6,1.2.3.2.3.6.5.7s.3-.1.4-.1c.1.2,0,.4.2.6s.6-.2.8-.1,0,.4.1.5.3-.1.4-.1c.2.3,0,.7.1.9s.3-.1.4-.1,0,.4.2.4.5-.4.7.1c-.6.6-.1.7.2,1.3-.5.4-.5-.8-.8-.2-.1.6.6,0,.5.7-.5.1-.7-.8-1.2-.1-.1.6.6,0,.5.7-.5.3-.5-.8-.9-.2-.1.7.6,0,.6.5-.2.9-.5-.4-.9-.1.4.7-.2.9-.2,1.1s.1.4.1.5c-.7.5-.7-.3-.9-.4a2.27,2.27,0,0,0-.4.1c-.2-.4.1-.9-.2-.9-.8,0,0,.6-.5,1-.4-.3-1-1.3-1.2-.2-.4.2-.1-.7-.5-.4.2.6-1.1.9-1.3.5s.6-.1.3-.8c-.6.1-.5,1-.8,1.1s-.2-.9-.6-.2c-.1.6.6,0,.5.6-.6.7-1.4-.1-1.7.1,0,.3,1,.6.2.9-.3.1,0-.8-.4-.5-.4-.1.2.8-.4.7-.2-.1-.1-.8-.6-.5-.1.9.4.2.5.7,0,.1-.5.8-.4.8a.1.1,0,0,0,.1-.1l-.1.1c-.3.1-.6,0-.8.1a4.33,4.33,0,0,1,.1.5c-.1.2-.3,0-.4.2-.1.6-.1.1-.3.4-.1.1.1.4.1.5s-.3,0-.4.2.2.7.1.9-.3,0-.4.1.1.4.1.5c-.2.2-.8.1-.9.2s.2.5.1.9c0,.1-.3,0-.4.2-.2.8-.6.1-1.1.5-.1.1.1.5.1.6s-.4,0-.5.1.1.4.1.5-.7,0-.8.1.1.4.1.5c-.2.2-.7,0-.8.1s.1.4.1.5-.8,0-.9.2.1.4.1.5-.7,0-.8.1a4.33,4.33,0,0,1,.1.5c-.3.2-.9,0-1.2.2-.1.1.1.5.1.6-.2.5-.9-.2-.4.4-.1-.1.1,0,.4.1-.1.1-.2.1-.2.2l-.1-.1s-.4,0-.4.1c-.2.3-.1.4.1.4h0l-.1.1h0c-.3-.2-1,.6-1.1,0,.1-.2,1-1.2.6-1.7l.1-.1c.3.1.2-.1.2-.3s.1-.2.2-.3H54v-.3c.1-.1.1-.2.2-.3a.37.37,0,0,0,.3-.1v-.3h0l.3-.4h-.4v-.1c0-.1.3,0,.4-.2s-.1-.4-.1-.5c.2-.3.5.2.4-.3-.1-.3-1.5-1.1-1.3,0,.3.1.9-.4.9.1a.8.8,0,0,1-1.5-.4.37.37,0,0,0-.3.1c.4.7-.2.9-.2,1.1s.1.4.1.5c-.5.4-1.7-.2-1.8.8-.3.1-.3-.8-.6-.2-.1.6.6,0,.5.7-.6.4-.3-.7-.8-.3-.1.7.6.1.5.7-.7.2-.8.8-1.6,1-.1.5.4.2.5.5.2,1-.6-.4-.8-.1-.1.8.5.3.5.8-.6.3-.6,1.1-.8,1.7-.4.1-.1-.7-.6-.4-.1.7.6.1.5.7-.1.4-.6,0-.9.3-.1.1.1.5.1.6s-.3,0-.4.2c-.1.6-.1.1-.3.4-.1.1.1.4.1.5s-.3,0-.4.2c-.1.6-.1.1-.3.4,0,.1.1.4.1.5-.2.3-.7,0-.9.2a4.33,4.33,0,0,1,.1.5c-.1.1-.3,0-.4.2s.1.4.1.5c.1-.1-.7,0-.8.1s.1.4.1.5c.1-.1-.7,0-.8.1a4.33,4.33,0,0,1,.1.5C42.45,67.9,41.75,68.1,41.85,67.6Zm-8.5-24.4v.3c-.2.1-.2.4-.3-.1,0-.2.2-.2.3-.2Zm-.3-.8a.37.37,0,0,0,.3-.1v.4C33.15,42.7,32.95,42.8,33,42.4Zm.6,1.8c.1.1.1.2.2.3C33.75,44.4,33.65,44.3,33.65,44.2Zm.5.6c.1.1.1.2.2.2-.1,0-.2.1-.2,0C34.25,45.1,34.25,44.9,34.15,44.8Zm-.3-1.1a1.76,1.76,0,0,0-.1-.6c0-.2-.1-.5-.1-.6a2.92,2.92,0,0,1,.9-.2,6.26,6.26,0,0,1,6,2,36.11,36.11,0,0,1-2.1,4.9C37.55,48,34.25,44.2,33.85,43.7Zm1.3,2.3c.1.1.1.2.2.3-.1,0-.1.1-.2,0Zm2,2.3c.1.2.3.3.4.5h0c-.1,0-.3.1-.4.1Zm.9,1c-.2-.2-.3-.4-.4-.5A2.18,2.18,0,0,0,38,49.3Zm1.4,1.1c.1-.1.4,0,.4,0C40.15,51,39.15,50.8,39.45,50.4ZM42,59a18.16,18.16,0,0,0,1.7,1.4l.5.4-.2-.7a24.09,24.09,0,0,0-1.1-3.3c.3-2.1.2-5.7.4-8a10.87,10.87,0,0,1,1.4,4.4,23.53,23.53,0,0,1-.4,8.6,7.78,7.78,0,0,1-2.8-.5A5.93,5.93,0,0,0,42,59Zm-.5.4a.5.5,0,0,1,.1-.7h0A1.7,1.7,0,0,1,41.55,59.4Zm.3,5.6c-.3-.3.3-.8.4-.4C42.45,64.8,42.15,65.3,41.85,65Zm.4-1c-.2-.2.1-1,.3-.5C42.75,63.8,42.45,64.2,42.25,64Zm.8-1.7h.4a2.65,2.65,0,0,0-.6.5C42.65,62.4,42.95,62.4,43,62.3Zm-.5-14c-.1-.1.2,0,.5.1v.4C42.75,48.7,42.35,48.7,42.55,48.3Zm.2,1a.31.31,0,0,0,.2-.1,3.75,3.75,0,0,1-.1,1C42.85,49.9,42.75,49.6,42.75,49.3Zm-.3,2c0,.1.2-.1.4-.2,0,1-.1,2.1-.1,3.1-.2,0-.4.1-.3-.3C43.25,53.3,42.35,52.2,42.45,51.3Zm-1.8-4.5c.1-.1.4,0,.4,0C41.35,47.4,40.35,47.3,40.65,46.8Zm.6,4.2c.1-.1.4,0,.4,0C41.95,51.6,40.95,51.5,41.25,51Zm.4-2.9c.3.6-.7.4-.4,0C41.35,48,41.65,48.1,41.65,48.1Zm-.2,1.5c.1-.1.4,0,.4,0C42.15,50.2,41.15,50,41.45,49.6Zm1.1,5c0-.1.1-.1.2-.1a2.77,2.77,0,0,1-.1.9A1.18,1.18,0,0,1,42.55,54.6Zm.6,3.8c.1.4.3.8.4,1.1a.37.37,0,0,0-.3-.1h0A2.79,2.79,0,0,1,43.15,58.4Zm-.6-.9c0-.1-.2-.8-.1-.9s.1-.1.2-.1V57c.1.1.1.3.2.5Zm-.6-1.7c.1-.1.4,0,.4,0C42.55,56.4,41.65,56.2,41.95,55.8Zm-.8-2.3c.1-.1.4,0,.4,0C41.85,54.1,40.95,53.9,41.15,53.5Zm-.1-.9c.1-.1.4,0,.4,0C41.75,53.2,40.75,53,41,52.6Zm-1-4.3c.1-.1.4,0,.4,0C40.75,48.9,39.75,48.8,40,48.3Zm.8,12.4c0-.1.4-.3.6-.5a4.22,4.22,0,0,1-.3,1.2l-.1.2.2.1c-.1.1-.2.1-.2,0A2.51,2.51,0,0,1,40.85,60.7Zm.9,12.1c-.2-.2.1-1,.3-.5C42.25,72.6,41.95,73,41.75,72.8Zm-9.4-11c.1-.1.4,0,.4,0C33,62.4,32,62.2,32.35,61.8Zm1.3,6.2c.2.4-.1.7-.3.5S33.35,67.5,33.65,68Zm-.2-3.9c.3.6-.7.4-.4,0C33.15,64,33.45,64.1,33.45,64.1Zm-.2,1.5c.1-.1.4,0,.4,0C33.95,66.2,32.95,66,33.25,65.6Zm.1-2.5c.1-.1.4,0,.4,0C34,63.8,33,63.6,33.35,63.1ZM33,61.2c.1-.1.4,0,.4,0C33.75,61.8,32.75,61.6,33,61.2Zm1.9,7.6c.3.6-.7.4-.4,0C34.55,68.6,34.85,68.7,34.95,68.8Zm4,2.1a.9.9,0,0,1-.7,1C38.35,71.4,38.55,71,38.95,70.9Zm-.5-1.3c.1-.3.7-.2.8-.1C39.45,69.8,38.25,70.2,38.45,69.6Zm-.3-.6h-.2c-.2-.6.2-.4.3-.6.1-.4-.2-.6-.1-.8s.3,0,.4-.2-.1-.4-.1-.5.4,0,.4-.2c0-.6-.1,0-.4-.3-.1-.1,0-.4-.1-.5-.3-.4-.3.3-.4-.3,0-.2.3-.2.4-.3a1.51,1.51,0,0,0-.1-.8c0-.1.3,0,.4-.2s-.1-.4-.1-.5.3,0,.4-.2c.2-1.1-.4-1.5.7-1.4v.3c-.7,0-.2.8-.3,1.1-.1.1-.3,0-.4.2s.1.4.1.5-.3,0-.4.2.2.4.1.8c0,.1-.4,0-.4.2,0,.6.1,0,.4.3.1.1,0,.4.1.5.4.4.4-.4.4.3s-.2-.3-.4.3a4.33,4.33,0,0,1,.1.5c0,.1-.3,0-.4.2-.3.8.5.7.5,1v.2C38.55,68.8,38.45,68.2,38.15,69Zm2.7-2.9c.1-.1.4,0,.4,0C41.55,66.7,40.55,66.6,40.85,66.1Zm-.2-1.4c.1-.1.4,0,.4,0C41.35,65.4,40.35,65.2,40.65,64.7Zm.3,2.4c.1-.1.4,0,.4,0C41.65,67.8,40.65,67.6,40.95,67.1Zm.6,4.2c.1-.1.4,0,.4,0C42.25,72,41.25,71.8,41.55,71.3Zm-.7-1.8a.9.9,0,0,1,.7-1A1.2,1.2,0,0,1,40.85,69.5ZM40,63.3a.9.9,0,0,1,.7-1C40.65,62.8,40.45,63.2,40,63.3Zm.1.5c-.2.4,0,1.2-.2,1.5,0,.1-1,.5-.6.6h-.2c-.2-.6.2-.4.3-.6.1-.4-.2-.6-.1-.8s.4,0,.5-.1S39.55,63.5,40.15,63.8Zm-.7-2.1c.1.2-.1.7-.4.4S39.25,61.3,39.45,61.7Zm-1.1-1.4c.1-.1.4,0,.4,0C39,60.9,38,60.7,38.35,60.3Zm2,5.4a1,1,0,0,1-.8,1.1A1.55,1.55,0,0,1,40.35,65.7Zm-.9,2.6c.1-.1.4,0,.4,0C40.15,69,39.15,68.8,39.45,68.3Zm.1.9c.1-.1.4,0,.4,0C40.25,69.9,39.25,69.7,39.55,69.2Zm-.2-1.8c.1-.1.4,0,.4,0C39.95,68.1,39,67.9,39.35,67.4Zm-2.1-3.1c.1-.2.3,0,.4-.2.1-.6.1-.1.3-.4s-.2-.7.3-.5c.3.6-.3.3-.3.6-.1.5-.2.2-.3.5,0,.1.1.4.1.5-.2.3-.4-.1-.3.5.1,1-.6.3-.5-.4,0-.1.4,0,.5-.1S37.25,64.4,37.25,64.3Zm-.4,2.5a.37.37,0,0,0,.3-.1c-.1-1,.9-.2.9.3-.4.2-.9-1-.9.2a.37.37,0,0,0-.3.1c-.3.1,0-.5-.3-.4-.5-.1,0,.7-.6.6C36,66.9,36.55,65.9,36.85,66.8Zm-.7-1.3c.1-.1.4,0,.4,0C36.85,66.2,35.85,66,36.15,65.5Zm-.7.6c.1-.1.4,0,.4,0C36.15,66.8,35.15,66.6,35.45,66.1Zm-.1-.9c.1-.1.4,0,.4,0C36,65.9,35,65.7,35.35,65.2Zm.8,3.2a.9.9,0,0,1-.7,1A1.45,1.45,0,0,1,36.15,68.4Zm1.4,1.7c-.3-.3.3-.8.4-.4C38.15,69.8,37.85,70.3,37.55,70.1Zm-.7.8c-.1.5-.3.2-.3.5-.1.6-.1.1-.3.4s.2.7-.3.5c-.1-.9,1.6-1.7.5-2.3.5-.3.2-.8.2-1.2a1.42,1.42,0,0,0,.4-.2c.1-.5-.7-.1-.5-.7.5-.4.5.9.8.3.1-.3-.1-.7.4-.5a.9.9,0,0,0,.1.5c-.9.2-.6.9-.7,1.5a1.42,1.42,0,0,0-.4.2c-.1.5.4.2.4.3C37.25,70.9,36.95,70.5,36.85,70.9Zm.9.6a.9.9,0,0,1-.7,1A1.45,1.45,0,0,1,37.75,71.5ZM35.55,70c.1-.1.4,0,.4,0C36.25,70.6,35.25,70.4,35.55,70Zm-.7-1.8c-.3-.6.2-.5.4-.8v-.3c-.3.1-.6.1-.5-.4a1.05,1.05,0,0,1,1,.6c.1.7-.2-.3-.4.3S35.35,68.3,34.85,68.2Zm-.7-4.8c-.3-.3.3-.8.4-.4C34.75,63.2,34.45,63.7,34.15,63.4Zm.4-1c-.6.9-.6-1.4-.1-.5C34.55,62,34.55,62.4,34.55,62.4Zm.4,3c.1.2-.1.7-.4.4S34.75,65.1,34.95,65.4Zm-.6-4.3c.1.2-.1.7-.4.4S34.15,60.7,34.35,61.1Zm.1-2c.2.4-.1.7-.3.5S34.25,58.6,34.45,59.1Zm1.3.2a2.47,2.47,0,0,1-1,1.6A2.14,2.14,0,0,1,35.75,59.3Zm-.5,2.1c.2.3.2.9-.1.9C34.55,62.4,34.85,60.9,35.25,61.4Zm1-.8a.9.9,0,0,1-.7,1A1.26,1.26,0,0,1,36.25,60.6Zm.2.9c.1-.1.4,0,.5-.1s-.2-.7.3-.5c.3.6-.2.3-.3.6,0,.1.1.4.1.5s-.4,0-.5.1.1.4.1.5a3.19,3.19,0,0,1-.7.6c-.1.1.1.4.1.5s-.3,0-.4.2c-.1.6-.1.1-.3.4s.2.7-.3.5c-.3-.6.3-.3.3-.6s.5-.4.3-.9c0-.1-.7.1-.5-.4.5-.3.3.4.5.4.5,0,.1-.3.2-.5s.3,0,.4-.1-.1-.4-.1-.5.3,0,.4-.2S36.35,61.6,36.45,61.5Zm.3-1.4c.1-.1.4,0,.4,0C37.35,60.7,36.45,60.5,36.75,60.1Zm.6-1.5c.2.4-.1.7-.3.5S37,58.1,37.35,58.6Zm.5,1.4c.3.6-.7.4-.4,0C37.55,59.8,37.85,59.9,37.85,60Zm-.2.9c.1-.1.4,0,.4,0C38.35,61.5,37.35,61.3,37.65,60.9Zm.9.8a1.1,1.1,0,0,1-.6,1s-.3-.3-.3-.4a1.53,1.53,0,0,0-.5.7c0,.1.2.6.1.8s-.4,0-.5.1-.1.9-.3,1.1c0,.1-.3,0-.4.1-.3-.7.5-.8.6-1.3,0-.2-.2-.6-.1-.8s.4,0,.5-.1-.1-.4-.1-.5.3,0,.4-.1c.3-.3-.3-.6.2-.5.2,0,.1.5.3.4C38.45,62.4,37.95,61.6,38.55,61.7Zm-.3-2.4c.1-.1.4,0,.4,0C38.85,60,37.95,59.8,38.25,59.3Zm.6-1.5c.1.2-.1.7-.4.4S38.75,57.5,38.85,57.8Zm.8,2.8c.3.6-.7.4-.4,0C39.35,60.4,39.65,60.6,39.65,60.6Zm.5,1c.3.6-.7.4-.4,0C39.85,61.4,40.15,61.5,40.15,61.6Zm-.2-2.1c.1-.1.4,0,.4,0C40.65,60.2,39.65,60,39.95,59.5Zm-.2-.9c.1-.1.4,0,.4,0C40.45,59.2,39.55,59.1,39.75,58.6Zm.8,5.7c-.2-.2.1-1,.3-.5C41,64.1,40.85,64.5,40.55,64.3Zm.9,9c.1-.1.4,0,.4,0C42,74,41.15,73.8,41.45,73.3Zm-1.3-6c.1-.1.4,0,.4,0C40.85,67.9,39.85,67.7,40.15,67.3Zm.1,6.7c.1-.1.4,0,.4,0C40.85,74.7,39.95,74.5,40.25,74Zm-.2-.9c-.2-.2.1-1,.3-.5C40.55,72.9,40.35,73.3,40,73.1Zm-.2-1.9c.1-.1.4,0,.4,0C40.55,71.8,39.55,71.6,39.85,71.2Zm-.5-.9c.1-.1.4,0,.4,0C39.95,71,39,70.8,39.35,70.3Zm-.4,3.5c.1-.1.4,0,.4,0C39.65,74.4,38.65,74.2,38.95,73.8Zm-.2,1c0-.1.1-.2.2-.1s0,.1.1.2A.37.37,0,0,1,38.75,74.8Zm-.4-2.4c.1-.1.4,0,.4,0C39,73,38.15,72.8,38.35,72.4Zm-.6-1.3c-.3-.3.3-.8.4-.4C38.25,70.9,38,71.4,37.75,71.1Zm.2,1.9c.2.4-.1.7-.3.5S37.75,72.6,37.95,73Zm-1.1.7c.1-.1.4,0,.4,0C37.55,74.3,36.55,74.1,36.85,73.7Zm-1.2.3v-.1c.1-.1.4-.1.5-.2.2-.3.1-1,.7-1,0,.7-.5,1.1-.8,1.6A1.38,1.38,0,0,1,35.65,74ZM35,73c.1-.1.4,0,.4,0C35.75,73.6,34.85,73.4,35,73Zm-.4-.4c.2-.7.4-1.3,1.1-1.6.3.6-.3.4-.4.5s.1.4.1.5-.3,0-.4.1S35.15,72.8,34.65,72.6Zm-.3-2a.9.9,0,0,1,.7-1A1,1,0,0,1,34.35,70.6Zm-.9-3.7c.1-.1.4,0,.4,0C34.15,67.6,33.15,67.4,33.45,66.9Zm.2,3.9a.35.35,0,0,1,.2-.1c.5.1.3.3.1.5C33.75,71.1,33.75,70.9,33.65,70.8Zm-.2-.9c.1-.1.4,0,.4,0C34.15,70.5,33.15,70.3,33.45,69.9Zm-.1-1c.1-.1.4,0,.4,0C34,69.6,33,69.4,33.35,68.9Zm-.8-3.2c-.2-.2.1-1,.3-.5C33,65.5,32.75,65.9,32.55,65.7Zm.2,3.3c.1,0,.1.1.2.2v.1C32.95,69.2,32.85,69.1,32.75,69Zm-1-5.1c-.3-.3.3-.8.4-.4C32.25,63.7,32,64.1,31.75,63.9Zm.3,3.3h.2a.37.37,0,0,1-.1.3C32.15,67.4,32,67.3,32,67.2Zm-.3-.9c.1-.1.4,0,.4.1.1.3,0,.4-.2.4C31.85,66.6,31.75,66.5,31.75,66.3Zm.2-.9c.2.4-.1.7-.3.5S31.75,64.9,31.95,65.4Zm-1-1.8c.1-.1.4,0,.4,0,.2.3-.1.4-.3.4v-.1h-.1A.19.19,0,0,1,30.95,63.6Zm-1.1.5a.66.66,0,0,1,.6-.1,2.51,2.51,0,0,0-.7.4C29.75,64.3,29.85,64.2,29.85,64.1Zm.1-.7a.37.37,0,0,1,.1.3c-.1.1-.2.1-.2,0A.37.37,0,0,0,29.95,63.4Zm.2-.8c.1,0,.1,0,.2.1.3.3-.1.8-.3.6v-.1C30,63,30.15,62.8,30.15,62.6Zm0-17.4a2.27,2.27,0,0,1-.4.1v-.1c0-.2.1-.6-.1-.8h-.2a4.88,4.88,0,0,1-.3-.7c0-.1,0-.2-.1-.2h0a2.18,2.18,0,0,0-.5-.8,1.27,1.27,0,0,0-.1-.6.49.49,0,0,0-.3.1l-.2-.2v-.2h-.1c-.1-.1-.2-.3-.3-.4a.75.75,0,0,0-.1-.5,1,1,0,0,1-.3.1.1.1,0,0,0-.1-.1v-.4a.49.49,0,0,0-.3.1l-.1-.1V40c-.1-.1-.2,0-.4.1l-.2-.2a.37.37,0,0,0-.1-.3c-.5-.1-.1-.2-.4-.4a.37.37,0,0,0-.3.1l-.1-.1v-.3c-.1-.1-.2.1-.3.1a.1.1,0,0,1-.1-.1.6.6,0,0,0-.1-.4c-.5-.1-.1-.2-.4-.4-.1-.1-.3.1-.4.1-.2-.3,0-.4-.2-.6s-.5.1-.7.1a.1.1,0,0,1-.1-.1v-.4a2.27,2.27,0,0,0-.4.1v-.6c.1,0,.3.1.4.1h-.1v.3c.5-.5.9.2,1,.3.3.2.5-.1.6-.1h.1c.1.1,0,.5.1.6s.3-.1.4-.1,0,.4.2.4.5-.2.7-.1v-.2c.1.1.2.1.3.2-.1,0-.2.1-.3.1.1.1,0,.4.2.4s.3-.1.4-.1c-.1,0-.1-.2-.1-.3a.76.76,0,0,0,.4.2c-.1,0-.2.1-.3,0,.1.1,0,.4.2.4s.5-.2.7-.1h0a.1.1,0,0,1,.1.1h-.1c.1.1,0,.4.2.4.5.1.1.2.4.4.1.1.3-.1.4-.1-.1,0-.1-.1-.1-.2.1.1.2.1.2.2s-.1.1-.2,0c.1.1,0,.5.1.6s.3-.1.4-.1c-.1-.1,0-.2,0-.4.1.1.3.2.4.3a1,1,0,0,0-.3.1c.1.1,0,.4.2.4s.3-.1.4-.1c-.1,0,0-.2-.1-.3.1.1.3.2.4.3-.1,0-.2.1-.3,0,.1.1,0,.4.2.4.5.1.1.2.4.4.1.1.3-.1.4-.1s0,.4.2.4c.5.1.1.2.4.4.1.1.3-.1.4-.1v-.4a1.38,1.38,0,0,0,.4.3c-.1,0-.2.1-.3,0,.1.1,0,.5.1.6s.3-.1.4-.1,0,.4.2.4.3-.1.4-.1,0,.4.2.4c.5.1.1.2.4.4.1.1.3-.1.4-.1s0,.4.2.4c.5.1.1.2.4.4.1.1.3-.1.4-.1.4.5-.2.8.4,1s-.6,1.1-.6,1c-.1.1.1.4.1.5s-.7.1-.3.5c.8-.3.6-1.4,1.5-1.7a.75.75,0,0,1-.1-.5c.1.1.2.3.4.4-.1,0-.2.1-.3.1-.5.9.9.8.9.8.5.8-.2,1.4,0,2,.4-.4.6-.8,1-.6a.6.6,0,0,1-.1-.4,1.38,1.38,0,0,1,.3.4c-.1,0-.2.1-.2,0,.3.1-.1.6.1.9a9.44,9.44,0,0,1,.9.3c.5.9-.2,1-.3,1.1.1-.1-.4.9-.2,1,.5.1.1-.3.2-.5s.6-.3.7-.6c.1.7.5.8.7,1.3-.5.3-.3-.4-.7-.3-.2,0,.1.4,0,.5s-.6-.1-.9.2a4.33,4.33,0,0,1,.1.5c-.1.1-.8.3-.2.5.3-.5,1-.7,1.3-1.2.3.7,2.1-.1,1.3,1.3-.3-.5-.7-.8-1-.3-.4.7.6.2.8.3a1.42,1.42,0,0,0,.2.4c.1,0,.3.3.5.4a1,1,0,0,0,.3-.1c.2.3,0,.8.1.9s.5-.2.5-.1c.2.5,0,1.1.2,1.5.1.1.7-.2.5.4-.6.1-.7-.7-1.4-.7.3.9,1.2,1,1.9,1.3-.8.7.5.9.6,1.6-.2.4-.3-.2-.5-.4h-.1l-.1-.1v.1c-.1-.1,0-.5-.1-.6a2.27,2.27,0,0,0-.4.1c-.3-.4.1-.7-.2-.9s-.6.3-.8.1.1-.8-.2-.9c-.5-.1,0,.7-.5.6-.4-1-1.5.2-1.8-.4-.2-.3.3-.2.3-.4.2-.6-.1-.2.3-.5s-.7-.4-.8-.2.3.4.1.9c0,.1-.3,0-.4.1-.3.3.6.4-.1.5-.3,0-.1-.4-.5-.4,0,1.1-1.1.1-1.3.4-.1.6.6,0,.5.6-.4.3-1.3.2-1.3.8-.2,0-.3-.4-.5-.4.1,0-.5.7-.5.7-.1.3.2.6.1.8s-.6-.2-.8.1c0,.1.1.5.1.6-.2.1-.9-.1-1.2.2s.3.5.1.9c0,.1-.4,0-.5.1s.1.4.1.5-.3,0-.4.2c-.1.6-.1.1-.3.4s.2,1-.2.5a.55.55,0,0,1-.2-.5v-.2c.1-.2.3-.3.3-.4a1.06,1.06,0,0,0-.1-.8,1.09,1.09,0,0,1,.1-.5.35.35,0,0,0,.2-.1,1.18,1.18,0,0,0-.1-.8c0-.2.1-.4.1-.6a.35.35,0,0,0,.2-.1c.1-.2-.1-.8-.1-.8s.4-.1.5-.2c.1-.5-.3-1.3-.2-1.8,0,0,.4-.1.4-.2.2-.7-.3-1.6-.3-2.3,0,0,.4-.1.4-.2a31.45,31.45,0,0,0-.8-5.6,2.27,2.27,0,0,1-.4.1c0-.1-.1-.3-.1-.4C30.25,46.5,30.55,45.8,30.15,45.2Zm15.8.8s-.3-.2-.4,0C45.25,46.4,46.25,46.6,45.95,46Zm4.8,7.7s0-.4-.1-.5C50.15,52.3,50.25,54.6,50.75,53.7Zm-1.2.3c-.3.5.7.6.4,0C49.85,54,49.55,53.8,49.55,54Zm-.6-1.5a2.94,2.94,0,0,0,1-1.6A2.34,2.34,0,0,0,48.95,52.5Zm-2.8-5.2s-.3-.2-.4,0C45.45,47.8,46.45,47.9,46.15,47.3Zm1.4-7.4s-.3-.2-.4,0C46.95,40.3,47.85,40.5,47.55,39.9Zm-1,1.1c-.2-.3-.8.2-.4.4S46.65,41.2,46.55,41Zm-.1-1c-.1.2-.8-.1-.4.5.5-.1.8-.5.7-1.2C46.15,39.1,46.55,39.7,46.45,40Zm1.3.8s-.3-.2-.4,0C47,41.2,47.95,41.4,47.75,40.8Zm2,12.2s-.3-.2-.4,0C49,53.4,50,53.6,49.75,53Zm-3.6-11s-.3-.2-.4,0C45.55,42.4,46.45,42.6,46.15,42Zm.7,1.2c-.5.1-.7.5-.8,1.1A1.21,1.21,0,0,0,46.85,43.2Zm.2,1.4c-.3.5.7.6.4,0C47.45,44.6,47.15,44.5,47,44.6Zm.6,8.3s-.3-.2-.4,0C46.95,53.3,47.95,53.5,47.65,52.9Zm1.5-14c-.3-.2.2-.5.3-.9s.6,0,.3-.6c-.5-.2-.2.3-.3.5,0,0-.7.6-.7.8C48.85,39.7,48.75,38.4,49.15,38.9Zm.1,3.5s0-.4-.1-.5C48.65,40.9,48.65,43.3,49.25,42.4Zm.4-5.5a.9.9,0,0,0-.1-.5c-.8,0-1,.5-1,1.1C49.15,37.5,48.85,36.8,49.65,36.9ZM51,52.6c-.5-.7-.4-.5-.2-1.4-.5-.2-.2.3-.3.5s-.5,0-.5.1C49.95,52.3,50.65,52.5,51,52.6Zm-3.7-2.2c.3.3.5-.2.4-.4C47.65,49.6,47,50.1,47.35,50.4Zm.6.9s0-.4-.1-.5C47.35,49.9,47.45,52.2,47.95,51.3Zm.5,1s-.3-.2-.4,0C47.85,52.7,48.75,52.9,48.45,52.3Zm.2-1.6c-.2-.4-.6.3-.3.5S48.85,51.1,48.65,50.7Zm-1.8-4s-.3-.2-.4,0C46.15,47.2,47.15,47.3,46.85,46.7Zm.3,2.4s-.3-.2-.4,0C46.45,49.5,47.45,49.7,47.15,49.1Zm-.6-4.3s-.3-.2-.4,0C45.85,45.2,46.85,45.4,46.55,44.8Zm.5,3.3c-.2-.4-.6.3-.3.5S47.25,48.5,47,48.1Zm2.3,2s-.3-.2-.4,0C48.75,50.5,49.65,50.7,49.35,50.1Zm-2-6.5c-.3.5.7.6.4,0C47.65,43.6,47.35,43.5,47.35,43.6Zm-.2,8s-.3-.2-.4,0C46.45,52,47.35,52.2,47.15,51.6Zm.6-4.7c-.4-.9.3-.8.2-1.4a1.19,1.19,0,0,0-.6,1.5C47.55,47,47.65,47,47.75,46.9Zm-1.4,4.8c-.3-.5-.6.9-.1.8C46.55,52.5,46.55,52.1,46.35,51.7Zm2.3-4c-.5.2-.5.7-.6,1.2A1.07,1.07,0,0,0,48.65,47.7Zm-.5,2.1c-.3.5.7.6.4,0C48.55,49.8,48.25,49.7,48.15,49.8Zm-.3-2.3s-.3-.2-.4,0C47.15,47.9,48.15,48.1,47.85,47.5Zm-1.5,1.3s-.3-.2-.4,0C45.65,49.2,46.65,49.4,46.35,48.8ZM50,54.9s-.3-.2-.4,0C49.35,55.3,50.35,55.5,50,54.9Zm1.3-5.6s-.3-.2-.4,0C50.65,49.7,51.65,49.9,51.35,49.3ZM50,48c.2.2.5-.2.3-.5S49.75,47.8,50,48Zm1.1,2.3c-.2-.4-.6.3-.3.5S51.25,50.6,51.15,50.3Zm.1.9c-.3.5.7.6.4,0C51.65,51.2,51.35,51.1,51.25,51.2Zm-.8,4c.3.3.5-.2.4-.4C50.75,54.4,50.15,54.9,50.45,55.2Zm1.6-.8c.2-.6-.3-.2-.5-.4-.4-.3.3-.6.3-.6s-.1-.3-.1-.4.7-.4,0-.6c-.3-.1,0-.7-.5-.4-.2.6.3.2.5.4.4.3-.3.6-.3.5,0,.1.1.3.1.4-.1.4-.4-.1-.4.3A1,1,0,0,0,52,54.4ZM51,56a1.26,1.26,0,0,0,.7-1C51.35,55.1,51.15,55.5,51,56Zm-2.6-15.4s-.3-.2-.4,0C47.85,41,48.75,41.2,48.45,40.6Zm-.1-.9s-.3-.2-.4,0C47.65,40.1,48.65,40.3,48.35,39.7Zm-.7-2.4c-.3.5.7.6.4,0C48,37.3,47.75,37.2,47.65,37.3Zm2,8c-.2-.4-.8.2-.4.4S49.75,45.5,49.65,45.3Zm.9,4a1.37,1.37,0,0,0-.8,1.1C50.35,50.3,50.55,49.9,50.55,49.3Zm-.5-.8c-.3.5.7.6.4,0C50.45,48.5,50.15,48.4,50,48.5Zm-.7,7.3c-.3.5.7.6.4,0C49.75,55.8,49.45,55.7,49.35,55.8Zm-2.1,3s-.3-.2-.4,0C46.55,59.2,47.55,59.4,47.25,58.8Zm-.6,1.5c-.3.5.7.6.4,0C47,60.3,46.75,60.2,46.65,60.3Zm.8-3s-.3-.2-.4,0C46.85,57.8,47.75,57.9,47.45,57.3Zm2.7-1.6c-.3.5.7.6.4,0C50.55,55.7,50.25,55.6,50.15,55.7ZM46,58.9c.3.3.5-.2.4-.4C46.25,58.1,45.65,58.6,46,58.9Zm1.5-.8c-.3.5.7.6.4,0C47.95,58.1,47.65,58,47.55,58.1ZM44,44.7c.5-.1.7-.5.8-1.1C44.45,43.9,44,44.1,44,44.7Zm3.5-5.5a1.29,1.29,0,0,0,.7-1.1A1.08,1.08,0,0,0,47.55,39.2Zm.3,18c.2.2.5-.2.3-.5C47.95,56.2,47.65,57,47.85,57.2Zm1.3-18.3c.2.2-.1.8.5.5C49.75,38.7,49.35,39.1,49.15,38.9Zm.1,16.2s-.3-.2-.4,0C48.55,55.5,49.55,55.6,49.25,55.1Zm-.5,1.9c.2.2.5-.2.3-.5S48.45,56.8,48.75,57Zm-.4,1c.3.3.5-.2.4-.4C48.65,57.2,48,57.7,48.35,58Zm-1.6-.5s-.3-.2-.4,0C46,57.9,46.95,58.1,46.75,57.5ZM48,55.3s-.3-.2-.4,0C47.35,55.7,48.25,55.9,48,55.3Zm1.5-6.7a1.26,1.26,0,0,0-.7,1A.9.9,0,0,0,49.55,48.6Zm-.6,4.4c-.5-.2-.2.3-.3.5s-.3,0-.4.1.1.3.1.5-.7,0-.4.7C48.65,54.5,48.75,53.7,48.95,53Zm-1.5.9c-.2-.4-.6.3-.3.5S47.65,54.2,47.45,53.9Zm-.3,1.1s-.3-.2-.4,0C46.45,55.4,47.45,55.6,47.15,55Zm.7-13.4c-.3.5.7.6.4,0C48.25,41.6,47.95,41.4,47.85,41.6Zm-.9,14.3s-.3-.2-.4,0C46.25,56.3,47.15,56.5,46.95,55.9Zm1.7-11.4s-.3-.2-.4,0C47.95,44.9,48.95,45,48.65,44.5Zm-.2-1s-.3-.2-.4,0C47.85,44,48.75,44.1,48.45,43.5Zm-.1-.9s-.3-.2-.4,0C47.65,43,48.65,43.2,48.35,42.6Zm.4,2.9s-.3-.2-.4,0C48,45.9,49,46.1,48.75,45.5Zm.5.7a1.26,1.26,0,0,0-.7,1A.9.9,0,0,0,49.25,46.2Zm.2,1.5c-.2-.4-.6.3-.3.5S49.65,48,49.45,47.7Zm-3.9-10.1c.3.3.5-.2.4-.4S45.25,37.4,45.55,37.6Zm1.3-.2c-.3.5.7.6.4,0C47.25,37.4,46.95,37.3,46.85,37.4Zm-.6-1.8a1.37,1.37,0,0,0-.8,1.1A1.33,1.33,0,0,0,46.25,35.6Zm-.1,17.6s-.3-.2-.4,0C45.45,53.6,46.45,53.8,46.15,53.2Zm-1-13c.2.2.5-.2.3-.5C45.25,39.2,44.95,40,45.15,40.2Zm1-2.2c-.3.5.7.6.4,0C46.55,38,46.25,37.9,46.15,38Zm1.3,3.6a1,1,0,0,0-.6,1.2C47.25,42.6,47.35,42.1,47.45,41.6ZM45,39.2a1.26,1.26,0,0,0,.7-1C45.25,38.3,45,38.6,45,39.2Zm.2,7.8s-.3-.2-.4,0C44.55,47.4,45.55,47.6,45.25,47Zm-.1-3.9c.2.2.5-.2.3-.5C45.25,42.1,44.95,42.9,45.15,43.1ZM45,45.5c-.2-.4-.6.3-.3.5S45.25,45.9,45,45.5Zm.3,5.2a1.26,1.26,0,0,0,.7-1A1.26,1.26,0,0,0,45.35,50.7Zm-.1-7.2c-.3.5.7.6.4,0C45.55,43.5,45.25,43.4,45.25,43.5Zm-12,6.6s-.3-.2-.4,0C32.55,50.5,33.55,50.7,33.25,50.1Zm3.3,3.2c-.2-.1.1-.9-.5-.5C35.95,53.5,36.35,53.2,36.55,53.3Zm-.2,1c.5.2.2-.3.3-.5,0,0,.8-.3.3-.5-.1-.1-.3.1-.4.1C37,53.7,35.95,53.8,36.35,54.3Zm-.7,1.5c.5-.1.7-.5.8-1.1C36,55,35.65,55.3,35.65,55.8ZM31,43.3s-.3-.2-.4,0C30.35,43.7,31.35,43.9,31,43.3Zm3.9,10.3c.6.3.2-.4.3-.6s.4,0,.5-.1-.1-.4-.1-.5c-.2.3-.3-.2-.4.4C35.15,53.2,34.65,53,34.95,53.6Zm.7-1.1c.1-.1.3,0,.4-.1s-.1-.4-.1-.5,1.2-.8.4-1c-.3-.1,0-.7-.5-.4-.3.5.4.3.5.4.2.4-.2.6-.3.9s-.3,0-.4.2S35.75,52.4,35.65,52.5ZM33,45.7c-.3.5.7.6.4,0C33.45,45.7,33.15,45.6,33,45.7Zm7.4,9.3a.9.9,0,0,0-.1-.5c-.7.5-1.1-.9-1.6,0,0,.5.6,0,.8.1v.3c-.8-.1-1.1,1.2.1.7,0,0-.1-.5-.1-.6Zm-3.6.2c-.3.5.7.6.4,0C37.25,55.2,36.95,55,36.85,55.2ZM40,53.7Zm-1-.3a1.2,1.2,0,0,0,.9.8A.88.88,0,0,0,39,53.4Zm.5-.1Zm-7,.8c.2.2.5-.2.3-.5C32.65,53.1,32.25,53.9,32.55,54.1Zm2.2,1.4c-.3.5.7.6.4,0C35.15,55.5,34.85,55.4,34.75,55.5Zm-2.1,2.8c-.3.5.7.6.4,0C33,58.3,32.75,58.2,32.65,58.3Zm-.5-1.2c.5-.2.6-.7.6-1.2A1,1,0,0,0,32.15,57.1Zm-1.7-12.4c-.3.5.7.6.4,0C30.85,44.7,30.55,44.5,30.45,44.7ZM33,55.4c.3.3.5-.2.4-.4C33.35,54.6,32.75,55.1,33,55.4Zm1.6-.8c-.3.5.7.6.4,0C35,54.6,34.75,54.5,34.65,54.6Zm-.8.2a1.26,1.26,0,0,0,.7-1C34.15,53.9,33.95,54.2,33.85,54.8Zm.3,1.9c-.3.5.7.6.4,0C34.55,56.7,34.25,56.6,34.15,56.7Zm-.5-1c-.3.5.7.6.4,0C34,55.7,33.75,55.6,33.65,55.7Zm1.8-1.2c.3.3.5-.2.4-.4C35.75,53.7,35.15,54.2,35.45,54.5ZM36,49c-.5.1-.4.8-1.2.7C35,50.7,36.15,49.6,36,49Zm-.7-1.7c-.2-.4-.6.3-.3.5S35.55,47.6,35.35,47.3Zm1.2,3.1c.5.1.2-.2.3-.5s.8-.4,0-.6c-.3-.1,0-.7-.5-.4-.2.7.7.2.5.7C36.85,50,36.35,49.8,36.55,50.4Zm-2.1-3c-.2-.4-.6.3-.3.5S34.65,47.8,34.45,47.4Zm3.5,7.1c.5-.1.7-.5.8-1.1C38.35,53.7,37.95,53.9,37.95,54.5Zm-.5-.8c.4-.3.8-.5.7-1.2C37.55,52.6,37.55,53.2,37.45,53.7Zm-4.1-.4a2.94,2.94,0,0,0,1-1.6A2.34,2.34,0,0,0,33.35,53.3Zm1.3-1.6a1.37,1.37,0,0,0,.8-1.1C34.85,50.8,34.75,51.2,34.65,51.7Zm-1.3-.7c-.3.5.7.6.4,0C33.75,51,33.45,50.9,33.35,51Zm1.3-2.7a1.26,1.26,0,0,0-.7,1C34.35,49.2,34.55,48.9,34.65,48.3ZM34,50s-.3-.2-.4,0C33.35,50.4,34.35,50.6,34,50Zm-1.9,1.7c-.3.5.7.6.4,0C32.55,51.7,32.25,51.6,32.15,51.7Zm5.4,2.5s-.3-.2-.4,0C36.85,54.6,37.75,54.8,37.55,54.2Zm-5.2-4.4s-.3-.2-.4,0C31.65,50.2,32.65,50.4,32.35,49.8Zm-2.5-6.3s-.3-.2-.4,0C29.15,43.9,30.15,44.1,29.85,43.5Zm1.4,4.4a1.26,1.26,0,0,0,.7-1A1,1,0,0,0,31.25,47.9Zm.4-3.3s-.3-.2-.4,0C30.95,45,31.85,45.2,31.65,44.6Zm-2.4-3c-.2-.3-.8.2-.4.4C29,42.3,29.35,41.8,29.25,41.6Zm3.5,4.7s-.3-.2-.4,0C32,46.8,33,46.9,32.75,46.3Zm-.9-.3s-.3-.2-.4,0C31.15,46.5,32,46.6,31.85,46Zm.6-1.6s-.3-.2-.4,0C31.75,44.8,32.75,45,32.45,44.4Zm.5,3.8a1.55,1.55,0,0,0-.8,1.1A1.05,1.05,0,0,0,32.95,48.2Zm16.7-5.9c.2.2.5-.2.3-.5C49.75,41.3,49.35,42.1,49.65,42.3Zm3.9,7.5c0,.2.1.4.1.6.3,0,.5-.1.8-.1.3.7-.6.3-.3,1h.2c.1-.2.4-.5.5-.7-.1.1-.5-.8-.5-.8C54,49.5,53.75,49.9,53.55,49.8Zm.1.5c-.3-.3-.6,1-.1.9C53.75,51.2,53.75,50.5,53.65,50.3ZM45.45,61c-.3.5.7.6.4,0C45.85,61,45.55,60.8,45.45,61Zm8.4-8.9c-.1-.1,0-.4-.1-.5s-.2.1-.3.1c-.3-.2-.4-.8-.5-.4-.2.6.3.2.5.4s0,.4.1.5S53.75,52.1,53.85,52.1Zm1.1,1.4c.2-.3,1.2-.7.6-1.6,0,.1-.6-.1-.5,0-.1,0,0-.3,0-.3-.3-.2-.9.2-.7.4,0,.5.6,0,.8.1C55,52.5,54.35,52.9,54.95,53.5Zm-1.3.2c0,.9.4,1.2,1,1.2v-.2c-.3-.2-.6-.3-.5-1.1A4.33,4.33,0,0,0,53.65,53.7Zm-9.8-11c.3.3.5-.2.4-.4S43.45,42.5,43.85,42.7Zm-4.7-1.3c-.2-.3-.8.2-.4.4S39.25,41.6,39.15,41.4Zm17.7,11.3c-.3.5.7.6.4,0C57.15,52.7,56.85,52.5,56.85,52.7ZM40.45,39a1.26,1.26,0,0,0-.7,1C40.15,39.9,40.35,39.6,40.45,39Zm.3,2.5s-.3-.2-.4,0C40,42,41,42.1,40.75,41.5ZM54,53.6c0-.1.8.3.5.8.5.1.4-.5.3-1l-.4.1a10.4,10.4,0,0,1-.2-1.5c0-.1-.3.1-.4.1C54.25,52.6,53.75,53,54,53.6Zm-1.7,0a.92.92,0,0,0,1,.6V54c0-.4-.3-.1-.5-.1v-.3c.9-.2.3-1.6-.2-1.1-.2.2.2.7.1.9C52.75,53.2,52.35,53.4,52.35,53.6Zm.9-11.5a1.05,1.05,0,0,0,1,.8C54.15,42.3,53.65,42.2,53.25,42.1Zm0,3c-.1-.1-.7-.2-.8.1C52.35,45.9,53.55,45.5,53.25,45.1Zm-3.6-2.4a1.55,1.55,0,0,0-.8,1.1C49.45,43.7,49.65,43.3,49.65,42.7Zm2.8,4.9-.1-.6C51.65,46.5,51.85,48.5,52.45,47.6Zm.2-1.1s-.4,0-.4.1C51.85,47.3,53.25,47,52.65,46.5Zm1.8-2.2a.6.6,0,0,0,.4-.1c.2-.6-1.6-1.5-1.3-.3-.4.4-.4-.4-.5-.4s-.6.6-.5,1.1c.4.1.4-.2.3-.6a.37.37,0,0,0,.3-.1c.3-.1,0,.6.3.5s.4-1,1-.8ZM52.15,52a.6.6,0,0,0,.4-.1c-.3-.8.1-.9.3-1.2.2-.7-.6.3-.6-.6,0-.1.3-.1.4-.5,0-.1.8-.8,0-1-.2-.1,0-.3-.2-.4s-.3.1-.4.1c-.4-.1.2-.6-.4-.4-.4.1.1.4-.3.5s-.1-.7-.6-.4a1.14,1.14,0,0,0,.7.8c.3.1,0-.4.3-.5-.2.1.8.4.7.3a3.44,3.44,0,0,1,.1.9c-.3.6-.4-.6-.9-.3v.2c0,.5.6-.1.5.5,0,.3-.5.1-.8.3-.1.7.4.5.9.4v.3C51.95,51,51.95,51.4,52.15,52Zm0-9.2c0,.1-.3,0-.4.1s.1.4.1.5-.8.4-.8.8c.1,1.3-.1-.4.4.2.2.2,0,.8.6.5.2-.9-.6-.2-.6-.8A1.71,1.71,0,0,0,52.15,42.8Zm.4-.1c-.1,0,.1-.7-.5-.4a4.33,4.33,0,0,1,.1.5c.5-.1.5.7,1.2.2a.9.9,0,0,0-.1-.5C53.15,42.5,52.95,42.8,52.55,42.7Zm-14.8-2.1s-.3-.2-.4,0C37,41,38,41.2,37.75,40.6Zm40,1.1s-.3-.2-.4,0C77,42.1,77.95,42.3,77.75,41.7Zm.5,4.2h.2c.1-.5.5-.7,1-.9-.2-.6-.8-.2-.9.2S77.95,45.3,78.25,45.9Zm0-1.5c.3,0,.3-.5.1-.8C78,43.1,77.75,44.5,78.25,44.4Zm-1.6,1.8c.5,0,.3-.1.4-.5s.2,0,.3-.5c.1-.3.6,0,.3-.6-.5-.2-.2.3-.3.5s-.3,0-.4.1.1.4.1.5S76.25,45.5,76.65,46.2Zm-.3-1.9c.3.3.5-.2.4-.4C76.65,43.5,76,44,76.35,44.3Zm3-.5c.5-.1.1.5.7.3-.3-.6-1.6-1.2-.7-2.1-.3-.4-1.2.2-1-1-.4-.2-.4.4-.3,1l.4-.1c.3.4-.2,2.1.7,1.4v.3c.1.3-.5,0-.5.3C78.95,45,79.45,43.8,79.35,43.8Zm-4.1-4.6s-.3-.2-.4,0C74.55,39.7,75.55,39.8,75.25,39.2Zm1.7,3.1c-.3-.5-.6,1-.1.9S77.25,42.6,76.95,42.3Zm.2,1.4c-.3.5.7.6.4,0C77.55,43.7,77.25,43.6,77.15,43.7Zm1.1-1.1c-.2-.4-.6.3-.3.5S78.45,42.9,78.25,42.6Zm-2.7-1.1a1.13,1.13,0,0,0,.7-1.1A1.44,1.44,0,0,0,75.55,41.5Zm-.4-.3s-.3-.2-.4,0C74.45,41.7,75.45,41.8,75.15,41.2Zm.6,4.1c-.3.5.7.6.4,0C76.15,45.3,75.75,45.2,75.75,45.3Zm-41-5.7ZM67,33.3c.1,0,.2.3.4-.1,0-.1-.1-.4-.1-.5.2-.3.9-.1.4-.5-.1-.1-.8.2-.9.3S67,33,67,33.3Zm5,9.3a2.27,2.27,0,0,0-.4.1c-.3-.5-.1-1.4-.6-.5.1-.2-.5.2-.3.6.3,0,.6-.2.8-.1s0,.3.2.4.5-.3.4.3c0,.3-.6.1-.3.8.5.1.2-.2.3-.5s.4,0,.4-.3c0-.8,0,.2-.4-.3C72,43,72.15,42.7,72,42.6Zm-.9-6.6a1.2,1.2,0,0,0,.9.8A.88.88,0,0,0,71.15,36ZM67,33.3Zm8.5,11.1c-.3.5.7.6.4,0C75.95,44.4,75.65,44.3,75.55,44.4Zm-.2-1.9c-.3.5.7.6.4,0C75.75,42.5,75.45,42.4,75.35,42.5ZM45,63.5c.2.2.5-.2.3-.5C45.15,62.5,44.85,63.3,45,63.5Zm26.4-25.7a.6.6,0,0,0,.4-.1c0-.9-.4-1.2-1-1.2v.2C71.15,37,71.45,37.1,71.45,37.8ZM49,44.7c.3.3.5-.2.4-.4C49.35,43.9,48.75,44.5,49,44.7Zm12-9.8a1,1,0,0,0,.6-1.2C61.25,33.9,61.15,34.4,61,34.9Zm.4-2.9s-.3-.2-.4,0C60.75,32.4,61.75,32.6,61.45,32Zm-.8.2s-.3-.2-.4,0C59.95,32.6,60.95,32.8,60.65,32.2Zm-.8.1s-.3-.2-.4,0C59.15,32.7,60,32.9,59.85,32.3Zm2.5.4c.3.3.5-.2.4-.4C62.65,31.9,62,32.4,62.35,32.7Zm-.8.1c-.3.5.7.6.4,0C61.95,32.8,61.65,32.7,61.55,32.8Zm.6-1.4s-.3-.2-.4,0C61.45,31.9,62.45,32,62.15,31.4Zm-1,16.6s-.3-.2-.4,0C60.45,48.5,61.45,48.6,61.15,48Zm-2.3-14.1s-.3-.2-.4,0C58.15,34.3,59.15,34.5,58.85,33.9ZM63,31.3s-.3-.2-.4,0C62.35,31.7,63.35,31.9,63,31.3Zm-4.7,5c-.3.5.7.6.4,0C58.75,36.3,58.45,36.2,58.35,36.3ZM65.25,23c-.1.2.1,1.3.4,1.3C66,24,65.55,22.5,65.25,23ZM59,35.4s-.3-.2-.4,0C58.35,35.8,59.35,36,59,35.4Zm.4.3c-.3.5.7.6.4,0C59.85,35.7,59.55,35.5,59.45,35.7Zm0,2.4c-.3.5.7.6.4,0C59.75,38.1,59.45,38,59.45,38.1Zm8.5-1c-.5.1-.3.8-1.1.7a.9.9,0,0,0,.1.5C67.65,38.2,67.85,37.7,67.95,37.1ZM63.65,33s-.3-.2-.4,0C62.95,33.4,63.95,33.6,63.65,33Zm3.1,7.2c-.3.5.7.6.4,0C67.15,40.2,66.85,40.1,66.75,40.2ZM68,38.3c-.1.3-.6.1-.3.8h.2c.1-.5.5-.7,1-.9C68.75,37.5,68.15,37.9,68,38.3Zm1-2.4c0,.5.1,1.1.5.8-.2-1.3,1.2-3-.4-3.3-.1.7.5.2.5.6.4.3-.3.2-.4.3a4.14,4.14,0,0,1,.2,1.4C69.45,35.8,69,36,69,35.9Zm-.1-1a1,1,0,0,0-.6,1.2C68.75,35.9,68.85,35.4,68.95,34.9Zm-.3,2.5c.3,0,.3-.5.1-.8C68.45,36.1,68.15,37.5,68.65,37.4Zm-1.7,1.2c0,.9.4,1.3,1,1.3-.1-.6-.7-.4-.6-1.4A.76.76,0,0,1,66.95,38.6Zm-2.5-5.7s-.3-.2-.4,0C63.75,33.3,64.75,33.5,64.45,32.9Zm2.1,5.5s-.3-.2-.4,0C65.85,38.8,66.75,39,66.55,38.4Zm-1.2-5.3c-.5,0-.3.1-.4.5s-.2,0-.3.5c-.1.3-.6,0-.3.6.5.2.2-.3.3-.5s.3,0,.4-.1-.1-.4-.1-.5S65.75,33.8,65.35,33.1Zm-1.1-1.7a1.26,1.26,0,0,0-.7,1A.9.9,0,0,0,64.25,31.4Zm2,2.2s-.3-.2-.4,0C65.55,34,66.55,34.2,66.25,33.6Zm0,.8c-.6.1,0,.9-.1,1.3s-.7.4-.3.8H66A1.94,1.94,0,0,0,66.25,34.4Zm-7.8,2.9c-.6-1-.5,1.4.1.5C58.55,37.8,58.55,37.4,58.45,37.3Zm1,13.4c-.3.5.7.6.4,0C59.85,50.7,59.55,50.6,59.45,50.7Zm-.1-7.1c-.2-.4-.8.2-.4.4S59.45,43.8,59.35,43.6Zm-.1,3.3c.3.3.5-.2.4-.4C59.55,46.1,58.95,46.6,59.25,46.9Zm.3,1.9c-.2-.4-.6.3-.3.5S59.75,49.1,59.55,48.8Zm-1-4.3c-.3.5.7.6.4,0C58.95,44.5,58.65,44.4,58.55,44.5Zm-.7.7s-.3-.2-.4,0C57.15,45.7,58.15,45.8,57.85,45.2Zm1,7.1c.2.2.5-.2.3-.5C58.95,51.3,58.65,52.1,58.85,52.3ZM59,38.7s-.3-.2-.4,0C58.45,39.2,59.35,39.3,59,38.7Zm1.5,10.4c-.3.5.7.6.4,0C60.85,49.1,60.55,49,60.55,49.1Zm-2.3-1s-.3-.2-.4,0C57.55,48.5,58.55,48.7,58.25,48.1Zm2.4,1.9c-.3.5.7.6.4,0C61,50,60.75,49.9,60.65,50Zm-.5-3.3c-.3.5.7.6.4,0C60.55,46.7,60.25,46.6,60.15,46.7Zm-.6-4.7s-.3-.2-.4,0C58.85,42.5,59.85,42.6,59.55,42Zm.4,2.9s-.3-.2-.4,0C59.25,45.3,60.25,45.5,59.95,44.9Zm-1.4,8.4c-.3.5.7.6.4,0C58.95,53.3,58.65,53.2,58.55,53.3Zm-2.6-16.1c-.3.5.7.6.4,0C56.35,37.2,56,37.1,55.95,37.2Zm1.3,6.6c.2.2.5-.2.3-.5S57,43.6,57.25,43.8Zm-1.5-8.4c-.3.5.7.6.4,0C56.15,35.4,55.85,35.3,55.75,35.4Zm.6-1.1s-.3-.2-.4,0C55.75,34.7,56.65,34.9,56.35,34.3Zm1,1.4s-.3-.2-.4,0C56.65,36.1,57.65,36.3,57.35,35.7Zm.5,3.6c-.3.5.7.6.4,0C58.25,39.3,57.95,39.2,57.85,39.3Zm-.3-5.2s-.3-.2-.4,0C56.85,34.5,57.85,34.7,57.55,34.1Zm-.8,3c-.3.5.7.6.4,0C57.15,37.1,56.85,36.9,56.75,37.1Zm1.1,4.8s-.3-.2-.4,0C57.15,42.3,58.15,42.5,57.85,41.9Zm.7,5.2s-.3-.2-.4,0C57.85,47.5,58.85,47.7,58.55,47.1Zm-1.5-8s-.3-.2-.4,0C56.35,39.5,57.35,39.7,57,39.1Zm-.5,2.4c-.3.5.7.6.4,0C56.95,41.5,56.65,41.4,56.55,41.5Zm1.2,8.6c-.3.5.7.6.4,0C58.15,50.1,57.85,49.9,57.75,50.1ZM44,38s-.3-.2-.4,0C43.35,38.5,44.35,38.6,44,38Zm14.6-5.5s-.3-.2-.4,0C57.95,32.9,58.95,33.1,58.65,32.5Zm-12.9-8.9s-.3-.2-.4,0C45,24.1,46,24.2,45.75,23.6Zm.3,4.8c.2.2.5-.2.3-.5C46.15,27.4,45.75,28.2,46,28.4Zm-.7-2.3c-.3.5.7.6.4,0C45.65,26.1,45.35,25.9,45.35,26.1Zm.3-3.4s-.3-.2-.4,0C44.95,23.1,45.95,23.3,45.65,22.7Zm.9-.1c-.2-.3-.8.2-.4.4S46.65,22.8,46.55,22.6Zm-.6,2.4c-.2-.4-.6.3-.3.5S46.15,25.4,45.95,25Zm.1.9c-.3.5.7.6.4,0C46.45,25.9,46.15,25.8,46,25.9Zm1.8-2.2s-.3-.2-.4,0C47.15,24.1,48.15,24.3,47.85,23.7Zm-1.1,4c.5-.1.7-.5.8-1.1A1.21,1.21,0,0,0,46.75,27.7Zm-.1-4.2c-.2-.4-.8.2-.4.4S46.75,23.7,46.65,23.5ZM48,24.6c-.2-.4-.6.3-.3.5S48.15,25,48,24.6Zm-.3,1c-.3.5.7.6.4,0C48.15,25.6,47.85,25.5,47.75,25.6Zm-.1,2.5c.2.2.5-.2.3-.5C47.75,27.1,47.45,27.9,47.65,28.1Zm.7-.7a1.06,1.06,0,0,0,.9.9C49,27.8,48.85,27.4,48.35,27.4Zm-.1-.8s-.3-.2-.4,0C47.55,27,48.55,27.2,48.25,26.6Zm1.8-.5c-.3-.1,0-.7-.5-.4.5.7.4.5.2,1.4.5.2.2-.3.3-.5S50.75,26.3,50,26.1Zm-.3,1.6c-.3.5.7.6.4,0C50.15,27.7,49.75,27.6,49.75,27.7Zm15.9-1.9c.4-.2.4-.8,1.1-.7a.9.9,0,0,0-.1-.5C66,24.7,65,25,65.65,25.8Zm-28,36.6ZM67.85,55Zm-30.7,8.1Zm13.3-35.5c.5.1.2-.2.3-.5a7.05,7.05,0,0,0,.7-.9c-.1-.2-.6-.4-.8-.1s.3.3.1.8C50.65,27.1,50.25,26.9,50.45,27.6Zm-3.5-2.3c-.3.5.7.6.4,0C47.25,25.3,46.95,25.2,46.95,25.3Zm.7-3.5c-.2-.4-.6.3-.3.5S47.85,22.1,47.65,21.8Zm3.6,5.6a1.05,1.05,0,0,0,1,.8C52.15,27.7,51.65,27.5,51.25,27.4Zm-4.5-3c-.2-.3-.8.2-.4.4S46.85,24.6,46.75,24.4Zm.2-1.6c-.3.5.7.6.4,0C47.35,22.8,47,22.7,46.95,22.8Zm2.2.6c-.5.1-.7.5-.8,1.1C48.75,24.2,49.15,24,49.15,23.4Zm-1-.6s-.3-.2-.4,0C47.45,23.2,48.45,23.3,48.15,22.8Zm3.1,1.7a1.06,1.06,0,0,0-.9-.9C50.55,24.1,50.75,24.5,51.25,24.5Zm9-1s-.3-.2-.4,0C59.65,23.9,60.55,24.1,60.25,23.5Zm.5-2.2a1.26,1.26,0,0,0-.7,1A.9.9,0,0,0,60.75,21.3ZM59.55,24a1.37,1.37,0,0,0-.8,1.1A1.05,1.05,0,0,0,59.55,24Zm.2-1.9s-.3-.2-.4,0C59,22.5,59.95,22.7,59.75,22.1Zm1.4,1.6c.3.3.5-.2.4-.4C61.35,22.9,60.85,23.4,61.15,23.7Zm1.4-2.2c.4.9-.2.9-.2,1.5C62.85,23,63.45,21.4,62.55,21.5Zm-13.7,3.6s-.3-.2-.4,0C48.15,25.5,49.15,25.7,48.85,25.1Zm12.9-3.4s-.3-.2-.4,0C61,22.1,62,22.3,61.75,21.7Zm3.1,4.7c-.4.7,1,.4.4-.1Zm.7-.6s-.4,0-.4.1C64.75,26.6,66.15,26.3,65.55,25.8Zm.5.4c-.4.7,1,.4.4-.1Zm-7.5.1s-.3-.2-.4,0C57.85,26.7,58.85,26.9,58.55,26.3Zm1.4.5a1.26,1.26,0,0,0,.7-1A1,1,0,0,0,59.95,26.8ZM59,23.1s0-.4-.1-.5C58.45,21.7,58.45,24,59,23.1Zm4.5-.2s-.3-.2-.4,0C62.85,23.3,63.75,23.5,63.55,22.9Zm-20.3,3.6s-.3-.2-.4,0C42.55,26.9,43.55,27.1,43.25,26.5Zm1.3-3.2a1.37,1.37,0,0,0-.8,1.1C44.35,24.2,44.45,23.8,44.55,23.3Zm-.3,4.8c.3.3.5-.2.4-.4C44.55,27.3,43.95,27.8,44.25,28.1Zm-.1-.9c.3.3.5-.2.4-.4C44.45,26.4,43.85,26.9,44.15,27.2Zm4.8-1.2c-.3-.5-.6.9-.1.8C49.15,26.8,49.25,26.3,48.95,26Zm-4.2-.8c-.2-.4-.6.3-.3.5S44.95,25.6,44.75,25.2Zm16.2-.1a1.55,1.55,0,0,0,.8-1.1A1.05,1.05,0,0,0,60.95,25.1Zm1.6-.3a1.26,1.26,0,0,0,.7-1A1.09,1.09,0,0,0,62.55,24.8Zm-.7.8c.2.2.5-.2.3-.5C61.95,24.6,61.65,25.3,61.85,25.6Zm.5-2s-.3-.2-.4,0C61.75,24,62.65,24.2,62.35,23.6Zm-19.7,4.3c-.3.5.7.6.4,0C43,27.9,42.75,27.8,42.65,27.9Zm.4-3.3s-.3-.2-.4,0C42.35,25,43.35,25.2,43,24.6Zm-1.1.7c-.2-.3-.8.2-.4.4C41.75,26,42,25.5,41.95,25.3ZM58,40.8c-.3.5.7.6.4,0C58.45,40.8,58.15,40.7,58,40.8Zm-4.8,7.1s-.4,0-.4.1C52.45,48.7,53.85,48.4,53.25,47.9Zm-1.6-6c-.1.1-.4,0-.5.1s.1.4.1.5c.1-.1.4,0,.5-.1S51.65,42,51.65,41.9Zm1.2-.2s-.4,0-.4.1C52,42.5,53.45,42.2,52.85,41.7Zm.3-.6c-.4-.3-.5.5-.3.6S53.45,41.4,53.15,41.1Zm1,7.6h0C54.25,48.7,54.25,48.6,54.15,48.7Zm-3.5-7.3c-.1.3-.6.1-.3.8.5.1.2-.2.3-.5s.4.1.4-.3a6.82,6.82,0,0,0-.5-.7c-.1-.1-.3.1-.4.1C49.95,41.3,50.85,40.9,50.65,41.4Zm5.2,10.4c.1-.4-.3-.8-.2-1.3,0-.1.4-.1.4-.2.1-.4-.4-1.1.2-1.2.1-.6-.5,0-.5-.5-.4-.3.3-.2.4-.3s-.3-1-.2-1.2.4-.2.4-.2a21.84,21.84,0,0,0-.5-3.9l-.4.1c-.5-.8.3-3.2-1.1-2.3-.4-.3.3-.4.3-.6,0-1.1,0,.2-.4-.3-.1-.1,0-.4-.1-.5a2.27,2.27,0,0,0-.4.1c-.2-.3,0-.7-.1-.9s-.4.2-.5.1,0-.5-.1-.6-.3.1-.4.1c-.3-.2.1-.3-.4-.4-.2,0,0-.4-.2-.4s-.3.2-.7.1,0-.3-.5-.4c-.1,0-.1-.4-.2-.4a1.22,1.22,0,0,0-.9.3c-.1.5.4.1.5.5.1.6-.2-.2-.4.3,0,.1.2.6.1.8s-.4.1-.4.2c-.1.3.2.7.1.9l-.5.7c-.4.1,0-.8-.6-.3.5.7.4.5.2,1.4.4.4.1-.2.3-.5s.2.2.3-.4c.1-.3.2-.1.3-.5,0-.2.3,0,.4-.2s-.2-.7-.1-.9.3,0,.4-.2-.1-.4-.1-.5.4,0,.5-.1-.2-.4,0-.5a1.56,1.56,0,0,1,.8.6c.1.2-.7.6-.2,1.3a.6.6,0,0,0,.4-.1c0-.3-.1-.7-.1-1a.37.37,0,0,0,.3-.1c.2.5.2,1.4,1,.9.3.7-.6.3-.3,1,.3-.1.6-.1.9-.2-.3,1.8-1.8-1.4-2.1.4-.5.2-.2-.7-.8-.3v.2c.1.2.9.4,1,.8.2,1.2,0-.5-.4.3-.1.1.1.5.1.6.1-.1.3,0,.4-.1s.2-1.1.3-.9c-.1-.4-.4.1-.5-.5.3-.2.1-.4.7-.2.2.1.1.3.5.4.1,0,.1.4.2.4.7.2,1.6-.7,1.4.8-.6.3-.3-.7-.9-.3v.2c.4.2.6.8,1.4.5v.3c-1,.5.6,1.3.3,1.9-.3.8-.8-.4-1.3-.1v.2c.3.3.7.2.6,1.1.6.1.2-.5.4-.5s.9.5.8.7a1.3,1.3,0,0,1-1.1.3c-.2,0,0-.3-.2-.4s-.7.1-.6-.8a.6.6,0,0,0-.4.1c.3.4-.2,1.4-.4,1.5s-.2-.7-.6-.4v.2c.5.1.6.9.6,1.6a.6.6,0,0,0,.4-.1c0-.5-.3-1-.2-1.4l.5-.7c.8-.2-.3.1.3.4.2.1.6-.3.5.3-.9-.1-1.1,1.3.1.7-.2.1.3-1.2.7-.7.2.5-.1.6-.3.8-.1.6.6,0,.5.7-.6.4-.3-.7-.8-.3V48c.4.2.5.4.6,1.2,0,.4.2,1.4-.2,1s0-1.4-.4-1.9c.1.1-1-.3-.6-.4-.6,0,.1.1-.2.5-.1.1-.3,0-.4.1s.1.3,0,.3c-.1.3-.6.3-.3.6.3-.2.6-.6.7-.6,0-.2-.2-.7.2-.5s.1,1.1.4,1.9c0,0,.9-.1.6.7-.1.3-.8.1-.5.3A6.87,6.87,0,0,0,55.85,51.8Zm-1.7-15.6s-.3-.2-.4,0C53.45,36.7,54.45,36.8,54.15,36.2Zm-2.9,6.3c-.1.1-.3,0-.4.1-.2.3.3.4-.1.5s-.2-.9-.6-.4.4.2.5.5-.7.8-.6,1.2c.1.7.1-.3.4.2.1.1,0,.5.1.6s.4-.2.4,0c.1.6-.1-.1-.3.4-.1.1.1.4.1.5s-.3,0-.4.1.1.3,0,.3c-.1.2-.6.3-.3.6s.3-.5.4-.5c.4-.2.7.8,1,.8.8-.1-.2-.1.1-.5.1-.1.3,0,.4-.1s-.1-.4-.1-.5.5,0,.5-.1c.1-.8-.7-1.3-.5-.4,0,.2-.3,1-.5,1s-.7-.7-.7-.5c-.1-.3.7-1,.6-1.2-.1-.6-.1.2-.4-.2-.1-.1,0-.5-.1-.6s-.4.2-.4,0c-.1-.8.1.1.3-.4.1-.1-.1-.4-.1-.5.2-.3.2.1.3-.4,0-.2.3,0,.4-.2C51.35,42.8,51.15,42.5,51.25,42.5Zm-.4-9.7c-.4-.3-.5.5-.3.6S51.15,33,50.85,32.8Zm-1-.8a.6.6,0,0,0-.4.1c0,.3.1.6.1.9-.6.4-.3-.7-.8-.3.1.2.6.9.6.9.5,0,0-.1.2-.5C49.65,32.9,50.15,32.7,49.85,32Zm2.7,2c.3-.5-.3-.2-.5-.4s0-.4-.1-.5-.3.1-.4.1,0-.5-.1-.6-.3.2-.4,0,0-.5-.4-.3v.2a4.3,4.3,0,0,1,.9,1c0,.3-.5.1-.8.3a.6.6,0,0,0,.1.4c-.1.1-.2.4-.4.1-.1-.1-.2-1.6-.6-.8-.3.5.3,2,1,1.1v-.3A15.46,15.46,0,0,1,52.55,34Zm-1.7,5.6c.3.3.5-.2.4-.4S50.55,39.4,50.85,39.6ZM49,35.1c-.4.2-.9,0-1.3.2a4.33,4.33,0,0,1,.1.5c-.1.2-.9.2-.8.1s.1.3,0,.3c-.2.4-.6.5-.3.7s2.3-.1,1.5-1.3c.5-.3.9.1,1.2-.2a7.85,7.85,0,0,1,.2-1.4C48.95,34,48.75,34.3,49,35.1Zm6.3,3.8s-.3-.2-.4,0C54.65,39.4,55.65,39.5,55.35,38.9Zm13.3,6.4c.8,1,1.3-.9,0,0Zm-.3.4c-.4.7,1,.4.4-.1A2.27,2.27,0,0,0,68.35,45.7Zm2,1.1c.3,0,.2-.8.1-.9C70,45.5,69.75,46.9,70.35,46.8Zm-1-2.8c.1,1.2.8,1.4,1.4,1.7-.2-.9-1.1-.5-1-1.8A.6.6,0,0,1,69.35,44Zm-2.1-.5c-.2-.4.4-.7.6-1.3-1-.5.2-1,.2-1.8-.5-.2-.2.3-.3.5s-.2-.1-.3.4-.3,0-.3.8l.4-.1c.2.5-.5.7-.6,1.3C66.75,43.7,67,43.5,67.25,43.5Zm-9.8,8.1s-.3-.2-.4,0C56.75,52,57.75,52.2,57.45,51.6Zm10.1-5.7a.6.6,0,0,0,.4-.1c-.4-.7.1-.7.3-1,.1-.1-.1-.4-.1-.5s.3-.1.4-.2-.2-.6-.1-.8.3-.1.4-.2-.2-.6-.1-.8.5.1.4-.4-.7.2-.6-.6c.7,0,.1-1.2.7-1.3,0-.4-.2-.3-.4-.3V40c-.7,0-.2.6-.4,1l-.4.2c0,.6.5.5.5.7,0,.5-.2-.1-.4.3,0,0,.2.6.1.8s-.4.1-.4.2.2.5.1.8-.3,0-.4.2.1.4.1.5C67.75,45,67.15,45.1,67.55,45.9Zm1.2-6.1c-.3-.7.6-.3.3-1-.5.1-.5.6-.8.8C68.25,40.1,68.65,39.8,68.75,39.8Zm.7,1.9c-.1.2.1,1.3.4,1.3C70.25,42.7,69.75,41.2,69.45,41.7Zm1.2.2a2,2,0,0,0-1.4-1.3C69.65,41.3,70,41.8,70.65,41.9Zm-.4-4.8c.3,0,.2-.8.1-.9C69.95,35.9,69.65,37.2,70.25,37.1Zm.9,8.1a1.2,1.2,0,0,0-.9-.8A.88.88,0,0,0,71.15,45.2Zm.1-.5a2,2,0,0,0,0-1.5c-.1-.1-.3.1-.4,0s-.2-.6-.4-.2c-.3.7.3,0,.4.3C71.15,43.7,70.75,44.6,71.25,44.7Zm-2-1.6a1,1,0,0,0,1.3.7.9.9,0,0,0-.1-.5C69.75,43.8,69.75,43,69.25,43.1Zm-23.6-8.8s0-.4-.1-.5C45,32.8,45,35.2,45.65,34.3Zm-4.3,1.8s-.3-.2-.4,0C40.65,36.5,41.55,36.7,41.35,36.1Zm2-.4c-.2-.3-.8.2-.4.4S43.45,35.9,43.35,35.7Zm-1.8,5.1c-.3.5.7.6.4,0C41.95,40.8,41.65,40.7,41.55,40.8Zm0-2.9c-.3.5.7.6.4,0C41.95,37.9,41.65,37.8,41.55,37.9Zm19.6,7.2s-.3-.2-.4,0C60.45,45.5,61.45,45.7,61.15,45.1Zm-18.9-8.2s-.3-.2-.4,0C41.55,37.3,42.45,37.4,42.25,36.9Zm.8,3.2c-.2-.4-.6.3-.3.5S43.25,40.4,43,40.1Zm-2.2-.7c.3.3.5-.2.4-.4C41.15,38.6,40.55,39.2,40.85,39.4Zm2.6,6.9c-.3.5.7.6.4,0C43.85,46.3,43.55,46.2,43.45,46.3Zm0-6.4c.3.3.5-.2.4-.4C43.65,39.1,43.15,39.6,43.45,39.9Zm-.1,2.1s-.3-.2-.4,0C42.65,42.4,43.55,42.6,43.35,42ZM42,44.1c-.3.5.7.6.4,0C42.35,44.1,42,44,42,44.1Zm.9.8a1.26,1.26,0,0,0,.7-1A.9.9,0,0,0,42.95,44.9Zm-1.2-2.7c-.3.5.7.6.4,0C42.15,42.2,41.85,42.1,41.75,42.2Zm2.4-6.6s-.3-.2-.4,0C43.45,36,44.45,36.2,44.15,35.6Zm2.3-1.4s-.3-.2-.4,0C45.75,34.7,46.75,34.8,46.45,34.2Zm20.5,10.3a1.27,1.27,0,0,0,.7-.8c.1-.8-.2.3-.4-.2C67.55,44.1,66.65,43.8,66.95,44.5ZM47,33.1s-.3-.2-.4,0C46.35,33.5,47.35,33.7,47,33.1Zm1.3-.2s-.3-.2-.4,0C47.65,33.3,48.65,33.4,48.35,32.9Zm.1,1s-.3-.2-.4,0C47.75,34.3,48.75,34.5,48.45,33.9Zm-.9,0a2.94,2.94,0,0,0-1,1.6A2.14,2.14,0,0,0,47.55,33.9Zm-2.3,1.4c.3.3.5-.2.4-.4C45.55,34.5,44.95,35,45.25,35.3ZM45,36.4s-.3-.2-.4,0C44.35,36.8,45.35,36.9,45,36.4Zm-.4,3.4c-.2-.4-.6.3-.3.5S44.85,40.1,44.65,39.8Zm.6.8a1.26,1.26,0,0,0-.7,1C44.95,41.5,45.15,41.2,45.25,40.6Zm4.4-6.6Zm-4.7,1.4s-.3-.2-.4,0C44.25,35.9,45.15,36,44.95,35.4Zm.2,2s-.3-.2-.4,0C44.45,37.8,45.45,38,45.15,37.4Zm-1.2-.4c-.2-.4-.6.3-.3.5S44.15,37.4,43.95,37Zm-1.2,1.1c-.3.5.7.6.4,0C43.15,38.2,42.85,38,42.75,38.1ZM63.45,34c-.3.5.7.6.4,0C63.85,34,63.55,33.9,63.45,34Zm.6,1.8c-.3.5.7.6.4,0C64.45,35.8,64.15,35.6,64,35.8Zm.9.9c.2.2.5-.2.3-.5C65,35.7,64.75,36.4,64.95,36.7Zm-.3.5c-.3.5.7.6.4,0C65,37.2,64.75,37,64.65,37.2Zm.2-1.6a1.55,1.55,0,0,0,.8-1.1A1.05,1.05,0,0,0,64.85,35.6Zm1.8,3.7a1.13,1.13,0,0,0-.7,1.1C66.45,40.2,66.55,39.8,66.65,39.3ZM65.45,37c-.1.1.2.6.1.8s-.7.3-.3.6.2-.3.3-.5.5,0,.5-.1C66.15,37.4,65.95,36.7,65.45,37Zm-2-.1s0-.4-.1-.5C62.85,35.5,62.85,37.8,63.45,36.9Zm-.2-1a1.26,1.26,0,0,0,.7-1A1,1,0,0,0,63.25,35.9Zm-1-.8c-.3.5.7.6.4,0C62.65,35.1,62.35,35,62.25,35.1Zm.4,3c0,.3.6.8,1,.6.1-.5-.2-.5-.5-.4V38c-.1-.2.3-.1.5-.2a.9.9,0,0,0-.1-.5c-.4,0-.4,0-.4.4C62.95,38.3,62.65,37.6,62.65,38.1Zm4,7.9c.3.3.5-.2.4-.4C66.95,45.2,66.35,45.8,66.65,46Zm-1.9-5.3s-.3-.2-.4,0C64,41.1,65,41.2,64.75,40.7ZM63,34.2c-.2-.3-.8.2-.4.4S63.15,34.4,63,34.2Zm-.1-1c-.2-.3-.8.2-.4.4C62.75,33.9,63,33.4,62.95,33.2ZM61,44.1a1.37,1.37,0,0,0,.8-1.1A1.05,1.05,0,0,0,61,44.1Zm1.9-1.1s-.3-.2-.4,0C62.25,43.4,63.25,43.5,62.95,43Zm-.2,1.7a1,1,0,0,0-.6,1.2C62.65,45.7,62.75,45.2,62.75,44.7ZM61.25,46c-.3.5.7.6.4,0C61.65,46,61.35,45.9,61.25,46Zm1.7.2c-.3.5.7.6.4,0C63.35,46.2,63,46.1,62.95,46.2Zm-1.5,1.2c-.3.5.7.6.4,0C61.85,47.4,61.55,47.3,61.45,47.4Zm.2,1.5c-.3.5.7.6.4,0C62,48.9,61.75,48.8,61.65,48.9ZM63,40.5s-.3-.2-.4,0C62.35,40.9,63.25,41.1,63,40.5Zm2.8,5.2a1,1,0,0,0,.6-1.2C65.95,44.7,65.95,45.2,65.85,45.7Zm-.9-.3c-.3.5.7.6.4,0C65.35,45.4,65,45.3,64.95,45.4Zm.7-1.1s-.3-.2-.4,0C64.95,44.8,65.95,44.9,65.65,44.3Zm-.8.2s-.3-.2-.4,0C64.15,44.9,65.15,45.1,64.85,44.5Zm-1,2c-.3.5.7.6.4,0C64.25,46.5,63.95,46.4,63.85,46.5Zm.3-.5c.3.3.5-.2.4-.4C64.45,45.2,63.85,45.7,64.15,46Zm-1.9.8c-.3.5.7.6.4,0C62.65,46.8,62.35,46.7,62.25,46.8Zm-1.4-7c-.2-.4-.6.3-.3.5S61,40.2,60.85,39.8Zm-.6,1.5c-.3.5.7.6.4,0C60.65,41.3,60.35,41.2,60.25,41.3Zm.3,2.5s-.3-.2-.4,0C59.85,44.3,60.85,44.4,60.55,43.8Zm.2-1.5s-.3-.2-.4,0C60,42.7,61,42.9,60.75,42.3Zm-.6-1.8s-.3-.2-.4,0C59.45,41,60.45,41.1,60.15,40.5ZM60,34c.1-.2.8.1.4-.5-.5.1-.8.5-.7,1.2C60.35,34.9,59.85,34.3,60,34Zm-.3,3.6c.2.2.5-.2.3-.5C59.85,36.6,59.45,37.4,59.75,37.6Zm1.7,3.1a1,1,0,0,0,.6-1.2C61.65,39.7,61.55,40.2,61.45,40.7Zm.9.7a1.26,1.26,0,0,0-.7,1A.9.9,0,0,0,62.35,41.4Zm-.8-2.7c-.3.5.7.6.4,0C61.95,38.7,61.65,38.5,61.55,38.7Zm-1-.8c.3.3.5-.2.4-.4C60.85,37.1,60.25,37.6,60.55,37.9Zm2.1,5.9c-.3.5.7.6.4,0C63,43.8,62.75,43.7,62.65,43.8Zm-1.5-5.4c-.2-.3-.8.2-.4.4S61.25,38.6,61.15,38.4Zm-.2-1.6a2.94,2.94,0,0,0,1-1.6A2.14,2.14,0,0,0,60.95,36.8Zm2.8,2.9c-.1.3-.7,0-.4.7.6.2.3-.3.4-.5s.3,0,.4-.1-.1-.3-.1-.5c.1-.4.2,0,.3-.5.1-.3.6,0,.3-.6-.5-.2-.2.3-.3.5s-.2-.1-.3.4c0,.2-.3,0-.4.2C63.65,39.3,63.85,39.6,63.75,39.7Zm2.8,1.9c-.6.1-.6.7-.7,1.2C66.15,42.5,66.65,42.3,66.55,41.6Zm-1.1-1.5s-.3-.2-.4,0C64.75,40.5,65.75,40.7,65.45,40.1Zm1,.7c-.2-.3-.8.2-.4.4S66.55,41,66.45,40.8Zm-1.1-1.3c.2.2.5-.2.3-.5C65.45,38.5,65.15,39.3,65.35,39.5Zm1,4.2s-.3-.2-.4,0C65.65,44.2,66.65,44.3,66.35,43.7Zm-.8-2.8a1.26,1.26,0,0,0-.7,1A1,1,0,0,0,65.55,40.9Zm-2,.3c.3.3.5-.2.4-.4C63.75,40.4,63.15,41,63.55,41.2Zm-.2,1.6c.6.3.1-1,.7-.7.2.1,0,.7.6.5-.2-.6-.8-1.4-1-.5C63.55,42.2,63,42.1,63.35,42.8Zm.2,1.8a1.37,1.37,0,0,0,.8-1.1C63.75,43.6,63.65,44.1,63.55,44.6Zm-.7-5.6s-.3-.2-.4,0C62.15,39.4,63,39.6,62.85,39Zm1.4-1.6s-.3-.2-.4,0C63.55,37.8,64.55,38,64.25,37.4ZM62,36.7c-.2-.4-.6.3-.3.5S62.25,37,62,36.7Zm3.3,5.7a.6.6,0,0,0-.4.1c.4.9-.3.8-.2,1.4C65.25,43.7,65.55,43.3,65.35,42.4Z"/><path class="cls-2" d="M58.65,79c-.1-1.3-.6-2,.1-.9.2.4.5,1.2,1.1,1s.6-.8.8-1.3a4.09,4.09,0,0,1,1-1.8,1,1,0,0,1,1.6,0,1.21,1.21,0,0,0-1.5-.3c-2,1.3-1.6,4.6-2.5,1.8-.2-.3-.4-.6-.8-.6-.6.1-.6.7-.6.9a6.8,6.8,0,0,0,.2,1.5c.3,1.1-.3,1.8-.8.8a10,10,0,0,0-1-2.5c-.6-1-2.1-.6-2.6-.1-.3.8-1.9-.9-2.8.4a1.5,1.5,0,0,1,1.8,0c.8.8,1.9-1.1,2.9-.2.8.6.7,1.7,1.1,2.8.2.5.8,1.5,1.9.7A3.38,3.38,0,0,0,58.65,79Zm-15.8-2.1c-.3-.8-.6-1.1-1.4-1.2a15.28,15.28,0,0,0-3.7-.1c-2.4,0-3.9,2.7-5.6,2.9-1.9.7-4.1-.6-6.2-1-1.2-.2-2.7.4-4,.3a10.8,10.8,0,0,0,1.8,0c1.8-.2,3.4.8,5.5,1.5a5.37,5.37,0,0,0,5.9-1.7c1.3-1.4,3.1-1.6,4.8-1.7a11.48,11.48,0,0,1,1.8.1C42.25,76.2,42.35,76.2,42.85,76.9Zm-21.3,3.3a2.66,2.66,0,0,0,1,1.1c3.4,2.4,7.3-1.5,9.7,2,.5.5,1.3,1.4,2.3,1.1a5.26,5.26,0,0,0,2-1.6,1,1,0,0,1,.5-.4h0c.2.2.4,1.5,1.2,1.2-.9.1-.7-1.4-1.1-1.5h-.2V82c.3-.8.2-1.6.5-2.3s1.1-1,1.4-.3a6.46,6.46,0,0,1,.4,2c0,.4.3,1.2.8,1.3a1.28,1.28,0,0,1-.5-.7,3.89,3.89,0,0,1-.2-1.5,2.57,2.57,0,0,0-.7-1.8h0c.7-.3,1-1.1,1.5-1.4s1.3.1,1.3.9-.1,1.3,0,2.1a2.17,2.17,0,0,0,.5,1.4,1.08,1.08,0,0,1-.3-.7,7.52,7.52,0,0,1,0-1.5,3.07,3.07,0,0,0-.2-2.1,5.65,5.65,0,0,0,1.6.9c2.7-.3,4.5.4,5.3,3.2a10.73,10.73,0,0,0,1.8,4.1,5.92,5.92,0,0,0,3.6,1.8c2.4.6,4.9-1.2,6.4-2.9a5.65,5.65,0,0,1,3.8-1.6,6.45,6.45,0,0,0-2.4,0c-1.4.6-2.6,1.9-4,2.7a5.41,5.41,0,0,1-6.7-1.2c-1.4-1.6-1.8-6.7-4.9-6.9a5.7,5.7,0,0,0-2.5.3,4,4,0,0,1-2.1-.6c-.1-.1-.2-.2-.3-.2-.9-.5-1.5.5-1.9,1.1a1.41,1.41,0,0,1-.7.6.64.64,0,0,0-.6,0c-1,.4-.9,1.6-.9,2.3a4.91,4.91,0,0,1-.1,1.1c-.5.2-1.4,1.4-2.1,1.6-1.8,1-2.3-2.3-4.6-2.7s-3.7,1-5.7.6C23.75,81.5,22.15,81.2,21.55,80.2Zm44.7-6.4a5.44,5.44,0,0,0-1.8,0,10.66,10.66,0,0,1-5.5-.6c-2.2-.5-4.1.6-5.8,1.8-1.6,1.4-2.7,2-4.2.7-1.2-.7-3.2-.8-3.8.6.4-.8,1.3-.6,2-.7,1.4-.1,2.3,1.3,3.5,1.5,2.3-.2,3.7-2.3,5.6-2.7,1.8-.9,4,.2,6.1.1C63.55,74.4,65,73.6,66.25,73.8Zm3.1,9.4a11.43,11.43,0,0,1-2.4.5H68a3.27,3.27,0,0,0,3.2-1.9c.6-1.3.6-2.8,1.5-3.7a2.58,2.58,0,0,1,2.8-.1c.6.2,1.1,1.1,1.8,1.3a4.3,4.3,0,0,1-1-.9,3.68,3.68,0,0,0-1.9-1.1h-.1v-.2c-.4-1.2,0-2.7,1.1-3a2.2,2.2,0,0,1,1.4.2,5.94,5.94,0,0,0,.8.4,3.85,3.85,0,0,0,.8,2.4,3.77,3.77,0,0,1,.9,1.5,2.35,2.35,0,0,0-.2-.8c-.8-1.2-1.9-3.2-.4-4.2a2.5,2.5,0,0,1,1.9,0,2.25,2.25,0,0,0,1.4.1,1.13,1.13,0,0,1-.8-.1c-.5-.1-.9-.3-1.4-.4a1.67,1.67,0,0,0-2.1,1.2.37.37,0,0,1-.1.3l-.3-.3a4.05,4.05,0,0,0-.9-.5,1.56,1.56,0,0,0-1.8.4,2.54,2.54,0,0,0-.5,2,2.39,2.39,0,0,1,.2.9c-1.3-.3-2.7,1-2.9,2.4C70.95,81,70.75,82.6,69.35,83.2Zm7.1-12.6a15,15,0,0,0,5.9,1c1.1.1,2.5-.5,3.6-.3a9.15,9.15,0,0,0-1.6-.1c-3.4.3-6.7-1.4-10.4-2a8.29,8.29,0,0,0-4.8,1.3c-.9.4-2.3,1.8-2.2,3.1A3.07,3.07,0,0,1,68,71.8a6.61,6.61,0,0,1,3.1-1.6A8,8,0,0,1,76.45,70.6Z"/></svg>