<?xml version="1.0" encoding="utf-8"?>
<!-- Generator: Adobe Illustrator 18.1.1, SVG Export Plug-In . SVG Version: 6.00 Build 0)  -->
<svg version="1.1" id="Layer_1" xmlns="http://www.w3.org/2000/svg" xmlns:xlink="http://www.w3.org/1999/xlink" x="0px" y="0px"
	 viewBox="0 0 288 288" enable-background="new 0 0 288 288" xml:space="preserve">
<path fill="#6D6D6D" stroke="#FFFFFF" stroke-width="0.671" stroke-miterlimit="10" d="M14.2-16.4c4.1,6,4.2,7.2,4,18.1
	c0,1.1-0.1,8.3-12.9,16.6c-1.9,1.2-17.2,3.3-21.6,0.7"/>
<path fill="none" stroke="#FFFFFF" stroke-width="0.671" stroke-miterlimit="10" d="M-31.9,13.5C25.5,40.4,27.9-17.2,5.2-22.8"/>
<path fill="none" stroke="#FFFFFF" stroke-width="0.671" stroke-miterlimit="10" d="M-14.1,19.7C20.9,9-0.7-9-0.8-9"/>
<path fill="none" stroke="#FFFFFF" stroke-width="0.671" stroke-miterlimit="10" d="M3.2-14.5C17.1-7.8,20.4,1.8,11,15.3"/>
<g>
	<path fill="none" stroke="#FFFFFF" stroke-width="0.671" stroke-miterlimit="10" d="M40,53.6"/>
	<path fill="#6D6D6D" stroke="#FFFFFF" stroke-width="0.671" stroke-miterlimit="10" d="M168.2,63c-2.4-0.6-3.3,0.1-3.3,0.1
		c-0.1,0.7-0.6,1.1-9.7,2c-8.5,0.9-18.1-2.6-19-2c-2.4,1.7-20.7,7.8-34.6,1.9c-0.6-0.2-1.6,0-1.9,0.3c-6.5,4.9-32.9,7.1-38.3-0.1
		c-0.3-0.5-3.2,3.4-17.3,3.6c-3.4,0.1-12.4,0-17.3-4.6c-0.7-0.7-2.1,0-3.8,0.6c-36.4,13.9-37.7-17.2-37.7-17.2s-0.5-8.8,2.5-16
		c1.6-3.7,4.8-6.1,8-8.4c2.5-1.8,3.5-1.8,3.5-3.1C-1.6,6.8,21.2,0.3,21.2,0.3l41.2-0.1L278.1,0c0,0,7.3,5.4,6.6,15
		c0,0.3,0.4,0.3,0.7,0.4c0.3,0.2,0.6,0.3,0.9,0.5c2.8,1.3,5.6,3.1,7.5,5.9c4.1,6,4.2,7.2,4,18.1c0,1.1-0.1,8.3-12.9,16.6
		c-1.9,1.2-17.2,3.3-21.6,0.7c-1-0.6-1.9,0.2-2.3,0.3c-7.6,3.3-6.3,3.4-21.7,5.5c-17.8,2.4-34.5-3.2-35.4-3.1c0,0,0,0-0.9,0.4
		C194.4,63.8,185.4,67,168.2,63z"/>
	<path fill="none" stroke="#FFFFFF" stroke-width="0.671" stroke-miterlimit="10" d="M136.9,16.2C82.2,68.5,32,12.9,82.7,0.4"/>
	<path fill="none" stroke="#FFFFFF" stroke-width="0.671" stroke-miterlimit="10" d="M114.2,0.4"/>
	<path fill="none" stroke="#FFFFFF" stroke-width="0.671" stroke-miterlimit="10" d="M248.3,8.9"/>
	<path fill="none" stroke="#FFFFFF" stroke-width="0.671" stroke-miterlimit="10" d="M190.1,35.3c-2-2.8-19.2-0.1-23.3,2.8
		c-21.7,15.1-45.3,24.8-64.2,27.9c-1.7,0.3,0,0-2.4,0.1c-63.8,1.7-85.9-23.6-38.6-47.4"/>
	<path fill="none" stroke="#FFFFFF" stroke-width="0.671" stroke-miterlimit="10" d="M38.7,36.8c-44,16.4-53.5-38.2-7.3-36.2"/>
	<path fill="none" stroke="#FFFFFF" stroke-width="0.671" stroke-miterlimit="10" d="M186,40.8c26.5,26.9,52.9-23.2,37-40.6"/>
	<path fill="none" stroke="#FFFFFF" stroke-width="0.671" stroke-miterlimit="10" d="M186.6,40.9c25.7-12.2,15.7-64.7-49.7-24.8"/>
	<path fill="none" stroke="#FFFFFF" stroke-width="0.671" stroke-miterlimit="10" d="M247.6,51.7C305,78.6,307.4,21,284.7,15.4"/>
	<path fill="none" stroke="#FFFFFF" stroke-width="0.671" stroke-miterlimit="10" d="M202.6,48.4c45.1,36.9,71.7-25.7,25.2-35.1"/>
	<path fill="none" stroke="#FFFFFF" stroke-width="0.671" stroke-miterlimit="10" d="M251.3,31.5c29.7,12.8,42.1-17.9,27.3-31.3"/>
	<path fill="none" stroke="#FFFFFF" stroke-width="0.671" stroke-miterlimit="10" d="M149.9,48.7c-8.8-8.9,35.6-36,44.7-14.1"/>
	<line fill="none" stroke="#FFFFFF" stroke-width="0.671" stroke-miterlimit="10" x1="166.3" y1="38.2" x2="166.3" y2="38.2"/>
	<path fill="none" stroke="#FFFFFF" stroke-width="0.671" stroke-miterlimit="10" d="M166.3,38.2c-1,10.8-12.1,19.8,37.2,22"/>
	<path fill="none" stroke="#FFFFFF" stroke-width="0.671" stroke-miterlimit="10" d="M155.6,45.3c-10.1,10.4,2.2,17.9,9.7,17.9"/>
	<path fill="none" stroke="#FFFFFF" stroke-width="0.671" stroke-miterlimit="10" d="M189.5,35c-0.5,0.4-7.4,0-8.1,3.2
		c-3.5,15.8,11.1,21.4,43.8,21.4"/>
	<path fill="none" stroke="#FFFFFF" stroke-width="0.671" stroke-miterlimit="10" d="M240,57.3c0,2.7,4.3,2.8,15.3,2.8"/>
	<path fill="none" stroke="#FFFFFF" stroke-width="0.671" stroke-miterlimit="10" d="M247.6,51.7c0,5.7,3,6.8,11.6,6.8"/>
	<path fill="none" stroke="#FFFFFF" stroke-width="0.671" stroke-miterlimit="10" d="M221.8,59.6c2.5,4.4,9,3.5,18.4,3.5"/>
	<path fill="none" stroke="#FFFFFF" stroke-width="0.671" stroke-miterlimit="10" d="M265.4,57.8c34.9-10.7,13.3-28.6,13.2-28.6"/>
	<path fill="none" stroke="#FFFFFF" stroke-width="0.671" stroke-miterlimit="10" d="M251.9,53.5c20.1-4.5,22.9-16.4,19.5-20"/>
	<path fill="none" stroke="#FFFFFF" stroke-width="0.671" stroke-miterlimit="10" d="M282.7,23.7c13.8,6.7,17.2,16.3,7.7,29.9"/>
	<path fill="none" stroke="#FFFFFF" stroke-width="0.671" stroke-miterlimit="10" d="M247,23.7c23.5,1.1,34.7-2.5,37.6-10.4"/>
	<path fill="none" stroke="#FFFFFF" stroke-width="0.671" stroke-miterlimit="10" d="M238.1,16.7c14.2-0.9,47.4,1.3,43.2-13.4"/>
	<path fill="none" stroke="#FFFFFF" stroke-width="0.671" stroke-miterlimit="10" d="M250.8,30.7c19.5,0.6,25-1.4,32.1-7.5"/>
	<path fill="none" stroke="#FFFFFF" stroke-width="0.671" stroke-miterlimit="10" d="M227.8,11.6c37.8,0,47.9-6.7,45.2-11.4"/>
	<path fill="none" stroke="#FFFFFF" stroke-width="0.671" stroke-miterlimit="10" d="M226.3,5.8c5.9,0,25.7-2.3,26.9-5.4"/>
	<path fill="none" stroke="#FFFFFF" stroke-width="0.671" stroke-miterlimit="10" d="M187.1,41.5c34.3,2.7,30.2-23.7,21.8-41.2"/>
	<path fill="none" stroke="#FFFFFF" stroke-width="0.671" stroke-miterlimit="10" d="M187.1,41.8c36.7,14.9,35.5-23.3,29.1-41.5"/>
	<path fill="none" stroke="#FFFFFF" stroke-width="0.671" stroke-miterlimit="10" d="M186.5,41.2c28.6-1.8,19.8-29.1,11.7-40.9"/>
	<path fill="none" stroke="#FFFFFF" stroke-width="0.671" stroke-miterlimit="10" d="M222,34.9c5.8,4.6,10.4,22.4-6.9,21.6"/>
	<path fill="none" stroke="#FFFFFF" stroke-width="0.671" stroke-miterlimit="10" d="M224.3,30.3c12.6-1.6,28.1,18.2,11.4,28.8"/>
	<path fill="none" stroke="#FFFFFF" stroke-width="0.671" stroke-miterlimit="10" d="M226.5,24.3c8.1-1.9,21.9-5,25.5,12"/>
	<path fill="none" stroke="#FFFFFF" stroke-width="0.671" stroke-miterlimit="10" d="M227.7,19.3c8-2.6,10.1-3,14.8,0"/>
	<path fill="none" stroke="#FFFFFF" stroke-width="0.671" stroke-miterlimit="10" d="M111.1,64.3c-30.6-8.2,4.3-33.5,14.3-38.6"/>
	<path fill="none" stroke="#FFFFFF" stroke-width="0.671" stroke-miterlimit="10" d="M100.8,65.5c-48.2-5.1-39.9-21.9-22.5-29"/>
	<path fill="none" stroke="#FFFFFF" stroke-width="0.671" stroke-miterlimit="10" d="M47.9,58.3c-7.3-7.8-9.9-20.7,15.3-33.5"/>
	<path fill="none" stroke="#FFFFFF" stroke-width="0.671" stroke-miterlimit="10" d="M39.7,35.3C13.1,37.2,13,14.7,23.6,0.5"/>
	<path fill="none" stroke="#FFFFFF" stroke-width="0.671" stroke-miterlimit="10" d="M26.8,39.7C-8.8,29.5,13.4,3.1,15.4,3.1"/>
	<path fill="none" stroke="#FFFFFF" stroke-width="0.671" stroke-miterlimit="10" d="M42.9,31.2C15.1,31.9,28.7,6.8,38.1,0.7"/>
	<path fill="none" stroke="#FFFFFF" stroke-width="0.671" stroke-miterlimit="10" d="M53.1,23.5c-25.9,5.4-8.4-22.1-5.4-23"/>
	<path fill="none" stroke="#FFFFFF" stroke-width="0.671" stroke-miterlimit="10" d="M60.3,19.3c-2.1-0.6-11.9-2.3-5.7-18.8"/>
	<path fill="none" stroke="#FFFFFF" stroke-width="0.671" stroke-miterlimit="10" d="M64.6,10.4c-6.3-1.8-5.1-7.7-1.8-9.8"/>
	<path fill="none" stroke="#FFFFFF" stroke-width="0.671" stroke-miterlimit="10" d="M81.5,37.3C72,35.7,67.7,20,119,29.6"/>
	<path fill="none" stroke="#FFFFFF" stroke-width="0.671" stroke-miterlimit="10" d="M69.8,32.3c-2.2-4.3-2.5-15.5,56.7-7.4"/>
	<path fill="none" stroke="#FFFFFF" stroke-width="0.671" stroke-miterlimit="10" d="M64.1,26.4c0-5.2,10.7-12.4,69-6.4"/>
	<path fill="none" stroke="#FFFFFF" stroke-width="0.671" stroke-miterlimit="10" d="M61.9,20.9c0-4.9,12.4-14.1,83.4-9.3"/>
	<path fill="none" stroke="#FFFFFF" stroke-width="0.671" stroke-miterlimit="10" d="M65.4,9.5c0-3.3,25.7-6.7,94.5-4.6"/>
	<path fill="none" stroke="#FFFFFF" stroke-width="0.671" stroke-miterlimit="10" d="M102,66.1c-27-9.9-20-18.3-10.9-27.5"/>
	<path fill="none" stroke="#FFFFFF" stroke-width="0.671" stroke-miterlimit="10" d="M77.4,65.5C38.8,55.2,49.3,37.1,66.7,29.9"/>
	<path fill="none" stroke="#FFFFFF" stroke-width="0.671" stroke-miterlimit="10" d="M-12.2,31.8c5.5,25,8.4,24.8,51,19.6"/>
	<path fill="none" stroke="#FFFFFF" stroke-width="0.671" stroke-miterlimit="10" d="M-6.1,24.6c-7.2,10.9,7.9,19.3,42.3,17"/>
	<path fill="none" stroke="#FFFFFF" stroke-width="0.671" stroke-miterlimit="10" d="M54.8,67.9"/>
	<path fill="none" stroke="#FFFFFF" stroke-width="0.671" stroke-miterlimit="10" d="M33.9,60c0,5.2,11.9,8.4,32.9,4.1"/>
	<path fill="none" stroke="#FFFFFF" stroke-width="0.671" stroke-miterlimit="10" d="M72.4,69.8c-4.6-1.1-7-3.2-2.2-5.1"/>
	<path fill="none" stroke="#FFFFFF" stroke-width="0.671" stroke-miterlimit="10" d="M77.4,70.1c-9.3,0-6.2-5-3.4-5"/>
	<path fill="none" stroke="#FFFFFF" stroke-width="0.671" stroke-miterlimit="10" d="M86.8,69.5c-6.3,0.8-6.7-3.8-7-3.8"/>
	<path fill="none" stroke="#FFFFFF" stroke-width="0.671" stroke-miterlimit="10" d="M109.3,64.7c0,1.6,5.6,1.5,19.1,1.5"/>
	<path fill="none" stroke="#FFFFFF" stroke-width="0.671" stroke-miterlimit="10" d="M131.3,57.6c0,2.7,3.4,9.8,26.8,3.6"/>
	<path fill="none" stroke="#FFFFFF" stroke-width="0.671" stroke-miterlimit="10" d="M140.3,53.5c0,1.6,7.3,5.5,12.6,2.6"/>
	<path fill="none" stroke="#FFFFFF" stroke-width="0.671" stroke-miterlimit="10" d="M190.1,35.3c0,0,1,0,1.8,1.8"/>
	<path fill="none" stroke="#FFFFFF" stroke-width="0.671" stroke-miterlimit="10" d="M122.6,61.1c0-42.4,81.6-69.8,74.9-31.3"/>
	<path fill="none" stroke="#FFFFFF" stroke-width="0.671" stroke-miterlimit="10" d="M133.1,56.9c8-39.5,64.8-45.6,63.2-24.9"/>
	<path fill="none" stroke="#FFFFFF" stroke-width="0.671" stroke-miterlimit="10" d="M116.3,62.8c-19.6-27.6,61.9-75.1,82.4-48.4"/>
	<path fill="#6D6D6D" stroke="#FFFFFF" stroke-width="0.671" stroke-miterlimit="10" d="M110.6,33.1c0,1.2-6.3,2.2-14,2.2
		s-17.2,0.7-14-2.2c1-0.9,6.3-2.2,14-2.2S110.6,31.9,110.6,33.1z"/>
	<path fill="none" stroke="#FFFFFF" stroke-width="0.671" stroke-miterlimit="10" d="M44.2,56.1C-21.4,83.8-24.5,37.1-2.5,22.3"/>
</g>
<polygon fill="#FFF200" points="105.2,266.4 92,116.7 98.8,110.3 90.1,33.5 94,33.5 102.5,111.4 94.5,119.2 106.2,266.3 "/>
<path fill="#6D6D6D" stroke="#FFFFFF" stroke-width="0.671" stroke-miterlimit="10" d="M110.6,33.5c0,1.2-6.3,2.2-14,2.2
	s-17.2,0.7-14-2.2c1-0.9,6.3-2.2,14-2.2S110.6,32.3,110.6,33.5z"/>
<polygon fill="#FFF200" points="61,260.7 55.4,126.3 47.6,121.6 40.6,57.2 38.7,58.7 43.9,123.2 53.2,128.8 59.9,260.8 "/>
<path fill="none" stroke="#FFFFFF" stroke-width="0.671" stroke-miterlimit="10" d="M44.2,56.1C-21.4,83.8-24.5,37.2-2.5,22.3"/>
<polygon fill="#FFF200" points="242.3,262.9 243.8,115.1 250.6,109.4 248.9,30.8 253.5,32.3 253.9,110.8 245.9,117.7 243.2,262.9 
	"/>
<polygon fill="#FFF200" points="195.8,262.9 207.8,116.2 200.6,110 190.6,44.5 187.8,42.5 196.8,111.1 205.2,118.6 194.8,262.8 "/>
<path fill="none" stroke="#FFFFFF" stroke-width="0.671" stroke-miterlimit="10" d="M186,40.8c26.5,26.9,52.9-23.2,37-40.6"/>
<g>
	<g>
		<path fill="#FFFFFF" d="M220.1,123.6c-1.6,0-2.9,1-3.5,2.4l-6.7,2.4c-0.2-0.3-0.5-0.6-0.8-0.8v0c-0.3-0.5-0.5-1.1-0.8-1.6
			c0,0,0-0.1,0-0.1c0-0.1-0.1-0.1-0.1-0.1c-1.1-1.5-2.2-2.8-3.5-4.1c-5.5-6.1-14-10.3-25.8-12.8c0,0-0.1,0-0.1,0
			c-0.1,0-0.3-0.1-0.5-0.1c-0.1,0-0.2,0-0.3,0c-0.1,0-0.2,0-0.3-0.1c0,0,0,0,0,0c0,0,0,0,0,0c-2.4-0.5-7.9-1.5-10.7-1.8
			c-0.8-0.1-1.7-0.2-2.6-0.2c-19.1,0-61.9,22.6-84,39l-1.9-1.3c-2.1-1.5-4.9-1.9-7.4-1.1l-4,1.3c-0.3,0.1-0.5,0.3-0.6,0.6
			c-0.1,0.3-0.1,0.6,0.1,0.9l4.2,7.1c-0.4,0.4-0.8,0.7-1.1,1l-11.9,4.1c-0.8,0.2-1.3,0.9-1.2,1.7c0.1,0.8,0.7,1.4,1.5,1.4h9.7
			c-0.1,1.7-0.1,3.3,0,5l-0.1,0c0,0,0,0.1,0,0.1h0c0,0,0,0,0,0.1h0c0.2,3.1,0.8,6,1.7,8.7c0.1,0.2,0.2,0.4,0.2,0.6
			c0.2,0.6,0.5,1.2,0.8,1.8l0.1,0.1c2.7,5.7,7.2,9.6,12.5,11c0,0,0.1,0,0.1,0l0.5,4.6c0.1,0.5,0.5,0.9,1,0.9c0.1,0,0.2,0,0.3-0.1
			l4-1.4c1.8-0.6,3.4-1.8,4.4-3.4c0.1,0,0.1,0,0.2,0c0,0,0,0,0,0c3.1,0,7.3,0.1,11.9,0.2c1.4,0,2.9,0,4.4,0.1l0.1,3.8
			c0,1.8,1.4,3.2,3.1,3.4l22.2,2.1h0c5.8-0.2,10.8-3.8,10.7-7.9l0-0.9h1.2c3.2,0,5.6,0,7.3-0.1c22.3-0.7,40.9-9.3,51-23.7l0.1-0.1
			v-0.1c0.2-0.3,0.4-0.5,0.6-0.8c1.7-2.5,3.1-5.2,4.1-7.9c1.2-3,1.9-6.5,2.1-10.1c0-0.4,0.1-0.8,0.1-1.3c0.2-4-0.2-8.1-1.1-12
			c0,0,0,0,0,0c0.1-0.3,0.1-0.7,0.1-1.1l6.5-2.3c0.6,0.4,1.4,0.7,2.2,0.7c2.1,0,3.8-1.7,3.8-3.8
			C223.9,125.3,222.2,123.6,220.1,123.6z M68.2,166.6L68.2,166.6C68.2,166.6,68.2,166.6,68.2,166.6
			C68.2,166.5,68.2,166.5,68.2,166.6l-0.1-0.3v0l0-0.2c0,0,0,0,0,0c0,0,0,0,0,0c0,0,0,0,0,0v0C68.2,166.3,68.2,166.5,68.2,166.6
			l0,0.1c0,0.1,0,0.1,0,0.2C68.2,166.8,68.2,166.7,68.2,166.6z M71.1,153.6L71.1,153.6L71.1,153.6L71.1,153.6
			C71.2,153.5,71.1,153.6,71.1,153.6z M207.7,128.1C207.7,128.1,207.7,128.1,207.7,128.1C207.7,128.1,207.7,128.1,207.7,128.1
			C207.7,128.1,207.7,128.1,207.7,128.1z M208.6,131L208.6,131L208.6,131C208.5,131,208.5,131,208.6,131
			C208.5,130.9,208.5,130.9,208.6,131L208.6,131C208.6,130.9,208.6,130.9,208.6,131C208.6,131,208.6,131,208.6,131
			C208.6,131,208.6,131,208.6,131C208.6,131,208.6,131,208.6,131z M209,130.3C209,130.3,209,130.2,209,130.3c0-0.1,0-0.1,0-0.1
			C209,130.2,209,130.2,209,130.3C209,130.3,209,130.3,209,130.3z M209.2,130.1L209.2,130.1C209.2,130,209.2,130,209.2,130.1
			C209.2,130.1,209.2,130.1,209.2,130.1z M209.3,132.2C209.3,132.2,209.3,132.2,209.3,132.2L209.3,132.2L209.3,132.2z M209.4,130.6
			C209.4,130.6,209.4,130.6,209.4,130.6L209.4,130.6C209.4,130.6,209.4,130.6,209.4,130.6z M209.6,129.3c0-0.1-0.1-0.2-0.1-0.3
			C209.6,129.1,209.6,129.2,209.6,129.3L209.6,129.3z M218,130.2L218,130.2L218,130.2L218,130.2C218,130.1,218,130.1,218,130.2
			L218,130.2z M219.2,129.7C219.2,129.7,219.2,129.7,219.2,129.7L219.2,129.7L219.2,129.7z M219.2,129.7
			C219.2,129.7,219.2,129.7,219.2,129.7C219.3,129.7,219.3,129.7,219.2,129.7L219.2,129.7z"/>
		<path fill="#FFFFFF" d="M209.3,132.2L209.3,132.2C209.3,132.2,209.3,132.2,209.3,132.2L209.3,132.2z"/>
		<path fill="#FFFFFF" d="M209.1,130.3C209,130.3,209,130.3,209.1,130.3C209,130.3,209,130.2,209.1,130.3
			C209,130.2,209,130.2,209.1,130.3z"/>
		<path fill="#FFFFFF" d="M209.4,130.6C209.4,130.6,209.4,130.6,209.4,130.6C209.4,130.6,209.4,130.6,209.4,130.6L209.4,130.6z"/>
		<path fill="#FFFFFF" d="M208.6,131C208.6,131,208.6,131,208.6,131L208.6,131L208.6,131C208.5,131,208.5,131,208.6,131
			C208.5,130.9,208.5,130.9,208.6,131L208.6,131C208.6,130.9,208.6,130.9,208.6,131C208.6,131,208.6,131,208.6,131
			C208.6,131,208.6,131,208.6,131z"/>
		<path fill="#FFFFFF" d="M209.7,129.3L209.7,129.3c-0.1-0.1-0.1-0.2-0.1-0.3C209.6,129.1,209.6,129.2,209.7,129.3z"/>
		<path fill="#00AEEF" d="M208.6,131C208.6,131,208.6,131,208.6,131L208.6,131L208.6,131L208.6,131C208.6,131,208.6,131,208.6,131
			C208.6,131,208.6,131,208.6,131z M208.6,131C208.6,131,208.6,131,208.6,131L208.6,131L208.6,131L208.6,131
			C208.6,131,208.6,131,208.6,131C208.6,131,208.6,131,208.6,131z M208.6,131C208.6,131,208.6,131,208.6,131L208.6,131L208.6,131
			L208.6,131C208.6,131,208.6,131,208.6,131C208.6,131,208.6,131,208.6,131z M208.6,131C208.6,131,208.6,131,208.6,131
			C208.6,130.9,208.6,130.9,208.6,131L208.6,131C208.5,130.9,208.5,130.9,208.6,131C208.5,131,208.5,131,208.6,131L208.6,131
			L208.6,131C208.6,131,208.6,131,208.6,131C208.6,131,208.6,131,208.6,131z M207.7,128.1C207.7,128.1,207.7,128.1,207.7,128.1
			C207.7,128.1,207.7,128.1,207.7,128.1C207.7,128.1,207.7,128.1,207.7,128.1z M208.6,131C208.6,131,208.6,131,208.6,131L208.6,131
			L208.6,131L208.6,131C208.6,131,208.6,131,208.6,131C208.6,131,208.6,131,208.6,131z M208.6,131C208.6,131,208.6,131,208.6,131
			L208.6,131L208.6,131L208.6,131C208.6,131,208.6,131,208.6,131C208.6,131,208.6,131,208.6,131z M208.6,131
			C208.6,131,208.6,131,208.6,131L208.6,131L208.6,131L208.6,131C208.6,131,208.6,131,208.6,131C208.6,131,208.6,131,208.6,131z"/>
	</g>
	<path fill="#00AEEF" d="M209.3,132.2L209.3,132.2C209.3,132.2,209.3,132.2,209.3,132.2L209.3,132.2z"/>
	<path fill="#00AEEF" d="M209.4,130.6C209.4,130.6,209.4,130.6,209.4,130.6C209.4,130.6,209.4,130.6,209.4,130.6L209.4,130.6z"/>
	<g>
		<path fill="#FFFFFF" d="M209.1,130.3C209,130.3,209,130.3,209.1,130.3C209,130.3,209,130.2,209.1,130.3
			C209,130.2,209,130.2,209.1,130.3z"/>
		<path fill="#FFFFFF" d="M219.1,129.7L219.1,129.7C219.1,129.7,219.1,129.7,219.1,129.7L219.1,129.7z"/>
		<path fill="#FFFFFF" d="M219.2,129.7L219.2,129.7C219.2,129.7,219.2,129.7,219.2,129.7L219.2,129.7z"/>
		<path fill="#00AEEF" d="M209.4,130.6C209.4,130.6,209.4,130.6,209.4,130.6C209.4,130.6,209.4,130.6,209.4,130.6L209.4,130.6z
			 M209.5,129c0,0.1,0.1,0.2,0.1,0.3l0,0C209.6,129.2,209.6,129.1,209.5,129z M209,130.2C209,130.2,209,130.3,209,130.2
			C209,130.3,209,130.3,209,130.2C209,130.2,209,130.2,209,130.2z M209.3,132.2C209.3,132.2,209.3,132.2,209.3,132.2L209.3,132.2
			L209.3,132.2z M219.3,129.7C219.2,129.7,219.2,129.7,219.3,129.7L219.3,129.7C219.3,129.7,219.3,129.7,219.3,129.7z M219.1,129.7
			C219.2,129.7,219.2,129.7,219.1,129.7L219.1,129.7L219.1,129.7z M218,130.1L218,130.1L218,130.1L218,130.1L218,130.1
			C218,130.1,218,130.1,218,130.1z"/>
	</g>
	<g>
		<path fill="#FFFFFF" d="M219.2,129.7L219.2,129.7C219.2,129.7,219.2,129.7,219.2,129.7L219.2,129.7z"/>
	</g>
	<path fill="#00AEEF" d="M218.1,130.1L218.1,130.1L218.1,130.1L218.1,130.1L218.1,130.1C218,130.1,218,130.1,218.1,130.1z"/>
	<path fill="#00AEEF" d="M219.3,129.7L219.3,129.7C219.2,129.7,219.2,129.7,219.3,129.7C219.3,129.7,219.3,129.7,219.3,129.7z"/>
</g>
<path fill="#6D6D6D" stroke="#FFFFFF" stroke-width="0.671" stroke-miterlimit="10" d="M243.3,55.1c6.9-5.2,13.1-14.8,5.6-26.6"/>
<path fill="none" stroke="#FFFFFF" stroke-width="0.671" stroke-miterlimit="10" d="M251.3,31.5c29.7,12.8,42.1-17.9,27.3-31.3"/>
<g>
	<g>
		<path fill="#00AEEF" d="M177.7,108.6C177.7,108.6,177.8,108.6,177.7,108.6C177.8,108.7,177.8,108.7,177.7,108.6
			C177.8,108.7,177.8,108.7,177.7,108.6c0.3,0.1,0.5,0.1,0.7,0.1C178.2,108.7,178,108.7,177.7,108.6z"/>
		<path fill="#00AEEF" d="M220.1,123.6c-1.6,0-2.9,1-3.5,2.4l-6.7,2.4c-0.2-0.3-0.5-0.6-0.8-0.8v0c-0.3-0.5-0.5-1.1-0.8-1.6
			c0,0,0-0.1,0-0.1c0-0.1-0.1-0.1-0.1-0.1c-1.1-1.5-2.2-2.8-3.5-4.1c-5.5-6.1-14-10.3-25.8-12.8c0,0-0.1,0-0.1,0
			c-0.1,0-0.3-0.1-0.5-0.1c-0.2,0-0.4-0.1-0.6-0.1c0,0,0,0,0,0c0,0,0,0,0,0c-2.4-0.5-7.9-1.5-10.7-1.8c-0.8-0.1-1.7-0.2-2.6-0.2
			c-19.1,0-61.9,22.6-84,39l-1.9-1.3c-2.1-1.5-4.9-1.9-7.4-1.1l-4,1.3c-0.3,0.1-0.5,0.3-0.6,0.6c-0.1,0.3-0.1,0.6,0.1,0.9l4.2,7.1
			c-0.4,0.4-0.8,0.7-1.1,1l-11.9,4.1c-0.8,0.2-1.3,0.9-1.2,1.7c0.1,0.8,0.7,1.4,1.5,1.4h9.7c-0.1,1.7-0.1,3.3,0,5l-0.1,0
			c0,0,0,0.1,0,0.1h0c0,0,0,0,0,0.1h0c0.2,3.1,0.8,6,1.7,8.7c0.1,0.2,0.2,0.4,0.2,0.6c0.2,0.6,0.5,1.2,0.8,1.8l0.1,0.1
			c2.7,5.7,7.2,9.6,12.5,11c0,0,0.1,0,0.1,0l0.5,4.6c0.1,0.5,0.5,0.9,1,0.9c0.1,0,0.2,0,0.3-0.1l4-1.4c1.8-0.6,3.4-1.8,4.4-3.4
			c0.1,0,0.1,0,0.2,0c0,0,0,0,0,0c3.1,0,7.3,0.1,11.9,0.2c1.4,0,2.9,0,4.4,0.1l0.1,3.8c0,1.8,1.4,3.2,3.1,3.4l22.2,2.1h0
			c5.8-0.2,10.8-3.8,10.7-7.9l0-0.9h1.2c3.2,0,5.6,0,7.3-0.1c22.3-0.7,40.9-9.3,51-23.7l0.1-0.1v-0.1c0.2-0.3,0.4-0.5,0.6-0.8
			c1.7-2.5,3.1-5.2,4.1-7.9c1.2-3,1.9-6.5,2.1-10.1c0-0.4,0.1-0.8,0.1-1.3c0.2-4-0.2-8.1-1.1-12c0,0,0,0,0,0
			c0.1-0.3,0.1-0.7,0.1-1.1l6.5-2.3c0.6,0.4,1.4,0.7,2.2,0.7c2.1,0,3.8-1.7,3.8-3.8C223.9,125.4,222.2,123.6,220.1,123.6z
			 M208.3,128.6c0-0.2,0.1-0.3,0.1-0.4c0,0,0.1-0.1,0.1-0.1c0.1,0,0.2,0,0.3,0.1c0,0,0,0,0,0c0.1,0.1,0.2,0.2,0.3,0.3c0,0,0,0,0,0
			c0,0,0.1,0.1,0.2,0.2l0.1,0c0,0.1,0.1,0.1,0.1,0.2c0,0,0,0,0,0c0,0,0,0,0,0.1l0,0h0l0.2,0.3c0.1,0.2,0.3,0.4,0.4,0.7
			c0,0,0,0.1,0.1,0.1c0.1,0.2,0.2,0.5,0.3,0.7c0.1,0.2,0.1,0.4,0.2,0.6c0,0-0.1,0-0.1,0v0c0,0,0,0-0.1,0c0,0,0,0,0,0
			c-0.1-0.2-0.3-0.4-0.4-0.5c0,0,0,0,0,0c0,0,0-0.1-0.1-0.1c0,0,0,0,0,0c-0.1-0.1-0.1-0.2-0.2-0.2c-0.1-0.1-0.2-0.2-0.3-0.2h0
			c0,0,0-0.1,0-0.1c0,0,0,0,0,0c0-0.1,0-0.2,0-0.2c0-0.2,0-0.4,0-0.5c0,0,0,0,0,0c0-0.1-0.1,0.1-0.2,0.3c0,0.1,0,0.1,0,0.2
			c0-0.2-0.1-0.3-0.2-0.5c0,0.2,0,0.4,0,0.6c0,0,0,0.1,0,0.1c0,0,0,0.1,0.1,0.1c0,0,0,0,0,0c0,0,0,0,0-0.1c0,0,0,0,0-0.1l-0.1,0l0,0
			l0,0c0,0,0,0,0,0c-0.1-0.2-0.2-0.5-0.3-0.8c0,0.3,0,0.6,0,1c0,0,0,0.1,0,0.1c0,0,0,0,0,0c0,0,0,0.1,0,0.1c0,0,0,0,0,0
			c0,0,0,0.1,0,0.1c0,0,0,0,0,0s0,0,0,0v0c0,0,0,0,0,0.1c0,0,0,0,0,0c0,0,0,0.1,0,0.1c0,0,0,0,0,0v0c0,0,0,0.1,0,0.1c0,0,0,0,0,0v0
			c0,0.3,0.1,0.5,0.2,0.8v0c0,0.1,0.1,0.3,0.1,0.4c0-0.1-0.1-0.2-0.1-0.3c-0.1-0.2-0.2-0.3-0.2-0.5h0c0-0.1-0.1-0.1-0.1-0.2v0
			c0,0,0-0.1-0.1-0.1c0,0,0,0,0,0c0-0.1,0-0.1-0.1-0.2c0,0,0,0,0,0c0,0,0-0.1,0-0.1c0,0,0,0,0,0h0v0c0,0,0,0,0,0c0,0,0,0,0,0l0,0
			c-0.2-0.5-0.3-1-0.3-1.4c0,0,0,0,0,0C208.2,129.1,208.2,128.8,208.3,128.6z M209.4,130.6C209.4,130.7,209.4,130.7,209.4,130.6
			C209.4,130.7,209.4,130.7,209.4,130.6L209.4,130.6z M209.3,132.2L209.3,132.2C209.3,132.2,209.3,132.2,209.3,132.2L209.3,132.2z
			 M209.2,130.1C209.2,130.1,209.2,130.1,209.2,130.1L209.2,130.1C209.2,130.1,209.2,130.1,209.2,130.1z M207.5,128
			c0-0.1-0.1-0.2-0.1-0.3c0.1,0.2,0.2,0.3,0.2,0.4c0,0,0,0,0,0.1c0,0,0,0,0,0c0,0,0,0.1,0,0.1v0c0,0.2-0.1,0.3-0.1,0.5
			c0,0,0,0,0-0.1c-4.7-3.4-18.5-10.5-41.6-6.7c-20.8,3.4-50.3,16.3-71.5,26.6l3.4-1.8L86,149.5l-0.7,0.2l-0.7,0.1l-6,1.3
			c1.2-0.9,2.5-1.8,3.9-2.8c0.1-0.1,0.3-0.2,0.4-0.3c0.1-0.1,0.3-0.2,0.4-0.3c19.7-13.7,54.6-35.1,79.3-35.1c0.3,0,0.5,0,0.8,0
			C191.3,113.1,203.4,122.6,207.5,128z M71.5,153.3c0.1-0.1,0.3-0.2,0.4-0.3c0.3-0.2,0.6-0.5,1-0.8c1-0.8,2.4-1.8,4-3.1
			c1-0.8,2-1.6,3.2-2.5c0.1-0.1,0.3-0.2,0.4-0.3h0c0.1-0.1,0.3-0.2,0.4-0.3c22.1-16.4,64.6-38.8,83.5-38.8c0.9,0,1.8,0.1,2.5,0.2
			c3.3,0.4,9.3,1.7,13,2.4c3.7,1.7,17.8,7.8,21.8,11.5c-6.1-4.5-17.5-9-38.3-9.4c-25-0.5-60.8,21.5-80.7,35.4
			c-0.1,0.1-0.3,0.2-0.4,0.3c-0.1,0.1-0.3,0.2-0.4,0.3c-1.9,1.3-3.6,2.5-5.1,3.6h0l-4.8,1.7l-0.5,0.2l-0.4,0.1
			C71.3,153.5,71.4,153.4,71.5,153.3z M71.2,153.6C71.2,153.6,71.1,153.6,71.2,153.6L71.2,153.6l-0.1,0L71.2,153.6z M68.9,155.2
			L68.9,155.2c0.1-0.1,0.1-0.3,0.2-0.4v0l0,0l0.5-0.2v0l0.6-0.2l1.1-0.4l0.5-0.2l0.5-0.2l3.1-1.1l2-0.7l0,0l0.7-0.2l6.2-1.4l9.5-2.3
			l-7,2.1l0.2,0.1l-0.7,0.2l-1.2,0.3h0l-16.3,5c0-0.1,0.1-0.2,0.1-0.3l-0.4,0.1C68.8,155.4,68.8,155.3,68.9,155.2z M68.2,166.6
			L68.2,166.6C68.2,166.6,68.2,166.6,68.2,166.6C68.2,166.6,68.2,166.6,68.2,166.6l-0.1-0.3v0l0-0.2c0,0,0,0,0,0c0,0,0,0,0,0
			c0,0,0,0,0,0v0C68.2,166.4,68.2,166.5,68.2,166.6l0,0.1c0,0.1,0,0.1,0,0.2C68.2,166.8,68.2,166.8,68.2,166.6z M68.4,162.7
			L68.4,162.7c2.6-1.4,62.5-34.3,97.6-40c22.5-3.7,35.9,3.2,40.8,6.6l0.2,0.7c0,0,0,0,0,0.1c-5.5-0.5-14.9,0.4-33.7,4.4
			C161,137,75.2,164,68.5,166.1C68.4,165,68.4,163.9,68.4,162.7z M68.6,166.9C68.6,166.9,68.6,166.9,68.6,166.9c0-0.1,0-0.1,0-0.2
			c0,0,0-0.1,0-0.1v-0.1c0,0.1,0,0.1,0,0.2v0c5.7-1.7,92-28.2,104.3-31.4c8.4-2.1,27.5-4.8,34.2-4.6l0.1,0.7
			c-5.8,2.9-27,13.3-32.8,15c-12.3,3.8-101.1,22.7-105,23.6C69,169,68.8,168,68.6,166.9z M72.8,174.6c-0.9-1.1-1.9-2.2-3.1-3.5l0,0
			c0-0.1-0.1-0.3-0.1-0.5c4.6-1,92.8-19.8,105-23.6c5.8-1.8,26.6-12,32.7-15c0.1,1,0,2-0.1,3l-0.1,0.8c-2.5,4.5-9.1,11.8-26.8,21.4
			C162,167.1,89.1,173.5,73,174.8L72.8,174.6z M180.6,157.8c16.7-9,23.7-16.1,26.6-20.8c0.6-0.9,1-1.8,1.3-2.5v0.1
			c0,0.9,0,2.1-0.6,3l0,0.1c-3.7,20.5-39.9,34.3-74,40.7c-13.2,1.1-26.5,1.8-37.2,2.2c-0.1,0-0.1,0-0.2,0c-0.1,0-0.2,0-0.3,0
			c-0.1,0-0.2,0-0.3,0c-0.1,0-0.1,0-0.2,0c-3.3,0.1-6.4,0.2-9.1,0.3h0c-0.3,0-0.5,0-0.8,0h0c-0.5,0-0.9,0-1.3,0h0
			c-0.4,0-0.9,0-1.3,0h0c-0.2,0-0.4,0-0.5,0c-0.9,0-1.8,0-2.5,0l-0.5-0.3c-2.5-1.4-4.1-3.4-6-5.6C90.5,174,162.3,167.6,180.6,157.8z
			 M74.6,181.9C74.6,181.9,74.6,181.9,74.6,181.9c-0.2-0.3-0.4-0.4-0.5-0.6c0.4,0,2.2,0,5.2-0.1h0c0.4,0.2,0.7,0.4,1.1,0.6
			C77.6,181.9,75.5,181.9,74.6,181.9z M81.3,186.8c-0.4-0.2-0.9-0.4-1.3-0.6v-0.1c0.1,0,1.1,0.1,3,0.1l0.1,0.6
			C82.3,186.8,81.8,186.8,81.3,186.8z M83.7,182.6L83.7,182.6l-0.3-0.1l-0.2,0c0,0-0.1,0-0.1,0c-0.1,0-0.2-0.1-0.3-0.1h0
			c0,0,0,0-0.1,0c0,0-0.1,0-0.1,0c-0.5-0.2-0.9-0.3-1.4-0.5c0.4,0,0.9,0,1.3,0c0.1,0,0.1,0,0.2,0c0.1,0,0.2,0,0.3,0
			c0.1,0,0.2,0,0.3,0c0.2,0,0.4,0,0.5,0c0,0,0,0,0,0c3.2-0.1,7.1-0.2,11.4-0.4h0c0.1,0,0.1,0,0.2,0c0.1,0,0.2,0,0.3,0
			c0.1,0,0.2,0,0.3,0c0.1,0,0.1,0,0.2,0c9.6-0.4,21.2-1,33.1-1.9v0c-2.5,0.4-5.1,0.9-7.7,1.3c-11.2,1.7-19.7,2.6-26.1,2.8h-0.2
			c-0.1,0-0.1,0-0.2,0h-0.2l-0.3,0h-0.3C89.9,183.6,86.5,183.3,83.7,182.6z M114,194.5c-0.4,0-0.8-0.5-0.8-1.1
			c0-0.6,0.3-1.1,0.8-1.1c0.4,0,0.8,0.5,0.8,1.1C114.7,194,114.4,194.5,114,194.5z M119.3,194.5c-0.5,0-0.8-0.6-0.8-1.3
			c0-0.7,0.5-1.2,1-1.2c0.5,0,0.9,0.6,0.8,1.3C120.2,194,119.7,194.5,119.3,194.5z M126.3,195.5c-0.7,0-1.2-0.8-1.1-1.8
			c0.1-0.9,0.6-1.7,1.3-1.6c0.7,0,1.2,0.8,1.1,1.8C127.6,194.8,127,195.5,126.3,195.5z M133.4,196.3c-0.9-0.1-1.5-1.1-1.4-2.3
			c0.1-1.2,0.8-2.2,1.7-2.1c0.9,0.1,1.5,1.1,1.4,2.3C135,195.4,134.3,196.4,133.4,196.3z M187.7,177.5c-7.2,4.8-23.5,7.3-41.4,8.6
			c-0.1,0-0.2,0-0.3,0c-0.1,0-0.2,0-0.3,0c-0.3,0-0.6,0-1,0.1c0,0.1,0,0.2,0.1,0.3c0.1,0.5,0.2,1.3,0.2,2.3c0,0.1,0,0.2,0,0.3
			c0,0.1,0,0.2,0,0.3c0,0,0,0,0,0c0,0.1,0,0.2,0,0.3c0,0.1,0,0.2,0,0.3c-0.3,2.2-1.3,4.9-4.3,6.9c0,0,0,0-0.1,0h0
			c-0.2,0.1-0.4,0.3-0.6,0.4c0.1-0.1,0.2-0.1,0.3-0.3c0,0,0,0,0,0c0.7-0.5,2-1.5,2.6-2.2c1.3-1.6,1.7-3.3,1.8-4.8c0-0.1,0-0.2,0-0.3
			c0-0.1,0-0.2,0-0.3v0c0-0.1,0-0.2,0-0.3c0-0.1,0-0.2,0-0.3c-0.1-1-0.3-1.8-0.4-2.2c-0.1-0.2-0.1-0.3-0.1-0.3l0,0
			c-11.4,0.8-23.4,1-33.8,1c-0.1,0-0.2,0-0.3,0H109c-5.4,0-10.4-0.1-14.7-0.1l0.2-0.6c4.4,0.1,9.5,0.1,15.2,0.1h0.3v-0.1l16.2-0.4
			l17.2-0.4c0,0,0.1,0,0.1,0c0.9-0.1,1.9-0.1,2.8-0.2c17.7-1.3,33.9-3.7,41-8.5c24.3-16.3,23.8-34.7,22.2-42.4
			c0.3,6.9-1.8,21.9-23.2,34.4c-0.7,0.4-1.5,0.8-2.4,1.2c-0.2,0.1-0.5,0.2-0.7,0.3c-0.7,0.3-1.5,0.6-2.3,0.9
			c-0.4,0.1-0.9,0.3-1.3,0.4c-0.4,0.2-0.9,0.3-1.4,0.4c0,0,0,0,0,0c-2.9,0.9-6.2,1.7-9.8,2.4c-0.8,0.1-1.6,0.3-2.4,0.4
			c-9,1.7-19.5,3-30,4c-1.4,0.1-2.8,0.3-4.2,0.4c-0.5,0-0.9,0.1-1.4,0.1c0.2,0,0.5-0.1,0.7-0.1c0.1,0,0.2,0,0.3-0.1
			c0.2,0,0.5-0.1,0.8-0.2c-0.5,0-1,0.1-1.5,0.1c1.9-0.3,3.9-0.7,5.9-1.1c0.3-0.1,0.7-0.1,1-0.2c1-0.1,1.9-0.2,2.9-0.3
			c4.4-0.4,8.7-0.9,12.9-1.5c4.9-0.6,9.6-1.3,13.9-2.2c0.3-0.1,0.6-0.1,0.8-0.2c6.7-1.4,12.4-2.9,16-4.5c0.4-0.2,0.8-0.3,1.1-0.5
			c0.1,0,0.2-0.1,0.3-0.2c0.2-0.1,0.3-0.2,0.5-0.3c22.6-13.2,23.4-29.3,22.8-35.2c0.2,0.3,0.4,0.6,0.6,0.8c0,0,0.1,0,0.1,0.1l0,0
			c0.2,0.2,0.4,0.4,0.7,0.5c0,0,0,0,0,0C211.8,142.7,212,161.2,187.7,177.5z M211.2,131.1c0-0.2-0.1-0.4-0.2-0.6
			c-0.2-0.5-0.4-1.1-0.7-1.5l6.1-2.2c0,0.2-0.1,0.4-0.1,0.6c0,0.6,0.1,1.2,0.4,1.7C215.3,129.7,212.9,130.6,211.2,131.1z M218,130.2
			L218,130.2L218,130.2L218,130.2C218,130.2,218,130.2,218,130.2L218,130.2z M219.2,129.8C219.2,129.8,219.2,129.8,219.2,129.8
			L219.2,129.8L219.2,129.8z M219.5,129.6L219.5,129.6c-0.1,0-0.1,0-0.2,0c0,0,0,0.1,0,0.1c0,0,0,0,0,0l-0.1,0c0,0,0,0,0,0
			c0,0-0.1,0-0.1,0c-0.1,0-0.3,0-0.4,0h0c0,0-0.1,0-0.1-0.1l-0.1,0c0-0.1-0.1-0.1-0.1-0.2h0c-0.3-0.1-0.7-0.3-1-0.6
			c0,0-0.1-0.1-0.2-0.1c-0.2-0.4-0.3-0.8-0.3-1.3c0-0.3,0-0.6,0.1-0.9c0-0.1,0.1-0.3,0.1-0.4c0.1-0.2,0.2-0.3,0.3-0.5h0
			c0.6-0.9,1.5-1.5,2.6-1.5c0.8,0,1.5,0.3,2,0.8C222.4,126.4,222.1,129.7,219.5,129.6z"/>
		<path fill="#FFFFFF" d="M209.4,132.2L209.4,132.2C209.3,132.2,209.3,132.2,209.4,132.2L209.4,132.2z"/>
		<path fill="#FFFFFF" d="M209.1,130.3C209.1,130.3,209,130.3,209.1,130.3C209,130.3,209,130.3,209.1,130.3
			C209,130.3,209.1,130.3,209.1,130.3z"/>
		<path fill="#FFFFFF" d="M209.4,130.6C209.4,130.7,209.4,130.7,209.4,130.6C209.4,130.7,209.4,130.7,209.4,130.6L209.4,130.6z"/>
		<path fill="#FFFFFF" d="M210.6,131.4c0,0-0.1,0-0.1,0v0c0,0,0,0-0.1,0c0,0,0,0,0,0c-0.1-0.2-0.3-0.4-0.4-0.5c0,0,0,0,0,0
			c0,0,0-0.1-0.1-0.1c0,0,0,0,0,0c-0.1-0.1-0.1-0.1-0.2-0.2c-0.1-0.1-0.2-0.2-0.3-0.2h0c0,0,0,0,0-0.1c0,0,0,0,0,0
			c0-0.1,0-0.2,0-0.2c0-0.2,0-0.4,0-0.5c0,0,0,0,0,0c0-0.1-0.1,0.1-0.1,0.3c0,0.1,0,0.1,0,0.2c0-0.2-0.1-0.3-0.2-0.5
			c0,0.2,0,0.4,0,0.6c0,0,0,0.1,0,0.1l-0.1,0l0,0l0,0c0,0,0,0,0,0c-0.1-0.2-0.2-0.5-0.3-0.8c0,0.3,0,0.6,0.1,1c0,0,0,0.1,0,0.1
			c0,0,0,0,0,0c0,0,0,0.1,0,0.1c0,0,0,0,0,0c0,0,0,0.1,0,0.1c0,0,0,0,0,0s0,0,0,0v0c0,0,0,0,0,0.1c0,0,0,0,0,0c0,0,0,0.1,0,0.1
			c0,0,0,0,0,0v0c0,0,0,0.1,0,0.1c0,0,0,0,0,0v0c0,0.3,0.1,0.5,0.2,0.8v0c0,0.1,0.1,0.3,0.1,0.4c0-0.1-0.1-0.2-0.2-0.3
			c-0.1-0.2-0.2-0.3-0.2-0.5h0c0-0.1,0-0.1-0.1-0.2v0c0,0,0-0.1-0.1-0.1c0,0,0,0,0,0c0-0.1,0-0.1-0.1-0.2c0,0,0,0,0,0
			c0,0,0-0.1,0-0.1c0,0,0,0,0,0h0v0c0,0,0,0,0,0c0,0,0,0,0,0l0,0c-0.2-0.5-0.3-1-0.3-1.4c0,0,0,0,0-0.1c0-0.4,0-0.7,0-0.9
			c0-0.2,0.1-0.3,0.1-0.4c0,0,0.1-0.1,0.1-0.1c0.1,0,0.1,0,0.3,0.1c0,0,0,0,0,0c0.1,0.1,0.2,0.2,0.3,0.3c0,0,0,0,0,0
			c0,0,0.1,0.1,0.2,0.2l0.1,0c0,0.1,0.1,0.1,0.1,0.2c0,0,0,0,0,0c0,0,0,0,0,0.1l0,0h0l0.2,0.3c0.1,0.2,0.3,0.4,0.4,0.7
			c0,0,0,0.1,0.1,0.1c0.1,0.2,0.2,0.5,0.3,0.7C210.4,131,210.5,131.2,210.6,131.4z"/>
		<path fill="#00AEEF" d="M208.6,131C208.6,131,208.6,131,208.6,131L208.6,131L208.6,131L208.6,131C208.6,131,208.6,131,208.6,131
			C208.6,131,208.6,131,208.6,131z M208.6,131C208.6,131,208.6,131,208.6,131L208.6,131L208.6,131L208.6,131
			C208.6,131,208.6,131,208.6,131C208.6,131,208.6,131,208.6,131z M208.6,131C208.6,131,208.6,131,208.6,131L208.6,131L208.6,131
			L208.6,131C208.6,131,208.6,131,208.6,131C208.6,131,208.6,131,208.6,131z M207.7,128.1C207.7,128.1,207.7,128.1,207.7,128.1
			C207.7,128.2,207.7,128.2,207.7,128.1C207.7,128.2,207.7,128.2,207.7,128.1z M208.6,131C208.6,131,208.6,131,208.6,131
			C208.6,131,208.6,131,208.6,131L208.6,131C208.5,131,208.5,131,208.6,131C208.6,131,208.6,131,208.6,131L208.6,131L208.6,131
			C208.6,131,208.6,131,208.6,131C208.6,131,208.6,131,208.6,131z M208.6,131C208.6,131,208.6,131,208.6,131L208.6,131L208.6,131
			L208.6,131C208.6,131,208.6,131,208.6,131C208.6,131,208.6,131,208.6,131z M208.6,131C208.6,131,208.6,131,208.6,131L208.6,131
			L208.6,131L208.6,131C208.6,131,208.6,131,208.6,131C208.6,131,208.6,131,208.6,131z M208.6,131C208.6,131,208.6,131,208.6,131
			L208.6,131L208.6,131L208.6,131C208.6,131,208.6,131,208.6,131C208.6,131,208.6,131,208.6,131z"/>
	</g>
	<path fill="#00AEEF" d="M209.4,132.2L209.4,132.2C209.3,132.2,209.3,132.2,209.4,132.2L209.4,132.2z"/>
	<path fill="#00AEEF" d="M209.4,130.6C209.4,130.7,209.4,130.7,209.4,130.6C209.4,130.7,209.4,130.7,209.4,130.6L209.4,130.6z"/>
	<g>
		<path fill="#FFFFFF" d="M209.1,130.3C209.1,130.3,209,130.3,209.1,130.3C209,130.3,209,130.3,209.1,130.3
			C209,130.3,209.1,130.3,209.1,130.3z"/>
		<path fill="#FFFFFF" d="M219.1,129.8L219.1,129.8C219.1,129.8,219.1,129.8,219.1,129.8L219.1,129.8z"/>
		<path fill="#FFFFFF" d="M219.2,129.8L219.2,129.8C219.2,129.8,219.2,129.8,219.2,129.8L219.2,129.8z"/>
		<path fill="#00AEEF" d="M218.1,130.2L218.1,130.2L218.1,130.2L218.1,130.2L218.1,130.2C218.1,130.2,218.1,130.2,218.1,130.2z
			 M219.1,129.8C219.2,129.8,219.2,129.8,219.1,129.8L219.1,129.8L219.1,129.8z M219.3,129.7C219.2,129.7,219.2,129.7,219.3,129.7
			L219.3,129.7C219.3,129.7,219.3,129.7,219.3,129.7z M209.3,132.2C209.3,132.2,209.3,132.2,209.3,132.2L209.3,132.2L209.3,132.2z
			 M209,130.3C209,130.3,209,130.3,209,130.3C209,130.3,209.1,130.3,209,130.3C209.1,130.3,209,130.3,209,130.3z M209.5,129
			c0,0.1,0.1,0.2,0.1,0.3l0,0C209.6,129.2,209.6,129.1,209.5,129z M209.4,130.7C209.4,130.7,209.4,130.7,209.4,130.7
			C209.4,130.7,209.4,130.7,209.4,130.7L209.4,130.7z"/>
	</g>
	<g>
		<path fill="#FFFFFF" d="M219.2,129.8L219.2,129.8C219.2,129.8,219.2,129.8,219.2,129.8L219.2,129.8z"/>
	</g>
	<path fill="#00AEEF" d="M218.1,130.2L218.1,130.2L218.1,130.2L218.1,130.2L218.1,130.2C218.1,130.2,218.1,130.2,218.1,130.2z"/>
	<path fill="#00AEEF" d="M219.3,129.7L219.3,129.7C219.2,129.7,219.2,129.7,219.3,129.7C219.3,129.7,219.3,129.7,219.3,129.7z"/>
</g>
<path fill="#6D6D6D" stroke="#FFFFFF" stroke-width="0.671" stroke-miterlimit="10" d="M305.6,24.6c-6.9,2.2-8.1,2-18.5-1.2
	c-1.1-0.3-7.9-2.4-12.4-17c-0.6-2.1,1.7-17.5,5.4-21"/>
<path fill="none" stroke="#FFFFFF" stroke-width="0.671" stroke-miterlimit="10" d="M289.9-28c-41.9,47.5,12.7,65.9,24.4,45.7"/>
<path fill="none" stroke="#FFFFFF" stroke-width="0.671" stroke-miterlimit="10" d="M279-12.7c0.4,36.5,23.7,20.8,23.7,20.7"/>
<path fill="none" stroke="#FFFFFF" stroke-width="0.671" stroke-miterlimit="10" d="M286.9-24.5c-1.3,20.6,9.4,26.6,13.7,24.3"/>
<path fill="none" stroke="#FFFFFF" stroke-width="0.671" stroke-miterlimit="10" d="M306.9,13.5c-10.3,11.4-20.5,11.9-30.8-0.9"/>
</svg>
